<?xml version="1.0" encoding="UTF-8"?>
<svg width="698px" height="154px" viewBox="0 0 698 154" version="1.1" xmlns="http://www.w3.org/2000/svg" xmlns:xlink="http://www.w3.org/1999/xlink">
    <!-- Generator: Sketch 51.3 (57544) - http://www.bohemiancoding.com/sketch -->
    <title>Group 2</title>
    <desc>Created with Sketch.</desc>
    <defs>
        <linearGradient x1="50%" y1="-2.48949813e-15%" x2="50%" y2="100%" id="linearGradient-1">
            <stop stop-color="#FFFFFF" offset="0%"></stop>
            <stop stop-color="#B9F4FB" offset="100%"></stop>
        </linearGradient>
        <path d="M12.9797398,51.4862454 C23.6866171,45.2107807 34.747026,38.7468401 45.5224907,32.5472119 C57.4628253,25.6773234 60.4399628,17.2717472 51.8637546,6.19460967 C54.6540892,0.0808550186 63.7288104,-1.56245353 69.7343866,2.09163569 C75.7399628,5.74572491 78.8802524,13.8740372 78.5412189,20.4048923 C78.0588769,29.6859331 75.1998504,37.3949015 64.9979554,44.6682156 C43.4531599,60.9083643 21.883829,77.1144981 0.279925651,93.2765799 C0.279925651,86.6905204 0.259851301,80.1050186 0.223048327,73.5184015 C-0.0596654275,63.2503717 4.23457249,56.6118959 12.9797398,51.4862454 Z" id="path-2"></path>
        <linearGradient x1="50%" y1="100%" x2="50%" y2="3.061617e-15%" id="linearGradient-4">
            <stop stop-color="#FFFFFF" offset="0%"></stop>
            <stop stop-color="#B9F4FB" offset="100%"></stop>
        </linearGradient>
        <path d="M12.9797398,51.4862454 C23.6866171,45.2107807 34.747026,38.7468401 45.5224907,32.5472119 C57.4628253,25.6773234 60.4399628,17.2717472 51.8637546,6.19460967 C54.6540892,0.0808550186 63.7288104,-1.56245353 69.7343866,2.09163569 C75.7399628,5.74572491 78.8802524,13.8740372 78.5412189,20.4048923 C78.0588769,29.6859331 75.1998504,37.3949015 64.9979554,44.6682156 C43.4531599,60.9083643 21.883829,77.1144981 0.279925651,93.2765799 C0.279925651,86.6905204 0.259851301,80.1050186 0.223048327,73.5184015 C-0.0596654275,63.2503717 4.23457249,56.6118959 12.9797398,51.4862454 Z" id="path-5"></path>
    </defs>
    <g id="Page-1" stroke="none" stroke-width="1" fill="none" fill-rule="evenodd">
        <g id="smart-oncology-logo" transform="translate(-650.000000, -2613.000000)">
            <g id="Group-2" transform="translate(650.000000, 2613.000000)">
                <g id="Group">
                    <g id="Group-34" transform="translate(0.000000, 60.319703)">
                        <mask id="mask-3" fill="white">
                            <use xlink:href="#path-2"></use>
                        </mask>
                        <use id="Clip-33" fill="url(#linearGradient-1)" xlink:href="#path-2"></use>
                    </g>
                    <g id="Group-34" transform="translate(47.500000, 47.000000) scale(-1, -1) translate(-47.500000, -47.000000) translate(8.000000, 0.000000)">
                        <mask id="mask-6" fill="white">
                            <use xlink:href="#path-5"></use>
                        </mask>
                        <use id="Clip-33" fill="url(#linearGradient-4)" xlink:href="#path-5"></use>
                    </g>
                </g>
                <g id="Group-16" transform="translate(113.000000, 35.000000)">
                    <path d="M42.64,14.8 L32.72,17.84 C32.16,14.72 29.6,9.84 22.4,9.84 C17.04,9.84 13.52,13.28 13.52,17.04 C13.52,20.16 15.52,22.64 19.68,23.44 L27.6,24.96 C37.92,26.96 43.44,33.68 43.44,41.68 C43.44,50.4 36.16,59.2 22.96,59.2 C7.92,59.2 1.28,49.52 0.4,41.44 L10.64,38.72 C11.12,44.32 15.04,49.36 23.04,49.36 C28.96,49.36 32.24,46.4 32.24,42.4 C32.24,39.12 29.76,36.56 25.36,35.68 L17.44,34.08 C8.4,32.24 2.56,26.4 2.56,17.84 C2.56,7.76 11.6,0.08 22.32,0.08 C36.08,0.08 41.36,8.4 42.64,14.8 Z M62.44,58 L51.8,58 L51.8,18.64 L61.96,18.64 L61.96,23.44 C64.12,19.6 69.16,17.52 73.48,17.52 C78.84,17.52 83.16,19.84 85.16,24.08 C88.28,19.28 92.44,17.52 97.64,17.52 C104.92,17.52 111.88,21.92 111.88,32.48 L111.88,58 L101.56,58 L101.56,34.64 C101.56,30.4 99.48,27.2 94.6,27.2 C90.04,27.2 87.32,30.72 87.32,34.96 L87.32,58 L76.76,58 L76.76,34.64 C76.76,30.4 74.6,27.2 69.8,27.2 C65.16,27.2 62.44,30.64 62.44,34.96 L62.44,58 Z M121.28,47.28 C121.28,40.24 126.48,36.32 133.04,35.36 L142.72,33.92 C144.96,33.6 145.68,32.48 145.68,31.12 C145.68,28.32 143.52,26 139.04,26 C134.4,26 131.84,28.96 131.52,32.4 L122.08,30.4 C122.72,24.24 128.4,17.44 138.96,17.44 C151.44,17.44 156.08,24.48 156.08,32.4 L156.08,51.76 C156.08,53.84 156.32,56.64 156.56,58 L146.8,58 C146.56,56.96 146.4,54.8 146.4,53.28 C144.4,56.4 140.64,59.12 134.8,59.12 C126.4,59.12 121.28,53.44 121.28,47.28 Z M137.04,51.2 C141.52,51.2 145.68,49.04 145.68,42.08 L145.68,40.32 L136.8,41.68 C134.08,42.08 131.92,43.6 131.92,46.64 C131.92,48.96 133.6,51.2 137.04,51.2 Z M191.8,18.48 L191.8,29.2 C190.6,28.96 189.56,28.88 188.6,28.88 C183.16,28.88 178.44,31.52 178.44,40 L178.44,58 L167.8,58 L167.8,18.64 L178.12,18.64 L178.12,24.48 C180.52,19.28 185.96,18.32 189.32,18.32 C190.2,18.32 191,18.4 191.8,18.48 Z M214.96,6.88 L214.96,18.64 L222.88,18.64 L222.88,28.08 L214.96,28.08 L214.96,44.56 C214.96,48 216.56,49.12 219.6,49.12 C220.88,49.12 222.32,48.96 222.88,48.8 L222.88,57.6 C221.92,58 220,58.56 216.88,58.56 C209.2,58.56 204.4,54 204.4,46.4 L204.4,28.08 L197.28,28.08 L197.28,18.64 L199.28,18.64 C203.44,18.64 205.36,15.92 205.36,12.4 L205.36,6.88 L214.96,6.88 Z" id="Smart" fill="#FFFFFF"></path>
                    <path d="M239.6,29.6 C239.6,44.4 249.52,52 260.08,52 C270.64,52 280.56,44.4 280.56,29.6 C280.56,14.8 270.64,7.28 260.08,7.28 C249.52,7.28 239.6,14.8 239.6,29.6 Z M231.6,29.6 C231.6,10.64 245.84,0.08 260.08,0.08 C274.32,0.08 288.56,10.64 288.56,29.6 C288.56,48.56 274.32,59.2 260.08,59.2 C245.84,59.2 231.6,48.56 231.6,29.6 Z M307.08,35.76 L307.08,58 L299.56,58 L299.56,19.52 L306.92,19.52 L306.92,25.04 C309.72,20.24 314.28,18.4 318.76,18.4 C327.96,18.4 332.52,25.04 332.52,33.6 L332.52,58 L325,58 L325,34.88 C325,29.52 322.76,25.2 316.04,25.2 C310.12,25.2 307.08,29.92 307.08,35.76 Z M361.68,25.28 C355.6,25.28 350,29.76 350,38.72 C350,47.52 355.52,52.24 361.76,52.24 C368.96,52.24 371.6,47.36 372.48,44.32 L379.12,47.2 C377.28,52.72 371.76,59.2 361.76,59.2 C350.56,59.2 342.32,50.4 342.32,38.72 C342.32,26.72 350.72,18.32 361.68,18.32 C371.92,18.32 377.2,24.72 378.8,30.56 L372,33.44 C371.04,29.68 368.24,25.28 361.68,25.28 Z M405,52.48 C411.4,52.48 417,47.68 417,38.72 C417,29.84 411.4,25.04 405,25.04 C398.6,25.04 393,29.84 393,38.72 C393,47.68 398.6,52.48 405,52.48 Z M405,18.32 C416.52,18.32 424.68,27.04 424.68,38.72 C424.68,50.48 416.52,59.2 405,59.2 C393.48,59.2 385.32,50.48 385.32,38.72 C385.32,27.04 393.48,18.32 405,18.32 Z M442.8,58 L435.28,58 L435.28,0.08 L442.8,0.08 L442.8,58 Z M473.08,52.48 C479.48,52.48 485.08,47.68 485.08,38.72 C485.08,29.84 479.48,25.04 473.08,25.04 C466.68,25.04 461.08,29.84 461.08,38.72 C461.08,47.68 466.68,52.48 473.08,52.48 Z M473.08,18.32 C484.6,18.32 492.76,27.04 492.76,38.72 C492.76,50.48 484.6,59.2 473.08,59.2 C461.56,59.2 453.4,50.48 453.4,38.72 C453.4,27.04 461.56,18.32 473.08,18.32 Z M500.56,60.08 L507.84,58.4 C508.4,63.76 512.48,67.84 518.32,67.84 C526.4,67.84 530.08,63.68 530.08,55.36 L530.08,49.84 C528.24,53.36 524.08,56.16 518.32,56.16 C508.08,56.16 500.64,48.4 500.64,37.52 C500.64,27.12 507.76,18.8 518.32,18.8 C524.24,18.8 528.24,21.04 530.16,24.88 L530.16,19.52 L537.6,19.52 L537.6,55.12 C537.6,64.88 532.8,74.4 518.32,74.4 C508.72,74.4 501.52,68.32 500.56,60.08 Z M519.44,49.84 C525.92,49.84 530.4,44.96 530.4,37.52 C530.4,30.08 525.92,25.2 519.44,25.2 C512.8,25.2 508.32,30.08 508.32,37.52 C508.32,45.04 512.64,49.84 519.44,49.84 Z M559.8,74.08 L551.56,74.08 L561.16,53.76 L544.6,19.52 L553.24,19.52 L565.24,46.08 L576.76,19.52 L584.84,19.52 L559.8,74.08 Z" id="Oncology" fill="#D0F8FD"></path>
                </g>
            </g>
        </g>
    </g>
</svg>