<?xml version="1.0" encoding="UTF-8"?>
<svg width="698px" height="154px" viewBox="0 0 698 154" version="1.1" xmlns="http://www.w3.org/2000/svg" xmlns:xlink="http://www.w3.org/1999/xlink">
    <!-- Generator: Sketch 51.3 (57544) - http://www.bohemiancoding.com/sketch -->
    <title>Group 2</title>
    <desc>Created with Sketch.</desc>
    <defs>
        <linearGradient x1="50%" y1="0%" x2="50%" y2="100%" id="linearGradient-1">
            <stop stop-color="#3BC7D1" offset="0%"></stop>
            <stop stop-color="#0F7C8A" offset="100%"></stop>
        </linearGradient>
        <path d="M12.9797398,51.4862454 C23.6866171,45.2107807 34.747026,38.7468401 45.5224907,32.5472119 C57.4628253,25.6773234 60.4399628,17.2717472 51.8637546,6.19460967 C54.6540892,0.0808550186 63.7288104,-1.56245353 69.7343866,2.09163569 C75.7399628,5.74572491 78.8802524,13.8740372 78.5412189,20.4048923 C78.0588769,29.6859331 75.1998504,37.3949015 64.9979554,44.6682156 C43.4531599,60.9083643 21.883829,77.1144981 0.279925651,93.2765799 C0.279925651,86.6905204 0.259851301,80.1050186 0.223048327,73.5184015 C-0.0596654275,63.2503717 4.23457249,56.6118959 12.9797398,51.4862454 Z" id="path-2"></path>
        <linearGradient x1="50%" y1="100%" x2="50%" y2="3.061617e-15%" id="linearGradient-4">
            <stop stop-color="#3BC7D1" offset="0%"></stop>
            <stop stop-color="#1C94A3" offset="100%"></stop>
        </linearGradient>
        <path d="M12.9797398,51.4862454 C23.6866171,45.2107807 34.747026,38.7468401 45.5224907,32.5472119 C57.4628253,25.6773234 60.4399628,17.2717472 51.8637546,6.19460967 C54.6540892,0.0808550186 63.7288104,-1.56245353 69.7343866,2.09163569 C75.7399628,5.74572491 78.8802524,13.8740372 78.5412189,20.4048923 C78.0588769,29.6859331 75.1998504,37.3949015 64.9979554,44.6682156 C43.4531599,60.9083643 21.883829,77.1144981 0.279925651,93.2765799 C0.279925651,86.6905204 0.259851301,80.1050186 0.223048327,73.5184015 C-0.0596654275,63.2503717 4.23457249,56.6118959 12.9797398,51.4862454 Z" id="path-5"></path>
    </defs>
    <g id="Page-1" stroke="none" stroke-width="1" fill="none" fill-rule="evenodd">
        <g id="smart-oncology-logo" transform="translate(-650.000000, -466.000000)">
            <g id="Group-2" transform="translate(650.000000, 466.000000)">
                <g id="Group">
                    <g id="Group-34" transform="translate(0.000000, 60.319703)">
                        <mask id="mask-3" fill="white">
                            <use xlink:href="#path-2"></use>
                        </mask>
                        <use id="Clip-33" fill="url(#linearGradient-1)" xlink:href="#path-2"></use>
                    </g>
                    <g id="Group-34" transform="translate(47.500000, 47.000000) scale(-1, -1) translate(-47.500000, -47.000000) translate(8.000000, 0.000000)">
                        <mask id="mask-6" fill="white">
                            <use xlink:href="#path-5"></use>
                        </mask>
                        <use id="Clip-33" fill="url(#linearGradient-4)" xlink:href="#path-5"></use>
                    </g>
                </g>
                <g id="Group-16" transform="translate(113.000000, 13.000000)">
                    <path d="M42.64,36.8 L32.72,39.84 C32.16,36.72 29.6,31.84 22.4,31.84 C17.04,31.84 13.52,35.28 13.52,39.04 C13.52,42.16 15.52,44.64 19.68,45.44 L27.6,46.96 C37.92,48.96 43.44,55.68 43.44,63.68 C43.44,72.4 36.16,81.2 22.96,81.2 C7.92,81.2 1.28,71.52 0.4,63.44 L10.64,60.72 C11.12,66.32 15.04,71.36 23.04,71.36 C28.96,71.36 32.24,68.4 32.24,64.4 C32.24,61.12 29.76,58.56 25.36,57.68 L17.44,56.08 C8.4,54.24 2.56,48.4 2.56,39.84 C2.56,29.76 11.6,22.08 22.32,22.08 C36.08,22.08 41.36,30.4 42.64,36.8 Z M62.44,80 L51.8,80 L51.8,40.64 L61.96,40.64 L61.96,45.44 C64.12,41.6 69.16,39.52 73.48,39.52 C78.84,39.52 83.16,41.84 85.16,46.08 C88.28,41.28 92.44,39.52 97.64,39.52 C104.92,39.52 111.88,43.92 111.88,54.48 L111.88,80 L101.56,80 L101.56,56.64 C101.56,52.4 99.48,49.2 94.6,49.2 C90.04,49.2 87.32,52.72 87.32,56.96 L87.32,80 L76.76,80 L76.76,56.64 C76.76,52.4 74.6,49.2 69.8,49.2 C65.16,49.2 62.44,52.64 62.44,56.96 L62.44,80 Z M121.28,69.28 C121.28,62.24 126.48,58.32 133.04,57.36 L142.72,55.92 C144.96,55.6 145.68,54.48 145.68,53.12 C145.68,50.32 143.52,48 139.04,48 C134.4,48 131.84,50.96 131.52,54.4 L122.08,52.4 C122.72,46.24 128.4,39.44 138.96,39.44 C151.44,39.44 156.08,46.48 156.08,54.4 L156.08,73.76 C156.08,75.84 156.32,78.64 156.56,80 L146.8,80 C146.56,78.96 146.4,76.8 146.4,75.28 C144.4,78.4 140.64,81.12 134.8,81.12 C126.4,81.12 121.28,75.44 121.28,69.28 Z M137.04,73.2 C141.52,73.2 145.68,71.04 145.68,64.08 L145.68,62.32 L136.8,63.68 C134.08,64.08 131.92,65.6 131.92,68.64 C131.92,70.96 133.6,73.2 137.04,73.2 Z M191.8,40.48 L191.8,51.2 C190.6,50.96 189.56,50.88 188.6,50.88 C183.16,50.88 178.44,53.52 178.44,62 L178.44,80 L167.8,80 L167.8,40.64 L178.12,40.64 L178.12,46.48 C180.52,41.28 185.96,40.32 189.32,40.32 C190.2,40.32 191,40.4 191.8,40.48 Z M214.96,28.88 L214.96,40.64 L222.88,40.64 L222.88,50.08 L214.96,50.08 L214.96,66.56 C214.96,70 216.56,71.12 219.6,71.12 C220.88,71.12 222.32,70.96 222.88,70.8 L222.88,79.6 C221.92,80 220,80.56 216.88,80.56 C209.2,80.56 204.4,76 204.4,68.4 L204.4,50.08 L197.28,50.08 L197.28,40.64 L199.28,40.64 C203.44,40.64 205.36,37.92 205.36,34.4 L205.36,28.88 L214.96,28.88 Z" id="Smart" fill="#0F7C8A"></path>
                    <path d="M239.6,51.6 C239.6,66.4 249.52,74 260.08,74 C270.64,74 280.56,66.4 280.56,51.6 C280.56,36.8 270.64,29.28 260.08,29.28 C249.52,29.28 239.6,36.8 239.6,51.6 Z M231.6,51.6 C231.6,32.64 245.84,22.08 260.08,22.08 C274.32,22.08 288.56,32.64 288.56,51.6 C288.56,70.56 274.32,81.2 260.08,81.2 C245.84,81.2 231.6,70.56 231.6,51.6 Z M307.08,57.76 L307.08,80 L299.56,80 L299.56,41.52 L306.92,41.52 L306.92,47.04 C309.72,42.24 314.28,40.4 318.76,40.4 C327.96,40.4 332.52,47.04 332.52,55.6 L332.52,80 L325,80 L325,56.88 C325,51.52 322.76,47.2 316.04,47.2 C310.12,47.2 307.08,51.92 307.08,57.76 Z M361.68,47.28 C355.6,47.28 350,51.76 350,60.72 C350,69.52 355.52,74.24 361.76,74.24 C368.96,74.24 371.6,69.36 372.48,66.32 L379.12,69.2 C377.28,74.72 371.76,81.2 361.76,81.2 C350.56,81.2 342.32,72.4 342.32,60.72 C342.32,48.72 350.72,40.32 361.68,40.32 C371.92,40.32 377.2,46.72 378.8,52.56 L372,55.44 C371.04,51.68 368.24,47.28 361.68,47.28 Z M405,74.48 C411.4,74.48 417,69.68 417,60.72 C417,51.84 411.4,47.04 405,47.04 C398.6,47.04 393,51.84 393,60.72 C393,69.68 398.6,74.48 405,74.48 Z M405,40.32 C416.52,40.32 424.68,49.04 424.68,60.72 C424.68,72.48 416.52,81.2 405,81.2 C393.48,81.2 385.32,72.48 385.32,60.72 C385.32,49.04 393.48,40.32 405,40.32 Z M442.8,80 L435.28,80 L435.28,22.08 L442.8,22.08 L442.8,80 Z M473.08,74.48 C479.48,74.48 485.08,69.68 485.08,60.72 C485.08,51.84 479.48,47.04 473.08,47.04 C466.68,47.04 461.08,51.84 461.08,60.72 C461.08,69.68 466.68,74.48 473.08,74.48 Z M473.08,40.32 C484.6,40.32 492.76,49.04 492.76,60.72 C492.76,72.48 484.6,81.2 473.08,81.2 C461.56,81.2 453.4,72.48 453.4,60.72 C453.4,49.04 461.56,40.32 473.08,40.32 Z M500.56,82.08 L507.84,80.4 C508.4,85.76 512.48,89.84 518.32,89.84 C526.4,89.84 530.08,85.68 530.08,77.36 L530.08,71.84 C528.24,75.36 524.08,78.16 518.32,78.16 C508.08,78.16 500.64,70.4 500.64,59.52 C500.64,49.12 507.76,40.8 518.32,40.8 C524.24,40.8 528.24,43.04 530.16,46.88 L530.16,41.52 L537.6,41.52 L537.6,77.12 C537.6,86.88 532.8,96.4 518.32,96.4 C508.72,96.4 501.52,90.32 500.56,82.08 Z M519.44,71.84 C525.92,71.84 530.4,66.96 530.4,59.52 C530.4,52.08 525.92,47.2 519.44,47.2 C512.8,47.2 508.32,52.08 508.32,59.52 C508.32,67.04 512.64,71.84 519.44,71.84 Z M559.8,96.08 L551.56,96.08 L561.16,75.76 L544.6,41.52 L553.24,41.52 L565.24,68.08 L576.76,41.52 L584.84,41.52 L559.8,96.08 Z" id="Oncology" fill="#12AABE"></path>
                </g>
            </g>
        </g>
    </g>
</svg>