<?xml version="1.0" encoding="UTF-8"?>
<svg width="10px" height="10px" viewBox="0 0 10 10" version="1.1" xmlns="http://www.w3.org/2000/svg" xmlns:xlink="http://www.w3.org/1999/xlink">
    <!-- Generator: Sketch 51.3 (57544) - http://www.bohemiancoding.com/sketch -->
    <title>noun_Folder_1594035</title>
    <desc>Created with Sketch.</desc>
    <defs></defs>
    <g id="Page-1" stroke="none" stroke-width="1" fill="none" fill-rule="evenodd">
        <g id="SwissOpenOncology-landing-page-01a" transform="translate(-800.000000, -635.000000)" fill="#D5322B">
            <g id="noun_Folder_1594035" transform="translate(800.000000, 635.000000)">
                <g id="Group-2">
                    <path d="M3.83333333,0 C3.559165,0 3.33333333,0.225831667 3.33333333,0.5 L3.33333333,3.16664833 C3.33333333,3.26067 3.26068833,3.333315 3.16666667,3.333315 L0.5,3.33333333 C0.225831667,3.333335 0,3.559165 0,3.83333333 L0,6.16666667 C0,6.440835 0.225831667,6.66666833 0.5,6.66666667 L3.16666667,6.66664833 C3.26068833,6.66664833 3.33333333,6.73929333 3.33333333,6.833315 L3.33333333,9.5 C3.33333333,9.77416833 3.559165,10 3.83333333,10 L6.16666667,10 C6.440835,10 6.66666667,9.77416833 6.66666667,9.5 L6.66666667,6.833315 C6.66666667,6.73929333 6.73931167,6.66664833 6.83333333,6.66664833 L9.5,6.66666667 C9.77416833,6.66666833 10,6.440835 10,6.16666667 L10,3.83333333 C10,3.559165 9.77416833,3.333335 9.5,3.33333333 L6.83333333,3.333315 C6.73931167,3.333315 6.66666667,3.26067 6.66666667,3.16664833 L6.66666667,0.5 C6.66666667,0.225831667 6.440835,0 6.16666667,0 L3.83333333,0 Z" id="Shape"></path>
                </g>
            </g>
        </g>
    </g>
</svg>