<?xml version="1.0" encoding="UTF-8"?>
<svg width="19px" height="19px" viewBox="0 0 19 19" version="1.1" xmlns="http://www.w3.org/2000/svg" xmlns:xlink="http://www.w3.org/1999/xlink">
    <!-- Generator: Sketch 51.3 (57544) - http://www.bohemiancoding.com/sketch -->
    <title>keys</title>
    <desc>Created with Sketch.</desc>
    <defs></defs>
    <g id="Page-1" stroke="none" stroke-width="1" fill="none" fill-rule="evenodd">
        <g id="eReports-d&amp;d-icons" transform="translate(-1583.000000, -779.000000)" fill="#000000" fill-rule="nonzero">
            <g id="keys" transform="translate(1583.000000, 779.000000)">
                <path d="M18.6041667,9.10416667 C18.8258333,9.10416667 19,9.27833333 19,9.5 C19,9.72166667 18.8258333,9.89583333 18.6041667,9.89583333 L18.2083333,9.89583333 L18.2083333,9.10416667 L18.6041667,9.10416667 Z" id="Shape"></path>
                <polygon id="Shape" points="9.89583333 9.10416667 18.2083333 9.10416667 18.2083333 9.89583333 9.89583333 9.89583333"></polygon>
                <path d="M17.0208333,19 L9.5,19 C9.72166667,19 9.89583333,18.8258333 9.89583333,18.6041667 L9.89583333,18.2083333 L17.0208333,18.2083333 C17.6779167,18.2083333 18.2083333,17.6779167 18.2083333,17.0208333 L18.2083333,9.89583333 L18.6041667,9.89583333 C18.8258333,9.89583333 19,9.72166667 19,9.5 L19,17.0208333 C19,18.1133333 18.1133333,19 17.0208333,19 Z" id="Shape"></path>
                <path d="M19,1.97916667 L19,9.5 C19,9.27833333 18.8258333,9.10416667 18.6041667,9.10416667 L18.2083333,9.10416667 L18.2083333,1.97916667 C18.2083333,1.32208333 17.6779167,0.791666667 17.0208333,0.791666667 L9.89583333,0.791666667 L9.89583333,0.395833333 C9.89583333,0.174166667 9.72166667,0 9.5,0 L17.0208333,0 C18.1133333,0 19,0.886666667 19,1.97916667 Z" id="Shape"></path>
                <path d="M15.8333333,4.75 C16.055,4.75 16.2291667,4.92416667 16.2291667,5.14583333 C16.2291667,5.3675 16.055,5.54166667 15.8333333,5.54166667 L12.6666667,5.54166667 C12.445,5.54166667 12.2708333,5.3675 12.2708333,5.14583333 C12.2708333,4.92416667 12.445,4.75 12.6666667,4.75 L15.8333333,4.75 Z" id="Shape"></path>
                <path d="M15.8333333,12.6666667 C16.055,12.6666667 16.2291667,12.8408333 16.2291667,13.0625 C16.2291667,13.2841667 16.055,13.4583333 15.8333333,13.4583333 L12.6666667,13.4583333 C12.445,13.4583333 12.2708333,13.2841667 12.2708333,13.0625 C12.2708333,12.8408333 12.445,12.6666667 12.6666667,12.6666667 L15.8333333,12.6666667 Z" id="Shape"></path>
                <path d="M15.8333333,15.0416667 C16.055,15.0416667 16.2291667,15.2158333 16.2291667,15.4375 C16.2291667,15.6591667 16.055,15.8333333 15.8333333,15.8333333 L12.6666667,15.8333333 C12.445,15.8333333 12.2708333,15.6591667 12.2708333,15.4375 C12.2708333,15.2158333 12.445,15.0416667 12.6666667,15.0416667 L15.8333333,15.0416667 Z" id="Shape"></path>
                <path d="M9.89583333,18.2083333 L9.89583333,18.6041667 C9.89583333,18.8258333 9.72166667,19 9.5,19 C9.27833333,19 9.10416667,18.8258333 9.10416667,18.6041667 L9.10416667,18.2083333 L9.89583333,18.2083333 Z" id="Shape"></path>
                <polygon id="Shape" points="9.10416667 9.89583333 9.89583333 9.89583333 9.89583333 18.2083333 9.10416667 18.2083333"></polygon>
                <polygon id="Shape" points="9.10416667 9.10416667 9.89583333 9.10416667 9.89583333 9.89583333 9.10416667 9.89583333"></polygon>
                <polygon id="Shape" points="9.10416667 0.791666667 9.89583333 0.791666667 9.89583333 9.10416667 9.10416667 9.10416667"></polygon>
                <path d="M9.89583333,0.395833333 L9.89583333,0.791666667 L9.10416667,0.791666667 L9.10416667,0.395833333 C9.10416667,0.174166667 9.27833333,0 9.5,0 C9.72166667,0 9.89583333,0.174166667 9.89583333,0.395833333 Z" id="Shape"></path>
                <polygon id="Shape" points="0.791666667 9.10416667 9.10416667 9.10416667 9.10416667 9.89583333 0.791666667 9.89583333"></polygon>
                <path d="M6.33333333,4.75 C6.555,4.75 6.72916667,4.92416667 6.72916667,5.14583333 C6.72916667,5.3675 6.555,5.54166667 6.33333333,5.54166667 L5.14583333,5.54166667 L5.14583333,4.75 L6.33333333,4.75 Z" id="Shape"></path>
                <path d="M6.21458333,15.1604167 C6.37291667,15.3108333 6.37291667,15.5641667 6.21458333,15.7145833 C6.14333333,15.79375 6.04041667,15.8333333 5.9375,15.8333333 C5.83458333,15.8333333 5.73166667,15.79375 5.66041667,15.7145833 L4.75,14.8041667 L5.30416667,14.25 L6.21458333,15.1604167 Z" id="Shape"></path>
                <path d="M5.66041667,12.7854167 C5.81083333,12.6270833 6.06416667,12.6270833 6.21458333,12.7854167 C6.37291667,12.9358333 6.37291667,13.1891667 6.21458333,13.3395833 L5.30416667,14.25 L4.75,13.6958333 L5.66041667,12.7854167 Z" id="Shape"></path>
                <polygon id="Shape" transform="translate(4.753222, 14.249208) rotate(-45.000000) translate(-4.753222, -14.249208) " points="4.35744853 13.8534348 5.14108017 13.8534348 5.14108017 14.6370664 4.35744853 14.6370664"></polygon>
                <path d="M5.14583333,5.54166667 L5.14583333,6.72916667 C5.14583333,6.95083333 4.97166667,7.125 4.75,7.125 C4.52833333,7.125 4.35416667,6.95083333 4.35416667,6.72916667 L4.35416667,5.54166667 L5.14583333,5.54166667 Z" id="Shape"></path>
                <polygon id="Shape" points="4.35416667 4.75 5.14583333 4.75 5.14583333 5.54166667 4.35416667 5.54166667"></polygon>
                <path d="M5.14583333,3.5625 L5.14583333,4.75 L4.35416667,4.75 L4.35416667,3.5625 C4.35416667,3.34083333 4.52833333,3.16666667 4.75,3.16666667 C4.97166667,3.16666667 5.14583333,3.34083333 5.14583333,3.5625 Z" id="Shape"></path>
                <path d="M4.75,13.6958333 L4.19583333,14.25 L3.28541667,13.3395833 C3.12708333,13.1891667 3.12708333,12.9358333 3.28541667,12.7854167 C3.43583333,12.6270833 3.68916667,12.6270833 3.83958333,12.7854167 L4.75,13.6958333 Z" id="Shape"></path>
                <path d="M4.35416667,4.75 L4.35416667,5.54166667 L3.16666667,5.54166667 C2.945,5.54166667 2.77083333,5.3675 2.77083333,5.14583333 C2.77083333,4.92416667 2.945,4.75 3.16666667,4.75 L4.35416667,4.75 Z" id="Shape"></path>
                <path d="M3.83958333,15.7145833 C3.76833333,15.79375 3.66541667,15.8333333 3.5625,15.8333333 C3.45958333,15.8333333 3.35666667,15.79375 3.28541667,15.7145833 C3.12708333,15.5641667 3.12708333,15.3108333 3.28541667,15.1604167 L4.19583333,14.25 L4.75,14.8041667 L3.83958333,15.7145833 Z" id="Shape"></path>
                <path d="M0.791666667,9.10416667 L0.791666667,9.89583333 L0.395833333,9.89583333 C0.174166667,9.89583333 0,9.72166667 0,9.5 C0,9.27833333 0.174166667,9.10416667 0.395833333,9.10416667 L0.791666667,9.10416667 Z" id="Shape"></path>
                <path d="M0,1.97916667 C0,0.886666667 0.886666667,0 1.97916667,0 L9.5,0 C9.27833333,0 9.10416667,0.174166667 9.10416667,0.395833333 L9.10416667,0.791666667 L1.97916667,0.791666667 C1.32208333,0.791666667 0.791666667,1.32208333 0.791666667,1.97916667 L0.791666667,9.10416667 L0.395833333,9.10416667 C0.174166667,9.10416667 0,9.27833333 0,9.5 L0,1.97916667 Z" id="Shape"></path>
                <path d="M0.791666667,17.0208333 C0.791666667,17.6779167 1.32208333,18.2083333 1.97916667,18.2083333 L9.10416667,18.2083333 L9.10416667,18.6041667 C9.10416667,18.8258333 9.27833333,19 9.5,19 L1.97916667,19 C0.886666667,19 0,18.1133333 0,17.0208333 L0,9.5 C0,9.72166667 0.174166667,9.89583333 0.395833333,9.89583333 L0.791666667,9.89583333 L0.791666667,17.0208333 Z" id="Shape"></path>
            </g>
        </g>
    </g>
</svg>