<?xml version="1.0" encoding="UTF-8"?>
<svg width="19px" height="19px" viewBox="0 0 19 19" version="1.1" xmlns="http://www.w3.org/2000/svg" xmlns:xlink="http://www.w3.org/1999/xlink">
    <!-- Generator: Sketch 51.3 (57544) - http://www.bohemiancoding.com/sketch -->
    <title>squares</title>
    <desc>Created with Sketch.</desc>
    <defs></defs>
    <g id="Page-1" stroke="none" stroke-width="1" fill="none" fill-rule="evenodd">
        <g id="eReports-d&amp;d-icons" transform="translate(-1583.000000, -229.000000)" fill="#000000" fill-rule="nonzero">
            <g id="squares" transform="translate(1583.000000, 229.000000)">
                <path d="M18.6028678,0 L3.05371864,0 C2.84033898,0 2.66727797,0.173061017 2.66727797,0.386440678 L2.66727797,1.50698983 C2.66727797,1.72036949 2.84033898,1.89343051 3.05371864,1.89343051 C3.26709831,1.89343051 3.44015932,1.72036949 3.44015932,1.50698983 L3.44015932,0.772881356 L18.2164271,0.772881356 L18.2164271,15.5491492 L17.4823186,15.5491492 C17.268939,15.5491492 17.095878,15.7222102 17.095878,15.9355898 C17.095878,16.1489695 17.268939,16.3220305 17.4823186,16.3220305 L18.6028678,16.3220305 C18.8162475,16.3220305 18.9893085,16.1489695 18.9893085,15.9355898 L18.9893085,0.386440678 C18.9893085,0.173061017 18.8162475,0 18.6028678,0 Z" id="Shape"></path>
                <path d="M15.9355898,2.66727797 L0.386440678,2.66727797 C0.173061017,2.66727797 0,2.84033898 0,3.05371864 L0,18.6028678 C0,18.8162475 0.173061017,18.9893085 0.386440678,18.9893085 L15.9355898,18.9893085 C16.1489695,18.9893085 16.3220305,18.8162475 16.3220305,18.6028678 L16.3220305,3.05371864 C16.3220305,2.84033898 16.1489695,2.66727797 15.9355898,2.66727797 Z M15.5491492,18.2164271 L0.772881356,18.2164271 L0.772881356,3.44015932 L15.5491492,3.44015932 L15.5491492,18.2164271 Z" id="Shape"></path>
            </g>
        </g>
    </g>
</svg>