<?xml version="1.0" encoding="UTF-8"?>
<svg width="19px" height="20px" viewBox="0 0 19 20" version="1.1" xmlns="http://www.w3.org/2000/svg" xmlns:xlink="http://www.w3.org/1999/xlink">
    <!-- Generator: Sketch 51.3 (57544) - http://www.bohemiancoding.com/sketch -->
    <title>Group 40</title>
    <desc>Created with Sketch.</desc>
    <defs></defs>
    <g id="Page-1" stroke="none" stroke-width="1" fill="none" fill-rule="evenodd">
        <g id="eReports-d&amp;d-icons" transform="translate(-1582.000000, -878.000000)" fill="#000000" fill-rule="nonzero">
            <g id="Group-40" transform="translate(1582.000000, 878.000000)">
                <g id="text-format" transform="translate(0.000000, 0.500000)">
                    <path d="M16.625,19 L2.375,19 C1.0659,19 0,17.9341 0,16.625 L0,2.375 C0,1.0659 1.0659,0 2.375,0 L16.625,0 C17.9341,0 19,1.0659 19,2.375 L19,16.625 C19,17.9341 17.9341,19 16.625,19 Z M2.375,0.95 C1.58935,0.95 0.95,1.58935 0.95,2.375 L0.95,16.625 C0.95,17.41065 1.58935,18.05 2.375,18.05 L16.625,18.05 C17.41065,18.05 18.05,17.41065 18.05,16.625 L18.05,2.375 C18.05,1.58935 17.41065,0.95 16.625,0.95 L2.375,0.95 Z" id="Shape"></path>
                </g>
                <g id="check-(14)" transform="translate(4.000000, 6.000000)">
                    <path d="M4.21210732,8.82661674 C4.10710546,8.93790713 3.9638463,9 3.81503366,9 C3.66622101,9 3.52296185,8.93790713 3.41795999,8.82661674 L0.246821242,5.48465437 C-0.0822737472,5.13788785 -0.0822737472,4.57558427 0.246821242,4.22946795 L0.643894907,3.81096409 C0.973092758,3.46419756 1.50612378,3.46419756 1.83521877,3.81096409 L3.81503366,5.89719818 L9.16478123,0.260074892 C9.49397906,-0.0866916307 10.0275243,-0.0866916307 10.3561051,0.260074892 L10.7531788,0.678578753 C11.0822737,1.02534528 11.0822737,1.58754047 10.7531788,1.93376518 L4.21210732,8.82661674 Z" id="Shape"></path>
                </g>
            </g>
        </g>
    </g>
</svg>