<?xml version="1.0" encoding="UTF-8"?>
<svg width="19px" height="19px" viewBox="0 0 19 19" version="1.1" xmlns="http://www.w3.org/2000/svg" xmlns:xlink="http://www.w3.org/1999/xlink">
    <!-- Generator: Sketch 51.3 (57544) - http://www.bohemiancoding.com/sketch -->
    <title>Group 38</title>
    <desc>Created with Sketch.</desc>
    <defs></defs>
    <g id="Page-1" stroke="none" stroke-width="1" fill="none" fill-rule="evenodd">
        <g id="eReports-d&amp;d-icons" transform="translate(-1583.000000, -629.000000)" fill="#000000" fill-rule="nonzero">
            <g id="Group-38" transform="translate(1583.000000, 629.000000)">
                <g id="agenda">
                    <path d="M17.0208333,19 L1.97916667,19 C0.88825,19 0,18.11175 0,17.0208333 L0,3.5625 C0,2.47158333 0.88825,1.58333333 1.97916667,1.58333333 L17.0208333,1.58333333 C18.11175,1.58333333 19,2.47158333 19,3.5625 L19,17.0208333 C19,18.11175 18.11175,19 17.0208333,19 Z M1.97916667,2.375 C1.32445833,2.375 0.791666667,2.90779167 0.791666667,3.5625 L0.791666667,17.0208333 C0.791666667,17.6755417 1.32445833,18.2083333 1.97916667,18.2083333 L17.0208333,18.2083333 C17.6755417,18.2083333 18.2083333,17.6755417 18.2083333,17.0208333 L18.2083333,3.5625 C18.2083333,2.90779167 17.6755417,2.375 17.0208333,2.375 L1.97916667,2.375 Z" id="Shape"></path>
                    <path d="M18.6041667,7.125 L0.395833333,7.125 C0.177333333,7.125 0,6.94766667 0,6.72916667 C0,6.51066667 0.177333333,6.33333333 0.395833333,6.33333333 L18.6041667,6.33333333 C18.8226667,6.33333333 19,6.51066667 19,6.72916667 C19,6.94766667 18.8226667,7.125 18.6041667,7.125 Z" id="Shape"></path>
                    <path d="M4.35416667,3.95833333 C4.13566667,3.95833333 3.95833333,3.781 3.95833333,3.5625 L3.95833333,0.395833333 C3.95833333,0.177333333 4.13566667,0 4.35416667,0 C4.57266667,0 4.75,0.177333333 4.75,0.395833333 L4.75,3.5625 C4.75,3.781 4.57266667,3.95833333 4.35416667,3.95833333 Z" id="Shape"></path>
                    <path d="M14.6458333,3.95833333 C14.4273333,3.95833333 14.25,3.781 14.25,3.5625 L14.25,0.395833333 C14.25,0.177333333 14.4273333,0 14.6458333,0 C14.8643333,0 15.0416667,0.177333333 15.0416667,0.395833333 L15.0416667,3.5625 C15.0416667,3.781 14.8643333,3.95833333 14.6458333,3.95833333 Z" id="Shape"></path>
                </g>
                <g id="clock-(12)" transform="translate(9.000000, 9.000000)">
                    <path d="M3.86154811,5.247633 L0.999944938,3.54542079 L0.999944938,0.545462047 C0.999944938,0.24382126 0.776457497,0 0.499972469,0 C0.223487442,0 0,0.24382126 0,0.545462047 L0,3.81817932 C0,3.98998748 0.0739999595,4.15200319 0.199988988,4.25454896 L3.26155593,6.12039978 C3.35154089,6.19403578 3.45655276,6.22949219 3.56103516,6.22949219 C3.71352298,6.22949219 3.86351472,6.15475591 3.96151739,6.01075723 C4.12754456,5.77018179 4.08253947,5.42818836 3.86154811,5.247633 Z" id="Shape"></path>
                </g>
            </g>
        </g>
    </g>
</svg>