<?xml version="1.0" encoding="UTF-8"?>
<svg width="19px" height="19px" viewBox="0 0 19 19" version="1.1" xmlns="http://www.w3.org/2000/svg" xmlns:xlink="http://www.w3.org/1999/xlink">
    <!-- Generator: Sketch 51.3 (57544) - http://www.bohemiancoding.com/sketch -->
    <title>Group 37</title>
    <desc>Created with Sketch.</desc>
    <defs></defs>
    <g id="Page-1" stroke="none" stroke-width="1" fill="none" fill-rule="evenodd">
        <g id="eReports-d&amp;d-icons" transform="translate(-1583.000000, -577.000000)" fill="#000000">
            <g id="Group-31" transform="translate(1571.000000, 568.000000)">
                <g id="Group-22">
                    <g id="Group-37" transform="translate(12.000000, 9.000000)">
                        <g id="agenda" fill-rule="nonzero">
                            <path d="M17.0208333,19 L1.97916667,19 C0.88825,19 0,18.11175 0,17.0208333 L0,3.5625 C0,2.47158333 0.88825,1.58333333 1.97916667,1.58333333 L17.0208333,1.58333333 C18.11175,1.58333333 19,2.47158333 19,3.5625 L19,17.0208333 C19,18.11175 18.11175,19 17.0208333,19 Z M1.97916667,2.375 C1.32445833,2.375 0.791666667,2.90779167 0.791666667,3.5625 L0.791666667,17.0208333 C0.791666667,17.6755417 1.32445833,18.2083333 1.97916667,18.2083333 L17.0208333,18.2083333 C17.6755417,18.2083333 18.2083333,17.6755417 18.2083333,17.0208333 L18.2083333,3.5625 C18.2083333,2.90779167 17.6755417,2.375 17.0208333,2.375 L1.97916667,2.375 Z" id="Shape"></path>
                            <path d="M18.6041667,7.125 L0.395833333,7.125 C0.177333333,7.125 0,6.94766667 0,6.72916667 C0,6.51066667 0.177333333,6.33333333 0.395833333,6.33333333 L18.6041667,6.33333333 C18.8226667,6.33333333 19,6.51066667 19,6.72916667 C19,6.94766667 18.8226667,7.125 18.6041667,7.125 Z" id="Shape"></path>
                            <path d="M4.35416667,3.95833333 C4.13566667,3.95833333 3.95833333,3.781 3.95833333,3.5625 L3.95833333,0.395833333 C3.95833333,0.177333333 4.13566667,0 4.35416667,0 C4.57266667,0 4.75,0.177333333 4.75,0.395833333 L4.75,3.5625 C4.75,3.781 4.57266667,3.95833333 4.35416667,3.95833333 Z" id="Shape"></path>
                            <path d="M14.6458333,3.95833333 C14.4273333,3.95833333 14.25,3.781 14.25,3.5625 L14.25,0.395833333 C14.25,0.177333333 14.4273333,0 14.6458333,0 C14.8643333,0 15.0416667,0.177333333 15.0416667,0.395833333 L15.0416667,3.5625 C15.0416667,3.781 14.8643333,3.95833333 14.6458333,3.95833333 Z" id="Shape"></path>
                        </g>
                        <path d="M5.16,15.16 C4.7399979,14.5466636 4.53,13.6533392 4.53,12.48 C4.53,11.2999941 4.7399979,10.4033364 5.16,9.79 C5.5800021,9.1766636 6.1933293,8.87 7,8.87 C7.8066707,8.87 8.4199979,9.17499695 8.84,9.785 C9.2600021,10.395003 9.47,11.2899941 9.47,12.47 C9.47,13.6500059 9.2600021,14.5466636 8.84,15.16 C8.4199979,15.7733364 7.8066707,16.08 7,16.08 C6.1933293,16.08 5.5800021,15.7733364 5.16,15.16 Z M8.24,14.68 C8.506668,14.2066643 8.64,13.470005 8.64,12.47 C8.64,11.4633283 8.50833465,10.7283356 8.245,10.265 C7.98166535,9.80166435 7.5666695,9.57 7,9.57 C6.4399972,9.57 6.026668,9.803331 5.76,10.27 C5.493332,10.736669 5.36,11.469995 5.36,12.47 C5.36,13.470005 5.493332,14.2066643 5.76,14.68 C6.026668,15.1533357 6.4399972,15.39 7,15.39 C7.5600028,15.39 7.973332,15.1533357 8.24,14.68 Z M13.67,15.31 L15.22,15.31 L15.22,16 L11.3,16 L11.3,15.31 L12.85,15.31 L12.85,9.97 L11.61,10.75 L11.23,10.12 L13.08,8.95 L13.67,8.95 L13.67,15.31 Z" id="01"></path>
                    </g>
                </g>
            </g>
        </g>
    </g>
</svg>