<?xml version="1.0" encoding="UTF-8"?>
<svg width="19px" height="20px" viewBox="0 0 19 20" version="1.1" xmlns="http://www.w3.org/2000/svg" xmlns:xlink="http://www.w3.org/1999/xlink">
    <!-- Generator: Sketch 51.3 (57544) - http://www.bohemiancoding.com/sketch -->
    <title>@</title>
    <desc>Created with Sketch.</desc>
    <defs></defs>
    <g id="Page-1" stroke="none" stroke-width="1" fill="none" fill-rule="evenodd">
        <g id="eReports-d&amp;d-icons" transform="translate(-1583.000000, -679.000000)" fill="#000000">
            <path d="M1587.47691,697.340517 C1586.04156,696.535505 1584.93658,695.403948 1584.16195,693.945813 C1583.38731,692.487677 1583,690.794139 1583,688.865148 C1583,686.920967 1583.41389,685.200849 1584.24169,683.704741 C1585.06948,682.208634 1586.20484,681.050497 1587.64778,680.230296 C1589.09073,679.410094 1590.70073,679 1592.47783,679 C1594.40682,679 1596.051,679.410094 1597.41041,680.230296 C1598.76981,681.050497 1599.79125,682.098516 1600.47475,683.374384 C1601.15825,684.650253 1601.5,685.956479 1601.5,687.293103 C1601.5,688.87275 1601.26837,690.141005 1600.80511,691.097906 C1600.34185,692.054808 1599.76848,692.730704 1599.08498,693.125616 C1598.40147,693.520527 1597.7028,693.71798 1596.98892,693.71798 C1596.16872,693.71798 1595.54218,693.539513 1595.1093,693.182574 C1594.67641,692.825635 1594.45238,692.305422 1594.43719,691.621921 L1594.39163,691.621921 C1594.02709,692.259855 1593.53726,692.768676 1592.92211,693.148399 C1592.30696,693.528122 1591.62726,693.71798 1590.883,693.71798 C1589.95648,693.71798 1589.18566,693.380032 1588.5705,692.704126 C1587.95535,692.028219 1587.64778,691.059941 1587.64778,689.799261 C1587.64778,688.781604 1587.84524,687.817123 1588.24015,686.905788 C1588.63506,685.994454 1589.20084,685.254005 1589.9375,684.684421 C1590.67416,684.114837 1591.52093,683.830049 1592.47783,683.830049 C1593.25247,683.830049 1593.92457,684.027502 1594.49415,684.422414 C1595.06373,684.817325 1595.40928,685.303363 1595.53079,685.880542 L1595.55357,685.880542 L1595.82697,684.149015 L1596.78387,684.149015 L1595.6447,690.756158 C1595.59914,691.029558 1595.57635,691.272577 1595.57635,691.485222 C1595.57635,692.016834 1595.70926,692.381362 1595.97506,692.578818 C1596.24087,692.776274 1596.63957,692.875 1597.17118,692.875 C1597.68761,692.875 1598.20022,692.692736 1598.70905,692.328202 C1599.21788,691.963668 1599.65076,691.363715 1600.0077,690.528325 C1600.36464,689.692935 1600.5431,688.614539 1600.5431,687.293103 C1600.5431,686.138746 1600.24692,684.999595 1599.65456,683.875616 C1599.06219,682.751636 1598.15846,681.82133 1596.94335,681.084667 C1595.72824,680.348005 1594.23975,679.97968 1592.47783,679.97968 C1590.86781,679.97968 1589.41729,680.344208 1588.12623,681.073276 C1586.83517,681.802344 1585.81753,682.838971 1585.07328,684.18319 C1584.32902,685.527408 1583.9569,687.088045 1583.9569,688.865148 C1583.9569,690.627061 1584.29864,692.161118 1584.98214,693.467365 C1585.66564,694.773611 1586.64911,695.783658 1587.93257,696.497537 C1589.21604,697.211416 1590.7387,697.56835 1592.50062,697.56835 C1593.86762,697.56835 1595.05993,697.359505 1596.07759,696.94181 C1597.09524,696.524115 1597.88505,695.935554 1598.44704,695.176108 L1599.74569,695.176108 C1599.07738,696.239332 1598.1129,697.067115 1596.85222,697.659483 C1595.59154,698.25185 1594.14102,698.54803 1592.50062,698.54803 C1590.58681,698.54803 1588.91226,698.145529 1587.47691,697.340517 Z M1593.25246,692.123153 C1593.87521,691.621919 1594.34985,690.965008 1594.67642,690.152401 C1595.00298,689.339795 1595.16626,688.493026 1595.16626,687.612069 C1595.16626,686.670357 1594.92703,685.948894 1594.44858,685.44766 C1593.97013,684.946426 1593.32841,684.695813 1592.5234,684.695813 C1591.71839,684.695813 1591.01591,684.935035 1590.41595,685.413485 C1589.81599,685.891936 1589.35273,686.514672 1589.02617,687.281712 C1588.69961,688.048752 1588.53633,688.849955 1588.53633,689.685345 C1588.53633,690.73338 1588.77935,691.526988 1589.26539,692.066195 C1589.75144,692.605401 1590.35139,692.875 1591.06527,692.875 C1591.90066,692.875 1592.62972,692.624387 1593.25246,692.123153 Z" id="@"></path>
        </g>
    </g>
</svg>