<?xml version="1.0" encoding="UTF-8"?>
<svg width="17px" height="20px" viewBox="0 0 17 20" version="1.1" xmlns="http://www.w3.org/2000/svg" xmlns:xlink="http://www.w3.org/1999/xlink">
    <!-- Generator: Sketch 51.3 (57544) - http://www.bohemiancoding.com/sketch -->
    <title>file (3)</title>
    <desc>Created with Sketch.</desc>
    <defs></defs>
    <g id="Page-1" stroke="none" stroke-width="1" fill="none" fill-rule="evenodd">
        <g id="eReports-d&amp;d-icons" transform="translate(-1584.000000, -978.000000)" fill="#000000" fill-rule="nonzero">
            <g id="file-(3)" transform="translate(1584.000000, 978.000000)">
                <path d="M16.0285219,2.65058076 L14.3285141,2.65058076 L14.3285141,0.963865305 C14.3285534,0.43371009 13.8913568,0 13.3573116,0 L0.971399326,0 C0.437117886,0 0,0.43371009 0,0.963865305 L0,16.3855149 C0,16.915631 0.437117886,17.3493802 0.971438695,17.3493802 L2.67144657,17.3493802 L2.67144657,19.0361347 C2.67144657,19.5662508 3.10836761,20 3.64288526,20 L11.8997795,20 C12.4338248,20 13.1895982,19.7026568 13.5784098,19.3395325 L16.2920997,16.8050844 C16.6813839,16.4419601 16.9995276,15.7108678 16.9995276,15.1807516 L17,3.61452419 C16.9999606,3.08432991 16.5628034,2.65058076 16.0285219,2.65058076 Z M2.67136783,3.61448513 L2.67136783,16.626491 L0.971399326,16.626491 C0.839787591,16.626491 0.728569179,16.5161396 0.728569179,16.3855539 L0.728569179,0.963865305 C0.728569179,0.833279623 0.839787591,0.722928276 0.971399326,0.722928276 L13.357351,0.722928276 C13.4887265,0.722928276 13.6001811,0.833279623 13.6001811,0.963865305 L13.6001811,2.65061982 L3.64280653,2.65061982 C3.10828887,2.65061982 2.67136783,3.08432991 2.67136783,3.61448513 Z M15.7927389,16.2787573 L13.079049,18.8130101 C13.0234595,18.864846 12.9510593,18.9156662 12.8711395,18.9640645 L12.8711395,16.7469595 C12.8711395,16.5814129 12.9384217,16.4324679 13.0494039,16.3216478 C13.1613703,16.2115308 13.3114463,16.1445778 13.4782936,16.1445778 L15.9080911,16.1445778 C15.8704146,16.195359 15.8318327,16.2421167 15.7927389,16.2787573 Z M16.2708797,15.1806735 C16.2708797,15.2522358 16.2577303,15.3351263 16.2378488,15.4216105 L13.4782542,15.4216105 C12.7412206,15.4230558 12.144027,16.0155937 12.1425309,16.7469204 L12.1425309,19.247853 C12.0558396,19.2652358 11.9722979,19.2769936 11.8997008,19.2769936 L3.64280653,19.2769936 L3.64280653,19.2770327 C3.5109192,19.2770327 3.39997638,19.1666813 3.39997638,19.0360956 L3.39997638,3.61444607 C3.39997638,3.48386038 3.51095857,3.37350904 3.64280653,3.37350904 L16.0284826,3.37350904 C16.1600943,3.37350904 16.2713127,3.48386038 16.2713127,3.61444607 L16.2708797,15.1806735 Z" id="Shape"></path>
                <path d="M13.6249994,6 L6.37500063,6 C6.16774318,6 6,6.22365719 6,6.5 C6,6.77634281 6.1677837,7 6.37500063,7 L13.6249994,7 C13.8320137,7 14,6.77634281 14,6.5 C14,6.22365719 13.8320137,6 13.6249994,6 Z" id="Shape"></path>
                <path d="M13.6249994,10 L6.37500063,10 C6.16774318,10 6,10.2236572 6,10.5 C6,10.7763428 6.1677837,11 6.37500063,11 L13.6249994,11 C13.8320137,11 14,10.7763428 14,10.5 C14,10.2236032 13.8320137,10 13.6249994,10 Z" id="Shape"></path>
                <path d="M10.6054967,13 L6.3947593,13 C6.17658151,13 6,13.2236572 6,13.5 C6,13.7763428 6.17658151,14 6.3947593,14 L10.6054967,14 C10.8234185,14 11,13.7763428 11,13.5 C11,13.2236572 10.8234185,13 10.6054967,13 Z" id="Shape"></path>
                <path d="M13.6249994,8 L6.37500063,8 C6.16774318,8 6,8.22365719 6,8.5 C6,8.77634281 6.1677837,9 6.37500063,9 L13.6249994,9 C13.8320137,9 14,8.77634281 14,8.5 C14,8.22365719 13.8320137,8 13.6249994,8 Z" id="Shape"></path>
            </g>
        </g>
    </g>
</svg>