<?xml version="1.0" encoding="UTF-8"?>
<svg width="19px" height="19px" viewBox="0 0 19 19" version="1.1" xmlns="http://www.w3.org/2000/svg" xmlns:xlink="http://www.w3.org/1999/xlink">
    <!-- Generator: Sketch 51.3 (57544) - http://www.bohemiancoding.com/sketch -->
    <title>text-format</title>
    <desc>Created with Sketch.</desc>
    <defs></defs>
    <g id="Page-1" stroke="none" stroke-width="1" fill="none" fill-rule="evenodd">
        <g id="eReports-d&amp;d-icons" transform="translate(-1582.000000, -428.000000)" fill="#000000" fill-rule="nonzero">
            <g id="text-format" transform="translate(1582.000000, 428.000000)">
                <path d="M16.625,19 L2.375,19 C1.0659,19 0,17.9341 0,16.625 L0,2.375 C0,1.0659 1.0659,0 2.375,0 L16.625,0 C17.9341,0 19,1.0659 19,2.375 L19,16.625 C19,17.9341 17.9341,19 16.625,19 Z M2.375,0.95 C1.58935,0.95 0.95,1.58935 0.95,2.375 L0.95,16.625 C0.95,17.41065 1.58935,18.05 2.375,18.05 L16.625,18.05 C17.41065,18.05 18.05,17.41065 18.05,16.625 L18.05,2.375 C18.05,1.58935 17.41065,0.95 16.625,0.95 L2.375,0.95 Z" id="Shape"></path>
                <path d="M9.025,5.7 C8.7628,5.7 8.55,5.4872 8.55,5.225 L8.55,4.75 L3.8,4.75 L3.8,5.225 C3.8,5.4872 3.5872,5.7 3.325,5.7 C3.0628,5.7 2.85,5.4872 2.85,5.225 L2.85,4.275 C2.85,4.0128 3.0628,3.8 3.325,3.8 L9.025,3.8 C9.2872,3.8 9.5,4.0128 9.5,4.275 L9.5,5.225 C9.5,5.4872 9.2872,5.7 9.025,5.7 Z" id="Shape"></path>
                <path d="M6.175,10.45 C5.9128,10.45 5.7,10.2372 5.7,9.975 L5.7,4.275 C5.7,4.0128 5.9128,3.8 6.175,3.8 C6.4372,3.8 6.65,4.0128 6.65,4.275 L6.65,9.975 C6.65,10.2372 6.4372,10.45 6.175,10.45 Z" id="Shape"></path>
                <path d="M7.125,10.45 L5.225,10.45 C4.9628,10.45 4.75,10.2372 4.75,9.975 C4.75,9.7128 4.9628,9.5 5.225,9.5 L7.125,9.5 C7.3872,9.5 7.6,9.7128 7.6,9.975 C7.6,10.2372 7.3872,10.45 7.125,10.45 Z" id="Shape"></path>
                <path d="M15.675,4.75 L11.875,4.75 C11.6128,4.75 11.4,4.5372 11.4,4.275 C11.4,4.0128 11.6128,3.8 11.875,3.8 L15.675,3.8 C15.9372,3.8 16.15,4.0128 16.15,4.275 C16.15,4.5372 15.9372,4.75 15.675,4.75 Z" id="Shape"></path>
                <path d="M15.675,7.6 L11.875,7.6 C11.6128,7.6 11.4,7.3872 11.4,7.125 C11.4,6.8628 11.6128,6.65 11.875,6.65 L15.675,6.65 C15.9372,6.65 16.15,6.8628 16.15,7.125 C16.15,7.3872 15.9372,7.6 15.675,7.6 Z" id="Shape"></path>
                <path d="M15.675,10.45 L11.875,10.45 C11.6128,10.45 11.4,10.2372 11.4,9.975 C11.4,9.7128 11.6128,9.5 11.875,9.5 L15.675,9.5 C15.9372,9.5 16.15,9.7128 16.15,9.975 C16.15,10.2372 15.9372,10.45 15.675,10.45 Z" id="Shape"></path>
                <path d="M15.675,13.3 L3.325,13.3 C3.0628,13.3 2.85,13.0872 2.85,12.825 C2.85,12.5628 3.0628,12.35 3.325,12.35 L15.675,12.35 C15.9372,12.35 16.15,12.5628 16.15,12.825 C16.15,13.0872 15.9372,13.3 15.675,13.3 Z" id="Shape"></path>
                <path d="M15.675,16.15 L3.325,16.15 C3.0628,16.15 2.85,15.9372 2.85,15.675 C2.85,15.4128 3.0628,15.2 3.325,15.2 L15.675,15.2 C15.9372,15.2 16.15,15.4128 16.15,15.675 C16.15,15.9372 15.9372,16.15 15.675,16.15 Z" id="Shape"></path>
            </g>
        </g>
    </g>
</svg>