<?xml version="1.0" encoding="UTF-8"?>
<svg width="20px" height="15px" viewBox="0 0 20 15" version="1.1" xmlns="http://www.w3.org/2000/svg" xmlns:xlink="http://www.w3.org/1999/xlink">
    <!-- Generator: Sketch 51.3 (57544) - http://www.bohemiancoding.com/sketch -->
    <title>Group 35</title>
    <desc>Created with Sketch.</desc>
    <defs></defs>
    <g id="Page-1" stroke="none" stroke-width="1" fill="none" fill-rule="evenodd">
        <g id="eReports-d&amp;d-icons" transform="translate(-1582.000000, -530.000000)">
            <g id="Group-31" transform="translate(1571.000000, 518.000000)">
                <g id="Group-22">
                    <g id="Group-35" transform="translate(11.000000, 12.000000)">
                        <path d="M3.416,9.016 L5.586,9.016 L5.586,9.982 L0.098,9.982 L0.098,9.016 L2.268,9.016 L2.268,1.54 L0.532,2.632 L0,1.75 L2.59,0.112 L3.416,0.112 L3.416,9.016 Z M12.622,11.016 L12.622,11.982 L6.266,11.982 L6.266,11.114 L9.724,7.306 C10.190669,6.78333072 10.528999,6.31433541 10.739,5.899 C10.9490011,5.48366459 11.054,5.0660021 11.054,4.646 C11.054,4.10466396 10.8953349,3.68933478 10.578,3.4 C10.2606651,3.11066522 9.81266956,2.966 9.234,2.966 C8.28199524,2.966 7.34867124,3.34399622 6.434,4.1 L6,3.218 C6.39200196,2.8446648 6.88433037,2.54833443 7.477,2.329 C8.06966963,2.10966557 8.66466368,2 9.262,2 C10.1673379,2 10.883664,2.233331 11.411,2.7 C11.938336,3.166669 12.202,3.7966627 12.202,4.59 C12.202,5.15933618 12.073668,5.70533072 11.817,6.228 C11.5603321,6.75066928 11.1380029,7.33399678 10.55,7.978 L7.75,11.016 L12.622,11.016 Z M19.5659999,5.775 C19.8740014,6.18100203 20.0279999,6.69199692 20.0279999,7.308 C20.0279999,8.16667096 19.7363362,8.84333086 19.1529999,9.338 C18.5696637,9.83266914 17.7786716,10.08 16.7799999,10.08 C16.1453301,10.08 15.5340028,9.97266774 14.9459999,9.758 C14.357997,9.54333226 13.8633352,9.24466858 13.4619999,8.862 L13.8959999,7.98 C14.7920044,8.73600378 15.7439949,9.114 16.7519999,9.114 C17.4520034,9.114 17.9839981,8.95766823 18.3479999,8.645 C18.7120017,8.33233177 18.8939999,7.8726697 18.8939999,7.266 C18.8939999,6.06199398 18.1380075,5.46 16.6259999,5.46 L15.4919999,5.46 L15.4919999,4.494 L16.4019999,4.494 C17.1300035,4.494 17.6899979,4.33300161 18.0819999,4.011 C18.4740019,3.68899839 18.6699999,3.2246697 18.6699999,2.618 C18.6699999,2.08599734 18.5113348,1.67766809 18.1939999,1.393 C17.876665,1.10833191 17.4240028,0.966 16.8359999,0.966 C15.8839951,0.966 14.9506711,1.34399622 14.0359999,2.1 L13.6019999,1.218 C14.0033352,0.83533142 14.4933303,0.53666774 15.0719999,0.322 C15.6506695,0.10733226 16.2526634,0 16.8779999,0 C17.7740044,0 18.4856639,0.22633107 19.0129999,0.679 C19.5403359,1.13166893 19.8039999,1.74066284 19.8039999,2.506 C19.8039999,3.07533618 19.6663346,3.57233121 19.3909999,3.997 C19.1156652,4.42166879 18.730669,4.7273324 18.2359999,4.914 C18.8146695,5.08200084 19.2579984,5.36899797 19.5659999,5.775 Z" id="123" fill="#000000"></path>
                        <path d="M0.5,14.5 L19.5,14.5" id="Line-2" stroke="#000000" stroke-linecap="square"></path>
                    </g>
                </g>
            </g>
        </g>
    </g>
</svg>