<?xml version="1.0" encoding="UTF-8"?>
<svg width="20px" height="20px" viewBox="0 0 20 20" version="1.1" xmlns="http://www.w3.org/2000/svg" xmlns:xlink="http://www.w3.org/1999/xlink">
    <!-- Generator: Sketch 51.3 (57544) - http://www.bohemiancoding.com/sketch -->
    <title>Group 39</title>
    <desc>Created with Sketch.</desc>
    <defs></defs>
    <g id="Page-1" stroke="none" stroke-width="1" fill="none" fill-rule="evenodd">
        <g id="eReports-d&amp;d-icons" transform="translate(-1582.000000, -828.000000)" fill="#000000" fill-rule="nonzero">
            <g id="Group-39" transform="translate(1582.000000, 828.000000)">
                <g id="dry-clean-(1)">
                    <path d="M10,0 C4.48566406,0 0,4.48609375 0,10 C0,15.5139062 4.48566406,20 10,20 C15.5143359,20 20,15.5139062 20,10 C20,4.48609375 15.5143359,0 10,0 Z M10,19.1666797 C4.94546875,19.1666797 0.833320312,15.0545312 0.833320312,10 C0.833320312,4.94546875 4.94546875,0.833320312 10,0.833320312 C15.0545312,0.833320312 19.1666797,4.94546875 19.1666797,10 C19.1666797,15.0545312 15.0545312,19.1666797 10,19.1666797 Z" id="Shape"></path>
                </g>
                <g id="dry-clean-(1)" transform="translate(6.000000, 6.000000)">
                    <path d="M4,0 C1.79426562,0 0,1.7944375 0,4 C0,6.2055625 1.79426562,8 4,8 C6.20573438,8 8,6.2055625 8,4 C8,1.7944375 6.20573437,0 4,0 Z" id="Shape"></path>
                </g>
            </g>
        </g>
    </g>
</svg>