<?xml version="1.0" encoding="UTF-8"?>
<svg width="19px" height="19px" viewBox="0 0 19 19" version="1.1" xmlns="http://www.w3.org/2000/svg" xmlns:xlink="http://www.w3.org/1999/xlink">
    <!-- Generator: Sketch 51.3 (57544) - http://www.bohemiancoding.com/sketch -->
    <title>text-format</title>
    <desc>Created with Sketch.</desc>
    <defs></defs>
    <g id="Page-1" stroke="none" stroke-width="1" fill="none" fill-rule="evenodd">
        <g id="eReports-d&amp;d-icons" transform="translate(-1582.000000, -379.000000)" fill="#000000" fill-rule="nonzero">
            <g id="text-format" transform="translate(1582.000000, 379.000000)">
                <path d="M16.625,19 L2.375,19 C1.0659,19 0,17.9341 0,16.625 L0,2.375 C0,1.0659 1.0659,0 2.375,0 L16.625,0 C17.9341,0 19,1.0659 19,2.375 L19,16.625 C19,17.9341 17.9341,19 16.625,19 Z M2.375,0.95 C1.58935,0.95 0.95,1.58935 0.95,2.375 L0.95,16.625 C0.95,17.41065 1.58935,18.05 2.375,18.05 L16.625,18.05 C17.41065,18.05 18.05,17.41065 18.05,16.625 L18.05,2.375 C18.05,1.58935 17.41065,0.95 16.625,0.95 L2.375,0.95 Z" id="Shape"></path>
                <path d="M13.175,6.9 C12.9128,6.9 12.7,6.6872 12.7,6.425 L12.7,5.95 L5.95,5.95 L5.95,6.425 C5.95,6.6872 5.7372,6.9 5.475,6.9 C5.2128,6.9 5,6.6872 5,6.425 L5,5.475 C5,5.2128 5.2128,5 5.475,5 L13.175,5 C13.4372,5 13.65,5.2128 13.65,5.475 L13.65,6.425 C13.65,6.6872 13.4372,6.9 13.175,6.9 Z" id="Shape"></path>
                <path d="M9.475,13.65 C9.2128,13.65 9,13.4372 9,13.175 L9,5.475 C9,5.2128 9.2128,5 9.475,5 C9.7372,5 9.95,5.2128 9.95,5.475 L9.95,13.175 C9.95,13.4372 9.7372,13.65 9.475,13.65 Z" id="Shape"></path>
                <path d="M10.375,13.95 L8.475,13.95 C8.2128,13.95 8,13.7372 8,13.475 C8,13.2128 8.2128,13 8.475,13 L10.375,13 C10.6372,13 10.85,13.2128 10.85,13.475 C10.85,13.7372 10.6372,13.95 10.375,13.95 Z" id="Shape"></path>
            </g>
        </g>
    </g>
</svg>