<?xml version="1.0" encoding="UTF-8"?>
<svg width="19px" height="20px" viewBox="0 0 19 20" version="1.1" xmlns="http://www.w3.org/2000/svg" xmlns:xlink="http://www.w3.org/1999/xlink">
    <!-- Generator: Sketch 51.3 (57544) - http://www.bohemiancoding.com/sketch -->
    <title>web (2)</title>
    <desc>Created with Sketch.</desc>
    <defs></defs>
    <g id="Page-1" stroke="none" stroke-width="1" fill="none" fill-rule="evenodd">
        <g id="eReports-d&amp;d-icons" transform="translate(-1583.000000, -728.000000)" fill="#000000" fill-rule="nonzero">
            <g id="web-(2)" transform="translate(1583.000000, 728.500000)">
                <path d="M2.55622222,15.9642778 C2.57777778,15.9841111 2.60127778,16.0017778 2.62638889,16.0168889 C4.41088889,17.9141111 6.90011111,18.9896667 9.50472222,18.9888333 C12.1093333,18.988 14.5978333,17.9109444 16.3811667,16.0126111 C16.4047222,15.9988889 16.4269444,15.983 16.4475556,15.9652222 C16.4631111,15.9433889 16.4767778,15.9202222 16.4883333,15.896 C19.8151111,12.2872778 19.8151111,6.72938889 16.4883333,3.12066667 L16.4864444,3.11972222 C16.4748889,3.0955 16.4612222,3.07233333 16.4456667,3.0505 C16.4240556,3.03038889 16.4003889,3.01261111 16.3750556,2.99738889 C14.5913333,1.10172222 12.1039444,0.0268333333 9.501,0.0268333333 C6.89805556,0.0268333333 4.41066667,1.10172222 2.62694444,2.99738889 C2.60161111,3.01255556 2.57794444,3.03038889 2.55633333,3.0505 C2.54077778,3.07233333 2.52711111,3.0955 2.51555556,3.11972222 C-0.811222222,6.72844444 -0.811222222,12.2863333 2.51555556,15.8950556 C2.52705556,15.9192778 2.54066667,15.9424444 2.55622222,15.9642778 Z M12.0860556,17.6363333 C12.8147778,16.7562778 13.3632778,15.7414444 13.7002778,14.6496667 L13.7002778,14.6482222 C14.2958333,14.9272222 14.8577222,15.2729444 15.3751667,15.6788333 C14.4411667,16.572 13.3165,17.2413333 12.0860556,17.6363333 Z M16.0294444,14.9900556 C15.3985556,14.4839444 14.7062778,14.0594444 13.9691111,13.7266667 C14.274,12.5007222 14.4405,11.2445 14.4654444,9.9815 L18.0091667,9.9815 C17.9106111,11.8216667 17.2156667,13.5797778 16.0294444,14.9900556 Z M18.0091667,9.03333333 L14.4654444,9.03333333 C14.4404444,7.77033333 14.2739444,6.51405556 13.9691111,5.28816667 C14.7062222,4.95566667 15.3985,4.5315 16.0294444,4.02572222 C17.2155,5.43572222 17.9103889,7.19344444 18.0091667,9.03333333 Z M15.3752222,3.3345 C14.8577778,3.74038889 14.2958889,4.08616667 13.7003333,4.36511111 C13.3635,3.27283333 12.815,2.2575 12.0861111,1.377 C13.3165,1.77205556 14.4411667,2.44138889 15.3752222,3.3345 Z M9.97405556,1.04044444 C11.136,1.34477778 12.1637778,2.74188889 12.8113889,4.71972222 C11.8965,5.03516667 10.9408889,5.217 9.97405556,5.25966667 L9.97405556,1.04044444 Z M9.97405556,6.20833333 C11.0288889,6.16883333 12.0725556,5.97727778 13.0726111,5.63944444 C13.3415556,6.75161111 13.4907778,7.88938889 13.5177778,9.03333333 L9.97405556,9.03333333 L9.97405556,6.20833333 Z M9.97405556,9.9815 L13.5177778,9.9815 C13.4907222,11.1251111 13.3415,12.2625556 13.0726111,13.3744444 C12.0725,13.0369444 11.0288889,12.8456667 9.97405556,12.8065 L9.97405556,9.9815 Z M9.97405556,13.7551111 C10.9408889,13.7979444 11.8965,13.9799444 12.8113889,14.2955556 C12.1637778,16.2733889 11.136,17.6705 9.97405556,17.9748333 L9.97405556,13.7551111 Z M3.62477778,15.6775 C4.14238889,15.2726111 4.70427778,14.9277778 5.29966667,14.6497222 L5.29966667,14.6482778 C5.63666667,15.7400556 6.18516667,16.7548889 6.91388889,17.6349444 C5.6835,17.2399444 4.55883333,16.5706111 3.62477778,15.6775 Z M9.02594444,17.9743889 C7.864,17.6700556 6.83622222,16.2729444 6.18861111,14.2951111 C7.1035,13.9796667 8.05911111,13.7978333 9.02594444,13.7551667 L9.02594444,17.9743889 Z M9.02594444,12.8065 C7.97111111,12.846 6.9275,13.0375556 5.92738889,13.3753889 C5.65844444,12.2631667 5.50922222,11.1254444 5.48222222,9.9815 L9.02594444,9.9815 L9.02594444,12.8065 Z M9.02594444,9.03333333 L5.48222222,9.03333333 C5.50927778,7.88972222 5.6585,6.75227778 5.92738889,5.64038889 C6.9275,5.97788889 7.97111111,6.16916667 9.02594444,6.20833333 L9.02594444,9.03333333 Z M9.02594444,1.03994444 L9.02594444,5.25966667 C8.05911111,5.21683333 7.1035,5.03483333 6.18861111,4.71922222 C6.83616667,2.74144444 7.86394444,1.34433333 9.02594444,1.03994444 Z M6.91394444,1.37561111 C6.18488889,2.2565 5.63638889,3.27233333 5.29972222,4.36511111 L5.29972222,4.36366667 C4.70416667,4.08466667 4.14227778,3.73894444 3.62483333,3.333 C4.55883333,2.43994444 5.6835,1.77061111 6.91394444,1.37561111 Z M2.97055556,4.02472222 C3.60144444,4.53083333 4.29372222,4.95533333 5.03088889,5.28811111 C4.726,6.51405556 4.5595,7.77027778 4.53455556,9.03327778 L0.990833333,9.03327778 C1.08938889,7.19311111 1.78433333,5.435 2.97055556,4.02472222 Z M4.53455556,9.9815 C4.55955556,11.2445 4.72605556,12.5007778 5.03088889,13.7266667 C4.29377778,14.0591667 3.6015,14.4833333 2.97055556,14.9891111 C1.7845,13.5791111 1.08961111,11.8213333 0.990833333,9.98144444 L4.53455556,9.98144444 L4.53455556,9.9815 Z" id="Shape"></path>
            </g>
        </g>
    </g>
</svg>