<?xml version="1.0" encoding="UTF-8"?>
<svg width="9px" height="9px" viewBox="0 0 9 9" version="1.1" xmlns="http://www.w3.org/2000/svg" xmlns:xlink="http://www.w3.org/1999/xlink">
    <!-- Generator: Sketch 51.3 (57544) - http://www.bohemiancoding.com/sketch -->
    <title>interface (1)</title>
    <desc>Created with Sketch.</desc>
    <defs></defs>
    <g id="Page-1" stroke="none" stroke-width="1" fill="none" fill-rule="evenodd">
        <g id="SwissOpenOncology-05-edit" transform="translate(-1336.000000, -750.000000)" fill="#0482C6" fill-rule="nonzero">
            <g id="interface-(1)" transform="translate(1336.000000, 750.000000)">
                <path d="M5.32453465,4.50006672 L8.82895377,0.995468111 C9.05701541,0.7675085 9.05701541,0.398929319 8.82895377,0.170969708 C8.60099889,-0.0569899027 8.23242736,-0.0569899027 8.00447248,0.170969708 L4.4999466,3.67556835 L0.995527517,0.170969708 C0.767465875,-0.0569899027 0.399001109,-0.0569899027 0.171046231,0.170969708 C-0.0570154104,0.398929319 -0.0570154104,0.7675085 0.171046231,0.995468111 L3.67546535,4.50006672 L0.171046231,8.00466536 C-0.0570154104,8.23262497 -0.0570154104,8.60120415 0.171046231,8.82916376 C0.28464997,8.94287663 0.434021811,9 0.583286888,9 C0.732551937,9 0.881817014,8.94287663 0.995527517,8.82916376 L4.4999466,5.32456512 L8.00447248,8.82916376 C8.11818299,8.94287663 8.26744806,9 8.41671314,9 C8.56597819,9 8.71524324,8.94287663 8.82895377,8.82916376 C9.05701541,8.60120415 9.05701541,8.23262497 8.82895377,8.00466536 L5.32453465,4.50006672 Z" id="Shape"></path>
            </g>
        </g>
    </g>
</svg>