<?xml version="1.0" encoding="UTF-8"?>
<svg width="18px" height="18px" viewBox="0 0 18 18" version="1.1" xmlns="http://www.w3.org/2000/svg" xmlns:xlink="http://www.w3.org/1999/xlink">
    <!-- Generator: Sketch 51.3 (57544) - http://www.bohemiancoding.com/sketch -->
    <title>noun_add_2419031</title>
    <desc>Created with Sketch.</desc>
    <defs></defs>
    <g id="Page-1" stroke="none" stroke-width="1" fill="none" fill-rule="evenodd">
        <g id="SwissOpenOncology-05-edit" transform="translate(-1530.000000, -704.000000)" fill-rule="nonzero">
            <g id="noun_add_2419031" transform="translate(1530.000000, 704.000000)">
                <path d="M9.00727519,0 C4.05034891,0 0,4.03817197 0,9 C0,13.9609365 4.03639243,18 9.00727519,18 C13.9642015,18 18,13.9609365 18,9 C18,4.03906353 13.9642015,3.29943443e-16 9.00727519,0 Z" id="Shape" fill="#D83225"></path>
                <path d="M9,4 C8.42584872,4 7.94490768,4.48095536 7.94490768,5.05512374 L7.94490768,7.94502516 L5.05539011,7.94502516 C4.48123883,7.94502516 4,8.42568272 4,9.0001489 C4,9.57461509 4.48123883,10.0552726 5.05539011,10.0552726 L7.94490768,10.0552726 L7.94490768,12.9448763 C7.94490768,13.5190446 8.42584872,14 9,14 C9.57415128,14 10.0550923,13.5190446 10.0550923,12.9448763 L10.0550923,10.0552726 L12.9446099,10.0552726 C13.5187612,10.0552726 14,9.57461509 14,9.0001489 C14,8.42568272 13.5059559,7.95991542 12.9446099,7.95991542 L10.0550923,7.95991542 L10.0550923,5.05512374 C10.0550923,4.48095536 9.57415128,4 9,4 Z" id="Path" fill="#FFFFFF"></path>
            </g>
        </g>
    </g>
</svg>