<?xml version="1.0" encoding="UTF-8"?>
<svg width="13px" height="13px" viewBox="0 0 13 13" version="1.1" xmlns="http://www.w3.org/2000/svg" xmlns:xlink="http://www.w3.org/1999/xlink">
    <!-- Generator: Sketch 51.3 (57544) - http://www.bohemiancoding.com/sketch -->
    <title>noun_add_2419031</title>
    <desc>Created with Sketch.</desc>
    <defs></defs>
    <g id="Page-1" stroke="none" stroke-width="1" fill="none" fill-rule="evenodd">
        <g id="SwissOpenOncology-05-edit" transform="translate(-1403.000000, -650.000000)" fill-rule="nonzero">
            <g id="noun_add_2419031" transform="translate(1403.000000, 650.000000)">
                <path d="M6.5,0.150129032 C2.99985484,0.150129032 0.139854839,2.99922581 0.139854839,6.5 C0.139854839,10.0001452 2.99,12.849871 6.5,12.849871 C10.0001452,12.849871 12.849871,10.0001452 12.849871,6.5 C12.849871,2.99985484 10.0001452,0.150129032 6.5,0.150129032 Z" id="Shape" fill="#D83225"></path>
                <path d="M6.5,2.91724194 C6.09574194,2.91724194 5.7571129,3.25587097 5.7571129,3.66012903 L5.7571129,5.69483871 L3.7226129,5.69483871 C3.31835484,5.69483871 2.97951613,6.03325806 2.97951613,6.43772581 C2.97951613,6.84219355 3.31835484,7.1806129 3.7226129,7.1806129 L5.7571129,7.1806129 L5.7571129,9.2151129 C5.7571129,9.61937097 6.09574194,9.958 6.5,9.958 C6.90425806,9.958 7.2428871,9.61937097 7.2428871,9.2151129 L7.2428871,7.1806129 L9.2773871,7.1806129 C9.68164516,7.1806129 10.0204839,6.84219355 10.0204839,6.43772581 C10.0204839,6.03325806 9.67262903,5.70532258 9.2773871,5.70532258 L7.2428871,5.70532258 L7.2428871,3.66012903 C7.2428871,3.25587097 6.90425806,2.91724194 6.5,2.91724194 Z" id="Path" fill="#FFFFFF"></path>
            </g>
        </g>
    </g>
</svg>