<?xml version="1.0" encoding="UTF-8"?>
<svg width="12px" height="7px" viewBox="0 0 12 7" version="1.1" xmlns="http://www.w3.org/2000/svg" xmlns:xlink="http://www.w3.org/1999/xlink">
    <!-- Generator: Sketch 51.3 (57544) - http://www.bohemiancoding.com/sketch -->
    <title>noun_Arrow_1256496</title>
    <desc>Created with Sketch.</desc>
    <defs></defs>
    <g id="Page-1" stroke="none" stroke-width="1" fill="none" fill-rule="evenodd">
        <g id="SwissOpenOncology-04" transform="translate(-643.000000, -375.000000)" fill="#FFFFFF" fill-rule="nonzero">
            <g id="Group-7" transform="translate(232.000000, 353.000000)">
                <g id="noun_Arrow_1256496" transform="translate(417.000000, 25.500000) rotate(90.000000) translate(-417.000000, -25.500000) translate(413.500000, 19.500000)">
                    <path d="M6.7543223,0.225548892 C6.60537706,0.081141013 6.40326442,0 6.19250677,0 C5.98174913,0 5.77963649,0.081141013 5.63069125,0.225548892 L0.232894697,5.44924665 C0.0837836597,5.59349396 0,5.7892317 0,5.99334178 C0,6.19745185 0.0837836597,6.39318959 0.232894697,6.53743691 L5.63069125,11.7611347 C5.82962081,11.9635522 6.12627225,12.0455355 6.40554801,11.9752759 C6.68482378,11.9050164 6.9027687,11.6935722 6.97482252,11.4229813 C7.04687633,11.1523905 6.9616985,10.8652412 6.75233709,10.6729444 L1.91635607,5.99334178 L6.75233709,1.31373915 C6.90171159,1.16974713 6.98585254,0.974152692 6.98622491,0.770042518 C6.98659727,0.565932344 6.90317049,0.370051188 6.7543223,0.225548892 Z" id="Shape"></path>
                </g>
            </g>
        </g>
    </g>
</svg>