<?xml version="1.0" encoding="UTF-8"?>
<svg width="13px" height="13px" viewBox="0 0 13 13" version="1.1" xmlns="http://www.w3.org/2000/svg" xmlns:xlink="http://www.w3.org/1999/xlink">
    <!-- Generator: Sketch 51.3 (57544) - http://www.bohemiancoding.com/sketch -->
    <title>noun_Language_2712648</title>
    <desc>Created with Sketch.</desc>
    <defs></defs>
    <g id="Page-1" stroke="none" stroke-width="1" fill="none" fill-rule="evenodd">
        <g id="SwissOpenOncology-landing-page-01a" transform="translate(-1244.000000, -33.000000)" fill="#D83225" fill-rule="nonzero">
            <g id="Group-9" transform="translate(1236.000000, 24.000000)">
                <g id="noun_Language_2712648" transform="translate(8.000000, 9.000000)">
                    <path d="M6.5,4.12368552e-16 C2.91014913,-2.06184276e-16 4.12368552e-16,2.91014913 0,6.5 C-4.12368552e-16,10.0898509 2.91014913,13 6.5,13 C10.0898509,13 13,10.0898509 13,6.5 C13,4.77609282 12.3151805,3.12279238 11.0961941,1.90380592 C9.87720762,0.684819462 8.22390718,2.06184276e-16 6.5,4.12368552e-16 Z M11.5630357,4.17857143 L9.35071429,4.17857143 C9.02715062,3.03480762 8.46546831,1.97235785 7.7025,1.06089286 C9.40520536,1.44104465 10.8329468,2.59405536 11.5630357,4.17857143 Z M6.47446429,11.8532143 C5.62315213,11.0050825 4.98716719,9.9655377 4.61964286,8.82142857 L8.38035714,8.82142857 C8.01216119,9.96576476 7.37536783,11.0053299 6.52321429,11.8532143 C6.50864796,11.8636756 6.48903061,11.8636756 6.47446429,11.8532143 Z M4.38517857,7.89285714 C4.21492855,6.97208939 4.21492855,6.02791061 4.38517857,5.10714286 L8.61482143,5.10714286 C8.78507145,6.02791061 8.78507145,6.97208939 8.61482143,7.89285714 L4.38517857,7.89285714 Z M0.928571429,6.5 C0.927834638,6.03009604 0.987123951,5.56202252 1.105,5.10714286 L3.44267857,5.10714286 C3.29109626,6.02952812 3.29109626,6.97047188 3.44267857,7.89285714 L1.105,7.89285714 C0.987123951,7.43797748 0.927834638,6.96990396 0.928571429,6.5 Z M6.5,1.1375 C6.50820479,1.13426636 6.51733092,1.13426636 6.52553571,1.1375 C7.3781048,1.98827637 8.01417111,3.03113853 8.38035714,4.17857143 L4.61964286,4.17857143 C4.98783881,3.03423524 5.62463217,1.99467008 6.47678571,1.14678571 C6.48310744,1.14092335 6.49137919,1.13761465 6.5,1.1375 Z M9.55732143,5.10714286 L11.895,5.10714286 C12.1302806,6.02081049 12.1302806,6.97918951 11.895,7.89285714 L9.55732143,7.89285714 C9.70890374,6.97047188 9.70890374,6.02952812 9.55732143,5.10714286 Z M5.2975,1.06089286 C4.53540384,1.97294359 3.97382455,3.03519851 3.64928571,4.17857143 L1.43696429,4.17857143 C2.16705316,2.59405536 3.59479464,1.44104465 5.2975,1.06089286 Z M1.43696429,8.82142857 L3.64928571,8.82142857 C3.97284938,9.96519238 4.53453169,11.0276421 5.2975,11.9391071 C3.59479464,11.5589554 2.16705316,10.4059446 1.43696429,8.82142857 Z M7.70482143,11.9391071 C8.46608739,11.02685 9.02686808,9.96460952 9.35071429,8.82142857 L11.5630357,8.82142857 C10.8329468,10.4059446 9.40520536,11.5589554 7.7025,11.9391071 L7.70482143,11.9391071 Z" id="Shape"></path>
                </g>
            </g>
        </g>
    </g>
</svg>