<?xml version="1.0" encoding="UTF-8"?>
<svg width="20px" height="20px" viewBox="0 0 20 20" version="1.1" xmlns="http://www.w3.org/2000/svg" xmlns:xlink="http://www.w3.org/1999/xlink">
    <!-- Generator: Sketch 51.3 (57544) - http://www.bohemiancoding.com/sketch -->
    <title>interface (1)</title>
    <desc>Created with Sketch.</desc>
    <defs></defs>
    <g id="Page-1" stroke="none" stroke-width="1" fill="none" fill-rule="evenodd">
        <g id="SwissOpenOncology-04" transform="translate(-1277.000000, -1781.000000)" fill="#000000" fill-rule="nonzero">
            <g id="interface-(1)" transform="translate(1277.000000, 1781.000000)">
                <path d="M11.8322992,10.0001483 L19.6198973,2.21215136 C20.1267009,1.70557445 20.1267009,0.886509597 19.6198973,0.379932685 C19.1133309,-0.126644228 18.294283,-0.126644228 17.7877166,0.379932685 L9.99988134,8.16792966 L2.21228337,0.379932685 C1.70547972,-0.126644228 0.886669132,-0.126644228 0.380102736,0.379932685 C-0.126700912,0.886509597 -0.126700912,1.70557445 0.380102736,2.21215136 L8.16770077,10.0001483 L0.380102736,17.7881452 C-0.126700912,18.2947222 -0.126700912,19.113787 0.380102736,19.6203639 C0.63255549,19.8730592 0.964492913,20 1.29619308,20 C1.62789319,20 1.95959336,19.8730592 2.21228337,19.6203639 L9.99988134,11.8323669 L17.7877166,19.6203639 C18.0404066,19.8730592 18.3721068,20 18.703807,20 C19.0355071,20 19.3672072,19.8730592 19.6198973,19.6203639 C20.1267009,19.113787 20.1267009,18.2947222 19.6198973,17.7881452 L11.8322992,10.0001483 Z" id="Shape"></path>
            </g>
        </g>
    </g>
</svg>