<?xml version="1.0" encoding="UTF-8"?>
<svg width="15px" height="15px" viewBox="0 0 15 15" version="1.1" xmlns="http://www.w3.org/2000/svg" xmlns:xlink="http://www.w3.org/1999/xlink">
    <!-- Generator: Sketch 51.3 (57544) - http://www.bohemiancoding.com/sketch -->
    <title>user (22)</title>
    <desc>Created with Sketch.</desc>
    <defs></defs>
    <g id="Page-1" stroke="none" stroke-width="1" fill="none" fill-rule="evenodd">
        <g id="SwissOpenOncology-04" transform="translate(-723.000000, -212.000000)" fill="#000000" fill-rule="nonzero">
            <g id="user-(22)" transform="translate(723.000000, 212.000000)">
                <path d="M12.8033203,9.69667969 C11.9864355,8.87982422 11.0141309,8.27510742 9.95329102,7.90904297 C11.0894824,7.12649414 11.8359375,5.81683594 11.8359375,4.3359375 C11.8359375,1.94510742 9.89083008,0 7.5,0 C5.10916992,0 3.1640625,1.94510742 3.1640625,4.3359375 C3.1640625,5.81683594 3.91051758,7.12649414 5.04673828,7.90904297 C3.98589844,8.27510742 3.01359375,8.87982422 2.19670898,9.69667969 C0.780146484,11.1132715 0,12.9966797 0,15 L1.171875,15 C1.171875,11.5106543 4.0106543,8.671875 7.5,8.671875 C10.9893457,8.671875 13.828125,11.5106543 13.828125,15 L15,15 C15,12.9966797 14.2198535,11.1132715 12.8033203,9.69667969 Z M7.5,7.5 C5.7553418,7.5 4.3359375,6.080625 4.3359375,4.3359375 C4.3359375,2.59125 5.7553418,1.171875 7.5,1.171875 C9.2446582,1.171875 10.6640625,2.59125 10.6640625,4.3359375 C10.6640625,6.080625 9.2446582,7.5 7.5,7.5 Z" id="Shape"></path>
            </g>
        </g>
    </g>
</svg>