<?xml version="1.0" encoding="UTF-8"?>
<svg width="12px" height="12px" viewBox="0 0 12 12" version="1.1" xmlns="http://www.w3.org/2000/svg" xmlns:xlink="http://www.w3.org/1999/xlink">
    <!-- Generator: Sketch 51.3 (57544) - http://www.bohemiancoding.com/sketch -->
    <title>noun_edit_3895344</title>
    <desc>Created with Sketch.</desc>
    <defs></defs>
    <g id="Page-1" stroke="none" stroke-width="1" fill="none" fill-rule="evenodd">
        <g id="SwissOpenOncology-05-edit" transform="translate(-1501.000000, -145.000000)" fill="#D83225" fill-rule="nonzero">
            <g id="noun_edit_3895344" transform="translate(1501.000000, 145.000000)">
                <path d="M11.3280201,0.651439625 C10.4179459,-0.217146542 8.98586474,-0.217146542 8.07579054,0.651439625 L0.773875096,7.96674196 C0.691355162,8.05112603 0.635078588,8.15762863 0.61186366,8.27334625 L0.0118213023,11.2787883 C-0.027625667,11.476741 0.032973594,11.6814203 0.173832739,11.8259959 C0.287146214,11.9378271 0.440054,12.000367 0.59926277,11.9999984 C0.639507949,11.9989814 0.679621596,11.9949702 0.719271242,11.9879982 L3.71948303,11.3879898 C3.83510789,11.3646297 3.94143704,11.3081325 4.02550463,11.2253875 L11.3280201,3.9094852 C12.2239933,3.00824575 12.2239933,1.55267908 11.3280201,0.651439625 Z M3.30605384,10.2449738 L1.36191661,10.6355793 L1.75194414,8.68795205 L1.79934749,8.63995138 L3.35345719,10.1969732 L3.30605384,10.2449738 Z M10.47596,3.05567326 L10.1999405,3.33827721 L8.64583078,1.78125543 L8.92785069,1.50465156 C9.35811033,1.08389541 10.0457003,1.08389541 10.47596,1.50465156 C10.6832631,1.70946987 10.799935,1.98875159 10.799935,2.28016241 C10.799935,2.57157323 10.6832631,2.85085495 10.47596,3.05567326 Z" id="Shape"></path>
            </g>
        </g>
    </g>
</svg>