<svg xmlns="http://www.w3.org/2000/svg" width="39" height="39" viewBox="0 0 39 39">
    <g fill="none" fill-rule="evenodd">
        <g>
            <g>
                <g transform="translate(-344.000000, -360.000000) translate(314.000000, 330.000000) translate(30.000000, 30.000000)">
                    <circle cx="19.5" cy="19.5" r="19.5" fill="#1C94A3"/>
                    <g fill="#FFF" fill-rule="nonzero">
                        <g>
                            <path d="M1.198.072C.962.072.746.143.562.26l6.663 5.978c.35.313.76.313 1.11 0L15.012.259c-.184-.116-.4-.187-.636-.187H1.198zM.068.883C.029 1.005 0 1.134 0 1.27v7.986c0 .664.534 1.198 1.198 1.198h13.177c.664 0 1.198-.534 1.198-1.198V1.27c0-.136-.027-.265-.069-.387L8.866 6.83c-.622.557-1.55.557-2.171 0L.069.883z" transform="translate(12.000000, 14.000000) translate(0.000000, 0.127343)"/>
                        </g>
                    </g>
                </g>
            </g>
        </g>
    </g>
</svg>
