<?xml version="1.0" encoding="UTF-8"?>
<svg width="16px" height="12px" viewBox="0 0 16 12" version="1.1" xmlns="http://www.w3.org/2000/svg" xmlns:xlink="http://www.w3.org/1999/xlink">
    <!-- Generator: Sketch 51.3 (57544) - http://www.bohemiancoding.com/sketch -->
    <title>Shape</title>
    <desc>Created with Sketch.</desc>
    <defs></defs>
    <g id="Page-1" stroke="none" stroke-width="1" fill="none" fill-rule="evenodd">
        <g id="SwissOpenOncology-04" transform="translate(-1268.000000, -854.000000)" fill="#D83225" fill-rule="nonzero">
            <path d="M1277,864 C1277.55228,864 1278,864.447715 1278,865 C1278,865.552285 1277.55228,866 1277,866 L1275,866 C1274.44772,866 1274,865.552285 1274,865 C1274,864.447715 1274.44772,864 1275,864 L1277,864 Z M1280,859 C1280.55228,859 1281,859.447715 1281,860 C1281,860.552285 1280.55228,861 1280,861 L1272,861 C1271.44772,861 1271,860.552285 1271,860 C1271,859.447715 1271.44772,859 1272,859 L1280,859 Z M1283,854 C1283.55228,854 1284,854.447715 1284,855 C1284,855.552285 1283.55228,856 1283,856 L1269,856 C1268.44772,856 1268,855.552285 1268,855 C1268,854.447715 1268.44772,854 1269,854 L1283,854 Z" id="Shape"></path>
        </g>
    </g>
</svg>