<?xml version="1.0" encoding="UTF-8"?>
<svg width="36px" height="33px" viewBox="0 0 36 33" version="1.1" xmlns="http://www.w3.org/2000/svg" xmlns:xlink="http://www.w3.org/1999/xlink">
    <!-- Generator: Sketch 51.3 (57544) - http://www.bohemiancoding.com/sketch -->
    <title>noun_goal_2905203</title>
    <desc>Created with Sketch.</desc>
    <defs></defs>
    <g id="Page-1" stroke="none" stroke-width="1" fill="none" fill-rule="evenodd">
        <g id="SwissOpenOncology-landing-page-01a" transform="translate(-882.000000, -806.000000)" fill="#000000" fill-rule="nonzero">
            <g id="noun_goal_2905203" transform="translate(882.000000, 806.000000)">
                <path d="M28.4280232,17.7898262 C28.3337411,17.6097392 28.1473077,17.4965873 27.9438289,17.4965873 C27.74035,17.4965873 27.5539165,17.6097392 27.4596345,17.7898262 L24.6218507,23.2354637 L18.3654096,11.2271782 L18.3654096,6.92883126 L25.8642966,6.92883126 C26.0805595,6.92883126 26.276581,6.80133609 26.3639383,6.6037186 C26.4507631,6.40610111 26.412411,6.1755473 26.2659276,6.01670956 L24.2471194,3.82538632 L26.2659276,1.63353183 C26.412411,1.47416284 26.4507631,1.24414033 26.3639383,1.04652279 C26.276581,0.848905305 26.0805595,0.721410134 25.8642966,0.721410134 L18.3654096,0.721410134 L18.3654096,0.543979396 C18.3654096,0.243303271 18.1214481,0 17.8199585,0 C17.518469,0 17.2745075,0.243303271 17.2745075,0.543979396 L17.2745075,1.26538958 L17.2745075,6.38485192 L17.2745075,11.2272115 L10.773439,23.7076274 L8.11529722,18.6057953 C8.02154781,18.4257083 7.83458169,18.3125564 7.63110286,18.3125564 C7.42762402,18.3125564 7.24119054,18.4257083 7.1469085,18.6057953 L5.40894902,21.9414873 C5.40838306,21.9426825 5.40725114,21.9433798 5.40668518,21.944575 C5.40631896,21.9453387 5.40648544,21.9462019 5.40611922,21.9469656 L0.0613711408,32.2052802 C-0.0265189187,32.37368 -0.0195942536,32.5760786 0.0794818075,32.738635 C0.178025236,32.9006601 0.354870675,33 0.545565499,33 L14.7166402,33 L28.8110109,33 L35.4544345,33 C35.6451293,33 35.8219748,32.90066 35.9205182,32.7386349 C36.0195943,32.5760785 36.0265189,32.37368 35.9386289,32.20528 L28.4280232,17.7898262 Z M27.9438289,19.2204282 L28.8816225,21.0204011 L28.5766373,21.260351 L27.786692,20.8863651 C27.6071832,20.8008371 27.3925184,20.8210238 27.2311203,20.9384256 L26.9365221,21.1533413 L27.9438289,19.2204282 Z M17.8199585,12.5402125 L19.5168693,15.7971497 C19.5045514,15.8052509 19.4893038,15.8071435 19.4776185,15.8163072 L18.7782266,16.3666613 L17.4806496,15.7520283 C17.3011408,15.6670316 17.0870087,15.6861558 16.9245452,15.8046201 L16.1431226,16.3746298 L15.884879,16.2551363 L17.8199585,12.5402125 Z M24.6226497,1.80936893 L23.1050812,3.45724402 C22.913321,3.66548613 22.913321,3.98528651 23.1050812,4.19352862 L24.6226497,5.84087247 L18.3654096,5.84087247 L18.3654096,1.80936893 L24.6226497,1.80936893 Z M15.381442,17.2216426 L15.9758651,17.4965872 C16.1569719,17.5805216 16.3673754,17.5592724 16.5277082,17.4418706 L17.3064675,16.8739858 L18.6162958,17.4944623 C18.6908692,17.5295235 18.7707692,17.5470541 18.8501366,17.5470541 C18.9705194,17.5470541 19.0898368,17.5072118 19.1878475,17.4301835 L19.9618128,16.8213941 L20.0593574,16.8383602 L24.1368905,24.6645384 C24.1372235,24.6652025 24.137057,24.6659329 24.1373899,24.666597 L27.9127343,31.9120413 L15.048059,31.9120413 L11.38827,24.8876881 L15.381442,17.2216426 Z M7.63110286,20.0363973 L8.47538018,21.6568476 L8.22236332,21.8563909 L7.49527278,21.5110915 C7.31469863,21.4260947 7.10056649,21.4452189 6.9386357,21.5636832 L6.77191088,21.6854345 L7.63110286,20.0363973 Z M6.14566083,22.8874085 L6.35909387,22.9863168 C6.53913533,23.0697199 6.75060415,23.0490019 6.91146961,22.9316001 L7.32055792,22.633049 L8.05989984,22.9841919 C8.13447326,23.0192531 8.21437328,23.0367837 8.29427335,23.0367837 C8.4146561,23.0367837 8.53397352,22.9969414 8.63251695,22.9199131 L8.98770602,22.6401209 L10.2872139,25.1342784 C10.2881128,25.1360713 10.2876467,25.138163 10.2885789,25.1399227 L13.8182306,31.9120413 L1.44364219,31.9120413 L6.14566083,22.8874085 Z M29.1424296,31.9120412 L25.2365485,24.4153252 L26.3540507,22.2710158 L26.6116285,22.3902769 C26.7906047,22.47368 27.0026062,22.4518995 27.162939,22.3360914 L27.61251,22.0083226 L28.4147066,22.3881519 C28.48928,22.4232131 28.56918,22.4407437 28.6485474,22.4407437 C28.7689301,22.4407437 28.8882476,22.4009015 28.9862583,22.3238731 L29.3936487,22.0031099 L34.5563579,31.9120412 L29.1424296,31.9120412 Z" id="Shape"></path>
            </g>
        </g>
    </g>
</svg>