<?xml version="1.0" encoding="UTF-8"?>
<svg width="34px" height="34px" viewBox="0 0 34 34" version="1.1" xmlns="http://www.w3.org/2000/svg" xmlns:xlink="http://www.w3.org/1999/xlink">
    <!-- Generator: Sketch 51.3 (57544) - http://www.bohemiancoding.com/sketch -->
    <title>symbol</title>
    <desc>Created with Sketch.</desc>
    <defs></defs>
    <g id="Page-1" stroke="none" stroke-width="1" fill="none" fill-rule="evenodd">
        <g id="SwissOpenOncology-register-01" transform="translate(-1209.000000, -416.000000)" fill-rule="nonzero">
            <g id="E-mail" transform="translate(1190.000000, 408.000000)">
                <g id="Group-3">
                    <g id="symbol" transform="translate(19.000000, 8.000000)">
                        <path d="M7.96875,17 C7.96875,15.3154727 8.43286328,13.7374609 9.23916797,12.386293 L9.23916797,6.65490234 L3.50777734,6.65490234 C1.23303125,9.60918359 -1.42108547e-14,13.2096641 -1.42108547e-14,17 C-1.42108547e-14,20.7903359 1.23303125,24.3908164 3.50777734,27.3450977 L9.23916797,27.3450977 L9.23916797,21.613707 C8.43286328,20.2625391 7.96875,18.6845273 7.96875,17 Z" id="Shape" fill="#FBBD00"></path>
                        <path d="M17,26.03125 L13.015625,30.015625 L17,34 C20.7904023,34 24.3908164,32.7669688 27.3450977,30.4922227 L27.3450977,24.7669414 L21.6198164,24.7669414 C20.2568281,25.576168 18.6721758,26.03125 17,26.03125 Z" id="Shape" fill="#0F9D58"></path>
                        <path d="M9.23916797,21.613707 L3.50777734,27.3450977 C3.95814453,27.9300039 4.44855469,28.4901406 4.97920703,29.0208594 C8.19008203,32.231668 12.4591406,34 17,34 L17,26.03125 C13.7046562,26.03125 10.8164492,24.256875 9.23916797,21.613707 Z" id="Shape" fill="#31AA52"></path>
                        <path d="M34,17 C34,15.9657227 33.9063672,14.9295195 33.721625,13.9202773 L33.5721445,13.1035469 L17,13.1035469 L17,21.0722969 L25.0651719,21.0722969 C24.2819766,22.6302539 23.0777656,23.9013359 21.61975,24.7670078 L27.3450312,30.4922891 C27.9299375,30.0419219 28.4900742,29.5515117 29.020793,29.0208594 C32.231668,25.809918 34,21.5408594 34,17 Z" id="Shape" fill="#3C79E6"></path>
                        <path d="M23.3860898,10.6139102 L24.0903945,11.3182148 L29.7251641,5.68351172 L29.0208594,4.97920703 C25.8099844,1.76833203 21.5409258,0 17,0 L13.015625,3.984375 L17,7.96875 C19.4122734,7.96875 21.6802461,8.90813281 23.3860898,10.6139102 Z" id="Shape" fill="#CF2D48"></path>
                        <path d="M17,7.96875 L17,0 C12.4591406,0 8.19008203,1.76833203 4.97914063,4.97914062 C4.44848828,5.50979297 3.95807813,6.06992969 3.50771094,6.65490234 L9.23910156,12.386293 C10.8164492,9.743125 13.7046562,7.96875 17,7.96875 Z" id="Shape" fill="#EB4132"></path>
                    </g>
                </g>
            </g>
        </g>
    </g>
</svg>