<?xml version="1.0" encoding="UTF-8"?>
<svg width="34px" height="34px" viewBox="0 0 34 34" version="1.1" xmlns="http://www.w3.org/2000/svg" xmlns:xlink="http://www.w3.org/1999/xlink">
    <!-- Generator: Sketch 51.3 (57544) - http://www.bohemiancoding.com/sketch -->
    <title>Group 4</title>
    <desc>Created with Sketch.</desc>
    <defs></defs>
    <g id="Page-1" stroke="none" stroke-width="1" fill="none" fill-rule="evenodd">
        <g id="SwissOpenOncology-register-01" transform="translate(-1210.000000, -483.000000)">
            <g id="E-mail" transform="translate(1190.000000, 475.000000)">
                <g id="Group-4" transform="translate(20.000000, 8.000000)">
                    <circle id="Oval" fill="#0076B4" cx="17" cy="17" r="17"></circle>
                    <path d="M9.81793906,23.6969697 L9.81793906,12.4573003 L12.9351911,12.4573003 L12.9351911,23.6969697 L9.81793906,23.6969697 Z M11.3912001,11.0084366 C10.9277565,11.0084366 10.5301767,10.8535513 10.1984487,10.5437758 C9.86672068,10.2340004 9.70085917,9.86203156 9.70085917,9.42785813 C9.70085917,8.99856305 9.86672068,8.62903334 10.1984487,8.31925792 C10.5301767,8.0094825 10.9253174,7.85459711 11.3838826,7.85459711 C11.8522045,7.85459711 12.2510039,8.0094825 12.5802927,8.31925792 C12.9095815,8.62903334 13.0742235,8.99856305 13.0742235,9.42785813 C13.0742235,9.86203156 12.9095815,10.2340004 12.5802927,10.5437758 C12.2510039,10.8535513 11.8546436,11.0084366 11.3912001,11.0084366 Z M18.7876636,17.1990358 L18.7876636,23.6969697 L15.6704115,23.6969697 L15.6704115,12.4573003 L18.6413137,12.4573003 L18.6413137,14.4403409 L18.7730286,14.4403409 C19.0218246,13.7866416 19.4389175,13.2683243 20.0243199,12.8853736 C20.6097223,12.5024229 21.319512,12.3109504 22.1537104,12.3109504 C22.9342469,12.3109504 23.614767,12.4816902 24.195291,12.8231749 C24.775815,13.1646597 25.2270559,13.6512681 25.5490272,14.2830148 C25.8709985,14.9147615 26.0319817,15.6672362 26.0319817,16.5404614 L26.0319817,23.6969697 L22.9147297,23.6969697 L22.9147297,17.0965909 C22.919608,16.4087431 22.74399,15.8709128 22.3878702,15.4830837 C22.0317504,15.0952546 21.5414833,14.901343 20.9170541,14.901343 C20.4975157,14.901343 20.127986,14.9915912 19.8084539,15.1720902 C19.4889217,15.3525893 19.2401294,15.6147968 19.0620696,15.9587207 C18.8840097,16.3026446 18.7925419,16.7160789 18.7876636,17.1990358 Z" id="in" fill="#FFFFFF"></path>
                </g>
            </g>
        </g>
    </g>
</svg>