<?xml version="1.0" encoding="UTF-8"?>
<svg width="23px" height="31px" viewBox="0 0 23 31" version="1.1" xmlns="http://www.w3.org/2000/svg" xmlns:xlink="http://www.w3.org/1999/xlink">
    <!-- Generator: Sketch 51.3 (57544) - http://www.bohemiancoding.com/sketch -->
    <title>noun_Document_3106623</title>
    <desc>Created with Sketch.</desc>
    <defs></defs>
    <g id="Page-1" stroke="none" stroke-width="1" fill="none" fill-rule="evenodd" opacity="0.6">
        <g id="SwissOpenOncology-landing-page-01a" transform="translate(-889.000000, -238.000000)" fill="#000000" fill-rule="nonzero">
            <g id="noun_Document_3106623" transform="translate(889.000000, 238.000000)">
                <path d="M1.997,4.002 L2,4 C2,4 2,4 2,4 C2,4 2,4 2,4 C2.004,2.894 2.897,2 3.997,2 C4.004,0.894 4.899,0 6.002,0 L16.999,0 L22.999,7 L22.999,25.009 C22.999,26.102 22.105,27 21.002,27 C20.995,28.106 20.103,29 19.002,29 C18.995,30.106 18.103,31 17.002,31 L1.997,31 C0.89,31 0,30.101 0,28.993 L0,6.008 C0,4.899 0.894,4.001 1.997,4.001 L1.997,4.003 L1.997,4.002 Z M2,5 C1.448,5 1,5.455 1,5.995 L1,29.004 C1,29.554 1.455,29.999 2,29.999 L17,29.999 C17.552,29.999 18,29.544 18,29.004 L3.997,28.999 C2.89,28.999 2,28.1 2,26.992 L2,4.999 C2,4.999 2,4.999 2,4.999 L2,5 Z M4,3 C3.448,3 3,3.455 3,3.995 L3,27.004 C3,27.554 3.455,27.999 4,27.999 L19,27.999 C19.552,27.999 20,27.544 20,27.004 L20,26.999 L5.997,26.999 C4.89,26.999 4,26.1 4,24.992 L4,2.999 L4,3 Z M16,1 L5.996,1 C5.446,1 5,1.455 5,1.995 L5,25.004 C5,25.554 5.455,25.999 6,25.999 L21,25.999 C21.552,25.999 22,25.554 22,25.006 L22,7.999 L17.998,7.999 C16.895,7.999 16,7.112 16,5.993 L16,0.999 L16,1 Z M17,1.5 L17,5.991 C17,6.548 17.451,7 17.997,7 L21.7,7 L17,1.5 Z" id="Shape"></path>
            </g>
        </g>
    </g>
</svg>