<?xml version="1.0" encoding="UTF-8"?>
<svg width="23px" height="31px" viewBox="0 0 23 31" version="1.1" xmlns="http://www.w3.org/2000/svg" xmlns:xlink="http://www.w3.org/1999/xlink">
    <!-- Generator: Sketch 51.3 (57544) - http://www.bohemiancoding.com/sketch -->
    <title>noun_Book_3752322</title>
    <desc>Created with Sketch.</desc>
    <defs></defs>
    <g id="Page-1" stroke="none" stroke-width="1" fill="none" fill-rule="evenodd" opacity="0.597488839">
        <g id="SwissOpenOncology-landing-page-01a" transform="translate(-702.000000, -238.000000)" fill="#000000" fill-rule="nonzero">
            <g id="noun_Book_3752322" transform="translate(702.000000, 238.000000)">
                <path d="M19.8466376,0 L12.6903498,0 C12.4314985,0 12.2216253,0.201974673 12.2216253,0.451576182 L12.2216253,1.52142383 L3.49712444,1.52142383 C1.56889965,1.52142383 0,3.03270481 0,4.89060573 L0,27.6308181 C0,29.488719 1.56889965,31 3.49712444,31 L22.5312755,31 C22.7901267,31 23,30.7980253 23,30.5484238 L23,24.5235856 L23,1.97300001 C23,1.7233985 22.7901267,1.52142383 22.5312755,1.52142383 L20.3153621,1.52142383 L20.3153621,0.451576182 C20.3153621,0.201974673 20.1054889,0 19.8466376,0 Z M13.1590743,0.903152364 L19.3779131,0.903152364 L19.3779131,8.6214008 L16.5950902,6.01689995 C16.5042289,5.93178822 16.386361,5.88901222 16.2684937,5.88901222 C16.1506264,5.88901222 16.0327581,5.93178822 15.9418973,6.01689995 L13.1590743,8.6214008 L13.1590743,0.903152364 Z M22.062551,26.1975925 L3.94204617,26.1975925 C3.68319494,26.1975925 3.47332167,26.3995672 3.47332167,26.6491687 C3.47332167,26.8987702 3.68319494,27.1007449 3.94204617,27.1007449 L22.062551,27.1007449 L22.062551,28.1472199 L3.94204617,28.1472199 C3.68319494,28.1472199 3.47332167,28.3491945 3.47332167,28.598796 C3.47332167,28.8483975 3.68319494,29.0503722 3.94204617,29.0503722 L22.062551,29.0503722 L22.062551,30.0968472 L3.49712444,30.0968472 C2.08568716,30.0968472 0.937449001,28.9903975 0.937449001,27.6308177 L0.937449001,27.4411909 C0.937449001,26.0816115 2.08568669,24.9751613 3.49712444,24.9751613 L22.062551,24.9751613 L22.062551,26.1975925 Z M22.062551,2.42457574 L22.062551,24.0720094 L3.49712444,24.0720094 C2.48603694,24.0720094 1.57653845,24.4900425 0.937449001,25.1531849 L0.937449001,4.89060528 C0.937449001,3.5310259 2.08568669,2.42457574 3.49712444,2.42457574 L12.2216253,2.42457574 L12.2216253,9.68948414 C12.2216253,9.87073192 12.334458,10.034781 12.5079409,10.1053397 C12.6809664,10.1767805 12.8816845,10.1401779 13.0169467,10.0131721 L16.2684942,6.97032493 L19.5200417,10.0131721 C19.6093009,10.0969607 19.7269395,10.1410599 19.8466381,10.1410599 C19.9082041,10.1410599 19.9702276,10.1295939 20.0290469,10.1053393 C20.2025298,10.0347805 20.3153626,9.87073147 20.3153626,9.68948369 L20.3153626,2.42457619 L22.062551,2.42457574 Z" id="Shape"></path>
            </g>
        </g>
    </g>
</svg>