<?xml version="1.0" encoding="UTF-8"?>
<svg width="23px" height="32px" viewBox="0 0 23 32" version="1.1" xmlns="http://www.w3.org/2000/svg" xmlns:xlink="http://www.w3.org/1999/xlink">
    <!-- Generator: Sketch 51.3 (57544) - http://www.bohemiancoding.com/sketch -->
    <title>noun_Data_3235859</title>
    <desc>Created with Sketch.</desc>
    <defs></defs>
    <g id="Page-1" stroke="none" stroke-width="1" fill="none" fill-rule="evenodd" opacity="0.6">
        <g id="SwissOpenOncology-landing-page-01a" transform="translate(-1075.000000, -238.000000)" fill="#000000" fill-rule="nonzero">
            <g id="noun_Data_3235859" transform="translate(1075.000000, 238.000000)">
                <g id="Group">
                    <path d="M22.1110969,4.92749719 C22.1110969,4.95982043 22.1081633,4.99214366 22.1081633,5.02087542 C22.1052296,5.13939394 22.0876276,5.02805836 22.1140306,4.9993266 C22.0905612,5.02805836 22.0846939,5.1681257 22.0758929,5.21122334 C22.0700255,5.23636364 22.0612245,5.2650954 22.0553571,5.29023569 C22.0230867,5.41593715 22.0846939,5.22558923 22.0553571,5.29382716 C22.0260204,5.35847363 22.002551,5.42312009 21.9732143,5.48776655 C21.9438776,5.54882155 21.9057398,5.60628507 21.8764031,5.66734007 C21.85,5.71762065 21.9086735,5.61346801 21.9057398,5.62065095 C21.9028061,5.63142536 21.8793367,5.66015713 21.8734694,5.67093154 C21.85,5.70325477 21.8265306,5.73916947 21.8030612,5.7714927 C21.70625,5.90078563 21.6006378,6.02289562 21.4891582,6.1342312 C21.4656888,6.15937149 21.4422194,6.18092031 21.4158163,6.20606061 C21.5067602,6.11627385 21.3982143,6.22042649 21.3776786,6.23838384 C21.3102041,6.29943883 21.2397959,6.35690236 21.1723214,6.41077441 C21.0256378,6.52570146 20.8760204,6.63344557 20.7205357,6.73041526 C20.5445153,6.84175084 20.3655612,6.94590348 20.1866071,7.04287318 C20.1660714,7.05364759 20.0751276,7.1003367 20.1367347,7.06801347 C20.0839286,7.09315376 20.0311224,7.12188552 19.9783163,7.14702581 C19.8756378,7.1973064 19.7729592,7.24399551 19.6702806,7.29068462 C19.2243622,7.48821549 18.7696429,7.65701459 18.3119898,7.8006734 C18.0655612,7.87968575 17.816199,7.95151515 17.5668367,8.01616162 C17.5052296,8.03411897 17.4436224,8.04848485 17.3790816,8.0664422 C17.3526786,8.07362514 17.3233418,8.07721661 17.2969388,8.08799102 C17.1942602,8.13108866 17.4582908,8.07003367 17.2734694,8.09876543 C17.1443878,8.12031425 17.0182398,8.15622896 16.8920918,8.18496072 C15.9034439,8.40763187 14.9852041,8.54410774 13.9701531,8.6338945 C11.8227041,8.82783389 9.64885204,8.77755331 7.51020408,8.45072952 C7.09362245,8.38608305 6.59489796,8.29270483 6.13431122,8.18855219 C6.02576531,8.1634119 5.91721939,8.13468013 5.80867347,8.11313131 C5.78520408,8.10953984 5.68252551,8.10594837 5.66785714,8.08799102 C5.68252551,8.10594837 5.76760204,8.11313131 5.67665816,8.08080808 C5.60625,8.05566779 5.53290816,8.04489338 5.4625,8.02693603 C5.20433673,7.95869809 4.94617347,7.88327722 4.69094388,7.80426487 C4.23915816,7.66060606 3.7932398,7.4989899 3.35318878,7.30145903 C3.25637755,7.25836139 3.15956633,7.21526375 3.0627551,7.16857464 C3.01581633,7.14702581 2.96887755,7.12188552 2.92193878,7.1003367 C2.91313776,7.09674523 2.8309949,7.05364759 2.87793367,7.07878788 C2.92193878,7.1003367 2.81339286,7.04287318 2.81632653,7.04646465 C2.64030612,6.95308642 2.46721939,6.85252525 2.29706633,6.74478114 C2.14158163,6.64421998 1.99196429,6.54006734 1.84234694,6.42514029 C1.77780612,6.37485971 1.71033163,6.32098765 1.64872449,6.26352413 C1.61938776,6.23838384 1.59005102,6.20606061 1.55778061,6.18092031 C1.50790816,6.14141414 1.61645408,6.24197531 1.57244898,6.1952862 C1.55191327,6.17373737 1.53137755,6.15578002 1.51084184,6.13782267 C1.40229592,6.03007856 1.29961735,5.91156004 1.2057398,5.78585859 C1.18520408,5.75712682 1.16466837,5.72839506 1.14413265,5.6996633 C1.13239796,5.68170595 1.06785714,5.58114478 1.11186224,5.65297419 C1.15586735,5.72480359 1.09719388,5.62783389 1.08545918,5.60628507 C1.06785714,5.57396184 1.04732143,5.53804714 1.03265306,5.50572391 C1.00331633,5.44826038 0.976913265,5.38720539 0.953443878,5.32615039 C0.950510204,5.31896745 0.932908163,5.27586981 0.932908163,5.27586981 C0.935841837,5.26868687 0.965178571,5.39438833 0.956377551,5.34051627 C0.947576531,5.3010101 0.932908163,5.26150393 0.924107143,5.22199776 C0.909438776,5.16094276 0.900637755,5.09988777 0.888903061,5.0352413 C0.87130102,4.94904602 0.894770408,5.16094276 0.891836735,5.071156 C0.891836735,5.03164983 0.885969388,4.99214366 0.885969388,4.94904602 C0.885969388,4.89517396 0.888903061,4.84489338 0.891836735,4.79461279 C0.894770408,4.69046016 0.87130102,4.92390572 0.885969388,4.84130191 C0.891836735,4.81257015 0.894770408,4.78383838 0.900637755,4.75510662 C0.909438776,4.70482604 0.921173469,4.65454545 0.935841837,4.60426487 C0.941709184,4.57912458 0.953443878,4.55398429 0.959311224,4.528844 C0.971045918,4.467789 0.912372449,4.64736251 0.935841837,4.59349046 C0.944642857,4.57553311 0.947576531,4.55757576 0.956377551,4.53961841 C1.00038265,4.43546577 1.04732143,4.3349046 1.10306122,4.2379349 C1.11479592,4.21638608 1.13826531,4.19124579 1.14706633,4.1661055 C1.12653061,4.22356902 1.08545918,4.25948373 1.13826531,4.18406285 C1.17346939,4.13378227 1.21160714,4.08350168 1.2497449,4.0332211 C1.33188776,3.92906846 1.41989796,3.83209877 1.51084184,3.73872054 C1.53137755,3.72076319 1.54897959,3.69921437 1.56951531,3.68125701 C1.61938776,3.63097643 1.49030612,3.75308642 1.58125,3.6704826 C1.63405612,3.62379349 1.68979592,3.57351291 1.74553571,3.53041526 C1.98609694,3.3328844 2.24132653,3.16049383 2.50242347,3.00246914 C2.56989796,2.96296296 2.64030612,2.92345679 2.70778061,2.88395062 C2.73711735,2.86599327 2.76938776,2.85162738 2.79872449,2.83367003 C2.8192602,2.82289562 2.83979592,2.81212121 2.86033163,2.8013468 C2.93660714,2.75824916 2.81339286,2.82289562 2.86619898,2.79775533 C3.02461735,2.71874299 3.18303571,2.64332211 3.34438776,2.5714927 C4.08954082,2.24107744 4.86109694,1.99326599 5.63558673,1.79573513 C6.0815051,1.68080808 6.53035714,1.58742985 6.98214286,1.50482604 C7.23737245,1.45813692 7.36645408,1.4365881 7.61581633,1.4006734 C7.86517857,1.3647587 8.11747449,1.328844 8.36683673,1.30011223 C10.4468112,1.05948373 12.5531888,1.05948373 14.6331633,1.30011223 C14.8854592,1.328844 15.1348214,1.36116723 15.3841837,1.4006734 C15.6335459,1.4365881 15.7655612,1.45813692 16.0178571,1.50482604 C16.4696429,1.58742985 16.9184949,1.68439955 17.3644133,1.79573513 C18.1389031,1.99326599 18.9104592,2.23748597 19.6556122,2.5714927 C19.8169643,2.64332211 19.9753827,2.72233446 20.133801,2.79775533 C20.1924745,2.82648709 20.0663265,2.75824916 20.1220663,2.79057239 C20.1367347,2.79775533 20.1543367,2.80852974 20.1690051,2.81571268 C20.2100765,2.8372615 20.251148,2.85881033 20.2892857,2.88035915 C20.3626276,2.91986532 20.4359694,2.96296296 20.5093112,3.00606061 C20.7645408,3.16049383 21.0139031,3.32929293 21.2515306,3.52323232 C21.3072704,3.56992144 21.3600765,3.61661055 21.4158163,3.66329966 C21.4832908,3.72435466 21.4334184,3.65252525 21.409949,3.65611672 C21.4246173,3.65611672 21.4862245,3.7315376 21.4979592,3.74231201 C21.5859694,3.83209877 21.6710459,3.92547699 21.7502551,4.02603816 C21.7854592,4.07272727 21.8206633,4.11941639 21.8529337,4.1661055 C21.8764031,4.2020202 21.8910714,4.2630752 21.8734694,4.19124579 C21.8529337,4.11223345 21.8764031,4.19842873 21.8940051,4.22716049 C21.9526786,4.32772166 21.9996173,4.4318743 22.0436224,4.53961841 C22.0729592,4.61144781 22.0318878,4.60426487 22.0318878,4.50729517 C22.0318878,4.528844 22.0494898,4.56116723 22.0553571,4.58271605 C22.0700255,4.63299663 22.0817602,4.68327722 22.0905612,4.7335578 C22.0964286,4.75869809 22.0993622,4.78383838 22.1022959,4.80897868 C22.1228316,4.91313131 22.0993622,4.7335578 22.0993622,4.76228956 C22.1022959,4.81616162 22.1081633,4.87362514 22.1110969,4.92749719 C22.1140306,5.20763187 22.3135204,5.48058361 22.551148,5.46621773 C22.7887755,5.45185185 22.9941327,5.2291807 22.991199,4.92749719 C22.982398,3.56992144 21.9174745,2.66127946 21.0285714,2.11537598 C19.5470663,1.20673401 17.8807398,0.754208754 16.252551,0.456116723 C14.1021684,0.0646464646 11.9195153,-0.0466891134 9.74859694,0.0897867565 C7.80943878,0.211896745 5.8497449,0.509988777 3.9809949,1.17441077 C3.2622449,1.42940516 2.55229592,1.74545455 1.88928571,2.16565657 C1.39936224,2.47811448 0.903571429,2.86599327 0.539795918,3.38316498 C0.222959184,3.83569024 -0.0146683673,4.3959596 0.0146683673,5.01010101 C0.049872449,5.76071829 0.413647959,6.4 0.874234694,6.8704826 C1.49910714,7.50976431 2.2442602,7.9335578 3.00114796,8.28193042 C3.45586735,8.49023569 3.91938776,8.66621773 4.38877551,8.81705948 C4.65280612,8.90325477 4.91683673,8.97867565 5.18086735,9.05050505 C5.30408163,9.08282828 5.43022959,9.11874299 5.55637755,9.14747475 C5.59451531,9.15465769 5.63558673,9.16184063 5.67372449,9.1654321 C5.6502551,9.16184063 5.62678571,9.16184063 5.60331633,9.15824916 C5.61505102,9.15106622 5.69132653,9.17979798 5.6942602,9.17979798 C5.75586735,9.19416386 5.81747449,9.20852974 5.87908163,9.22289562 C8.05,9.71492705 10.2707908,9.88013468 12.4739796,9.8047138 C13.5682398,9.7687991 14.6595663,9.66464646 15.7450255,9.48866442 C16.2701531,9.40246914 16.7923469,9.30549944 17.3116071,9.17979798 C17.3350765,9.17620651 17.3585459,9.17261504 17.3820153,9.16184063 C17.4788265,9.12592593 17.2059949,9.18698092 17.39375,9.15465769 C17.4670918,9.14388328 17.5404337,9.12233446 17.6137755,9.1043771 C17.7545918,9.0684624 17.8954082,9.02895623 18.0362245,8.98945006 C18.2885204,8.91762065 18.5408163,8.84219978 18.7901786,8.75600449 C19.6614796,8.46150393 20.5357143,8.09158249 21.3248724,7.54567901 C21.8852041,7.16139169 22.4660714,6.64781145 22.7741071,5.93670034 C22.9119898,5.62424242 22.991199,5.27946128 22.9941327,4.92390572 C22.9970663,4.64377104 22.7887755,4.3708193 22.5540816,4.38518519 C22.3105867,4.40314254 22.1110969,4.62581369 22.1110969,4.92749719 Z" id="Shape"></path>
                    <path d="M22.1110969,12.3223345 C22.1110969,13.0873176 22.1110969,13.8523008 22.1110969,14.617284 C22.1110969,15.9066218 22.1110969,17.1959596 22.1110969,18.4888889 C22.1110969,18.8624018 22.1110969,19.2359147 22.1110969,19.6058361 C22.1110969,19.6668911 22.0876276,19.8428732 22.1022959,19.8787879 C22.0788265,19.8285073 22.1228316,19.7494949 22.1081633,19.8141414 C22.1052296,19.8285073 22.1052296,19.8392817 22.1022959,19.8536476 C22.0964286,19.8859708 22.0905612,19.9147026 22.0846939,19.9470258 C22.0788265,19.979349 22.0700255,20.0080808 22.0612245,20.040404 C22.0553571,20.0655443 22.0172194,20.1840629 22.0465561,20.0942761 C22.0758929,20.0044893 22.0406888,20.1122334 22.0289541,20.1337823 C22.0172194,20.1661055 22.002551,20.1948373 21.9908163,20.223569 C21.9614796,20.2882155 21.9262755,20.352862 21.8910714,20.4139169 C21.8852041,20.4282828 21.8764031,20.4390572 21.867602,20.4534231 C21.8382653,20.5108866 21.9262755,20.3672278 21.8881378,20.4210999 C21.867602,20.4498316 21.85,20.4785634 21.8294643,20.5072952 C21.7883929,20.5683502 21.7443878,20.6258137 21.697449,20.6796857 C21.6505102,20.7371493 21.6006378,20.7946128 21.5478316,20.8484848 C21.5214286,20.8772166 21.4950255,20.9059484 21.4656888,20.9310887 C21.4539541,20.9418631 21.4422194,20.956229 21.4304847,20.9670034 C21.3512755,21.0460157 21.4832908,20.9239057 21.4334184,20.9634119 C21.1517857,21.1896745 20.8789541,21.4123457 20.573852,21.5991021 C20.4917092,21.6493827 20.4095663,21.6996633 20.3244898,21.7463524 C20.2804847,21.7714927 20.2364796,21.7930415 20.1954082,21.8181818 C20.1778061,21.8289562 20.1572704,21.8397306 20.1396684,21.8469136 C20.0164541,21.91156 20.1807398,21.8253648 20.1103316,21.8612795 C19.9137755,21.9618406 19.7142857,22.0516274 19.5147959,22.1378227 C19.0776786,22.3245791 18.6317602,22.4826038 18.1829082,22.6226712 C16.2408163,23.2188552 14.3133929,23.4558923 12.3038265,23.5133558 C11.221301,23.545679 10.1387755,23.5133558 9.05918367,23.4163861 C8.07346939,23.3301908 7.18163265,23.2008979 6.22818878,22.9890011 C5.28647959,22.7806958 4.34770408,22.5077441 3.44413265,22.1162738 C3.2505102,22.03367 3.05982143,21.9438833 2.87206633,21.8469136 C2.93954082,21.8828283 2.82219388,21.8217733 2.80459184,21.8109989 C2.76058673,21.7858586 2.71658163,21.7643098 2.6755102,21.7391695 C2.58456633,21.6888889 2.49655612,21.6350168 2.40854592,21.5811448 C2.10931122,21.3943883 1.82767857,21.1824916 1.55484694,20.9454545 C1.64579082,21.0244669 1.55484694,20.9454545 1.53431122,20.9239057 C1.50790816,20.895174 1.47857143,20.8700337 1.45216837,20.8413019 C1.39642857,20.7838384 1.34362245,20.7227834 1.29375,20.6581369 C1.2497449,20.6042649 1.2057398,20.5468013 1.16173469,20.4857464 C1.14706633,20.4641975 1.10892857,20.4246914 1.10306122,20.3995511 C1.10306122,20.3923681 1.15880102,20.4965208 1.13239796,20.4462402 C1.12066327,20.4246914 1.1059949,20.4031425 1.0942602,20.3815937 C1.0619898,20.3241302 1.03265306,20.2630752 1.00331633,20.2020202 C0.991581633,20.1768799 0.979846939,20.1517396 0.971045918,20.1230079 C0.965178571,20.1050505 0.959311224,20.0870932 0.950510204,20.0727273 C0.921173469,20.0008979 0.971045918,20.1230079 0.968112245,20.1230079 C0.962244898,20.1265993 0.921173469,19.9542088 0.918239796,19.9398429 C0.912372449,19.9075196 0.906505102,19.8787879 0.900637755,19.8464646 C0.897704082,19.8320988 0.897704082,19.8213244 0.894770408,19.8069585 C0.877168367,19.7135802 0.897704082,19.9111111 0.900637755,19.8572391 C0.906505102,19.6237935 0.894770408,19.3867565 0.894770408,19.1497194 C0.894770408,17.9609428 0.894770408,16.7685746 0.894770408,15.579798 C0.894770408,14.549046 0.894770408,13.5147026 0.894770408,12.4839506 C0.894770408,12.4264871 0.894770408,12.3690236 0.894770408,12.31156 C0.601403061,12.31156 0.308035714,12.31156 0.0146683673,12.31156 C0.0264030612,13.8953984 1.42283163,14.854321 2.45548469,15.396633 C4.20688776,16.3124579 6.11377551,16.7326599 8.00012755,16.9804714 C10.0771684,17.2534231 12.1835459,17.2785634 14.2664541,17.0666667 C16.1733418,16.8727273 18.1183673,16.5135802 19.9225765,15.7054994 C20.6178571,15.3930415 21.3160714,15.0231201 21.9086735,14.4700337 C22.3633929,14.0462402 22.8005102,13.5075196 22.9413265,12.8035915 C22.9735969,12.6455668 22.991199,12.4767677 22.991199,12.31156 C22.9941327,12.0314254 22.7858418,11.7584736 22.551148,11.7728395 C22.3105867,11.7943883 22.1110969,12.0170595 22.1110969,12.3223345 C22.1110969,12.3546577 22.1081633,12.3869809 22.1081633,12.4157127 C22.1081633,12.440853 22.0964286,12.5378227 22.1081633,12.4372615 C22.119898,12.3331089 22.1052296,12.4516274 22.1022959,12.4731762 C22.0964286,12.5054994 22.0905612,12.5342312 22.0846939,12.5665544 C22.0817602,12.5773288 22.0436224,12.738945 22.0377551,12.738945 C22.0348214,12.738945 22.0876276,12.6096521 22.0553571,12.6886644 C22.0494898,12.7030303 22.0465561,12.7138047 22.0406888,12.7281706 C22.0289541,12.7569024 22.0172194,12.7892256 22.002551,12.8179574 C21.976148,12.8754209 21.9497449,12.9292929 21.9174745,12.983165 C21.9028061,13.0083053 21.8852041,13.0549944 21.8646684,13.0729517 C21.8617347,13.0765432 21.9262755,12.983165 21.8940051,13.0262626 C21.8822704,13.0406285 21.8705357,13.0585859 21.8617347,13.0765432 C21.7766582,13.1986532 21.6857143,13.3135802 21.5889031,13.4213244 C21.5390306,13.4751964 21.4891582,13.525477 21.4392857,13.5757576 C21.3747449,13.640404 21.4979592,13.525477 21.427551,13.586532 C21.3923469,13.6188552 21.3571429,13.647587 21.3219388,13.6799102 C21.1957908,13.7876543 21.0637755,13.8882155 20.9288265,13.9851852 C20.7821429,14.0893378 20.6295918,14.1863075 20.4770408,14.2760943 C20.3978316,14.3227834 20.3186224,14.365881 20.2394133,14.4089787 C20.1954082,14.434119 20.1514031,14.4556678 20.107398,14.4808081 C20.1719388,14.4448934 20.0575255,14.5059484 20.0369898,14.5167228 C19.2155612,14.9225589 18.3530612,15.2098765 17.4876276,15.4361392 C16.5987245,15.6695847 15.7538265,15.824018 14.8766582,15.9317621 C12.8758929,16.183165 10.8516582,16.2047138 8.84795918,16.0107744 C7.06135204,15.8383838 5.2630102,15.5007856 3.53214286,14.7681257 C3.34438776,14.6891134 3.15663265,14.6029181 2.97181122,14.5131313 C2.95420918,14.5023569 2.83392857,14.4413019 2.90140306,14.4772166 C2.86326531,14.4556678 2.82512755,14.4377104 2.7869898,14.4161616 C2.70191327,14.3694725 2.61683673,14.3227834 2.5317602,14.2725028 C2.23839286,14.1001122 1.95382653,13.9061728 1.68686224,13.6763187 C1.65459184,13.6511785 1.6252551,13.6224467 1.59591837,13.5937149 C1.51377551,13.5182941 1.63112245,13.6296296 1.57244898,13.5721661 C1.51670918,13.5182941 1.46390306,13.464422 1.41109694,13.403367 C1.31721939,13.2992144 1.22920918,13.1914703 1.14706633,13.0729517 C1.13533163,13.0585859 1.08252551,12.9687991 1.12359694,13.0406285 C1.16760204,13.1124579 1.10892857,13.0154882 1.09719388,12.9939394 C1.06492347,12.9364759 1.03558673,12.8754209 1.00625,12.8143659 C0.994515306,12.7892256 0.982780612,12.7640853 0.973979592,12.7353535 C0.965178571,12.7102132 0.92997449,12.6060606 0.956377551,12.6958474 C0.982780612,12.7856341 0.956377551,12.6886644 0.950510204,12.6671156 C0.941709184,12.6312009 0.932908163,12.5988777 0.924107143,12.562963 C0.915306122,12.5234568 0.915306122,12.4157127 0.894770408,12.3905724 C0.915306122,12.4193042 0.903571429,12.5270483 0.900637755,12.4264871 C0.900637755,12.3905724 0.897704082,12.3546577 0.897704082,12.318743 C0.894770408,12.0386083 0.698214286,11.7656566 0.457653061,11.7800224 C0.22002551,11.7943883 0.0176020408,12.0170595 0.0176020408,12.318743 C0.0176020408,13.1124579 0.0176020408,13.9025814 0.0176020408,14.6962963 C0.0176020408,16.0035915 0.0176020408,17.3108866 0.0176020408,18.6181818 C0.0176020408,18.962963 0.0176020408,19.3077441 0.0176020408,19.6525253 C0.0176020408,20.1553311 0.15255102,20.6294052 0.398979592,21.0316498 C0.809693878,21.6996633 1.39642857,22.1701459 2.00076531,22.5400673 C2.81339286,23.0356902 3.68469388,23.3840629 4.56479592,23.6570146 C6.56556122,24.2747475 8.64553571,24.5369248 10.7020408,24.5943883 C12.811352,24.6554433 14.9353316,24.4938272 17.0123724,24.034119 C17.96875,23.8222222 18.9221939,23.545679 19.8404337,23.1434343 C20.565051,22.827385 21.2955357,22.4430976 21.9116071,21.8720539 C22.3751276,21.4410774 22.8298469,20.8808081 22.9530612,20.1553311 C23.0029337,19.8608305 22.9941327,19.5627385 22.9941327,19.2646465 C22.9941327,18.0758698 22.9941327,16.8870932 22.9941327,15.6983165 C22.9941327,14.6316498 22.9941327,13.5685746 22.9941327,12.501908 C22.9941327,12.4444444 22.9941327,12.3833895 22.9941327,12.3259259 C22.9941327,12.0457912 22.7917092,11.7728395 22.5540816,11.7872054 C22.3105867,11.7943883 22.1110969,12.0170595 22.1110969,12.3223345 Z" id="Shape"></path>
                    <path d="M22.1110969,19.7135802 C22.1110969,20.5755331 22.1110969,21.4338945 22.1110969,22.2958474 C22.1110969,23.6390572 22.1110969,24.9786756 22.1110969,26.3218855 C22.1110969,26.5840629 22.1140306,26.8462402 22.1110969,27.1084175 C22.1110969,27.1551066 22.1081633,27.2017957 22.1052296,27.2520763 C22.0993622,27.3598204 22.128699,27.1299663 22.1110969,27.2053872 C22.1052296,27.2377104 22.1022959,27.2700337 22.0934949,27.3023569 C22.0817602,27.356229 22.0700255,27.410101 22.0553571,27.4639731 C22.0494898,27.4891134 22.0142857,27.5789001 22.0494898,27.4855219 C22.0876276,27.3849607 22.0406888,27.5034792 22.0318878,27.5250281 C21.9878827,27.6363636 21.9321429,27.7369248 21.8764031,27.837486 C21.8147959,27.9452301 21.9262755,27.7656566 21.8822704,27.830303 C21.8646684,27.8518519 21.85,27.8769921 21.832398,27.9021324 C21.7942602,27.9560045 21.7531888,28.0098765 21.7091837,28.0637486 C21.6211735,28.1714927 21.5272959,28.2684624 21.4304847,28.3654321 C21.3747449,28.4228956 21.5126276,28.2936027 21.41875,28.3762065 C21.3952806,28.3977553 21.3688776,28.4193042 21.3454082,28.440853 C21.2867347,28.4911336 21.2251276,28.5414141 21.1664541,28.5881033 C20.9082908,28.7928171 20.6354592,28.9687991 20.3567602,29.1232323 C20.2804847,29.16633 20.2042092,29.2058361 20.1279337,29.2489338 C20.0692602,29.281257 20.1983418,29.2130191 20.1396684,29.2417508 C20.1191327,29.2525253 20.0985969,29.2632997 20.0751276,29.2740741 C20.0311224,29.2956229 19.990051,29.3171717 19.9460459,29.3387205 C19.7700255,29.4213244 19.5940051,29.5003367 19.415051,29.5757576 C19.0248724,29.7373737 18.6317602,29.8774411 18.2327806,30.0031425 C16.2789541,30.610101 14.357398,30.847138 12.3331633,30.908193 C11.2183673,30.9405163 10.1006378,30.908193 8.98877551,30.8076319 C7.9619898,30.7142536 7.05841837,30.5777778 6.05803571,30.3479237 C5.21020408,30.1539843 4.37117347,29.9025814 3.55561224,29.5613917 C3.38545918,29.4895623 3.21237245,29.4141414 3.04515306,29.3315376 C3.00114796,29.3099888 2.96007653,29.28844 2.91607143,29.2668911 C2.89553571,29.2561167 2.875,29.2453423 2.85153061,29.2345679 C2.85446429,29.2345679 2.92487245,29.2740741 2.87793367,29.2489338 C2.79579082,29.2058361 2.71658163,29.1627385 2.63443878,29.1160494 C2.35280612,28.9544332 2.07704082,28.7784512 1.81594388,28.5701459 C1.76020408,28.5234568 1.70446429,28.4767677 1.64872449,28.4300786 C1.6252551,28.4085297 1.59885204,28.3869809 1.57538265,28.3654321 C1.49617347,28.2936027 1.64579082,28.4372615 1.55484694,28.3438833 C1.46096939,28.2505051 1.37295918,28.1535354 1.28788265,28.0493827 C1.2497449,27.9991021 1.21160714,27.952413 1.17346939,27.898541 C1.15586735,27.8769921 1.14119898,27.8518519 1.12359694,27.8267116 C1.07959184,27.7656566 1.15293367,27.8698092 1.15293367,27.8734007 C1.14706633,27.8554433 1.12946429,27.837486 1.12066327,27.8231201 C1.0619898,27.7189675 1.00918367,27.6148148 0.962244898,27.4998878 C0.953443878,27.4783389 0.918239796,27.3849607 0.953443878,27.4783389 C0.991581633,27.5789001 0.950510204,27.4675645 0.944642857,27.4460157 C0.92997449,27.3885522 0.915306122,27.3310887 0.903571429,27.2736251 C0.897704082,27.2484848 0.897704082,27.2233446 0.891836735,27.1982043 C0.874234694,27.1191919 0.900637755,27.356229 0.894770408,27.234119 C0.891836735,27.1910213 0.888903061,27.1443322 0.888903061,27.1012346 C0.888903061,27.0258137 0.888903061,26.9503928 0.888903061,26.8749719 C0.888903061,25.7005612 0.888903061,24.5261504 0.888903061,23.3517396 C0.888903061,22.2024691 0.888903061,21.0531987 0.888903061,19.9039282 C0.888903061,19.8392817 0.888903061,19.7746352 0.888903061,19.7099888 C0.595535714,19.7099888 0.302168367,19.7099888 0.00880102041,19.7099888 C0.0205357143,21.2938272 1.41696429,22.2527497 2.44961735,22.7950617 C4.20102041,23.7108866 6.10790816,24.1310887 7.9942602,24.3789001 C10.071301,24.6518519 12.1776786,24.6769921 14.2605867,24.4650954 C16.1674745,24.271156 18.1125,23.912009 19.9167092,23.1039282 C20.6119898,22.7914703 21.3102041,22.4215488 21.9028061,21.8684624 C22.3575255,21.4446689 22.7946429,20.9059484 22.9354592,20.2020202 C22.9677296,20.0439955 22.9853316,19.8751964 22.9853316,19.7099888 C22.9882653,19.4298541 22.7799745,19.1569024 22.5452806,19.1712682 C22.3105867,19.1892256 22.1110969,19.4118967 22.1110969,19.7135802 C22.1110969,19.7459035 22.1081633,19.7782267 22.1081633,19.8069585 C22.1081633,19.8320988 22.0964286,19.9290685 22.1081633,19.8285073 C22.119898,19.7243547 22.1052296,19.8428732 22.1022959,19.864422 C22.0964286,19.8967452 22.0905612,19.925477 22.0846939,19.9578002 C22.0817602,19.9685746 22.0436224,20.1301908 22.0377551,20.1301908 C22.0348214,20.1301908 22.0876276,20.0008979 22.0553571,20.0799102 C22.0494898,20.0942761 22.0465561,20.1050505 22.0406888,20.1194164 C22.0289541,20.1481481 22.0172194,20.1804714 22.002551,20.2092031 C21.976148,20.2666667 21.9497449,20.3205387 21.9174745,20.3744108 C21.9028061,20.3995511 21.8852041,20.4462402 21.8646684,20.4641975 C21.8617347,20.467789 21.9262755,20.3744108 21.8940051,20.4175084 C21.8822704,20.4318743 21.8705357,20.4498316 21.8617347,20.467789 C21.7766582,20.589899 21.6857143,20.704826 21.5889031,20.8125701 C21.5390306,20.8664422 21.4891582,20.9167228 21.4392857,20.9670034 C21.3747449,21.0316498 21.4979592,20.9167228 21.427551,20.9777778 C21.3923469,21.010101 21.3571429,21.0388328 21.3219388,21.071156 C21.1957908,21.1789001 21.0637755,21.2794613 20.9288265,21.376431 C20.7821429,21.4805836 20.6295918,21.5775533 20.4770408,21.6673401 C20.3978316,21.7140292 20.3186224,21.7571268 20.2394133,21.8002245 C20.1954082,21.8253648 20.1514031,21.8469136 20.107398,21.8720539 C20.1719388,21.8361392 20.0575255,21.8971942 20.0369898,21.9079686 C19.2155612,22.3138047 18.3530612,22.6011223 17.4876276,22.827385 C16.5987245,23.0608305 15.7538265,23.2152637 14.8766582,23.3230079 C12.8758929,23.5744108 10.8516582,23.5959596 8.84795918,23.4020202 C7.06135204,23.2296296 5.2630102,22.8920314 3.53214286,22.1593715 C3.34438776,22.0803591 3.15663265,21.9941639 2.97181122,21.9043771 C2.95420918,21.8936027 2.83392857,21.8325477 2.90140306,21.8684624 C2.86326531,21.8469136 2.82512755,21.8289562 2.7869898,21.8074074 C2.70191327,21.7607183 2.61683673,21.7140292 2.5317602,21.6637486 C2.23839286,21.491358 1.95382653,21.2974186 1.68686224,21.0675645 C1.65459184,21.0424242 1.6252551,21.0136925 1.59591837,20.9849607 C1.51377551,20.9095398 1.63112245,21.0208754 1.57244898,20.9634119 C1.51670918,20.9095398 1.46390306,20.8556678 1.41109694,20.7946128 C1.31721939,20.6904602 1.22920918,20.582716 1.14706633,20.4641975 C1.13533163,20.4498316 1.08252551,20.3600449 1.12359694,20.4318743 C1.16760204,20.5037037 1.10892857,20.406734 1.09719388,20.3851852 C1.06492347,20.3277217 1.03558673,20.2666667 1.00625,20.2056117 C0.994515306,20.1804714 0.982780612,20.1553311 0.973979592,20.1265993 C0.965178571,20.101459 0.92997449,19.9973064 0.956377551,20.0870932 C0.982780612,20.1768799 0.956377551,20.0799102 0.950510204,20.0583614 C0.941709184,20.0224467 0.932908163,19.9901235 0.924107143,19.9542088 C0.915306122,19.9147026 0.915306122,19.8069585 0.894770408,19.7818182 C0.915306122,19.8105499 0.903571429,19.9182941 0.900637755,19.8177329 C0.900637755,19.7818182 0.897704082,19.7459035 0.897704082,19.7099888 C0.894770408,19.4298541 0.698214286,19.1569024 0.457653061,19.1712682 C0.22002551,19.1856341 0.0176020408,19.4083053 0.0176020408,19.7099888 C0.0176020408,20.6006734 0.0176020408,21.4877666 0.0176020408,22.3784512 C0.0176020408,23.7252525 0.0176020408,25.0720539 0.0176020408,26.4188552 C0.0176020408,26.6810325 0.00586734694,26.9503928 0.0205357143,27.2125701 C0.0616071429,27.8518519 0.328571429,28.4049383 0.698214286,28.8466891 C1.13239796,29.3674523 1.67512755,29.7517396 2.22372449,30.0606061 C2.95420918,30.4736251 3.72283163,30.7824916 4.5002551,31.0267116 C6.50982143,31.6588103 8.60446429,31.9209877 10.6756378,31.9820426 C12.8524235,32.0466891 15.0438776,31.87789 17.1854592,31.3858586 C18.0450255,31.1883277 18.8987245,30.9369248 19.7230867,30.5849607 C20.3890306,30.3012346 21.0549745,29.9636364 21.6475765,29.4895623 C22.0905612,29.1340067 22.5364796,28.685073 22.7829082,28.0960718 C22.9383929,27.7261504 22.9941327,27.349046 22.9941327,26.9396184 C22.9941327,25.7795735 22.9941327,24.6195286 22.9941327,23.4630752 C22.9941327,22.2814815 22.9941327,21.0962963 22.9941327,19.9147026 C22.9941327,19.8464646 22.9941327,19.7818182 22.9941327,19.7135802 C22.9941327,19.4334456 22.7917092,19.1604938 22.5540816,19.1748597 C22.3105867,19.1892256 22.1110969,19.4118967 22.1110969,19.7135802 Z" id="Shape"></path>
                    <path d="M22.1110969,4.92749719 C22.1110969,5.69248036 22.1110969,6.45746352 22.1110969,7.22244669 C22.1110969,8.51178451 22.1110969,9.80112233 22.1110969,11.0940516 C22.1110969,11.4675645 22.1110969,11.8410774 22.1110969,12.2109989 C22.1110969,12.2720539 22.0876276,12.4480359 22.1022959,12.4839506 C22.0788265,12.43367 22.1228316,12.3546577 22.1081633,12.4193042 C22.1052296,12.43367 22.1052296,12.4444444 22.1022959,12.4588103 C22.0964286,12.4911336 22.0905612,12.5198653 22.0846939,12.5521886 C22.0788265,12.5845118 22.0700255,12.6132435 22.0612245,12.6455668 C22.0553571,12.6707071 22.0172194,12.7892256 22.0465561,12.6994388 C22.0758929,12.6096521 22.0406888,12.7173962 22.0289541,12.738945 C22.0172194,12.7712682 22.002551,12.8 21.9908163,12.8287318 C21.9614796,12.8933782 21.9262755,12.9580247 21.8910714,13.0190797 C21.8852041,13.0334456 21.8764031,13.04422 21.867602,13.0585859 C21.8382653,13.1160494 21.9262755,12.9723906 21.8881378,13.0262626 C21.867602,13.0549944 21.85,13.0837262 21.8294643,13.1124579 C21.7883929,13.1735129 21.7443878,13.2309764 21.697449,13.2848485 C21.6505102,13.342312 21.6006378,13.3997755 21.5478316,13.4536476 C21.5214286,13.4823793 21.4950255,13.5111111 21.4656888,13.5362514 C21.4539541,13.5470258 21.4422194,13.5613917 21.4304847,13.5721661 C21.3512755,13.6511785 21.4832908,13.5290685 21.4334184,13.5685746 C21.1517857,13.7948373 20.8789541,14.0175084 20.573852,14.2042649 C20.4917092,14.2545455 20.4095663,14.304826 20.3244898,14.3515152 C20.2804847,14.3766554 20.2364796,14.3982043 20.1954082,14.4233446 C20.1778061,14.434119 20.1572704,14.4448934 20.1396684,14.4520763 C20.0164541,14.5167228 20.1807398,14.4305275 20.1103316,14.4664422 C19.9137755,14.5670034 19.7142857,14.6567901 19.5147959,14.7429854 C19.0776786,14.9297419 18.6317602,15.0877666 18.1829082,15.2278339 C16.2408163,15.824018 14.3133929,16.061055 12.3038265,16.1185185 C11.221301,16.1508418 10.1387755,16.1185185 9.05918367,16.0215488 C8.07346939,15.9353535 7.18163265,15.8060606 6.22818878,15.5941639 C5.28647959,15.3858586 4.34770408,15.1129068 3.44413265,14.7214366 C3.2505102,14.6388328 3.05982143,14.549046 2.87206633,14.4520763 C2.93954082,14.487991 2.82219388,14.426936 2.80459184,14.4161616 C2.76058673,14.3910213 2.71658163,14.3694725 2.6755102,14.3443322 C2.58456633,14.2940516 2.49655612,14.2401796 2.40854592,14.1863075 C2.10931122,13.9995511 1.82767857,13.7876543 1.55484694,13.5506173 C1.64579082,13.6296296 1.55484694,13.5506173 1.53431122,13.5290685 C1.50790816,13.5003367 1.47857143,13.4751964 1.45216837,13.4464646 C1.39642857,13.3890011 1.34362245,13.3279461 1.29375,13.2632997 C1.2497449,13.2094276 1.2057398,13.1519641 1.16173469,13.0909091 C1.14706633,13.0693603 1.10892857,13.0298541 1.10306122,13.0047138 C1.10306122,12.9975309 1.15880102,13.1016835 1.13239796,13.0514029 C1.12066327,13.0298541 1.1059949,13.0083053 1.0942602,12.9867565 C1.0619898,12.9292929 1.03265306,12.8682379 1.00331633,12.8071829 C0.991581633,12.7820426 0.979846939,12.7569024 0.971045918,12.7281706 C0.965178571,12.7102132 0.959311224,12.6922559 0.950510204,12.67789 C0.921173469,12.6060606 0.971045918,12.7281706 0.968112245,12.7281706 C0.962244898,12.7317621 0.921173469,12.5593715 0.918239796,12.5450056 C0.912372449,12.5126824 0.906505102,12.4839506 0.900637755,12.4516274 C0.897704082,12.4372615 0.897704082,12.4264871 0.894770408,12.4121212 C0.877168367,12.318743 0.897704082,12.5162738 0.900637755,12.4624018 C0.906505102,12.2289562 0.894770408,11.9919192 0.894770408,11.7548822 C0.894770408,10.5661055 0.894770408,9.37732884 0.894770408,8.18496072 C0.894770408,7.15420875 0.894770408,6.11986532 0.894770408,5.08911336 C0.894770408,5.03164983 0.894770408,4.97418631 0.894770408,4.91672278 C0.601403061,4.91672278 0.308035714,4.91672278 0.0146683673,4.91672278 C0.0264030612,6.51133558 1.43456633,7.47025814 2.47602041,8.00897868 C3.33852041,8.45791246 4.23915816,8.78114478 5.15446429,9.02895623 C5.26887755,9.06127946 5.38622449,9.09360269 5.50063776,9.11874299 C5.5505102,9.1295174 5.62678571,9.12592593 5.67079082,9.15106622 C5.67079082,9.15106622 5.55344388,9.12233446 5.62385204,9.14747475 C5.68252551,9.16902357 5.74706633,9.17620651 5.80867347,9.19057239 C6.0375,9.24444444 6.2692602,9.29113356 6.49808673,9.33782267 C6.9880102,9.43479237 7.48086735,9.51380471 7.97372449,9.57845118 C10.0683673,9.85499439 12.1923469,9.88013468 14.2928571,9.66464646 C15.2668367,9.5640853 16.234949,9.41324355 17.1942602,9.19057239 C17.2470663,9.17979798 17.3028061,9.16902357 17.3556122,9.15106622 C17.3878827,9.14029181 17.4289541,9.15824916 17.3673469,9.14388328 C17.2617347,9.12233446 17.4289541,9.13310887 17.4758929,9.12233446 C17.6108418,9.09360269 17.7428571,9.05409652 17.8778061,9.01818182 C18.1183673,8.95353535 18.3559949,8.88170595 18.5936224,8.80628507 C19.0336735,8.66621773 19.4737245,8.5010101 19.9020408,8.31066218 C20.6002551,8.00179574 21.3014031,7.62828283 21.8969388,7.07878788 C22.3575255,6.65499439 22.8005102,6.11268238 22.9413265,5.40157127 C22.9735969,5.24354658 22.991199,5.07474747 22.991199,4.90953984 C22.9941327,4.62940516 22.7858418,4.35645342 22.551148,4.3708193 C22.3105867,4.40314254 22.1110969,4.62581369 22.1110969,4.92749719 C22.1110969,4.95982043 22.1081633,4.99214366 22.1081633,5.02087542 C22.1081633,5.04601571 22.0964286,5.14298541 22.1081633,5.04242424 C22.119898,4.94186308 22.1052296,5.05319865 22.1022959,5.07833895 C22.0964286,5.11066218 22.0905612,5.13939394 22.0846939,5.17171717 C22.0817602,5.18249158 22.0436224,5.34410774 22.0377551,5.34410774 C22.0289541,5.34051627 22.0846939,5.22199776 22.0553571,5.29382716 C22.0494898,5.30819304 22.0465561,5.31896745 22.0406888,5.33333333 C22.0289541,5.3620651 22.0172194,5.39438833 22.002551,5.42312009 C21.976148,5.48417508 21.9438776,5.54523008 21.9116071,5.6026936 C21.9057398,5.61346801 21.8764031,5.67811448 21.867602,5.67811448 C21.8646684,5.67811448 21.9292092,5.58832772 21.8969388,5.63142536 C21.8822704,5.65297419 21.8705357,5.67452301 21.8558673,5.69248036 C21.7737245,5.81099888 21.6857143,5.91874299 21.5889031,6.02289562 C21.5390306,6.07676768 21.4891582,6.12704826 21.4392857,6.17732884 C21.3806122,6.23838384 21.5067602,6.11986532 21.4158163,6.19887767 C21.3864796,6.22760943 21.3542092,6.25274972 21.3248724,6.28148148 C21.1987245,6.38922559 21.0667092,6.48978676 20.9317602,6.58675645 C20.7792092,6.69450056 20.6207908,6.79506173 20.4623724,6.88843996 C20.3831633,6.93512907 20.3039541,6.97822671 20.2247449,7.02132435 C20.1866071,7.04287318 20.1484694,7.06083053 20.1103316,7.08237935 C20.1807398,7.04646465 20.0399235,7.11829405 20.0193878,7.12547699 C19.1862245,7.53131313 18.3237245,7.81863075 17.4553571,8.04489338 C17.402551,8.05925926 17.3468112,8.0664422 17.2940051,8.08439955 C17.2265306,8.10953984 17.3145408,8.08439955 17.3292092,8.08439955 C17.2734694,8.08439955 17.2206633,8.1023569 17.1678571,8.11313131 C17.0593112,8.1382716 16.9507653,8.1634119 16.8422194,8.18855219 C16.6280612,8.2352413 16.4109694,8.28193042 16.1968112,8.32143659 C15.7391582,8.40763187 15.3519133,8.46868687 14.8737245,8.52974186 C12.8729592,8.78114478 10.8487245,8.8026936 8.84502551,8.60875421 C7.90918367,8.51896745 7.07308673,8.39326599 6.15778061,8.18855219 C6.05803571,8.16700337 5.95535714,8.14186308 5.85561224,8.11672278 C5.81454082,8.10594837 5.77053571,8.09876543 5.72946429,8.09158249 C5.57984694,8.0664422 5.72066327,8.09517396 5.73239796,8.08799102 C5.7059949,8.10594837 5.57691327,8.04848485 5.54464286,8.04130191 C5.30114796,7.97665544 5.06058673,7.90841751 4.82002551,7.8365881 C4.39170918,7.7037037 3.9692602,7.55645342 3.55267857,7.38047138 C3.3619898,7.30145903 3.17423469,7.21526375 2.98941327,7.12547699 C2.9630102,7.11111111 2.93660714,7.1003367 2.91020408,7.08597082 C2.90727041,7.08597082 2.84272959,7.05364759 2.88380102,7.07160494 C2.92487245,7.09315376 2.86326531,7.06083053 2.86033163,7.05723906 C2.84272959,7.04646465 2.82219388,7.03569024 2.80459184,7.0285073 C2.71364796,6.97822671 2.61977041,6.92794613 2.52882653,6.87407407 C2.23545918,6.7016835 1.95089286,6.50774411 1.68392857,6.27789001 C1.65752551,6.25634119 1.63112245,6.2312009 1.60471939,6.20965208 C1.58711735,6.1952862 1.56951531,6.17732884 1.55484694,6.16296296 C1.55484694,6.16296296 1.61938776,6.22760943 1.58125,6.18810325 C1.5255102,6.1342312 1.47270408,6.08035915 1.41696429,6.02289562 C1.32308673,5.91874299 1.23214286,5.81099888 1.15293367,5.69248036 C1.14413265,5.67811448 1.07665816,5.57396184 1.12066327,5.64579125 C1.16466837,5.72121212 1.10306122,5.61346801 1.0942602,5.59910213 C1.0619898,5.54163861 1.03265306,5.48058361 1.00331633,5.41952862 C0.991581633,5.39438833 0.979846939,5.36924804 0.971045918,5.34051627 C0.959311224,5.30819304 0.947576531,5.21840629 0.953443878,5.3010101 C0.962244898,5.38002245 0.953443878,5.30460157 0.947576531,5.27227834 C0.93877551,5.23636364 0.92997449,5.2040404 0.921173469,5.1681257 C0.912372449,5.12861953 0.912372449,5.02087542 0.891836735,4.99573513 C0.912372449,5.02446689 0.900637755,5.132211 0.897704082,5.03164983 C0.897704082,4.99573513 0.894770408,4.95982043 0.894770408,4.92390572 C0.891836735,4.64377104 0.695280612,4.3708193 0.454719388,4.38518519 C0.217091837,4.39955107 0.0146683673,4.62222222 0.0146683673,4.92390572 C0.0146683673,5.71762065 0.0146683673,6.50774411 0.0146683673,7.30145903 C0.0146683673,8.60875421 0.0146683673,9.91604938 0.0146683673,11.2233446 C0.0146683673,11.5681257 0.0146683673,11.9129068 0.0146683673,12.257688 C0.0146683673,12.7604938 0.149617347,13.2345679 0.396045918,13.6368126 C0.806760204,14.304826 1.3934949,14.7753086 1.99783163,15.1452301 C2.81045918,15.640853 3.6817602,15.9892256 4.56186224,16.2621773 C6.56262755,16.8799102 8.64260204,17.1420875 10.6991071,17.1995511 C12.8084184,17.2606061 14.932398,17.0989899 17.0094388,16.6392817 C17.9658163,16.427385 18.9192602,16.1508418 19.8375,15.7485971 C20.5621173,15.4325477 21.292602,15.0482604 21.9086735,14.4772166 C22.3721939,14.0462402 22.8269133,13.4859708 22.9501276,12.7604938 C23,12.4659933 22.991199,12.1679012 22.991199,11.8698092 C22.991199,10.6810325 22.991199,9.49225589 22.991199,8.30347924 C22.991199,7.23681257 22.991199,6.17373737 22.991199,5.10707071 C22.991199,5.04960718 22.991199,4.98855219 22.991199,4.93108866 C22.991199,4.65095398 22.7887755,4.37800224 22.551148,4.39236813 C22.3105867,4.40314254 22.1110969,4.62581369 22.1110969,4.92749719 Z" id="Shape"></path>
                </g>
            </g>
        </g>
    </g>
</svg>