<svg xmlns="http://www.w3.org/2000/svg" width="39" height="39" viewBox="0 0 39 39">
    <g fill="none" fill-rule="evenodd">
        <g>
            <g>
                <g transform="translate(-744.000000, -360.000000) translate(714.000000, 330.000000) translate(30.000000, 30.000000)">
                    <circle cx="19.5" cy="19.5" r="19.5" fill="#1C94A3"/>
                    <g fill="#FFF">
                        <path d="M3.796.744c.46.594.657.925 1.052 1.52.46.66.329 1.584-.329 2.047l-1.118.792c-1.38.991 3.42 7.86 4.866 6.87l1.118-.793c.658-.462 1.579-.33 2.039.33.395.595.658.925 1.052 1.52.46.66.46 1.85-.197 2.312C6.689 19.305-4.096 4.245 1.626.216c.657-.463 1.71-.133 2.17.528z" transform="translate(13.000000, 12.000000)"/>
                    </g>
                </g>
            </g>
        </g>
    </g>
</svg>
