<?xml version="1.0" encoding="UTF-8"?>
<svg width="14px" height="18px" viewBox="0 0 14 18" version="1.1" xmlns="http://www.w3.org/2000/svg" xmlns:xlink="http://www.w3.org/1999/xlink">
    <!-- Generator: Sketch 51.3 (57544) - http://www.bohemiancoding.com/sketch -->
    <title>Group 16</title>
    <desc>Created with Sketch.</desc>
    <defs></defs>
    <g id="Page-1" stroke="none" stroke-width="1" fill="none" fill-rule="evenodd">
        <g id="SwissOpenOncology-04" transform="translate(-1165.000000, -210.000000)" fill="#000000">
            <g id="Group-16" transform="translate(1165.000000, 210.000000)">
                <g id="noun_Book_1998739" fill-rule="nonzero">
                    <g id="Group">
                        <path d="M13.6956522,0 L1.52173913,0 C0.681722954,0.0009918349 0.00100620932,0.671984055 -1.77635684e-15,1.5 L-1.77635684e-15,16.5 C0.00100620932,17.3280159 0.681722954,17.9990082 1.52173913,18 L13.6956522,18 C13.8637388,18 14,17.8656854 14,17.7 L14,0.3 C14,0.134314575 13.8637388,0 13.6956522,0 Z M1.52173913,0.6 L13.3913043,0.6 L13.3913043,1.2 L1.82608696,1.2 L1.82608696,1.8 L13.3913043,1.8 L13.3913043,2.4 L1.52173913,2.4 C1.01747915,2.39999999 0.608695666,1.99705627 0.608695666,1.5 C0.608695666,1.00294373 1.01747915,0.600000007 1.52173913,0.6 Z M0.608695652,16.5 L0.608695652,2.6922 C0.787886327,2.82857124 0.995930851,2.92341725 1.2173913,2.9697 L1.2173913,17.3448 C0.853893215,17.2181236 0.610293902,16.8800356 0.608695652,16.5 Z M1.82608696,17.4 L1.82608696,3 L13.3913043,3 L13.3913043,17.4 L1.82608696,17.4 Z" id="Shape"></path>
                    </g>
                </g>
                <path d="M7.23295455,12.7840909 C6.81817974,12.7840909 6.44176305,12.7052565 6.10369318,12.5475852 C5.76562331,12.389914 5.49716009,12.1612231 5.29829545,11.8615057 C5.09943082,11.5617883 5,11.1988658 5,10.7727273 C5,10.3977254 5.0738629,10.0930409 5.22159091,9.85866477 C5.36931892,9.6242886 5.56676013,9.44034158 5.81392045,9.30681818 C6.06108078,9.17329479 6.33451555,9.07315374 6.63423295,9.00639205 C6.93395036,8.93963035 7.23579393,8.88636384 7.53977273,8.84659091 C7.93750199,8.79545429 8.26065217,8.75639218 8.50923295,8.72940341 C8.75781374,8.70241464 8.93963011,8.65625033 9.0546875,8.59090909 C9.16974489,8.52556786 9.22727273,8.41193263 9.22727273,8.25 L9.22727273,8.21590909 C9.22727273,7.79545244 9.11292728,7.46875116 8.88423295,7.23579545 C8.65553863,7.00283974 8.30966141,6.88636364 7.84659091,6.88636364 C7.36647487,6.88636364 6.99005818,6.99147622 6.71732955,7.20170455 C6.44460091,7.41193287 6.25284146,7.63636244 6.14204545,7.875 L5.1875,7.53409091 C5.3579554,7.13636165 5.58593607,6.82599543 5.87144886,6.60298295 C6.15696165,6.37997048 6.46945853,6.22372204 6.80894886,6.13423295 C7.1484392,6.04474387 7.4829529,6 7.8125,6 C8.02272832,6 8.2649134,6.02485771 8.5390625,6.07457386 C8.8132116,6.12429002 9.07883394,6.22585151 9.3359375,6.37926136 C9.59304106,6.53267122 9.80681733,6.764203 9.97727273,7.07386364 C10.1477281,7.38352428 10.2329545,7.79829286 10.2329545,8.31818182 L10.2329545,12.6306818 L9.22727273,12.6306818 L9.22727273,11.7443182 L9.17613636,11.7443182 C9.1079542,11.8863643 8.99431898,12.0383515 8.83522727,12.2002841 C8.67613557,12.3622167 8.46448996,12.4999994 8.20028409,12.6136364 C7.93607822,12.7272733 7.61363827,12.7840909 7.23295455,12.7840909 Z M7.38636364,11.8806818 C7.7840929,11.8806818 8.12002704,11.8025576 8.39417614,11.6463068 C8.66832523,11.490056 8.87570952,11.2883535 9.01633523,11.0411932 C9.15696093,10.7940329 9.22727273,10.5340923 9.22727273,10.2613636 L9.22727273,9.34090909 C9.18465888,9.39204571 9.09162004,9.43821002 8.94815341,9.47940341 C8.80468678,9.5205968 8.6399157,9.55610781 8.45383523,9.5859375 C8.26775475,9.61576719 8.08735883,9.64133512 7.91264205,9.66264205 C7.73792526,9.68394897 7.59659145,9.70170447 7.48863636,9.71590909 C7.22727142,9.75000017 6.9836659,9.80468712 6.7578125,9.87997159 C6.5319591,9.95525606 6.35014273,10.0674708 6.21235795,10.2166193 C6.07457317,10.3657678 6.00568182,10.5681805 6.00568182,10.8238636 C6.00568182,11.1732972 6.13565211,11.4367889 6.39559659,11.6143466 C6.65554107,11.7919043 6.98579345,11.8806818 7.38636364,11.8806818 Z" id="a"></path>
            </g>
        </g>
    </g>
</svg>