<?xml version="1.0" encoding="UTF-8"?>
<svg width="17px" height="21px" viewBox="0 0 17 21" version="1.1" xmlns="http://www.w3.org/2000/svg" xmlns:xlink="http://www.w3.org/1999/xlink">
    <!-- Generator: Sketch 51.3 (57544) - http://www.bohemiancoding.com/sketch -->
    <title>Group 11</title>
    <desc>Created with Sketch.</desc>
    <defs></defs>
    <g id="Page-1" stroke="none" stroke-width="1" fill="none" fill-rule="evenodd">
        <g id="SwissOpenOncology-landing-page-01a" transform="translate(-624.000000, -412.000000)">
            <g id="Group-10" transform="translate(600.000000, 398.000000)">
                <g id="Group-11" transform="translate(24.000000, 14.000000)">
                    <g id="noun_Book_607337" fill="#1C94A3" fill-rule="nonzero">
                        <path d="M1.7,2.625 C1.22995,2.625 0.85,2.233875 0.85,1.75 C0.85,1.266125 1.22995,0.875 1.7,0.875 L1.7527,0.875 L15.3,0.875 C15.5346,0.875 15.725,0.679 15.725,0.4375 C15.725,0.196 15.5346,0 15.3,0 L1.7,0 C0.76075,0 0,0.784 0,1.75 L0,19.25 C0,20.216 0.76075,21 1.7,21 L15.3,21 C16.2384,21 17,20.216 17,19.25 L17,4.375 C17,3.408125 16.2384,2.625 15.3,2.625 L1.7527,2.625 L1.7,2.625 Z M4.25,6.125 L13.6,6.125 L13.6,7.875 L4.25,7.875 L4.25,6.125 Z" id="Shape"></path>
                    </g>
                    <path d="M9,13 L14,13 L14,19 C12.8926866,18.1031901 12.0593533,17.6547852 11.5,17.6547852 C10.9406467,17.6547852 10.1073134,18.1031901 9,19 L9,13 Z" id="Rectangle-24" fill="#F7D362"></path>
                </g>
            </g>
        </g>
    </g>
</svg>