<?xml version="1.0" encoding="UTF-8"?>
<svg width="18px" height="18px" viewBox="0 0 18 18" version="1.1" xmlns="http://www.w3.org/2000/svg" xmlns:xlink="http://www.w3.org/1999/xlink">
    <!-- Generator: Sketch 51.3 (57544) - http://www.bohemiancoding.com/sketch -->
    <title>noun_Search_1221912</title>
    <desc>Created with Sketch.</desc>
    <defs></defs>
    <g id="Page-1" stroke="none" stroke-width="1" fill="none" fill-rule="evenodd">
        <g id="SwissOpenOncology-landing-page-01a" transform="translate(-1161.000000, -413.000000)" fill="#1C94A3" fill-rule="nonzero">
            <g id="Group-10" transform="translate(600.000000, 398.000000)">
                <g id="noun_Search_1221912" transform="translate(561.000000, 15.000000)">
                    <path d="M7.84883721,15.6794425 C9.62790698,15.6794425 11.2813953,15.0731707 12.6,14.0696864 L16.2209302,17.6864111 C16.4302326,17.8954704 16.7023256,18 16.9534884,18 C17.2046512,18 17.4976744,17.8954704 17.6860465,17.6864111 C18.1046512,17.2682927 18.1046512,16.6202091 17.6860465,16.2020906 L14.0860465,12.5853659 C15.0906977,11.2682927 15.6976744,9.61672474 15.6976744,7.83972125 C15.6976744,3.51219512 12.1813953,0 7.84883721,0 C3.51627907,0 0,3.51219512 0,7.83972125 C0,12.1672474 3.51627907,15.6794425 7.84883721,15.6794425 Z M7.84883721,2.09059233 C11.0093023,2.09059233 13.6046512,4.66202091 13.6046512,7.83972125 C13.6046512,11.0174216 11.0093023,13.5888502 7.84883721,13.5888502 C4.68837209,13.5888502 2.09302326,10.9965157 2.09302326,7.83972125 C2.09302326,4.68292683 4.66744186,2.09059233 7.84883721,2.09059233 Z" id="Shape"></path>
                </g>
            </g>
        </g>
    </g>
</svg>