<?xml version="1.0" encoding="UTF-8"?>
<svg width="14px" height="18px" viewBox="0 0 14 18" version="1.1" xmlns="http://www.w3.org/2000/svg" xmlns:xlink="http://www.w3.org/1999/xlink">
    <!-- Generator: Sketch 51.3 (57544) - http://www.bohemiancoding.com/sketch -->
    <title>Group 23</title>
    <desc>Created with Sketch.</desc>
    <defs></defs>
    <g id="Page-1" stroke="none" stroke-width="1" fill="none" fill-rule="evenodd">
        <g id="SwissOpenOncology-04" transform="translate(-1368.000000, -210.000000)" fill="#000000">
            <g id="Group-23" transform="translate(1368.000000, 210.000000)">
                <g id="Group-16" fill-rule="nonzero">
                    <g id="noun_Book_1998739">
                        <g id="Group">
                            <path d="M13.6956522,0 L1.52173913,0 C0.681722954,0.0009918349 0.00100620932,0.671984055 -1.77635684e-15,1.5 L-1.77635684e-15,16.5 C0.00100620932,17.3280159 0.681722954,17.9990082 1.52173913,18 L13.6956522,18 C13.8637388,18 14,17.8656854 14,17.7 L14,0.3 C14,0.134314575 13.8637388,0 13.6956522,0 Z M1.52173913,0.6 L13.3913043,0.6 L13.3913043,1.2 L1.82608696,1.2 L1.82608696,1.8 L13.3913043,1.8 L13.3913043,2.4 L1.52173913,2.4 C1.01747915,2.39999999 0.608695666,1.99705627 0.608695666,1.5 C0.608695666,1.00294373 1.01747915,0.600000007 1.52173913,0.6 Z M0.608695652,16.5 L0.608695652,2.6922 C0.787886327,2.82857124 0.995930851,2.92341725 1.2173913,2.9697 L1.2173913,17.3448 C0.853893215,17.2181236 0.610293902,16.8800356 0.608695652,16.5 Z M1.82608696,17.4 L1.82608696,3 L13.3913043,3 L13.3913043,17.4 L1.82608696,17.4 Z" id="Shape"></path>
                        </g>
                    </g>
                </g>
                <path d="M5,13.8615385 L5,5 L6.04424779,5 L6.04424779,8.27115385 L6.13274336,8.27115385 C6.20943991,8.15576865 6.316371,8.00793359 6.45353982,7.82764423 C6.59070865,7.64735487 6.78834679,7.48581802 7.04646018,7.34302885 C7.30457356,7.20023967 7.65486504,7.12884615 8.09734513,7.12884615 C8.66961938,7.12884615 9.17403912,7.2687486 9.61061947,7.54855769 C10.0471998,7.82836678 10.3879044,8.22499743 10.6327434,8.73846154 C10.8775823,9.25192564 11,9.85768882 11,10.5557692 C11,11.2596189 10.8775823,11.8689878 10.6327434,12.3838942 C10.3879044,12.8988007 10.0486747,13.2968736 9.61504425,13.578125 C9.18141376,13.8593764 8.68141876,14 8.11504425,14 C7.67846389,14 7.32890987,13.9286065 7.06637168,13.7858173 C6.8038335,13.6430281 6.60177062,13.480049 6.46017699,13.296875 C6.31858336,13.113701 6.20943991,12.9615391 6.13274336,12.8403846 L6.00884956,12.8403846 L6.00884956,13.8615385 L5,13.8615385 Z M6.02654867,10.5384615 C6.02654867,11.0403871 6.10176916,11.48245 6.25221239,11.8646635 C6.40265562,12.2468769 6.62241743,12.5454316 6.91150442,12.7603365 C7.20059142,12.9752415 7.55457018,13.0826923 7.97345133,13.0826923 C8.41003168,13.0826923 8.77507228,12.9694723 9.06858407,12.7430288 C9.36209586,12.5165854 9.58333259,12.2108192 9.73230088,11.8257212 C9.88126918,11.4406231 9.95575221,11.0115408 9.95575221,10.5384615 C9.95575221,10.0711515 9.88274409,9.64928073 9.73672566,9.27283654 C9.59070723,8.89639235 9.37094542,8.59783764 9.07743363,8.37716346 C8.78392184,8.15648928 8.41593142,8.04615385 7.97345133,8.04615385 C7.54867044,8.04615385 7.19174186,8.15072011 6.90265487,8.35985577 C6.61356788,8.56899143 6.39528097,8.86033467 6.24778761,9.23389423 C6.10029425,9.60745379 6.02654867,10.0423052 6.02654867,10.5384615 Z" id="b"></path>
            </g>
        </g>
    </g>
</svg>