<?xml version="1.0" encoding="UTF-8"?>
<svg width="10px" height="6px" viewBox="0 0 10 6" version="1.1" xmlns="http://www.w3.org/2000/svg" xmlns:xlink="http://www.w3.org/1999/xlink">
    <!-- Generator: Sketch 51.3 (57544) - http://www.bohemiancoding.com/sketch -->
    <title>E-mail</title>
    <desc>Created with Sketch.</desc>
    <defs></defs>
    <g id="Page-1" stroke="none" stroke-width="1" fill="none" fill-rule="evenodd">
        <g id="SwissOpenOncology-05-edit" transform="translate(-1083.000000, -225.000000)" fill-rule="nonzero">
            <g id="E-mail" transform="translate(1083.000000, 224.000000)">
                <g id="noun_Arrow_1256496" transform="translate(5.000000, 3.500000) scale(1, -1) rotate(90.000000) translate(-5.000000, -3.500000) translate(2.000000, -1.000000)" fill="#000000">
                    <path d="M5.08021528,0.169161669 C4.96818717,0.0608557597 4.8161696,0 4.65764974,0 C4.49912988,0 4.3471123,0.0608557597 4.2350842,0.169161669 L0.175170083,4.08693499 C0.0630172812,4.19512047 0,4.34192378 0,4.49500633 C0,4.64808889 0.0630172812,4.79489219 0.175170083,4.90307768 L4.2350842,8.820851 C4.38470765,8.97266413 4.60783191,9.03415161 4.81788718,8.98145696 C5.02794246,8.92876231 5.19186818,8.77017914 5.24606294,8.56723599 C5.3002577,8.36429285 5.2361918,8.14893092 5.07872211,8.0047083 L1.44137353,4.49500633 L5.07872211,0.985304362 C5.19107307,0.877310347 5.25435909,0.730614519 5.25463916,0.577531889 C5.25491923,0.424449258 5.19217038,0.277538391 5.08021528,0.169161669 Z" id="Shape"></path>
                </g>
                <g id="noun_Arrow_1256496" transform="translate(5.000000, 3.500000) scale(1, -1) rotate(90.000000) translate(-5.000000, -3.500000) translate(2.000000, -1.000000)" fill="#0A7D8A">
                    <path d="M5.08021528,0.169161669 C4.96818717,0.0608557597 4.8161696,0 4.65764974,0 C4.49912988,0 4.3471123,0.0608557597 4.2350842,0.169161669 L0.175170083,4.08693499 C0.0630172812,4.19512047 0,4.34192378 0,4.49500633 C0,4.64808889 0.0630172812,4.79489219 0.175170083,4.90307768 L4.2350842,8.820851 C4.38470765,8.97266413 4.60783191,9.03415161 4.81788718,8.98145696 C5.02794246,8.92876231 5.19186818,8.77017914 5.24606294,8.56723599 C5.3002577,8.36429285 5.2361918,8.14893092 5.07872211,8.0047083 L1.44137353,4.49500633 L5.07872211,0.985304362 C5.19107307,0.877310347 5.25435909,0.730614519 5.25463916,0.577531889 C5.25491923,0.424449258 5.19217038,0.277538391 5.08021528,0.169161669 Z" id="Shape"></path>
                </g>
            </g>
        </g>
    </g>
</svg>