<?xml version="1.0" encoding="UTF-8"?>
<svg width="130px" height="42px" viewBox="0 0 130 42" version="1.1" xmlns="http://www.w3.org/2000/svg" xmlns:xlink="http://www.w3.org/1999/xlink">
    <!-- Generator: Sketch 51.3 (57544) - http://www.bohemiancoding.com/sketch -->
    <title>Group 6</title>
    <desc>Created with Sketch.</desc>
    <defs></defs>
    <g id="Page-1" stroke="none" stroke-width="1" fill="none" fill-rule="evenodd">
        <g id="SwissOpenOncology-register-01" transform="translate(-30.000000, -20.000000)">
            <g id="Group-6" transform="translate(30.000000, 19.000000)">
                <path d="M21.56,16.64 C20.7466626,16.306665 20.0966691,15.8133366 19.61,15.16 C19.1233309,14.5066634 18.8666668,13.7200046 18.84,12.8 L22.48,12.8 C22.5333336,13.3200026 22.7133318,13.7166653 23.02,13.99 C23.3266682,14.2633347 23.7266642,14.4 24.22,14.4 C24.7266692,14.4 25.1266652,14.2833345 25.42,14.05 C25.7133348,13.8166655 25.86,13.4933354 25.86,13.08 C25.86,12.7333316 25.7433345,12.4466678 25.51,12.22 C25.2766655,11.9933322 24.9900017,11.8066674 24.65,11.66 C24.3099983,11.5133326 23.8266698,11.3466676 23.2,11.16 C22.2933288,10.8799986 21.5533362,10.6000014 20.98,10.32 C20.4066638,10.0399986 19.9133354,9.6266694 19.5,9.08 C19.0866646,8.5333306 18.88,7.8200044 18.88,6.94 C18.88,5.6333268 19.3533286,4.6100037 20.3,3.87 C21.2466714,3.1299963 22.4799924,2.76 24,2.76 C25.5466744,2.76 26.7933286,3.1299963 27.74,3.87 C28.6866714,4.6100037 29.193333,5.6399934 29.26,6.96 L25.56,6.96 C25.5333332,6.5066644 25.3666682,6.1500013 25.06,5.89 C24.7533318,5.6299987 24.3600024,5.5 23.88,5.5 C23.4666646,5.5 23.1333346,5.6099989 22.88,5.83 C22.6266654,6.0500011 22.5,6.3666646 22.5,6.78 C22.5,7.2333356 22.7133312,7.5866654 23.14,7.84 C23.5666688,8.0933346 24.2333288,8.3666652 25.14,8.66 C26.0466712,8.9666682 26.7833305,9.2599986 27.35,9.54 C27.9166695,9.8200014 28.4066646,10.226664 28.82,10.76 C29.2333354,11.293336 29.44,11.9799958 29.44,12.82 C29.44,13.620004 29.2366687,14.3466634 28.83,15 C28.4233313,15.6533366 27.8333372,16.1733314 27.06,16.56 C26.2866628,16.9466686 25.3733386,17.14 24.32,17.14 C23.2933282,17.14 22.3733374,16.973335 21.56,16.64 Z M47.56,5.84 L44.54,17 L40.76,17 L39,9.76 L37.18,17 L33.42,17 L30.38,5.84 L33.8,5.84 L35.38,13.82 L37.26,5.84 L40.88,5.84 L42.78,13.78 L44.34,5.84 L47.56,5.84 Z M49.11,4.15 C48.7299981,3.7966649 48.54,3.3600026 48.54,2.84 C48.54,2.306664 48.7299981,1.8633351 49.11,1.51 C49.4900019,1.1566649 49.979997,0.98 50.58,0.98 C51.1666696,0.98 51.6499981,1.1566649 52.03,1.51 C52.4100019,1.8633351 52.6,2.306664 52.6,2.84 C52.6,3.3600026 52.4100019,3.7966649 52.03,4.15 C51.6499981,4.5033351 51.1666696,4.68 50.58,4.68 C49.979997,4.68 49.4900019,4.5033351 49.11,4.15 Z M52.28,5.84 L52.28,17 L48.86,17 L48.86,5.84 L52.28,5.84 Z M56.7,16.66 C55.9399962,16.326665 55.3400022,15.8700029 54.9,15.29 C54.4599978,14.7099971 54.2133336,14.0600036 54.16,13.34 L57.54,13.34 C57.5800002,13.7266686 57.7599984,14.0399988 58.08,14.28 C58.4000016,14.5200012 58.793331,14.64 59.26,14.64 C59.6866688,14.64 60.0166655,14.5566675 60.25,14.39 C60.4833345,14.2233325 60.6,14.006668 60.6,13.74 C60.6,13.4199984 60.433335,13.1833341 60.1,13.03 C59.766665,12.8766659 59.2266704,12.7066676 58.48,12.52 C57.679996,12.3333324 57.013336,12.1366677 56.48,11.93 C55.946664,11.7233323 55.4866686,11.3966689 55.1,10.95 C54.7133314,10.5033311 54.52,9.9000038 54.52,9.14 C54.52,8.4999968 54.6966649,7.9166693 55.05,7.39 C55.4033351,6.8633307 55.9233299,6.4466682 56.61,6.14 C57.2966701,5.8333318 58.1133286,5.68 59.06,5.68 C60.460007,5.68 61.5633293,6.0266632 62.37,6.72 C63.1766707,7.4133368 63.6399994,8.3333276 63.76,9.48 L60.6,9.48 C60.5466664,9.0933314 60.3766681,8.7866678 60.09,8.56 C59.8033319,8.3333322 59.426669,8.22 58.96,8.22 C58.559998,8.22 58.2533344,8.2966659 58.04,8.45 C57.8266656,8.6033341 57.72,8.813332 57.72,9.08 C57.72,9.4000016 57.8899983,9.6399992 58.23,9.8 C58.5700017,9.9600008 59.0999964,10.1199992 59.82,10.28 C60.6466708,10.4933344 61.3199974,10.7033323 61.84,10.91 C62.3600026,11.1166677 62.8166647,11.4499977 63.21,11.91 C63.6033353,12.3700023 63.8066666,12.9866628 63.82,13.76 C63.82,14.4133366 63.6366685,14.9966641 63.27,15.51 C62.9033315,16.0233359 62.3766701,16.4266652 61.69,16.72 C61.0033299,17.0133348 60.2066712,17.16 59.3,17.16 C58.3266618,17.16 57.4600038,16.993335 56.7,16.66 Z M67.86,16.66 C67.0999962,16.326665 66.5000022,15.8700029 66.06,15.29 C65.6199978,14.7099971 65.3733336,14.0600036 65.32,13.34 L68.7,13.34 C68.7400002,13.7266686 68.9199984,14.0399988 69.24,14.28 C69.5600016,14.5200012 69.953331,14.64 70.42,14.64 C70.8466688,14.64 71.1766655,14.5566675 71.41,14.39 C71.6433345,14.2233325 71.76,14.006668 71.76,13.74 C71.76,13.4199984 71.593335,13.1833341 71.26,13.03 C70.926665,12.8766659 70.3866704,12.7066676 69.64,12.52 C68.839996,12.3333324 68.173336,12.1366677 67.64,11.93 C67.106664,11.7233323 66.6466686,11.3966689 66.26,10.95 C65.8733314,10.5033311 65.68,9.9000038 65.68,9.14 C65.68,8.4999968 65.8566649,7.9166693 66.21,7.39 C66.5633351,6.8633307 67.0833299,6.4466682 67.77,6.14 C68.4566701,5.8333318 69.2733286,5.68 70.22,5.68 C71.620007,5.68 72.7233293,6.0266632 73.53,6.72 C74.3366707,7.4133368 74.7999994,8.3333276 74.92,9.48 L71.76,9.48 C71.7066664,9.0933314 71.5366681,8.7866678 71.25,8.56 C70.9633319,8.3333322 70.586669,8.22 70.12,8.22 C69.719998,8.22 69.4133344,8.2966659 69.2,8.45 C68.9866656,8.6033341 68.88,8.813332 68.88,9.08 C68.88,9.4000016 69.0499983,9.6399992 69.39,9.8 C69.7300017,9.9600008 70.2599964,10.1199992 70.98,10.28 C71.8066708,10.4933344 72.4799974,10.7033323 73,10.91 C73.5200026,11.1166677 73.9766647,11.4499977 74.37,11.91 C74.7633353,12.3700023 74.9666666,12.9866628 74.98,13.76 C74.98,14.4133366 74.7966685,14.9966641 74.43,15.51 C74.0633315,16.0233359 73.5366701,16.4266652 72.85,16.72 C72.1633299,17.0133348 71.3666712,17.16 70.46,17.16 C69.4866618,17.16 68.6200038,16.993335 67.86,16.66 Z M80.09,16.22 C78.9899945,15.6066636 78.1166699,14.7500055 77.47,13.65 C76.8233301,12.5499945 76.5,11.3133402 76.5,9.94 C76.5,8.5666598 76.8233301,7.3333388 77.47,6.24 C78.1166699,5.1466612 78.9899945,4.2933364 80.09,3.68 C81.1900055,3.0666636 82.3999934,2.76 83.72,2.76 C85.0400066,2.76 86.2499945,3.0666636 87.35,3.68 C88.4500055,4.2933364 89.3166635,5.1466612 89.95,6.24 C90.5833365,7.3333388 90.9,8.5666598 90.9,9.94 C90.9,11.3133402 90.5800032,12.5499945 89.94,13.65 C89.2999968,14.7500055 88.4333388,15.6066636 87.34,16.22 C86.2466612,16.8333364 85.0400066,17.14 83.72,17.14 C82.3999934,17.14 81.1900055,16.8333364 80.09,16.22 Z M86.41,12.9 C87.0833367,12.1533296 87.42,11.1666728 87.42,9.94 C87.42,8.6999938 87.0833367,7.7100037 86.41,6.97 C85.7366633,6.2299963 84.8400056,5.86 83.72,5.86 C82.586661,5.86 81.6833367,6.226663 81.01,6.96 C80.3366633,7.693337 80,8.6866604 80,9.94 C80,11.1800062 80.3366633,12.1699963 81.01,12.91 C81.6833367,13.6500037 82.586661,14.02 83.72,14.02 C84.8400056,14.02 85.7366633,13.6466704 86.41,12.9 Z M97.6,6.16 C98.1866696,5.8399984 98.8733294,5.68 99.66,5.68 C100.580005,5.68 101.41333,5.913331 102.16,6.38 C102.90667,6.846669 103.496664,7.513329 103.93,8.38 C104.363335,9.246671 104.58,10.2533276 104.58,11.4 C104.58,12.5466724 104.363335,13.5566623 103.93,14.43 C103.496664,15.3033377 102.90667,15.9766643 102.16,16.45 C101.41333,16.9233357 100.580005,17.16 99.66,17.16 C98.8866628,17.16 98.2033363,17.0000016 97.61,16.68 C97.0166637,16.3599984 96.553335,15.9466692 96.22,15.44 L96.22,22.32 L92.8,22.32 L92.8,5.84 L96.22,5.84 L96.22,7.42 C96.553335,6.8999974 97.0133304,6.4800016 97.6,6.16 Z M100.39,9.39 C99.9166643,8.9033309 99.3333368,8.66 98.64,8.66 C97.9599966,8.66 97.3833357,8.9066642 96.91,9.4 C96.4366643,9.8933358 96.2,10.5666624 96.2,11.42 C96.2,12.2733376 96.4366643,12.9466642 96.91,13.44 C97.3833357,13.9333358 97.9599966,14.18 98.64,14.18 C99.3200034,14.18 99.8999976,13.9300025 100.38,13.43 C100.860002,12.9299975 101.1,12.2533376 101.1,11.4 C101.1,10.5466624 100.863336,9.8766691 100.39,9.39 Z M116.84,12.24 L109.1,12.24 C109.153334,12.9333368 109.376665,13.4633315 109.77,13.83 C110.163335,14.1966685 110.646664,14.38 111.22,14.38 C112.073338,14.38 112.666665,14.0200036 113,13.3 L116.64,13.3 C116.453332,14.033337 116.116669,14.6933304 115.63,15.28 C115.143331,15.8666696 114.533337,16.326665 113.8,16.66 C113.066663,16.993335 112.246671,17.16 111.34,17.16 C110.246661,17.16 109.273338,16.926669 108.42,16.46 C107.566662,15.993331 106.900002,15.326671 106.42,14.46 C105.939998,13.593329 105.7,12.5800058 105.7,11.42 C105.7,10.2599942 105.936664,9.246671 106.41,8.38 C106.883336,7.513329 107.546662,6.846669 108.4,6.38 C109.253338,5.913331 110.233328,5.68 111.34,5.68 C112.420005,5.68 113.379996,5.9066644 114.22,6.36 C115.060004,6.8133356 115.716664,7.4599958 116.19,8.3 C116.663336,9.1400042 116.9,10.1199944 116.9,11.24 C116.9,11.5600016 116.88,11.8933316 116.84,12.24 Z M113.4,10.34 C113.4,9.7533304 113.200002,9.2866684 112.8,8.94 C112.399998,8.5933316 111.900003,8.42 111.3,8.42 C110.726664,8.42 110.243335,8.586665 109.85,8.92 C109.456665,9.253335 109.213334,9.7266636 109.12,10.34 L113.4,10.34 Z M128.63,6.99 C129.410004,7.8366709 129.8,8.9999926 129.8,10.48 L129.8,17 L126.4,17 L126.4,10.94 C126.4,10.1933296 126.206669,9.6133354 125.82,9.2 C125.433331,8.7866646 124.913337,8.58 124.26,8.58 C123.606663,8.58 123.086669,8.7866646 122.7,9.2 C122.313331,9.6133354 122.12,10.1933296 122.12,10.94 L122.12,17 L118.7,17 L118.7,5.84 L122.12,5.84 L122.12,7.32 C122.466668,6.8266642 122.93333,6.4366681 123.52,6.15 C124.10667,5.8633319 124.766663,5.72 125.5,5.72 C126.806673,5.72 127.849996,6.1433291 128.63,6.99 Z M22.27,36.23 C21.1833279,35.6233303 20.3233365,34.7766721 19.69,33.69 C19.0566635,32.6033279 18.74,31.3800068 18.74,30.02 C18.74,28.6599932 19.0566635,27.4400054 19.69,26.36 C20.3233365,25.2799946 21.1833279,24.4366697 22.27,23.83 C23.3566721,23.2233303 24.5466602,22.92 25.84,22.92 C27.1466732,22.92 28.3433279,23.2233303 29.43,23.83 C30.5166721,24.4366697 31.3733302,25.2799946 32,26.36 C32.6266698,27.4400054 32.94,28.6599932 32.94,30.02 C32.94,31.3800068 32.6266698,32.6033279 32,33.69 C31.3733302,34.7766721 30.5166721,35.6233303 29.43,36.23 C28.3433279,36.8366697 27.1466732,37.14 25.84,37.14 C24.5466602,37.14 23.3566721,36.8366697 22.27,36.23 Z M28.3,34.53 C29.0200036,34.1099979 29.5833313,33.5100039 29.99,32.73 C30.3966687,31.9499961 30.6,31.0466718 30.6,30.02 C30.6,28.9933282 30.3966687,28.0933372 29.99,27.32 C29.5833313,26.5466628 29.0200036,25.9533354 28.3,25.54 C27.5799964,25.1266646 26.7600046,24.92 25.84,24.92 C24.9199954,24.92 24.1000036,25.1266646 23.38,25.54 C22.6599964,25.9533354 22.0966687,26.5466628 21.69,27.32 C21.2833313,28.0933372 21.08,28.9933282 21.08,30.02 C21.08,31.0466718 21.2833313,31.9499961 21.69,32.73 C22.0966687,33.5100039 22.6599964,34.1099979 23.38,34.53 C24.1000036,34.9500021 24.9199954,35.16 25.84,35.16 C26.7600046,35.16 27.5799964,34.9500021 28.3,34.53 Z M43.07,26.34 C43.7566701,26.7000018 44.2933314,27.2333298 44.68,27.94 C45.0666686,28.6466702 45.26,29.499995 45.26,30.5 L45.26,37 L43,37 L43,30.84 C43,29.8533284 42.7533358,29.0966693 42.26,28.57 C41.7666642,28.0433307 41.0933376,27.78 40.24,27.78 C39.3866624,27.78 38.7100025,28.0433307 38.21,28.57 C37.7099975,29.0966693 37.46,29.8533284 37.46,30.84 L37.46,37 L35.18,37 L35.18,25.98 L37.46,25.98 L37.46,27.24 C37.8333352,26.7866644 38.3099971,26.4333346 38.89,26.18 C39.4700029,25.9266654 40.0866634,25.8 40.74,25.8 C41.606671,25.8 42.3833299,25.9799982 43.07,26.34 Z M48.09,28.49 C48.5500023,27.6299957 49.1866626,26.966669 50,26.5 C50.8133374,26.033331 51.7466614,25.8 52.8,25.8 C54.13334,25.8 55.2366623,26.1166635 56.11,26.75 C56.9833377,27.3833365 57.5733318,28.2866608 57.88,29.46 L55.42,29.46 C55.219999,28.9133306 54.9000022,28.4866682 54.46,28.18 C54.0199978,27.8733318 53.46667,27.72 52.8,27.72 C51.866662,27.72 51.1233361,28.0499967 50.57,28.71 C50.0166639,29.3700033 49.74,30.2933274 49.74,31.48 C49.74,32.6666726 50.0166639,33.59333 50.57,34.26 C51.1233361,34.92667 51.866662,35.26 52.8,35.26 C54.1200066,35.26 54.9933312,34.6800058 55.42,33.52 L57.88,33.52 C57.5599984,34.6400056 56.9600044,35.5299967 56.08,36.19 C55.1999956,36.8500033 54.1066732,37.18 52.8,37.18 C51.7466614,37.18 50.8133374,36.9433357 50,36.47 C49.1866626,35.9966643 48.5500023,35.3300043 48.09,34.47 C47.6299977,33.6099957 47.4,32.613339 47.4,31.48 C47.4,30.346661 47.6299977,29.3500043 48.09,28.49 Z M62.12,36.47 C61.2799958,35.9966643 60.6200024,35.3300043 60.14,34.47 C59.6599976,33.6099957 59.42,32.613339 59.42,31.48 C59.42,30.3599944 59.6666642,29.366671 60.16,28.5 C60.6533358,27.633329 61.3266624,26.966669 62.18,26.5 C63.0333376,26.033331 63.9866614,25.8 65.04,25.8 C66.0933386,25.8 67.0466624,26.033331 67.9,26.5 C68.7533376,26.966669 69.4266642,27.633329 69.92,28.5 C70.4133358,29.366671 70.66,30.3599944 70.66,31.48 C70.66,32.6000056 70.4066692,33.593329 69.9,34.46 C69.3933308,35.326671 68.7033377,35.9966643 67.83,36.47 C66.9566623,36.9433357 65.9933386,37.18 64.94,37.18 C63.8999948,37.18 62.9600042,36.9433357 62.12,36.47 Z M66.59,34.78 C67.1033359,34.4999986 67.5199984,34.0800028 67.84,33.52 C68.1600016,32.9599972 68.32,32.280004 68.32,31.48 C68.32,30.679996 68.1666682,30.0033361 67.86,29.45 C67.5533318,28.8966639 67.1466692,28.4800014 66.64,28.2 C66.1333308,27.9199986 65.5866696,27.78 65,27.78 C64.4133304,27.78 63.8700025,27.9199986 63.37,28.2 C62.8699975,28.4800014 62.4733348,28.8966639 62.18,29.45 C61.8866652,30.0033361 61.74,30.679996 61.74,31.48 C61.74,32.6666726 62.0433303,33.5833301 62.65,34.23 C63.2566697,34.8766699 64.0199954,35.2 64.94,35.2 C65.5266696,35.2 66.0766641,35.0600014 66.59,34.78 Z M75.2,22.2 L75.2,37 L72.92,37 L72.92,22.2 L75.2,22.2 Z M80.16,36.47 C79.3199958,35.9966643 78.6600024,35.3300043 78.18,34.47 C77.6999976,33.6099957 77.46,32.613339 77.46,31.48 C77.46,30.3599944 77.7066642,29.366671 78.2,28.5 C78.6933358,27.633329 79.3666624,26.966669 80.22,26.5 C81.0733376,26.033331 82.0266614,25.8 83.08,25.8 C84.1333386,25.8 85.0866624,26.033331 85.94,26.5 C86.7933376,26.966669 87.4666642,27.633329 87.96,28.5 C88.4533358,29.366671 88.7,30.3599944 88.7,31.48 C88.7,32.6000056 88.4466692,33.593329 87.94,34.46 C87.4333308,35.326671 86.7433377,35.9966643 85.87,36.47 C84.9966623,36.9433357 84.0333386,37.18 82.98,37.18 C81.9399948,37.18 81.0000042,36.9433357 80.16,36.47 Z M84.63,34.78 C85.1433359,34.4999986 85.5599984,34.0800028 85.88,33.52 C86.2000016,32.9599972 86.36,32.280004 86.36,31.48 C86.36,30.679996 86.2066682,30.0033361 85.9,29.45 C85.5933318,28.8966639 85.1866692,28.4800014 84.68,28.2 C84.1733308,27.9199986 83.6266696,27.78 83.04,27.78 C82.4533304,27.78 81.9100025,27.9199986 81.41,28.2 C80.9099975,28.4800014 80.5133348,28.8966639 80.22,29.45 C79.9266652,30.0033361 79.78,30.679996 79.78,31.48 C79.78,32.6666726 80.0833303,33.5833301 80.69,34.23 C81.2966697,34.8766699 82.0599954,35.2 82.98,35.2 C83.5666696,35.2 84.1166641,35.0600014 84.63,34.78 Z M97.67,26.31 C98.3300033,26.6500017 98.8466648,27.0733308 99.22,27.58 L99.22,25.98 L101.52,25.98 L101.52,37.18 C101.52,38.1933384 101.306669,39.0966627 100.88,39.89 C100.453331,40.6833373 99.8366707,41.3066644 99.03,41.76 C98.2233293,42.2133356 97.2600056,42.44 96.14,42.44 C94.6466592,42.44 93.4066716,42.0900035 92.42,41.39 C91.4333284,40.6899965 90.873334,39.740006 90.74,38.54 L93,38.54 C93.1733342,39.1133362 93.5433305,39.5766649 94.11,39.93 C94.6766695,40.2833351 95.3533294,40.46 96.14,40.46 C97.0600046,40.46 97.8033305,40.1800028 98.37,39.62 C98.9366695,39.0599972 99.22,38.246672 99.22,37.18 L99.22,35.34 C98.8333314,35.8600026 98.3100033,36.2966649 97.65,36.65 C96.9899967,37.0033351 96.2400042,37.18 95.4,37.18 C94.4399952,37.18 93.5633373,36.9366691 92.77,36.45 C91.9766627,35.9633309 91.3500023,35.2833377 90.89,34.41 C90.4299977,33.5366623 90.2,32.5466722 90.2,31.44 C90.2,30.3333278 90.4299977,29.3533376 90.89,28.5 C91.3500023,27.6466624 91.9766627,26.9833357 92.77,26.51 C93.5633373,26.0366643 94.4399952,25.8 95.4,25.8 C96.2533376,25.8 97.0099967,25.9699983 97.67,26.31 Z M98.75,29.5 C98.4366651,28.9399972 98.0266692,28.5133348 97.52,28.22 C97.0133308,27.9266652 96.4666696,27.78 95.88,27.78 C95.2933304,27.78 94.7466692,27.9233319 94.24,28.21 C93.7333308,28.4966681 93.3233349,28.9166639 93.01,29.47 C92.6966651,30.0233361 92.54,30.6799962 92.54,31.44 C92.54,32.2000038 92.6966651,32.8666638 93.01,33.44 C93.3233349,34.0133362 93.7366641,34.4499985 94.25,34.75 C94.7633359,35.0500015 95.3066638,35.2 95.88,35.2 C96.4666696,35.2 97.0133308,35.0533348 97.52,34.76 C98.0266692,34.4666652 98.4366651,34.0366695 98.75,33.47 C99.0633349,32.9033305 99.22,32.2400038 99.22,31.48 C99.22,30.7199962 99.0633349,30.0600028 98.75,29.5 Z M114.44,25.98 L107.68,42.18 L105.32,42.18 L107.56,36.82 L103.22,25.98 L105.76,25.98 L108.86,34.38 L112.08,25.98 L114.44,25.98 Z" id="SwissOpen-Oncology" fill="#FFFFFF"></path>
                <g id="noun_Folder_1594035" transform="translate(0.000000, 6.000000)" fill="#D5322B">
                    <g id="Group-2">
                        <path d="M3.83333333,0 C3.559165,0 3.33333333,0.225831667 3.33333333,0.5 L3.33333333,3.16664833 C3.33333333,3.26067 3.26068833,3.333315 3.16666667,3.333315 L0.5,3.33333333 C0.225831667,3.333335 0,3.559165 0,3.83333333 L0,6.16666667 C0,6.440835 0.225831667,6.66666833 0.5,6.66666667 L3.16666667,6.66664833 C3.26068833,6.66664833 3.33333333,6.73929333 3.33333333,6.833315 L3.33333333,9.5 C3.33333333,9.77416833 3.559165,10 3.83333333,10 L6.16666667,10 C6.440835,10 6.66666667,9.77416833 6.66666667,9.5 L6.66666667,6.833315 C6.66666667,6.73929333 6.73931167,6.66664833 6.83333333,6.66664833 L9.5,6.66666667 C9.77416833,6.66666833 10,6.440835 10,6.16666667 L10,3.83333333 C10,3.559165 9.77416833,3.333335 9.5,3.33333333 L6.83333333,3.333315 C6.73931167,3.333315 6.66666667,3.26067 6.66666667,3.16664833 L6.66666667,0.5 C6.66666667,0.225831667 6.440835,0 6.16666667,0 L3.83333333,0 Z" id="Shape"></path>
                    </g>
                </g>
            </g>
        </g>
    </g>
</svg>