<?xml version="1.0" encoding="UTF-8"?>
<svg width="13px" height="14px" viewBox="0 0 13 14" version="1.1" xmlns="http://www.w3.org/2000/svg" xmlns:xlink="http://www.w3.org/1999/xlink">
    <!-- Generator: Sketch 51.3 (57544) - http://www.bohemiancoding.com/sketch -->
    <title>noun_translate_3747763</title>
    <desc>Created with Sketch.</desc>
    <defs></defs>
    <g id="Page-1" stroke="none" stroke-width="1" fill="none" fill-rule="evenodd">
        <g id="SwissOpenOncology-04" transform="translate(-1367.000000, -144.000000)" fill="#D83225" fill-rule="nonzero">
            <g id="Group-11" transform="translate(1357.000000, 135.000000)">
                <g id="noun_translate_3747763" transform="translate(10.000000, 9.000000)">
                    <path d="M12,0.52 L2.65,0.52 C1.5454305,0.52 0.65,1.4154305 0.65,2.52 L0.65,11.52 C0.65,12.6245695 1.5454305,13.52 2.65,13.52 L12,13.52 C12.5522847,13.52 13,13.0722847 13,12.52 L13,1.52 C13,0.96771525 12.5522847,0.52 12,0.52 Z M11,5.38 C11,5.65061953 10.7806195,5.87 10.51,5.87 L10.05,5.87 C9.69812256,6.93358202 9.10617728,7.90190869 8.32,8.7 C8.66,8.96 9.01,9.2 9.38,9.43 C9.600539,9.56759946 9.67146896,9.85575243 9.54,10.08 L9.22,10.64 C9.15711185,10.7549281 9.04998049,10.8391573 8.9234578,10.8731485 C8.79693512,10.9071397 8.66201656,10.8879388 8.55,10.82 C8.04979176,10.5167514 7.56886893,10.1827772 7.11,9.82 C6.652179,10.1795028 6.17477984,10.5133483 5.68,10.82 C5.56644457,10.8883515 5.43004345,10.9077864 5.30191665,10.8738704 C5.17378985,10.8399545 5.06486739,10.7555811 5,10.64 L4.68,10.08 C4.55031339,9.85317647 4.62586919,9.56428667 4.85,9.43 C5.215811,9.20530157 5.56962701,8.96163582 5.91,8.7 C5.60494599,8.38575622 5.32099386,8.0516949 5.06,7.7 C4.98537418,7.58777056 4.95921608,7.45016721 4.98745548,7.31838332 C5.01569489,7.18659942 5.09594,7.07179676 5.21,7 L5.47,6.85 L5.77,6.67 C5.99002534,6.54003444 6.27298693,6.60098002 6.42,6.81 C6.63213327,7.11014644 6.86610039,7.39424937 7.12,7.66 C7.62170743,7.14902816 8.03410181,6.55747885 8.34,5.91 L3.73,5.91 C3.45938047,5.91 3.24,5.69061953 3.24,5.42 L3.24,4.77 C3.23997199,4.64094438 3.29191368,4.51731423 3.38410567,4.4270037 C3.47629766,4.33669318 3.60097239,4.28731134 3.73,4.29 L6.32,4.29 L6.32,3.6 C6.31994444,3.3332381 6.53329365,3.11544411 6.8,3.11 L7.45,3.11 C7.72061953,3.11 7.94,3.32938047 7.94,3.6 L7.94,4.25 L10.53,4.25 C10.6590276,4.24731134 10.7837023,4.29669318 10.8758943,4.3870037 C10.9680863,4.47731423 11.020028,4.60094438 11.02,4.73 L11,5.38 Z" id="Shape"></path>
                </g>
            </g>
        </g>
    </g>
</svg>