<?xml version="1.0" encoding="UTF-8"?>
<svg width="12px" height="17px" viewBox="0 0 12 17" version="1.1" xmlns="http://www.w3.org/2000/svg" xmlns:xlink="http://www.w3.org/1999/xlink">
    <!-- Generator: Sketch 51.3 (57544) - http://www.bohemiancoding.com/sketch -->
    <title>noun_Document_1570103</title>
    <desc>Created with Sketch.</desc>
    <defs></defs>
    <g id="Page-1" stroke="none" stroke-width="1" fill="none" fill-rule="evenodd">
        <g id="SwissOpenOncology-04" transform="translate(-248.000000, -585.000000)" fill="#000000" fill-rule="nonzero">
            <g id="noun_Document_1570103" transform="translate(248.000000, 585.000000)">
                <g id="Group">
                    <path d="M0.387096774,0.0707825287 C0.178954839,0.0707766667 -0.00015483871,0.285547241 7.16273004e-16,0.461587126 L7.16273004e-16,16.4845678 C1.93548387e-05,16.6891931 0.184412903,16.8753529 0.387096774,16.8753724 L11.6129034,16.8753724 C11.8155873,16.8753529 11.9999808,16.6891931 12.0000002,16.4845678 L12.0000002,3.97882851 C12.0000002,3.87478655 11.9583873,3.77109632 11.8850905,3.6979377 L8.40121955,0.180696322 C8.32920019,0.110353448 8.22925181,0.0699950575 8.12903245,0.0707825287 L0.387096774,0.0707825287 Z M0.774193548,0.852391724 L7.74193568,0.852391724 L7.74193568,3.97882851 C7.74195503,4.18344793 7.92634858,4.36961356 8.12903245,4.3696331 L11.2258066,4.3696331 L11.2258066,16.0937632 L0.774193548,16.0937632 L0.774193548,0.852391724 Z M8.51612923,1.40196069 L10.6814518,3.58802391 L8.51612923,3.58802391 L8.51612923,1.40196069 Z M2.32258084,6.71446069 C2.10878729,6.71446069 1.93548406,6.88942391 1.93548406,7.10526529 C1.93548406,7.32110667 2.10878729,7.49606989 2.32258084,7.49606989 L8.12903245,7.49606989 C8.342826,7.49606989 8.51612923,7.32110667 8.51612923,7.10526529 C8.51612923,6.88942391 8.342826,6.71446069 8.12903245,6.71446069 L2.32258084,6.71446069 Z M2.32258084,9.84088966 C2.10878729,9.84088966 1.93548406,10.0158529 1.93548406,10.2316943 C1.93548406,10.4475356 2.10878729,10.6224989 2.32258084,10.6224989 L9.67741955,10.6224989 C9.8912131,10.6224989 10.0645163,10.4475356 10.0645163,10.2316943 C10.0645163,10.0158529 9.8912131,9.84088966 9.67741955,9.84088966 L2.32258084,9.84088966 Z M2.32258084,12.9673264 C2.10878729,12.9673264 1.93548406,13.1422897 1.93548406,13.358131 C1.93548406,13.5739724 2.10878729,13.7489356 2.32258084,13.7489356 L9.67741955,13.7489356 C9.8912131,13.7489356 10.0645163,13.5739724 10.0645163,13.358131 C10.0645163,13.1422897 9.8912131,12.9673264 9.67741955,12.9673264 L2.32258084,12.9673264 Z" id="Shape"></path>
                </g>
            </g>
        </g>
    </g>
</svg>