<?xml version="1.0" encoding="UTF-8"?>
<svg width="15px" height="18px" viewBox="0 0 15 18" version="1.1" xmlns="http://www.w3.org/2000/svg" xmlns:xlink="http://www.w3.org/1999/xlink">
    <!-- Generator: Sketch 51.3 (57544) - http://www.bohemiancoding.com/sketch -->
    <title>noun_verify_2709634</title>
    <desc>Created with Sketch.</desc>
    <defs></defs>
    <g id="Page-1" stroke="none" stroke-width="1" fill="none" fill-rule="evenodd">
        <g id="SwissOpenOncology-04" transform="translate(-933.000000, -210.000000)" fill="#000000" fill-rule="nonzero">
            <g id="noun_verify_2709634" transform="translate(933.000000, 210.000000)">
                <path d="M10.9627497,14.8702511 C10.5311886,15.1108974 10.0996275,15.3515437 9.66806637,15.59219 C8.98049441,15.9747099 8.2947511,16.3590256 7.60717914,16.7415455 C7.44991534,16.8295431 7.29448019,16.9157447 7.13721639,17.0037422 C7.32190992,17.0037422 7.50660345,17.0037422 7.69129699,17.0037422 C6.9653234,16.5888967 6.23934981,16.1740512 5.51337623,15.7574099 C5.09095835,15.5167636 4.66854047,15.2743214 4.24612259,15.0336751 C4.15834744,14.9833908 4.07240095,14.9349024 3.9846258,14.884618 C3.86393498,14.8145792 3.74324416,14.7427445 3.62803928,14.6655222 C3.53660684,14.6062585 3.4488317,14.5434031 3.36105655,14.4787519 C3.32996952,14.4554056 3.24950897,14.3907544 3.38482899,14.4985064 C3.3628852,14.4823436 3.34277006,14.4661808 3.32082628,14.4482221 C3.27145276,14.408713 3.22207924,14.3692039 3.17453437,14.3296948 C2.98984084,14.1752502 2.8124619,14.0100303 2.64788351,13.8358312 C2.56193701,13.7460378 2.47964782,13.6526526 2.39918727,13.5592675 C2.35895699,13.5125749 2.32055537,13.4622906 2.28215374,13.4155981 C2.40833051,13.566451 2.26752455,13.3958435 2.23826617,13.3563344 C1.94933965,12.9666311 1.70795801,12.5446021 1.51777853,12.1010227 C1.53606502,12.1441235 1.55435151,12.1872244 1.572638,12.2303252 C1.35685743,11.7238904 1.21056553,11.1941094 1.13559092,10.6499614 C1.14290552,10.6984498 1.14839147,10.7451424 1.15570606,10.7936308 C1.09901795,10.3787853 1.09901795,9.96573569 1.09901795,9.54729846 C1.09901795,9.03188435 1.09901795,8.51647025 1.09901795,8.00285201 C1.09901795,7.32042218 1.09901795,6.63978822 1.09901795,5.9573584 C1.09901795,5.35035502 1.09901795,4.74335165 1.09901795,4.13634828 C1.09901795,3.83643833 1.10816119,3.53473251 1.09901795,3.23302669 C1.09901795,3.22943496 1.09901795,3.22404735 1.09901795,3.22045562 C0.916153065,3.40004241 0.733288182,3.57962921 0.550423298,3.75921601 C1.77196072,3.75921601 3.00629868,3.55089532 4.15469015,3.13784569 C4.74900102,2.9241374 5.3286827,2.66373655 5.87727735,2.35125552 C6.34175415,2.08726293 6.77514392,1.78376125 7.19573315,1.45870914 C7.42614291,1.28091822 7.65838131,1.10312729 7.88879106,0.925336359 C7.63095157,0.925336359 7.37128344,0.925336359 7.11344396,0.925336359 C7.70409753,1.37969095 8.28560786,1.85020836 8.9274636,2.23631997 C9.97527938,2.86487376 11.1456146,3.31743249 12.3488656,3.55269119 C13.0400948,3.68738129 13.7477819,3.76101188 14.4518117,3.76101188 C14.2689468,3.58142508 14.086082,3.40183828 13.9032171,3.22225149 C13.9032171,3.4682854 13.9032171,3.71431931 13.9032171,3.96035322 C13.9032171,4.5386227 13.9032171,5.11509632 13.9032171,5.69336581 C13.9032171,6.37399976 13.9032171,7.05463372 13.9032171,7.73347181 C13.9032171,8.27941567 13.9032171,8.82535954 13.9032171,9.3713034 C13.9032171,9.7017431 13.9105317,10.0339787 13.8867592,10.3626225 C13.877616,10.491925 13.8629868,10.6194316 13.846529,10.7469383 C13.8538435,10.6984498 13.8593295,10.6517573 13.8666441,10.6032688 C13.7898408,11.1510085 13.6417203,11.6879731 13.4241111,12.1979996 C13.4423976,12.1548987 13.4606841,12.1117979 13.4789705,12.0686971 C13.2723332,12.546398 13.0090078,12.9971608 12.6889942,13.4102104 C12.6158483,13.5053915 12.7566542,13.3258047 12.7017948,13.3940476 C12.679851,13.4209857 12.6579072,13.4479237 12.6359634,13.4748617 C12.5939045,13.525146 12.5500169,13.5754303 12.507958,13.6257146 C12.4201829,13.7244873 12.3287504,13.8214642 12.2354893,13.9148493 C12.0489672,14.0998237 11.8514731,14.2722271 11.6448358,14.4338552 C11.5790044,14.4859354 11.690552,14.3997337 11.6923806,14.3979378 C11.6759228,14.4123048 11.6558077,14.4248758 11.6393498,14.4374469 C11.6100914,14.4589973 11.5808331,14.4805478 11.5515747,14.5003023 C11.4894006,14.545199 11.4253979,14.5882998 11.3613952,14.6296048 C11.2297325,14.7158065 11.0980698,14.7948247 10.9627497,14.8702511 C10.7140535,15.0103288 10.6061632,15.3641148 10.7652557,15.606557 C10.9280054,15.8543867 11.2498476,15.9495678 11.5150017,15.8005107 C12.1714866,15.4323578 12.7749407,14.9564528 13.2705046,14.396142 C13.7861835,13.8160766 14.1884863,13.1677683 14.4883847,12.4584004 C14.7754826,11.7795623 14.934575,11.0540317 14.9839485,10.3195217 C14.9985777,10.1040175 14.9967491,9.8867175 14.9967491,9.66941748 C14.9967491,8.97082484 14.9967491,8.27402807 14.9967491,7.57543543 C14.9967491,6.65595103 14.9967491,5.73646664 14.9967491,4.81877811 C14.9967491,4.29438466 15.0040637,3.76819535 14.9967491,3.24200603 C14.9967491,3.23482256 14.9967491,3.22584322 14.9967491,3.21865975 C14.9967491,2.92772914 14.7462242,2.67989936 14.4481544,2.67989936 C13.9964782,2.67989936 13.5429732,2.6493696 13.0949543,2.59010596 C13.1443278,2.59728943 13.1918727,2.60267704 13.2412462,2.60986051 C12.3616661,2.49133322 11.5003725,2.25966626 10.6811378,1.92204308 C10.7250254,1.94000176 10.768913,1.95796044 10.8128005,1.97591912 C10.2093464,1.7244976 9.6314934,1.41920005 9.09021334,1.05823059 C8.95306468,0.96843719 8.81957332,0.873256188 8.6879106,0.776279318 C8.65499492,0.751137166 8.62207924,0.727790883 8.58916356,0.702648731 C8.6056214,0.715219807 8.6842533,0.77448345 8.62573654,0.729586751 C8.61476465,0.720607411 8.60379275,0.713423939 8.59282086,0.704444599 C8.46664409,0.607467729 8.34046732,0.508694991 8.2124619,0.411718121 C8.10274297,0.327312327 7.99485269,0.242906532 7.88513376,0.158500738 C7.77175753,0.0705032077 7.65106671,-0.00671911475 7.49746021,0.000464357113 C7.34202506,0.00764782897 7.23047748,0.0651156038 7.10978666,0.158500738 C6.8830342,0.332699931 6.6581104,0.506899123 6.43135794,0.681098316 C6.39661361,0.708036335 6.27592279,0.794237997 6.40575686,0.700852863 C6.27226549,0.796033865 6.14243143,0.894806604 6.00711141,0.988191738 C5.73830003,1.17137027 5.45851676,1.34197773 5.17324754,1.50001411 C4.85140535,1.67600917 4.52224856,1.83404555 4.18394853,1.97412325 C4.2278361,1.95616457 4.27172367,1.93820589 4.31561124,1.92024721 C3.49637657,2.25787039 2.63508297,2.48953736 1.75550288,2.60806464 C1.8048764,2.60088117 1.85242127,2.59549357 1.90179478,2.58831009 C1.45377582,2.64757374 1.00209956,2.67810349 0.54859465,2.67810349 C0.252353539,2.67810349 0,2.9241374 0,3.21686388 C0,3.6083631 0,4.00165818 0,4.3931574 C0,5.22644013 0,6.057927 0,6.89120974 C0,7.66882057 0,8.44643139 0,9.22583809 C0,9.43595464 0,9.6460712 0,9.85618775 C0,10.2351159 0.0292583813,10.6104523 0.0841178463,10.9857887 C0.285269218,12.3596277 0.958211988,13.6634278 1.93653911,14.6619304 C2.37541483,15.1091015 2.88560786,15.4988049 3.43237386,15.8130818 C3.6060955,15.9136504 3.78164578,16.0124231 3.95536742,16.1129917 C4.68499831,16.5296331 5.41280054,16.9462745 6.14243143,17.3629158 C6.4185574,17.5209522 6.69651202,17.6789886 6.972638,17.837025 C7.02566881,17.8675547 7.07869963,17.8998804 7.13355909,17.9286142 C7.31642398,18.0237953 7.5120894,18.0237953 7.69678293,17.9286142 C7.71506942,17.9196349 7.73152726,17.9088597 7.74981375,17.8998804 C8.33863867,17.5712365 8.92929225,17.2425927 9.51811717,16.9139488 C10.149001,16.5619587 10.7798849,16.2099686 11.4107687,15.8579785 C11.445513,15.8382239 11.482086,15.8184694 11.5168303,15.7987148 C11.7673552,15.6586371 11.8734169,15.3048512 11.7143244,15.062409 C11.549746,14.8163751 11.2297325,14.7211941 10.9627497,14.8702511 Z" id="Shape"></path>
                <path d="M3.16508027,9.40937886 C3.4565359,9.68250421 3.7499217,9.95743835 4.04137733,10.2305637 C4.50847841,10.6682878 4.97364931,11.1042031 5.44075039,11.5419272 C5.54883989,11.6432187 5.65499923,11.7427014 5.76308873,11.843993 C5.98505825,12.0520023 6.35951118,12.0520023 6.5814807,11.843993 C6.75519598,11.681203 6.93084142,11.5166043 7.1045567,11.3538143 C7.52147336,10.9631185 7.93839002,10.5724226 8.35530668,10.1817267 C8.86101115,9.70782709 9.36864579,9.23211869 9.87435026,8.75821907 C10.3105686,8.34943542 10.746787,7.94065177 11.1830053,7.53186812 C11.395324,7.33290263 11.6153634,7.13574592 11.8238217,6.93135409 C11.827682,6.92773654 11.8296122,6.92592776 11.8334725,6.92231021 C12.0477214,6.72153594 12.0631627,6.35254539 11.8334725,6.15538868 C11.6018522,5.95642318 11.2428406,5.94014419 11.0150806,6.15538868 C10.8413653,6.31817862 10.6657199,6.48277735 10.4920046,6.6455673 C10.0750879,7.03626317 9.65817125,7.42695905 9.24125459,7.81765492 C8.73555012,8.29155455 8.22791548,8.76726295 7.72221101,9.24116258 C7.28599265,9.64994622 6.84977429,10.0587299 6.41355593,10.4675135 C6.20123726,10.666479 5.97926774,10.8618269 5.77273958,11.0680275 C5.76887924,11.0716451 5.76694907,11.0734539 5.76308873,11.0770714 C6.03524267,11.0770714 6.30932677,11.0770714 6.5814807,11.0770714 C6.29002507,10.8039461 5.99663927,10.5290119 5.70518364,10.2558866 C5.23808257,9.8181625 4.77291166,9.3822472 4.30581059,8.94452312 C4.19772108,8.84323159 4.09156175,8.74374885 3.98347224,8.64245732 C3.7692234,8.44168306 3.37546878,8.42721284 3.16508027,8.64245732 C2.9527616,8.85770181 2.93732025,9.19413437 3.16508027,9.40937886 Z" id="Shape"></path>
            </g>
        </g>
    </g>
</svg>