<svg width="11" height="15" viewBox="0 0 11 15" fill="none" xmlns="http://www.w3.org/2000/svg">
<path d="M2.75 8.4375C2.75 8.17861 2.95521 7.96875 3.20833 7.96875H5.04167V6.09375C5.04167 5.83486 5.24686 5.625 5.5 5.625C5.75314 5.625 5.95833 5.83486 5.95833 6.09375V7.96875H7.79167C8.0448 7.96875 8.25 8.17861 8.25 8.4375C8.25 8.69639 8.0448 8.90625 7.79167 8.90625H5.95833V10.7812C5.95833 11.0401 5.75314 11.25 5.5 11.25C5.24686 11.25 5.04167 11.0401 5.04167 10.7812V8.90625H3.20833C2.95521 8.90625 2.75 8.69639 2.75 8.4375Z" fill="black"/>
<path fill-rule="evenodd" clip-rule="evenodd" d="M0 1.875C0 0.839466 0.820811 0 1.83333 0H8.70833C8.96147 0 9.16667 0.209866 9.16667 0.46875V2.8125H10.5417C10.7948 2.8125 11 3.02236 11 3.28125V14.5312C11 14.7901 10.7948 15 10.5417 15H2.29167C1.02602 15 0 13.9507 0 12.6562V1.97021C0 1.95956 0.000347624 1.94899 0.00103191 1.93851C0.000345782 1.91743 0 1.89625 0 1.875ZM1.83185 2.8125H8.25V0.9375H1.83333C1.32707 0.9375 0.916667 1.35723 0.916667 1.875C0.916667 2.39226 1.32627 2.81168 1.83185 2.8125ZM1.83333 3.75C1.49967 3.75 1.18767 3.69615 0.916667 3.57285V12.6562C0.916667 13.4329 1.53228 14.0625 2.29167 14.0625H10.0833V3.75H1.83333Z" fill="black"/>
</svg>
