<svg width="17" height="17" viewBox="0 0 17 17" fill="none" xmlns="http://www.w3.org/2000/svg">
<path fill-rule="evenodd" clip-rule="evenodd" d="M8.50001 0.0885315C5.99632 0.0885315 3.96667 2.11817 3.96667 4.62186C3.96667 7.12556 5.99632 9.1552 8.50001 9.1552C11.0037 9.1552 13.0333 7.12556 13.0333 4.62186C13.0333 3.41955 12.5557 2.26648 11.7056 1.41631C10.8554 0.566149 9.70232 0.0885315 8.50001 0.0885315ZM8.50001 7.84478C7.18769 7.84476 6.00494 7.05328 5.5044 5.84017C5.00387 4.62705 5.28439 3.23182 6.21488 2.30642C7.14536 1.38102 8.54211 1.10815 9.75246 1.61532C10.9628 2.12249 11.7478 3.30957 11.7406 4.62186C11.7309 6.40469 10.2829 7.84481 8.50001 7.84478Z" fill="#A5B2B3"/>
<path fill-rule="evenodd" clip-rule="evenodd" d="M12.3781 9.40312H11.1031C10.7598 9.39748 10.4551 9.62233 10.3594 9.95208C10.1054 10.7655 9.35213 11.3194 8.49998 11.3194C7.64784 11.3194 6.89461 10.7655 6.64061 9.95208C6.54483 9.62233 6.24019 9.39748 5.89686 9.40312H4.62186C2.11817 9.40312 0.0885268 11.4328 0.0885268 13.9365V16.2385C0.0855754 16.5782 0.336198 16.8668 0.672902 16.9115C0.85264 16.9261 1.03048 16.8661 1.16452 16.7454C1.29857 16.6248 1.37696 16.4542 1.38124 16.274V13.9365C1.38124 12.1467 2.83211 10.6958 4.62186 10.6958H5.29478C5.43738 10.6997 5.56645 10.7812 5.63124 10.9083C5.9988 11.6086 6.60973 12.1502 7.34894 12.4312C7.64802 12.548 7.84487 12.8362 7.84478 13.1573V16.2562C7.84478 16.6181 8.13812 16.9115 8.49998 16.9115C8.86185 16.9115 9.15519 16.6181 9.15519 16.2562V13.1573C9.1551 12.8362 9.35195 12.548 9.65103 12.4312C10.3902 12.1502 11.0012 11.6086 11.3687 10.9083C11.4335 10.7812 11.5626 10.6997 11.7052 10.6958H12.3781C13.2376 10.6958 14.0618 11.0372 14.6696 11.645C15.2773 12.2527 15.6187 13.077 15.6187 13.9365V16.2385C15.6158 16.5782 15.8664 16.8668 16.2031 16.9115C16.3828 16.9261 16.5607 16.8661 16.6947 16.7454C16.8288 16.6248 16.9072 16.4542 16.9114 16.274V13.9365C16.9114 11.4328 14.8818 9.40312 12.3781 9.40312Z" fill="#A5B2B3"/>
</svg>
