<svg width="17" height="17" viewBox="0 0 17 17" fill="none" xmlns="http://www.w3.org/2000/svg">
<path fill-rule="evenodd" clip-rule="evenodd" d="M8.49989 0.0885391C5.9962 0.0885391 3.96655 2.11818 3.96655 4.62187C3.96655 7.12556 5.9962 9.15521 8.49989 9.15521C11.0036 9.15521 13.0332 7.12556 13.0332 4.62187C13.0332 3.41956 12.5556 2.26649 11.7054 1.41632C10.8553 0.566157 9.7022 0.0885391 8.49989 0.0885391ZM8.49989 7.84479C7.18757 7.84477 6.00481 7.05329 5.50428 5.84017C5.00375 4.62706 5.28427 3.23183 6.21475 2.30643C7.14524 1.38102 8.54199 1.10816 9.75234 1.61533C10.9627 2.1225 11.7477 3.30957 11.7405 4.62187C11.7308 6.4047 10.2827 7.84482 8.49989 7.84479Z" fill="#A5B2B3"/>
<path fill-rule="evenodd" clip-rule="evenodd" d="M12.3782 9.40313H11.1032C10.7599 9.39748 10.4553 9.62233 10.3595 9.95208C10.1055 10.7655 9.35225 11.3194 8.50011 11.3194C7.64796 11.3194 6.89473 10.7655 6.64073 9.95208C6.54495 9.62233 6.24032 9.39748 5.89698 9.40313H4.62198C2.11829 9.40313 0.0886488 11.4328 0.0886488 13.9365V16.2385C0.0856975 16.5782 0.33632 16.8668 0.673024 16.9115C0.852762 16.9261 1.0306 16.8661 1.16464 16.7454C1.29869 16.6248 1.37708 16.4542 1.38136 16.274V13.9365C1.38136 12.1467 2.83223 10.6958 4.62198 10.6958H5.2949C5.4375 10.6997 5.56657 10.7812 5.63136 10.9083C5.99892 11.6086 6.60985 12.1502 7.34907 12.4313C7.64814 12.548 7.84499 12.8362 7.8449 13.1573V16.2563C7.8449 16.6181 8.13825 16.9115 8.50011 16.9115V16.9115C8.86197 16.9115 9.15532 16.6181 9.15532 16.2563V13.1573C9.15523 12.8362 9.35207 12.548 9.65115 12.4313C10.3904 12.1502 11.0013 11.6086 11.3689 10.9083C11.4336 10.7812 11.5627 10.6997 11.7053 10.6958H12.3782C13.2377 10.6958 14.062 11.0373 14.6697 11.645C15.2774 12.2527 15.6189 13.077 15.6189 13.9365V16.2385C15.6159 16.5782 15.8665 16.8668 16.2032 16.9115C16.383 16.9261 16.5608 16.8661 16.6949 16.7454C16.8289 16.6248 16.9073 16.4542 16.9116 16.274V13.9365C16.9116 11.4328 14.8819 9.40313 12.3782 9.40313Z" fill="#A5B2B3"/>
</svg>
