<svg width="25" height="24" viewBox="0 0 25 24" fill="none" xmlns="http://www.w3.org/2000/svg">
<g opacity="0.279967">
<path fill-rule="evenodd" clip-rule="evenodd" d="M24.9727 5.31869V19.8454C24.9727 21.6218 23.5275 23.067 21.7511 23.067H3.24899C1.47258 23.067 0.0273438 21.6218 0.0273438 19.8454V5.31869C0.0273438 3.54227 1.47258 2.09704 3.24899 2.09704H5.32457V0.64433C5.32457 0.288531 5.6131 0 5.9689 0C6.3247 0 6.61323 0.288531 6.61323 0.64433V2.09704H18.7364V0.64433C18.7364 0.288531 19.0249 0 19.3807 0C19.7365 0 20.025 0.288531 20.025 0.64433V2.09704H21.7511C23.5275 2.09704 24.9727 3.54227 24.9727 5.31869ZM21.7511 21.7784C22.8169 21.7784 23.684 20.9112 23.684 19.8454V5.31869C23.684 4.25284 22.8169 3.3857 21.7511 3.3857H20.025V4.48885C20.025 4.84465 19.7365 5.13318 19.3807 5.13318C19.0249 5.13318 18.7364 4.84465 18.7364 4.48885V3.3857H6.61323V4.48885C6.61323 4.84465 6.3247 5.13318 5.9689 5.13318C5.6131 5.13318 5.32457 4.84465 5.32457 4.48885V3.3857H3.24899C2.18314 3.3857 1.316 4.25284 1.316 5.31869V19.8454C1.316 20.9112 2.18314 21.7784 3.24899 21.7784H21.7511Z" fill="black"/>
<path d="M6.20897 11.1294H13.5485C13.9043 11.1294 14.1928 10.8408 14.1928 10.4851C14.1928 10.1293 13.9043 9.84072 13.5485 9.84072H6.20897C5.85317 9.84072 5.56464 10.1293 5.56464 10.4851C5.56464 10.8408 5.85317 11.1294 6.20897 11.1294Z" fill="black"/>
<path d="M18.7911 15.4327H6.20897C5.85317 15.4327 5.56464 15.7213 5.56464 16.0771C5.56464 16.4329 5.85317 16.7214 6.20897 16.7214H18.791C19.1468 16.7214 19.4353 16.4329 19.4353 16.0771C19.4353 15.7213 19.1469 15.4327 18.7911 15.4327Z" fill="black"/>
</g>
</svg>
