<svg width="16" height="16" viewBox="0 0 16 16" fill="none" xmlns="http://www.w3.org/2000/svg">
<path fill-rule="evenodd" clip-rule="evenodd" d="M15.71 15.7086C15.5168 15.9017 15.2636 15.9982 15.0105 15.9982C14.7573 15.9982 14.5042 15.9019 14.3108 15.7084L11.7671 13.1646C10.4615 14.1586 8.89689 14.6574 7.3312 14.6574C5.45404 14.6574 3.57653 13.9427 2.14738 12.5134C0.762489 11.1289 0 9.28799 0 7.32959C0 5.37137 0.762489 3.53048 2.14738 2.14577C5.00587 -0.713074 9.65724 -0.712719 12.5154 2.14577H12.5156C15.1364 4.76675 15.3522 8.89404 13.1664 11.7653L15.7102 14.3093C16.0965 14.6956 16.0965 15.3221 15.71 15.7086ZM1.97884 7.32959C1.97884 8.75946 2.53564 10.1036 3.54649 11.1143C4.55751 12.1253 5.90169 12.6821 7.33138 12.6819C8.76089 12.6819 10.1047 12.1255 11.1157 11.115L11.1164 11.1141C11.1166 11.114 11.1168 11.1139 11.1169 11.1138C11.1171 11.1137 11.1172 11.1136 11.1173 11.1134C13.2032 9.02648 13.203 5.63146 11.1163 3.5447C10.1052 2.53386 8.76107 1.97706 7.33138 1.97706C5.90187 1.97706 4.55751 2.53386 3.54649 3.5447C2.53564 4.5559 1.97884 5.90008 1.97884 7.32959Z" fill="#ABB8B9"/>
</svg>
