<svg width="15" height="15" viewBox="0 0 15 15" fill="none" xmlns="http://www.w3.org/2000/svg">
<path fill-rule="evenodd" clip-rule="evenodd" d="M3.44499 12.7867H2.97331C1.33194 12.7848 0.00182134 11.4546 0 9.81327V5.18664C0.00182134 3.54527 1.33194 2.21512 2.97331 2.21325H8.89903L7.39331 0.707473L7.9825 0.118286L10.4943 2.63L7.9825 5.14164L7.39331 4.55244L8.89917 3.04658H2.97331C1.79196 3.04794 0.834643 4.00529 0.833333 5.18664V9.81327C0.834643 10.9946 1.79196 11.952 2.97331 11.9533H3.44499V12.7867ZM15 9.81327V5.18664C14.9982 3.54527 13.6681 2.21512 12.0267 2.21325H11.41V3.04658H12.0267C13.208 3.04794 14.1654 4.00529 14.1667 5.18664V9.81327C14.1654 10.9946 13.208 11.952 12.0267 11.9533H6.10083L7.60669 10.4475L7.0175 9.85827L4.5057 12.3699L7.0175 14.8816L7.60669 14.2924L6.10097 12.7867H12.0267C13.6681 12.7848 14.9982 11.4546 15 9.81327Z" fill="black"/>
</svg>
