<svg width="17" height="16" viewBox="0 0 17 16" fill="none" xmlns="http://www.w3.org/2000/svg">
<path fill-rule="evenodd" clip-rule="evenodd" d="M16.9737 1.06336C16.9737 0.64353 16.6905 0.36364 16.2657 0.36364H9.89319C9.46835 0.36364 9.18513 0.64353 9.18513 1.06336V15.0579C9.18513 15.4777 9.46835 15.7576 9.89319 15.7576H16.2657C16.6905 15.7576 16.9737 15.4777 16.9737 15.0579V1.06336ZM15.5576 1.76309V14.3581H10.6012V1.76309H15.5576ZM7.06097 8.76033C7.4858 8.76033 7.76902 9.04022 7.76902 9.46006V15.0579C7.76902 15.4777 7.4858 15.7576 7.06097 15.7576H1.39653C0.971698 15.7576 0.688477 15.4777 0.688477 15.0579V9.46006C0.688477 9.04022 0.971698 8.76033 1.39653 8.76033H7.06097ZM6.35291 10.1598V14.3581H2.10459V10.1598H6.35291ZM7.06097 0.36364C7.4858 0.36364 7.76902 0.64353 7.76902 1.06336V6.66116C7.76902 7.081 7.4858 7.36089 7.06097 7.36089H1.39653C0.971698 7.36089 0.688477 7.081 0.688477 6.66116V1.06336C0.688477 0.64353 0.971698 0.36364 1.39653 0.36364H7.06097ZM6.35291 1.76309V5.96144H2.10459V1.76309H6.35291Z" fill="white"/>
</svg>
