<svg width="15" height="15" viewBox="0 0 15 15" fill="none" xmlns="http://www.w3.org/2000/svg">
<path d="M2.54732 12.4528C-0.182451 9.72226 -0.182439 5.27848 2.54735 2.54795C5.27847 -0.18265 9.72105 -0.18265 12.4522 2.54795C15.1826 5.27851 15.1826 9.72237 12.4521 12.4529C11.0868 13.8176 9.29488 14.5 7.50008 14.5C5.7052 14.5 3.91264 13.8176 2.54732 12.4528Z" fill="white" stroke="#1C94A3"/>
<path d="M4.77759 8.7629L4.39648 10.6863L6.23592 10.2212L9.76119 6.69594L8.30286 5.23761L4.77759 8.7629Z" fill="#1C94A3"/>
<path d="M10.8849 5.0218L9.97679 4.11375C9.82513 3.96208 9.57818 3.96208 9.42651 4.11375L8.71484 4.82542L10.1732 6.28375L10.8848 5.57208C11.0365 5.42042 11.0365 5.17347 10.8849 5.0218Z" fill="#1C94A3"/>
</svg>
