<svg width="10" height="15" viewBox="0 0 10 15" fill="none" xmlns="http://www.w3.org/2000/svg">
<path fill-rule="evenodd" clip-rule="evenodd" d="M8.19351 4.06313C8.20787 4.18614 8.29649 4.28852 8.41797 4.32245C9.43788 4.70969 10 5.28997 10 5.95626V13.5933C9.98147 14.0327 9.64619 14.3967 9.20218 14.4596C7.85111 14.7425 6.47162 14.874 5.09026 14.8515C3.63965 14.8773 2.19114 14.7321 0.775923 14.4188C0.341849 14.3477 0.0180621 13.9881 0 13.5571V5.95626C0 5.28997 0.562121 4.70969 1.58277 4.32216C1.70394 4.28814 1.79225 4.18589 1.80649 4.06313V3.56436H1.74242C1.24057 3.56382 0.833881 3.16518 0.833333 2.67327V0.891089C0.833881 0.399177 1.24057 0.000536944 1.74242 0H8.40909C8.91094 0.000536944 9.31763 0.399177 9.31818 0.891089V2.67327C9.31763 3.16518 8.91094 3.56382 8.40909 3.56436H8.19351V4.06313ZM1.43939 2.67327C1.43961 2.83722 1.57516 2.97008 1.74242 2.9703H8.40909C8.57636 2.97008 8.7119 2.83722 8.71212 2.67327V0.891089C8.7119 0.727133 8.57636 0.594273 8.40909 0.594059H1.74242C1.57516 0.594273 1.43961 0.727133 1.43939 0.891089V2.67327ZM9.39394 11.8812H5C4.83273 11.881 4.69719 11.7481 4.69697 11.5842V7.12871C4.69719 6.96476 4.83273 6.8319 5 6.83168H9.39394V11.8812ZM5 6.23762H9.39394V5.95626C9.39394 5.39106 8.55779 5.01267 8.19824 4.87619C7.84259 4.7552 7.59975 4.43194 7.58745 4.06313V3.56436H2.41255V4.06313C2.40035 4.43168 2.15782 4.75479 1.8025 4.8759C1.4422 5.01267 0.606061 5.39106 0.606061 5.95626V13.5571C0.628886 13.7062 0.751283 13.8216 0.904208 13.8381C2.27701 14.144 3.68271 14.2848 5.09026 14.2574C6.43195 14.2794 7.77184 14.1517 9.0841 13.8769C9.24167 13.8636 9.3696 13.7465 9.39394 13.5933V12.4752H5C4.49815 12.4747 4.09146 12.0761 4.09091 11.5842V7.12871C4.09146 6.6368 4.49815 6.23816 5 6.23762Z" fill="black"/>
</svg>
