<svg width="18" height="20" viewBox="0 0 18 20" fill="none" xmlns="http://www.w3.org/2000/svg">
<path fill-rule="evenodd" clip-rule="evenodd" d="M13.6333 0.100023L17.6333 4.10002C17.6981 4.16021 17.7344 4.24495 17.7333 4.33336V18.0467C17.7297 18.7558 17.1558 19.3297 16.4467 19.3334H3.68667C2.97758 19.3297 2.40365 18.7558 2.4 18.0467V16.3334C2.4 16.1493 2.54924 16 2.73333 16C2.91743 16 3.06667 16.1493 3.06667 16.3334V18.0467C3.06667 18.3891 3.34425 18.6667 3.68667 18.6667H16.4467C16.7891 18.6667 17.0667 18.3891 17.0667 18.0467V4.66669H13.4C13.2159 4.66669 13.0667 4.51745 13.0667 4.33336V0.66669H3.68667C3.34425 0.66669 3.06667 0.944273 3.06667 1.28669V7.66669C3.06667 7.85078 2.91743 8.00002 2.73333 8.00002C2.54924 8.00002 2.4 7.85078 2.4 7.66669V1.28669C2.40365 0.577599 2.97758 0.0036691 3.68667 2.33198e-05H13.4C13.4884 -0.00105438 13.5731 0.0352644 13.6333 0.100023ZM16.5933 4.00002L13.7333 1.14002V4.00002H16.5933Z" fill="black"/>
<path d="M7.8963 10.6H7.24445V13.2445H7.98519C8.37441 13.2702 8.75947 13.1515 9.06667 12.9111C9.32634 12.6514 9.46133 12.2924 9.43704 11.9259C9.41482 11.037 8.88889 10.6 7.8963 10.6Z" fill="#FE5959"/>
<path d="M4.12593 10.5852H3.45926V12.1333H4.2C4.46482 12.1674 4.73213 12.0926 4.94074 11.9259C5.10059 11.7646 5.18871 11.5456 5.18518 11.3185C5.20491 11.0977 5.10979 10.8823 4.93333 10.7481C4.68501 10.6186 4.40506 10.5621 4.12593 10.5852Z" fill="#FE5959"/>
<path fill-rule="evenodd" clip-rule="evenodd" d="M15.9259 9.42222V14.4296C15.9279 14.7485 15.8021 15.0549 15.5766 15.2803C15.3512 15.5058 15.0448 15.6316 14.7259 15.6296H1.57037C1.2515 15.6316 0.945124 15.5058 0.719648 15.2803C0.494173 15.0549 0.368382 14.7485 0.370369 14.4296V9.42222C0.368382 9.10336 0.494173 8.79698 0.719648 8.5715C0.945124 8.34603 1.2515 8.22023 1.57037 8.22222H14.7259C15.0448 8.22023 15.3512 8.34603 15.5766 8.5715C15.8021 8.79698 15.9279 9.10336 15.9259 9.42222ZM4.14815 12.7259C4.59239 12.7595 5.03523 12.6449 5.40741 12.4C5.69957 12.1409 5.85316 11.7597 5.82222 11.3704C5.85505 10.9801 5.70448 10.5969 5.41481 10.3333C5.04118 10.0722 4.5873 9.95155 4.13333 9.99259H2.80741V13.8593H3.45926V12.7259H4.14815ZM9.53333 13.3333C9.06916 13.7168 8.47438 13.9053 7.87407 13.8593H6.59259V9.99259H7.91852C8.49504 9.95446 9.06445 10.1372 9.51111 10.5037C9.8956 10.8648 10.1015 11.3769 10.0741 11.9037C10.0996 12.4346 9.90382 12.9523 9.53333 13.3333ZM11.563 10.6H13.4815L13.4889 9.99259H10.9111V13.8889H11.563V12.2963H13.2741V11.6667H11.563V10.6Z" fill="#F83636"/>
</svg>
