<svg width="17" height="17" viewBox="0 0 17 17" fill="none" xmlns="http://www.w3.org/2000/svg">
<path fill-rule="evenodd" clip-rule="evenodd" d="M12.7669 1.13998C14.0692 1.90005 15.1002 2.9311 15.8603 4.23331C16.6201 5.53552 17 6.95783 17 8.5C17 10.042 16.6201 11.4642 15.8602 12.7666C15.1001 14.0688 14.0691 15.1001 12.7669 15.86C11.4645 16.62 10.0422 17 8.50012 17C6.95802 17 5.53586 16.62 4.23345 15.86C2.93111 15.0999 1.90006 14.0688 1.13998 12.7666C0.380059 11.4641 0 10.0421 0 8.5C0 6.95798 0.379943 5.53572 1.1401 4.23331C1.90022 2.93098 2.93127 1.89994 4.2336 1.13998C5.53586 0.379941 6.95813 0 8.50027 0C10.0426 0 11.4644 0.379941 12.7669 1.13998ZM13.0764 9.68346C13.2107 9.54936 13.2779 9.39012 13.2779 9.20637V7.84915C13.2779 7.66536 13.2107 7.50631 13.0764 7.37206C12.9421 7.23773 12.783 7.17056 12.5993 7.17056H9.88518V4.4563C9.88518 4.27251 9.81781 4.11353 9.6836 3.97921C9.54939 3.84496 9.39026 3.77778 9.20651 3.77778H7.84928C7.66549 3.77778 7.50647 3.84492 7.37218 3.97921C7.23786 4.11356 7.17068 4.27251 7.17068 4.4563V7.17056H4.4563C4.27251 7.17056 4.11353 7.23773 3.97921 7.37206C3.84496 7.50634 3.77778 7.6654 3.77778 7.84915V9.20637C3.77778 9.39016 3.84492 9.5494 3.97921 9.68346C4.11357 9.81771 4.27255 9.88504 4.4563 9.88504H7.17057V12.5991C7.17057 12.7829 7.23775 12.942 7.37207 13.0765C7.50636 13.2106 7.66541 13.2778 7.84917 13.2778H9.20625C9.39007 13.2778 9.54917 13.2106 9.68334 13.0765C9.81759 12.942 9.88492 12.7829 9.88492 12.5991V9.88504H12.5993C12.7829 9.88504 12.9419 9.81767 13.0764 9.68346Z" fill="#FE5959"/>
</svg>
