<svg width="19" height="16" viewBox="0 0 19 16" fill="none" xmlns="http://www.w3.org/2000/svg">
<path fill-rule="evenodd" clip-rule="evenodd" d="M18.3704 15.9259H0.592593C0.265481 15.9259 0 15.6604 0 15.3333C0 15.0062 0.265481 14.7407 0.592593 14.7407H18.3704C18.6975 14.7407 18.963 15.0062 18.963 15.3333C18.963 15.6604 18.6975 15.9259 18.3704 15.9259Z" fill="#A5B2B3"/>
<path fill-rule="evenodd" clip-rule="evenodd" d="M4.66666 15.7037H1.18518C0.858072 15.7037 0.59259 15.4382 0.59259 15.1111V9.11109C0.59259 8.78398 0.858072 8.51849 1.18518 8.51849H4.66666C4.99378 8.51849 5.25926 8.78398 5.25926 9.11109V15.1111C5.25926 15.4382 4.99378 15.7037 4.66666 15.7037ZM1.77778 14.5185H4.07407V9.70368H1.77778V14.5185Z" fill="#A5B2B3"/>
<path fill-rule="evenodd" clip-rule="evenodd" d="M10.8889 15.8519H7.40741C7.0803 15.8519 6.81482 15.5864 6.81482 15.2593V4.88892C6.81482 4.56181 7.0803 4.29633 7.40741 4.29633H10.8889C11.216 4.29633 11.4815 4.56181 11.4815 4.88892V15.2593C11.4815 15.5864 11.216 15.8519 10.8889 15.8519ZM8 14.6667H10.2963V5.48151H8V14.6667Z" fill="#A5B2B3"/>
<path fill-rule="evenodd" clip-rule="evenodd" d="M17.2593 15.8519H13.7778C13.4507 15.8519 13.1852 15.5864 13.1852 15.2593V0.666689C13.1852 0.339578 13.4507 0.0740967 13.7778 0.0740967H17.2593C17.5864 0.0740967 17.8518 0.339578 17.8518 0.666689V15.2593C17.8518 15.5864 17.5864 15.8519 17.2593 15.8519ZM14.3704 14.6667H16.6667V1.25928H14.3704V14.6667Z" fill="#A5B2B3"/>
</svg>
