<svg width="11" height="18" viewBox="0 0 11 18" fill="none" xmlns="http://www.w3.org/2000/svg">
<path fill-rule="evenodd" clip-rule="evenodd" d="M1.51711 13.0682C2.76856 12.3347 4.06134 11.5792 5.32081 10.8546C6.71643 10.0516 7.06441 9.06912 6.06199 7.77439C6.38814 7.0598 7.44882 6.86772 8.15077 7.29482C8.85272 7.72193 9.21977 8.67199 9.18014 9.43534C9.12376 10.5201 8.78959 11.4212 7.59716 12.2713C5.07894 14.1695 2.55785 16.0637 0.0327154 17.9528C0.0327154 17.183 0.0303691 16.4133 0.0260674 15.6434C-0.00697706 14.4432 0.494947 13.6673 1.51711 13.0682Z" fill="black"/>
<path fill-rule="evenodd" clip-rule="evenodd" d="M8.65171 4.96913C7.40026 5.70263 6.10749 6.45815 4.84802 7.18279C3.45239 7.98576 3.10441 8.96823 4.10683 10.263C3.78069 10.9776 2.72 11.1696 2.01805 10.7425C1.3161 10.3154 0.949057 9.36536 0.988684 8.60202C1.04506 7.51722 1.37923 6.61617 2.57166 5.76605C5.08989 3.86785 7.61098 1.97362 10.1361 0.084548C10.1361 0.854347 10.1385 1.62408 10.1428 2.39395C10.1758 3.5941 9.67388 4.37003 8.65171 4.96913Z" fill="black"/>
</svg>
