<svg width="10" height="18" viewBox="0 0 10 18" fill="none" xmlns="http://www.w3.org/2000/svg">
<path fill-rule="evenodd" clip-rule="evenodd" d="M1.4919 13.0682C2.72258 12.3347 3.99389 11.5792 5.23245 10.8546C6.6049 10.0516 6.9471 9.06912 5.96133 7.77439C6.28206 7.0598 7.32513 6.86772 8.01542 7.29482C8.70572 7.72193 9.06667 8.67199 9.0277 9.43534C8.97226 10.5201 8.64364 11.4212 7.47101 12.2713C4.99459 14.1695 2.51536 16.0637 0.0321524 17.9528C0.0321524 17.183 0.029845 16.4133 0.0256147 15.6434C-0.00688109 14.4432 0.486709 13.6673 1.4919 13.0682Z" fill="#A5B2B3"/>
<path fill-rule="evenodd" clip-rule="evenodd" d="M8.5081 4.96913C7.27742 5.70263 6.00611 6.45815 4.76755 7.18279C3.3951 7.98576 3.0529 8.96823 4.03867 10.263C3.71794 10.9776 2.67487 11.1696 1.98458 10.7425C1.29428 10.3154 0.933328 9.36536 0.972297 8.60202C1.02774 7.51722 1.35636 6.61617 2.52899 5.76605C5.00541 3.86785 7.48464 1.97362 9.96785 0.084548C9.96785 0.854347 9.97016 1.62408 9.97439 2.39395C10.0069 3.5941 9.51329 4.37003 8.5081 4.96913Z" fill="#A5B2B3"/>
</svg>
