<svg width="29" height="40" viewBox="0 0 29 40" fill="none" xmlns="http://www.w3.org/2000/svg">
<g id="noun_Data_3235859">
<g id="Group">
<path id="Shape" d="M27.6389 6.15938C27.6389 6.19979 27.6352 6.24019 27.6352 6.2761C27.6315 6.42425 27.6095 6.28508 27.6425 6.24917C27.6132 6.28508 27.6059 6.46017 27.5949 6.51404C27.5875 6.54546 27.5765 6.58138 27.5692 6.61281C27.5288 6.76993 27.6059 6.532 27.5692 6.61729C27.5325 6.6981 27.5032 6.77891 27.4665 6.85972C27.4298 6.93604 27.3822 7.00787 27.3455 7.08419C27.3125 7.14704 27.3858 7.01685 27.3822 7.02582C27.3785 7.03929 27.3492 7.07521 27.3418 7.08868C27.3125 7.12908 27.2831 7.17397 27.2538 7.21438C27.1328 7.37599 27.0008 7.52863 26.8614 7.6678C26.8321 7.69922 26.8028 7.72616 26.7698 7.75759C26.8834 7.64535 26.7478 7.77554 26.7221 7.79799C26.6377 7.87431 26.5497 7.94614 26.4654 8.01348C26.282 8.15714 26.095 8.29182 25.9007 8.41303C25.6806 8.5522 25.4569 8.68239 25.2332 8.8036C25.2076 8.81707 25.0939 8.87543 25.1709 8.83503C25.1049 8.86645 25.0389 8.90237 24.9729 8.93379C24.8445 8.99664 24.7162 9.05501 24.5878 9.11337C24.0304 9.36028 23.462 9.57128 22.89 9.75085C22.5819 9.84962 22.2702 9.9394 21.9585 10.0202C21.8815 10.0427 21.8045 10.0606 21.7238 10.0831C21.6908 10.092 21.6542 10.0965 21.6212 10.11C21.4928 10.1639 21.8228 10.0876 21.5918 10.1235C21.4305 10.1504 21.2728 10.1953 21.1151 10.2312C19.8793 10.5096 18.7315 10.6801 17.4627 10.7924C14.7784 11.0348 12.0611 10.972 9.38774 10.5634C8.86701 10.4826 8.24361 10.3659 7.66787 10.2357C7.53219 10.2043 7.39651 10.1684 7.26083 10.1414C7.23149 10.1369 7.10314 10.1324 7.08481 10.11C7.10314 10.1324 7.20949 10.1414 7.09581 10.101C7.0078 10.0696 6.91612 10.0561 6.82811 10.0337C6.50541 9.94838 6.1827 9.85411 5.86367 9.75534C5.29893 9.57577 4.74154 9.37375 4.19147 9.12683C4.07046 9.07296 3.94944 9.01909 3.82843 8.96073C3.76976 8.93379 3.71108 8.90237 3.65241 8.87543C3.64141 8.87094 3.53873 8.81707 3.5974 8.8485C3.65241 8.87543 3.51673 8.8036 3.52039 8.80809C3.30037 8.69137 3.08401 8.56567 2.87132 8.43099C2.67696 8.30529 2.48994 8.17509 2.30292 8.03144C2.22224 7.96859 2.1379 7.90125 2.06089 7.82942C2.02422 7.79799 1.98755 7.75759 1.94721 7.72616C1.88487 7.67678 2.02055 7.80248 1.96555 7.74412C1.93988 7.71718 1.91421 7.69474 1.88854 7.67229C1.75286 7.53761 1.62451 7.38946 1.50716 7.23233C1.48149 7.19642 1.45582 7.1605 1.43015 7.12459C1.41548 7.10214 1.33481 6.97644 1.38981 7.06623C1.44482 7.15601 1.37148 7.0348 1.35681 7.00787C1.33481 6.96746 1.30914 6.92257 1.2908 6.88217C1.25413 6.81034 1.22113 6.73402 1.19179 6.6577C1.18812 6.64872 1.16612 6.59485 1.16612 6.59485C1.16979 6.58587 1.20646 6.743 1.19546 6.67566C1.18446 6.62627 1.16612 6.57689 1.15512 6.52751C1.13678 6.45119 1.12578 6.37487 1.11111 6.29406C1.08911 6.18632 1.11845 6.45119 1.11478 6.33896C1.11478 6.28957 1.10745 6.24019 1.10745 6.18632C1.10745 6.11898 1.11111 6.05613 1.11478 5.99328C1.11845 5.86309 1.08911 6.15489 1.10745 6.05164C1.11478 6.01572 1.11845 5.97981 1.12578 5.94389C1.13678 5.88104 1.15145 5.81819 1.16979 5.75534C1.17712 5.72392 1.19179 5.69249 1.19912 5.66107C1.21379 5.58475 1.14045 5.80921 1.16979 5.74187C1.18079 5.71943 1.18446 5.69698 1.19546 5.67453C1.25046 5.54434 1.30914 5.41864 1.37881 5.29743C1.39348 5.27049 1.42282 5.23907 1.43382 5.20764C1.40815 5.27947 1.35681 5.32437 1.42282 5.23009C1.46682 5.16724 1.51449 5.10439 1.56217 5.04154C1.66485 4.91135 1.77486 4.79013 1.88854 4.67341C1.91421 4.65096 1.93621 4.62403 1.96188 4.60158C2.02422 4.53873 1.86287 4.69137 1.97655 4.58811C2.04256 4.52975 2.11223 4.4669 2.18191 4.41303C2.48261 4.16612 2.80164 3.95063 3.12802 3.7531C3.21236 3.70371 3.30037 3.65433 3.38471 3.60495C3.42138 3.5825 3.46172 3.56454 3.49839 3.5421C3.52406 3.52863 3.54973 3.51516 3.5754 3.50169C3.67074 3.44782 3.51673 3.52863 3.58273 3.4972C3.78076 3.39844 3.97878 3.30416 4.18047 3.21438C5.11191 2.80136 6.07636 2.49159 7.04447 2.24468C7.60187 2.10102 8.16293 1.9843 8.72766 1.88104C9.0467 1.82268 9.20805 1.79575 9.51976 1.75085C9.83146 1.70596 10.1468 1.66107 10.4585 1.62515C13.0585 1.32437 15.6915 1.32437 18.2914 1.62515C18.6068 1.66107 18.9185 1.70147 19.2302 1.75085C19.5419 1.79575 19.7069 1.82268 20.0223 1.88104C20.587 1.9843 21.1481 2.10551 21.7055 2.24468C22.6736 2.49159 23.6381 2.79687 24.5695 3.21438C24.7712 3.30416 24.9692 3.40293 25.1672 3.4972C25.2406 3.53312 25.0829 3.44782 25.1526 3.48823C25.1709 3.4972 25.1929 3.51067 25.2112 3.51965C25.2626 3.54659 25.3139 3.57352 25.3616 3.60046C25.4533 3.64984 25.5449 3.70371 25.6366 3.75759C25.9557 3.95063 26.2674 4.16163 26.5644 4.40405C26.6341 4.46241 26.7001 4.52077 26.7698 4.57913C26.8541 4.65545 26.7918 4.56567 26.7624 4.57016C26.7808 4.57016 26.8578 4.66443 26.8724 4.6779C26.9824 4.79013 27.0888 4.90686 27.1878 5.03256C27.2318 5.09092 27.2758 5.14928 27.3162 5.20764C27.3455 5.25254 27.3638 5.32885 27.3418 5.23907C27.3162 5.1403 27.3455 5.24805 27.3675 5.28396C27.4408 5.40966 27.4995 5.53985 27.5545 5.67453C27.5912 5.76432 27.5398 5.75534 27.5398 5.63413C27.5398 5.66107 27.5618 5.70147 27.5692 5.72841C27.5875 5.79126 27.6022 5.85411 27.6132 5.91696C27.6205 5.94838 27.6242 5.97981 27.6279 6.01123C27.6535 6.14142 27.6242 5.91696 27.6242 5.95287C27.6279 6.02021 27.6352 6.09204 27.6389 6.15938C27.6425 6.50955 27.8919 6.85074 28.1889 6.83278C28.486 6.81483 28.7427 6.53649 28.739 6.15938C28.728 4.46241 27.3968 3.32661 26.2857 2.64423C24.4338 1.50843 22.3509 0.942771 20.3157 0.570156C17.6277 0.0808186 14.8994 -0.0583509 12.1857 0.112244C9.76178 0.264881 7.31217 0.637497 4.97623 1.46802C4.07779 1.78677 3.19036 2.18183 2.36159 2.70708C1.74919 3.09765 1.12945 3.5825 0.674731 4.22897C0.278685 4.79462 -0.0183497 5.49496 0.0183212 6.26264C0.0623263 7.20091 0.517046 8.00001 1.09278 8.58811C1.87387 9.38722 2.80531 9.91696 3.75142 10.3524C4.31982 10.6128 4.89922 10.8328 5.48596 11.0213C5.81599 11.1291 6.14603 11.2234 6.47607 11.3131C6.63009 11.3535 6.78777 11.3984 6.94546 11.4344C6.99313 11.4433 7.04447 11.4523 7.09214 11.4568C7.0628 11.4523 7.03347 11.4523 7.00413 11.4478C7.0188 11.4388 7.11414 11.4748 7.11781 11.4748C7.19482 11.4927 7.27183 11.5107 7.34884 11.5286C10.0625 12.1437 12.8385 12.3502 15.5925 12.2559C16.9603 12.211 18.3244 12.0808 19.6813 11.8608C20.3377 11.7531 20.9904 11.6319 21.6395 11.4748C21.6688 11.4703 21.6982 11.4658 21.7275 11.4523C21.8485 11.4074 21.5075 11.4837 21.7422 11.4433C21.8339 11.4299 21.9255 11.4029 22.0172 11.3805C22.1932 11.3356 22.3692 11.2862 22.5453 11.2368C22.8606 11.147 23.176 11.0528 23.4877 10.945C24.5768 10.5769 25.6696 10.1145 26.6561 9.43211C27.3565 8.95175 28.0826 8.30978 28.4676 7.42089C28.64 7.03031 28.739 6.59934 28.7427 6.15489C28.7463 5.80472 28.486 5.46353 28.1926 5.48149C27.8882 5.50394 27.6389 5.78228 27.6389 6.15938Z" fill="#82E9F7"/>
<path id="Shape_2" d="M27.6388 15.4029C27.6388 16.3591 27.6388 17.3154 27.6388 18.2716C27.6388 19.8833 27.6388 21.4949 27.6388 23.1111C27.6388 23.578 27.6388 24.0449 27.6388 24.5073C27.6388 24.5836 27.6095 24.8036 27.6278 24.8485C27.5985 24.7856 27.6535 24.6869 27.6352 24.7677C27.6315 24.7856 27.6315 24.7991 27.6278 24.8171C27.6205 24.8575 27.6132 24.8934 27.6058 24.9338C27.5985 24.9742 27.5875 25.0101 27.5765 25.0505C27.5692 25.0819 27.5215 25.2301 27.5582 25.1178C27.5948 25.0056 27.5508 25.1403 27.5362 25.1672C27.5215 25.2076 27.5032 25.2435 27.4885 25.2795C27.4518 25.3603 27.4078 25.4411 27.3638 25.5174C27.3565 25.5353 27.3455 25.5488 27.3345 25.5668C27.2978 25.6386 27.4078 25.459 27.3601 25.5264C27.3345 25.5623 27.3125 25.5982 27.2868 25.6341C27.2355 25.7104 27.1805 25.7823 27.1218 25.8496C27.0631 25.9214 27.0008 25.9933 26.9348 26.0606C26.9018 26.0965 26.8688 26.1324 26.8321 26.1639C26.8174 26.1773 26.8027 26.1953 26.7881 26.2087C26.6891 26.3075 26.8541 26.1549 26.7917 26.2043C26.4397 26.4871 26.0987 26.7654 25.7173 26.9989C25.6146 27.0617 25.5119 27.1246 25.4056 27.1829C25.3506 27.2144 25.2956 27.2413 25.2442 27.2727C25.2222 27.2862 25.1966 27.2997 25.1746 27.3086C25.0205 27.3894 25.2259 27.2817 25.1379 27.3266C24.8922 27.4523 24.6428 27.5645 24.3935 27.6723C23.8471 27.9057 23.2897 28.1032 22.7286 28.2783C20.301 29.0236 17.8917 29.3199 15.3798 29.3917C14.0266 29.4321 12.6734 29.3917 11.324 29.2705C10.0918 29.1627 8.97702 29.0011 7.78521 28.7362C6.60807 28.4759 5.43461 28.1347 4.30514 27.6453C4.06311 27.5421 3.82475 27.4298 3.59006 27.3086C3.6744 27.3535 3.52772 27.2772 3.50571 27.2637C3.45071 27.2323 3.3957 27.2054 3.34436 27.174C3.23068 27.1111 3.12067 27.0438 3.01066 26.9764C2.63661 26.743 2.28457 26.4781 1.94353 26.1818C2.05721 26.2806 1.94353 26.1818 1.91786 26.1549C1.88486 26.119 1.84819 26.0875 1.81519 26.0516C1.74551 25.9798 1.6795 25.9035 1.61716 25.8227C1.56216 25.7553 1.50715 25.6835 1.45214 25.6072C1.43381 25.5802 1.38614 25.5309 1.3788 25.4994C1.3788 25.4905 1.44848 25.6206 1.41547 25.5578C1.4008 25.5309 1.38247 25.5039 1.3678 25.477C1.32746 25.4052 1.29079 25.3288 1.25412 25.2525C1.23945 25.2211 1.22478 25.1897 1.21378 25.1538C1.20645 25.1313 1.19911 25.1089 1.18811 25.0909C1.15144 25.0011 1.21378 25.1538 1.21012 25.1538C1.20278 25.1582 1.15144 24.9428 1.14777 24.9248C1.14044 24.8844 1.13311 24.8485 1.12577 24.8081C1.12211 24.7901 1.12211 24.7766 1.11844 24.7587C1.09644 24.642 1.12211 24.8889 1.12577 24.8215C1.13311 24.5297 1.11844 24.2334 1.11844 23.9371C1.11844 22.4512 1.11844 20.9607 1.11844 19.4747C1.11844 18.1863 1.11844 16.8934 1.11844 15.6049C1.11844 15.5331 1.11844 15.4613 1.11844 15.3894C0.751729 15.3894 0.38502 15.3894 0.0183105 15.3894C0.0329789 17.3692 1.77851 18.5679 3.06933 19.2458C5.25858 20.3906 7.64219 20.9158 10.0001 21.2256C12.5964 21.5668 15.2294 21.5982 17.833 21.3333C20.2167 21.0909 22.6479 20.642 24.9032 19.6319C25.7723 19.2413 26.6451 18.7789 27.3858 18.0875C27.9542 17.5578 28.5006 16.8844 28.6766 16.0045C28.717 15.807 28.739 15.596 28.739 15.3894C28.7426 15.0393 28.4823 14.6981 28.1889 14.716C27.8882 14.743 27.6388 15.0213 27.6388 15.4029C27.6388 15.4433 27.6352 15.4837 27.6352 15.5196C27.6352 15.5511 27.6205 15.6723 27.6352 15.5466C27.6498 15.4164 27.6315 15.5645 27.6278 15.5915C27.6205 15.6319 27.6132 15.6678 27.6058 15.7082C27.6022 15.7217 27.5545 15.9237 27.5472 15.9237C27.5435 15.9237 27.6095 15.7621 27.5692 15.8608C27.5618 15.8788 27.5582 15.8922 27.5508 15.9102C27.5362 15.9461 27.5215 15.9865 27.5032 16.0224C27.4702 16.0943 27.4372 16.1616 27.3968 16.2289C27.3785 16.2604 27.3565 16.3187 27.3308 16.3412C27.3271 16.3457 27.4078 16.2289 27.3675 16.2828C27.3528 16.3008 27.3381 16.3232 27.3271 16.3457C27.2208 16.4983 27.1071 16.642 26.9861 16.7766C26.9238 16.844 26.8614 16.9068 26.7991 16.9697C26.7184 17.0505 26.8724 16.9068 26.7844 16.9832C26.7404 17.0236 26.6964 17.0595 26.6524 17.0999C26.4947 17.2346 26.3297 17.3603 26.161 17.4815C25.9777 17.6117 25.787 17.7329 25.5963 17.8451C25.4973 17.9035 25.3983 17.9573 25.2992 18.0112C25.2442 18.0426 25.1892 18.0696 25.1342 18.101C25.2149 18.0561 25.0719 18.1324 25.0462 18.1459C24.0194 18.6532 22.9413 19.0123 21.8595 19.2952C20.7484 19.587 19.6923 19.78 18.5958 19.9147C16.0948 20.2289 13.5645 20.2559 11.0599 20.0135C8.82666 19.798 6.57874 19.376 4.41515 18.4601C4.18046 18.3614 3.94577 18.2536 3.71474 18.1414C3.69274 18.1279 3.54239 18.0516 3.62673 18.0965C3.57906 18.0696 3.53138 18.0471 3.48371 18.0202C3.37737 17.9618 3.27102 17.9035 3.16468 17.8406C2.79797 17.6251 2.44226 17.3827 2.10855 17.0954C2.06821 17.064 2.03154 17.0281 1.99487 16.9921C1.89219 16.8979 2.03888 17.037 1.96554 16.9652C1.89586 16.8979 1.82985 16.8305 1.76385 16.7542C1.6465 16.624 1.53649 16.4893 1.43381 16.3412C1.41914 16.3232 1.35313 16.211 1.40447 16.3008C1.45948 16.3906 1.38614 16.2694 1.37147 16.2424C1.33113 16.1706 1.29446 16.0943 1.25779 16.0179C1.24312 15.9865 1.22845 15.9551 1.21745 15.9192C1.20645 15.8878 1.16244 15.7576 1.19545 15.8698C1.22845 15.982 1.19545 15.8608 1.18811 15.8339C1.17711 15.789 1.16611 15.7486 1.15511 15.7037C1.14411 15.6543 1.14411 15.5196 1.11844 15.4882C1.14411 15.5241 1.12944 15.6588 1.12577 15.5331C1.12577 15.4882 1.12211 15.4433 1.12211 15.3984C1.11844 15.0483 0.872743 14.7071 0.572041 14.725C0.275007 14.743 0.0219776 15.0213 0.0219776 15.3984C0.0219776 16.3906 0.0219776 17.3782 0.0219776 18.3704C0.0219776 20.0045 0.0219776 21.6386 0.0219776 23.2727C0.0219776 23.7037 0.0219776 24.1347 0.0219776 24.5656C0.0219776 25.1942 0.190664 25.7867 0.4987 26.2896C1.01209 27.1246 1.74551 27.7127 2.50093 28.1751C3.51672 28.7946 4.60584 29.2301 5.70597 29.5713C8.20693 30.3434 10.8069 30.6711 13.3775 30.743C16.0142 30.8193 18.6691 30.6173 21.2654 30.0426C22.4609 29.7778 23.6527 29.4321 24.8005 28.9293C25.7063 28.5342 26.6194 28.0539 27.3895 27.3401C27.9689 26.8013 28.5373 26.101 28.6913 25.1942C28.7536 24.826 28.7426 24.4534 28.7426 24.0808C28.7426 22.5948 28.7426 21.1089 28.7426 19.6229C28.7426 18.2896 28.7426 16.9607 28.7426 15.6274C28.7426 15.5555 28.7426 15.4792 28.7426 15.4074C28.7426 15.0572 28.4896 14.716 28.1926 14.734C27.8882 14.743 27.6388 15.0213 27.6388 15.4029Z" fill="#82E9F7"/>
<path id="Shape_3" d="M27.6389 24.642C27.6389 25.7194 27.6389 26.7924 27.6389 27.8698C27.6389 29.5488 27.6389 31.2233 27.6389 32.9024C27.6389 33.2301 27.6425 33.5578 27.6389 33.8855C27.6389 33.9439 27.6352 34.0022 27.6315 34.0651C27.6242 34.1998 27.6609 33.9125 27.6389 34.0067C27.6315 34.0471 27.6279 34.0875 27.6169 34.1279C27.6022 34.1953 27.5875 34.2626 27.5692 34.33C27.5618 34.3614 27.5178 34.4736 27.5618 34.3569C27.6095 34.2312 27.5508 34.3794 27.5398 34.4063C27.4848 34.5455 27.4152 34.6712 27.3455 34.7969C27.2685 34.9315 27.4078 34.7071 27.3528 34.7879C27.3308 34.8148 27.3125 34.8462 27.2905 34.8777C27.2428 34.945 27.1915 35.0123 27.1365 35.0797C27.0265 35.2144 26.9091 35.3356 26.7881 35.4568C26.7184 35.5286 26.8908 35.367 26.7734 35.4703C26.7441 35.4972 26.7111 35.5241 26.6817 35.5511C26.6084 35.6139 26.5314 35.6768 26.4581 35.7351C26.1353 35.991 25.7943 36.211 25.4459 36.404C25.3506 36.4579 25.2552 36.5073 25.1599 36.5612C25.0866 36.6016 25.2479 36.5163 25.1746 36.5522C25.1489 36.5657 25.1232 36.5791 25.0939 36.5926C25.0389 36.6195 24.9875 36.6465 24.9325 36.6734C24.7125 36.7767 24.4925 36.8754 24.2688 36.9697C23.7811 37.1717 23.2897 37.3468 22.791 37.5039C20.3487 38.2626 17.9467 38.5589 15.4164 38.6352C14.0229 38.6756 12.6258 38.6352 11.236 38.5095C9.95247 38.3928 8.82301 38.2222 7.57253 37.9349C6.51274 37.6925 5.46395 37.3782 4.4445 36.9517C4.23181 36.862 4.01545 36.7677 3.80643 36.6644C3.75142 36.6375 3.70008 36.6106 3.64507 36.5836C3.6194 36.5701 3.59373 36.5567 3.5644 36.5432C3.56807 36.5432 3.65608 36.5926 3.5974 36.5612C3.49472 36.5073 3.39571 36.4534 3.29303 36.3951C2.94099 36.193 2.59629 35.9731 2.26991 35.7127C2.20024 35.6543 2.13057 35.596 2.06089 35.5376C2.03155 35.5107 1.99855 35.4837 1.96921 35.4568C1.8702 35.367 2.05722 35.5466 1.94354 35.4299C1.8262 35.3131 1.71618 35.1919 1.60984 35.0617C1.56217 34.9989 1.51449 34.9405 1.46682 34.8732C1.44482 34.8462 1.42648 34.8148 1.40448 34.7834C1.34947 34.7071 1.44115 34.8373 1.44115 34.8418C1.43382 34.8193 1.41182 34.7969 1.40081 34.7789C1.32747 34.6487 1.26146 34.5185 1.20279 34.3749C1.19179 34.3479 1.14778 34.2312 1.19179 34.3479C1.23946 34.4736 1.18812 34.3345 1.18079 34.3075C1.16245 34.2357 1.14412 34.1639 1.12945 34.092C1.12212 34.0606 1.12212 34.0292 1.11478 33.9978C1.09278 33.899 1.12578 34.1953 1.11845 34.0427C1.11478 33.9888 1.11111 33.9304 1.11111 33.8765C1.11111 33.7823 1.11111 33.688 1.11111 33.5937C1.11111 32.1257 1.11111 30.6577 1.11111 29.1897C1.11111 27.7531 1.11111 26.3165 1.11111 24.8799C1.11111 24.7991 1.11111 24.7183 1.11111 24.6375C0.744405 24.6375 0.377696 24.6375 0.0109863 24.6375C0.0256547 26.6173 1.77119 27.8159 3.06201 28.4938C5.25126 29.6386 7.63487 30.1639 9.99281 30.4736C12.5891 30.8148 15.2221 30.8462 17.8257 30.5814C20.2093 30.3389 22.6406 29.89 24.8959 28.8799C25.765 28.4893 26.6377 28.0269 27.3785 27.3356C27.9469 26.8058 28.4933 26.1324 28.6693 25.2525C28.7096 25.055 28.7316 24.844 28.7316 24.6375C28.7353 24.2873 28.475 23.9461 28.1816 23.9641C27.8882 23.9865 27.6389 24.2649 27.6389 24.642C27.6389 24.6824 27.6352 24.7228 27.6352 24.7587C27.6352 24.7901 27.6205 24.9113 27.6352 24.7856C27.6499 24.6554 27.6315 24.8036 27.6279 24.8305C27.6205 24.8709 27.6132 24.9068 27.6059 24.9473C27.6022 24.9607 27.5545 25.1627 27.5472 25.1627C27.5435 25.1627 27.6095 25.0011 27.5692 25.0999C27.5618 25.1178 27.5582 25.1313 27.5508 25.1493C27.5362 25.1852 27.5215 25.2256 27.5032 25.2615C27.4702 25.3333 27.4372 25.4007 27.3968 25.468C27.3785 25.4994 27.3565 25.5578 27.3308 25.5803C27.3272 25.5847 27.4078 25.468 27.3675 25.5219C27.3528 25.5398 27.3382 25.5623 27.3272 25.5847C27.2208 25.7374 27.1071 25.881 26.9861 26.0157C26.9238 26.0831 26.8614 26.1459 26.7991 26.2088C26.7184 26.2896 26.8724 26.1459 26.7844 26.2222C26.7404 26.2626 26.6964 26.2985 26.6524 26.3389C26.4947 26.4736 26.3297 26.5993 26.161 26.7205C25.9777 26.8507 25.787 26.9719 25.5963 27.0842C25.4973 27.1425 25.3983 27.1964 25.2993 27.2503C25.2442 27.2817 25.1892 27.3086 25.1342 27.3401C25.2149 27.2952 25.0719 27.3715 25.0462 27.385C24.0194 27.8923 22.9413 28.2514 21.8595 28.5342C20.7484 28.826 19.6923 29.0191 18.5958 29.1538C16.0949 29.468 13.5646 29.495 11.0599 29.2525C8.82667 29.037 6.57875 28.615 4.41516 27.6992C4.18047 27.6005 3.94578 27.4927 3.71475 27.3805C3.69275 27.367 3.5424 27.2907 3.62674 27.3356C3.57907 27.3086 3.53139 27.2862 3.48372 27.2593C3.37738 27.2009 3.27103 27.1425 3.16469 27.0797C2.79798 26.8642 2.44227 26.6218 2.10856 26.3345C2.06822 26.303 2.03155 26.2671 1.99488 26.2312C1.8922 26.1369 2.03889 26.2761 1.96555 26.2043C1.89587 26.1369 1.82986 26.0696 1.76386 25.9933C1.64651 25.8631 1.5365 25.7284 1.43382 25.5803C1.41915 25.5623 1.35314 25.4501 1.40448 25.5398C1.45949 25.6296 1.38615 25.5084 1.37148 25.4815C1.33114 25.4097 1.29447 25.3333 1.2578 25.257C1.24313 25.2256 1.22846 25.1942 1.21746 25.1583C1.20646 25.1268 1.16245 24.9966 1.19546 25.1089C1.22846 25.2211 1.19546 25.0999 1.18812 25.073C1.17712 25.0281 1.16612 24.9877 1.15512 24.9428C1.14412 24.8934 1.14412 24.7587 1.11845 24.7273C1.14412 24.7632 1.12945 24.8979 1.12578 24.7722C1.12578 24.7273 1.12212 24.6824 1.12212 24.6375C1.11845 24.2873 0.872753 23.9461 0.572051 23.9641C0.275017 23.982 0.0219876 24.2604 0.0219876 24.6375C0.0219876 25.7508 0.0219876 26.8597 0.0219876 27.9731C0.0219876 29.6566 0.0219876 31.3401 0.0219876 33.0236C0.0219876 33.3513 0.00731924 33.688 0.0256547 34.0157C0.076994 34.8148 0.410699 35.5062 0.872753 36.0584C1.41548 36.7093 2.09389 37.1897 2.77964 37.5758C3.69275 38.092 4.65352 38.4781 5.6253 38.7834C8.13726 39.5735 10.7556 39.9012 13.3445 39.9776C16.0655 40.0584 18.8048 39.8474 21.4818 39.2323C22.5563 38.9854 23.6234 38.6712 24.6538 38.2312C25.4863 37.8765 26.3187 37.4545 27.0595 36.862C27.6132 36.4175 28.1706 35.8563 28.4786 35.1201C28.673 34.6577 28.7427 34.1863 28.7427 33.6745C28.7427 32.2245 28.7427 30.7744 28.7427 29.3288C28.7427 27.8519 28.7427 26.3704 28.7427 24.8934C28.7427 24.8081 28.7427 24.7273 28.7427 24.642C28.7427 24.2918 28.4896 23.9506 28.1926 23.9686C27.8882 23.9865 27.6389 24.2649 27.6389 24.642Z" fill="#82E9F7"/>
<path id="Shape_4" d="M27.6388 6.15939C27.6388 7.11562 27.6388 8.07184 27.6388 9.02807C27.6388 10.6397 27.6388 12.2514 27.6388 13.8676C27.6388 14.3345 27.6388 14.8014 27.6388 15.2638C27.6388 15.3401 27.6095 15.5601 27.6278 15.605C27.5985 15.5421 27.6535 15.4433 27.6352 15.5241C27.6315 15.5421 27.6315 15.5556 27.6278 15.5735C27.6205 15.6139 27.6132 15.6498 27.6058 15.6903C27.5985 15.7307 27.5875 15.7666 27.5765 15.807C27.5692 15.8384 27.5215 15.9865 27.5582 15.8743C27.5948 15.7621 27.5508 15.8968 27.5362 15.9237C27.5215 15.9641 27.5032 16 27.4885 16.0359C27.4518 16.1167 27.4078 16.1975 27.3638 16.2739C27.3565 16.2918 27.3455 16.3053 27.3345 16.3232C27.2978 16.3951 27.4078 16.2155 27.3601 16.2828C27.3345 16.3188 27.3125 16.3547 27.2868 16.3906C27.2355 16.4669 27.1805 16.5387 27.1218 16.6061C27.0631 16.6779 27.0008 16.7497 26.9348 16.8171C26.9018 16.853 26.8688 16.8889 26.8321 16.9203C26.8174 16.9338 26.8027 16.9518 26.7881 16.9652C26.6891 17.064 26.8541 16.9114 26.7917 16.9607C26.4397 17.2436 26.0987 17.5219 25.7173 17.7553C25.6146 17.8182 25.5119 17.881 25.4056 17.9394C25.3506 17.9708 25.2956 17.9978 25.2442 18.0292C25.2222 18.0427 25.1966 18.0561 25.1746 18.0651C25.0205 18.1459 25.2259 18.0382 25.1379 18.0831C24.8922 18.2088 24.6428 18.321 24.3935 18.4287C23.8471 18.6622 23.2897 18.8597 22.7286 19.0348C20.301 19.78 17.8917 20.0763 15.3798 20.1482C14.0266 20.1886 12.6734 20.1482 11.324 20.027C10.0918 19.9192 8.97702 19.7576 7.78521 19.4927C6.60807 19.2323 5.43461 18.8911 4.30514 18.4018C4.06311 18.2986 3.82475 18.1863 3.59006 18.0651C3.6744 18.11 3.52772 18.0337 3.50571 18.0202C3.45071 17.9888 3.3957 17.9619 3.34436 17.9304C3.23068 17.8676 3.12067 17.8002 3.01066 17.7329C2.63661 17.4995 2.28457 17.2346 1.94353 16.9383C2.05721 17.0371 1.94353 16.9383 1.91786 16.9114C1.88486 16.8754 1.84819 16.844 1.81519 16.8081C1.74551 16.7363 1.6795 16.6599 1.61716 16.5791C1.56216 16.5118 1.50715 16.44 1.45214 16.3637C1.43381 16.3367 1.38614 16.2873 1.3788 16.2559C1.3788 16.2469 1.44848 16.3771 1.41547 16.3143C1.4008 16.2873 1.38247 16.2604 1.3678 16.2335C1.32746 16.1616 1.29079 16.0853 1.25412 16.009C1.23945 15.9776 1.22478 15.9461 1.21378 15.9102C1.20645 15.8878 1.19911 15.8653 1.18811 15.8474C1.15144 15.7576 1.21378 15.9102 1.21012 15.9102C1.20278 15.9147 1.15144 15.6992 1.14777 15.6813C1.14044 15.6409 1.13311 15.605 1.12577 15.5645C1.12211 15.5466 1.12211 15.5331 1.11844 15.5152C1.09644 15.3984 1.12211 15.6454 1.12577 15.578C1.13311 15.2862 1.11844 14.9899 1.11844 14.6936C1.11844 13.2076 1.11844 11.7217 1.11844 10.2312C1.11844 8.94278 1.11844 7.64985 1.11844 6.36141C1.11844 6.28958 1.11844 6.21775 1.11844 6.14592C0.751729 6.14592 0.38502 6.14592 0.0183105 6.14592C0.0329789 8.13918 1.79318 9.33784 3.095 10.0112C4.17313 10.5724 5.29892 10.9764 6.44306 11.2862C6.58607 11.3266 6.73276 11.367 6.87577 11.3984C6.93811 11.4119 7.03346 11.4074 7.08846 11.4388C7.08846 11.4388 6.94178 11.4029 7.02979 11.4344C7.10313 11.4613 7.18381 11.4703 7.26082 11.4882C7.54685 11.5556 7.83655 11.6139 8.12258 11.6723C8.73499 11.7935 9.35106 11.8923 9.96713 11.9731C12.5854 12.3188 15.2404 12.3502 17.866 12.0808C19.0835 11.9551 20.2937 11.7666 21.4928 11.4882C21.5588 11.4748 21.6285 11.4613 21.6945 11.4388C21.7348 11.4254 21.7862 11.4478 21.7092 11.4299C21.5771 11.4029 21.7862 11.4164 21.8448 11.4029C22.0135 11.367 22.1785 11.3176 22.3472 11.2727C22.6479 11.1919 22.945 11.1021 23.242 11.0079C23.7921 10.8328 24.3421 10.6263 24.8775 10.3883C25.7503 10.0023 26.6267 9.53537 27.3711 8.8485C27.9469 8.31876 28.5006 7.64087 28.6766 6.75198C28.717 6.55445 28.739 6.34345 28.739 6.13694C28.7426 5.78677 28.4823 5.44558 28.1889 5.46354C27.8882 5.50394 27.6388 5.78228 27.6388 6.15939C27.6388 6.19979 27.6352 6.24019 27.6352 6.27611C27.6352 6.30753 27.6205 6.42875 27.6352 6.30305C27.6498 6.17734 27.6315 6.31651 27.6278 6.34794C27.6205 6.38834 27.6132 6.42426 27.6058 6.46466C27.6022 6.47813 27.5545 6.68015 27.5472 6.68015C27.5362 6.67566 27.6058 6.52751 27.5692 6.6173C27.5618 6.63526 27.5582 6.64872 27.5508 6.66668C27.5362 6.7026 27.5215 6.743 27.5032 6.77892C27.4702 6.85523 27.4298 6.93155 27.3895 7.00338C27.3822 7.01685 27.3455 7.09766 27.3345 7.09766C27.3308 7.09766 27.4115 6.98542 27.3711 7.0393C27.3528 7.06623 27.3381 7.09317 27.3198 7.11562C27.2171 7.26376 27.1071 7.39844 26.9861 7.52863C26.9238 7.59597 26.8614 7.65883 26.7991 7.72168C26.7257 7.79799 26.8834 7.64985 26.7697 7.74861C26.7331 7.78453 26.6927 7.81595 26.6561 7.85187C26.4984 7.98655 26.3334 8.11225 26.1647 8.23346C25.974 8.36814 25.776 8.49384 25.5779 8.61056C25.4789 8.66893 25.3799 8.7228 25.2809 8.77667C25.2332 8.80361 25.1856 8.82605 25.1379 8.85299C25.2259 8.8081 25.0499 8.89788 25.0242 8.90686C23.9828 9.41416 22.9046 9.7733 21.8192 10.0561C21.7532 10.0741 21.6835 10.0831 21.6175 10.1055C21.5331 10.1369 21.6432 10.1055 21.6615 10.1055C21.5918 10.1055 21.5258 10.128 21.4598 10.1414C21.3241 10.1729 21.1884 10.2043 21.0527 10.2357C20.7851 10.2941 20.5137 10.3524 20.246 10.4018C19.6739 10.5096 19.1899 10.5859 18.5921 10.6622C16.0912 10.9764 13.5609 11.0034 11.0563 10.761C9.88645 10.6487 8.84133 10.4916 7.6972 10.2357C7.57252 10.2088 7.44417 10.1773 7.31949 10.1459C7.26815 10.1325 7.21314 10.1235 7.16181 10.1145C6.97478 10.0831 7.1508 10.119 7.16547 10.11C7.13247 10.1325 6.97112 10.0606 6.93078 10.0516C6.62641 9.97083 6.32571 9.88554 6.02501 9.79575C5.48961 9.62964 4.96155 9.44558 4.44082 9.2256C4.20246 9.12684 3.96777 9.01909 3.73674 8.90686C3.70374 8.8889 3.67073 8.87544 3.63773 8.85748C3.63406 8.85748 3.55339 8.81707 3.60473 8.83952C3.65607 8.86646 3.57906 8.82605 3.57539 8.82156C3.55339 8.8081 3.52772 8.79463 3.50571 8.78565C3.39204 8.7228 3.27469 8.65995 3.16101 8.59261C2.7943 8.37712 2.43859 8.1347 2.10489 7.84738C2.07188 7.82044 2.03888 7.78902 2.00587 7.76208C1.98387 7.74412 1.96187 7.72168 1.94353 7.70372C1.94353 7.70372 2.02421 7.78453 1.97654 7.73514C1.90686 7.6678 1.84086 7.60046 1.77118 7.52863C1.65383 7.39844 1.54015 7.26376 1.44114 7.11562C1.43014 7.09766 1.3458 6.96747 1.4008 7.05725C1.45581 7.15153 1.3788 7.01685 1.3678 6.99889C1.32746 6.92706 1.29079 6.85074 1.25412 6.77443C1.23945 6.743 1.22478 6.71157 1.21378 6.67566C1.19911 6.63526 1.18445 6.52302 1.19178 6.62628C1.20278 6.72504 1.19178 6.63077 1.18445 6.59036C1.17344 6.54547 1.16244 6.50507 1.15144 6.46017C1.14044 6.41079 1.14044 6.27611 1.11477 6.24468C1.14044 6.2806 1.12577 6.41528 1.12211 6.28958C1.12211 6.24468 1.11844 6.19979 1.11844 6.1549C1.11477 5.80473 0.869076 5.46354 0.568374 5.4815C0.27134 5.49945 0.0183105 5.77779 0.0183105 6.1549C0.0183105 7.14704 0.0183105 8.1347 0.0183105 9.12684C0.0183105 10.761 0.0183105 12.3951 0.0183105 14.0292C0.0183105 14.4602 0.0183105 14.8911 0.0183105 15.3221C0.0183105 15.9506 0.186997 16.5432 0.495032 17.046C1.00843 17.881 1.74184 18.4692 2.49726 18.9316C3.51305 19.5511 4.60218 19.9865 5.7023 20.3277C8.20326 21.0999 10.8032 21.4276 13.3739 21.4995C16.0105 21.5758 18.6655 21.3738 21.2618 20.7991C22.4572 20.5342 23.649 20.1886 24.7969 19.6858C25.7026 19.2907 26.6157 18.8103 27.3858 18.0965C27.9652 17.5578 28.5336 16.8575 28.6876 15.9506C28.75 15.5825 28.739 15.2099 28.739 14.8373C28.739 13.3513 28.739 11.8653 28.739 10.3794C28.739 9.04603 28.739 7.71719 28.739 6.38385C28.739 6.31202 28.739 6.23571 28.739 6.16388C28.739 5.81371 28.4859 5.47252 28.1889 5.49048C27.8882 5.50394 27.6388 5.78228 27.6388 6.15939Z" fill="#82E9F7"/>
</g>
</g>
</svg>
