<svg width="30" height="40" viewBox="0 0 30 40" fill="none" xmlns="http://www.w3.org/2000/svg">
<g id="noun_Book_3752322">
<path id="Shape" fill-rule="evenodd" clip-rule="evenodd" d="M16.3746 0H25.6086C25.9426 0 26.2134 0.260613 26.2134 0.582679V1.96313H29.0726C29.4066 1.96313 29.6774 2.22374 29.6774 2.54581V31.6433V39.4173C29.6774 39.7394 29.4066 40 29.0726 40H4.51242C2.02439 40 0 38.05 0 35.6527V6.31046C0 3.91317 2.02439 1.96313 4.51242 1.96313H15.7698V0.582679C15.7698 0.260613 16.0406 0 16.3746 0ZM25.0038 1.16536H16.9795V11.1244L20.5702 7.76374C20.6874 7.65392 20.8395 7.59873 20.9916 7.59873C21.1437 7.59873 21.2958 7.65392 21.413 7.76374L25.0038 11.1244V1.16536ZM28.4678 33.8033H5.08651C4.75251 33.8033 4.48171 34.064 4.48171 34.386C4.48171 34.7081 4.75251 34.9687 5.08651 34.9687H28.4678V36.319H5.08651C4.75251 36.319 4.48171 36.5796 4.48171 36.9017C4.48171 37.2237 4.75251 37.4843 5.08651 37.4843H28.4678V38.8346H4.51242C2.69121 38.8346 1.20961 37.407 1.20961 35.6527V35.408C1.20961 33.6537 2.69121 32.226 4.51242 32.226H28.4678V33.8033ZM28.4678 31.0607V3.12849H26.2134V12.5026C26.2134 12.7364 26.0678 12.9481 25.8439 13.0391C25.768 13.0704 25.688 13.0852 25.6086 13.0852C25.4541 13.0852 25.3023 13.0283 25.1872 12.9202L20.9916 8.99397L16.7961 12.9202C16.6215 13.0841 16.3625 13.1313 16.1393 13.0391C15.9154 12.9481 15.7698 12.7364 15.7698 12.5026V3.12848H4.51242C2.69121 3.12848 1.20961 4.55616 1.20961 6.31046V32.4557C2.03424 31.6001 3.20779 31.0607 4.51242 31.0607H28.4678Z" fill="#89F2FF"/>
</g>
</svg>
