<svg width="30" height="40" viewBox="0 0 30 40" fill="none" xmlns="http://www.w3.org/2000/svg">
<g id="noun_Document_3106623">
<path id="Shape" fill-rule="evenodd" clip-rule="evenodd" d="M2.57677 5.16387L2.58065 5.16129C2.58581 3.73419 3.73806 2.58065 5.15742 2.58065C5.16645 1.15355 6.32129 0 7.74452 0H21.9342L29.6761 9.03226V32.2697C29.6761 33.68 28.5226 34.8387 27.0994 34.8387C27.0903 36.2658 25.9394 37.4194 24.5187 37.4194C24.5097 38.8465 23.3587 40 21.9381 40H2.57677C1.14839 40 0 38.84 0 37.4103V7.75226C0 6.32129 1.15355 5.16258 2.57677 5.16258V5.16387ZM2.58065 6.45161C1.86839 6.45161 1.29032 7.03871 1.29032 7.73548V37.4245C1.29032 38.1342 1.87742 38.7084 2.58065 38.7084H21.9355C22.6477 38.7084 23.2258 38.1213 23.2258 37.4245L5.15742 37.4181C3.72903 37.4181 2.58065 36.2581 2.58065 34.8284V6.45161ZM3.87097 5.15484C3.87097 4.45806 4.44903 3.87097 5.16129 3.87097V32.2477C5.16129 33.6774 6.30968 34.8374 7.73806 34.8374H25.8065V34.8439C25.8065 35.5406 25.2284 36.1277 24.5161 36.1277H5.16129C4.45806 36.1277 3.87097 35.5535 3.87097 34.8439V5.15484ZM20.6452 1.29032H7.73677C7.0271 1.29032 6.45161 1.87742 6.45161 2.57419V32.2632C6.45161 32.9729 7.03871 33.5471 7.74194 33.5471H27.0968C27.809 33.5471 28.3871 32.9729 28.3871 32.2658V10.3213H23.2232C21.8 10.3213 20.6452 9.17677 20.6452 7.7329V1.29032ZM21.9355 7.73032V1.93548L28 9.03226H23.2219C22.5174 9.03226 21.9355 8.44903 21.9355 7.73032Z" fill="#89F2FF"/>
</g>
</svg>
