<?xml version="1.0" encoding="UTF-8"?>
<svg width="12px" height="12px" viewBox="0 0 12 12" version="1.1" xmlns="http://www.w3.org/2000/svg" xmlns:xlink="http://www.w3.org/1999/xlink">
    <!-- Generator: Sketch 51.3 (57544) - http://www.bohemiancoding.com/sketch -->
    <title>plus (5)</title>
    <desc>Created with Sketch.</desc>
    <defs></defs>
    <g id="Page-1" stroke="none" stroke-width="1" fill="none" fill-rule="evenodd">
        <g id="eReports-Patients-open-menu" transform="translate(-1340.000000, -119.000000)" fill="#FFFFFF" fill-rule="nonzero">
            <g id="plus-(5)" transform="translate(1340.000000, 119.000000)">
                <path d="M11.18359,2.98504784 C10.6476082,2.06681549 9.92058314,1.33979043 9.00232346,0.803835991 C8.08389977,0.267908884 7.08131207,0 5.99379499,0 C4.90638724,0 3.90349886,0.267908884 2.98523918,0.803835991 C2.06692483,1.33970843 1.33989977,2.06673349 0.803917995,2.98504784 C0.267908884,3.90341686 0,4.90630524 0,5.99363098 C0,7.08101139 0.267990888,8.08373576 0.803835991,9.00215945 C1.33979043,9.9203918 2.06681549,10.6474169 2.98512984,11.183426 C3.90349886,11.7193257 4.90630524,11.987262 5.99368565,11.987262 C7.08106606,11.987262 8.08398178,11.7193257 9.00229613,11.183426 C9.92055581,10.6476082 10.6475535,9.9203918 11.1834806,9.00215945 C11.7193257,8.08381777 11.9872073,7.08095672 11.9872073,5.99363098 C11.9872346,4.9061959 11.7193257,3.90328018 11.18359,2.98504784 Z M9.49008656,6.49309339 C9.49008656,6.62834624 9.44058314,6.74555809 9.34171298,6.84426424 C9.24276082,6.94305239 9.12574032,6.99263781 8.99054214,6.99263781 L6.99261048,6.99263781 L6.99261048,8.99037813 C6.99261048,9.12563098 6.94305239,9.24273349 6.8442369,9.34174032 C6.74547608,9.44050114 6.62837358,9.48992255 6.49306606,9.48992255 L5.49416856,9.48992255 C5.35891572,9.48992255 5.24184055,9.44050114 5.14299772,9.34174032 C5.04412756,9.24276082 4.99467882,9.12565831 4.99467882,8.99037813 L4.99467882,6.99263781 L2.99680182,6.99263781 C2.86154897,6.99263781 2.74452847,6.94307973 2.64563098,6.84426424 C2.54678815,6.74558542 2.49736674,6.62837358 2.49736674,6.49309339 L2.49736674,5.49408656 C2.49736674,5.35883371 2.54681549,5.24175854 2.64563098,5.14291572 C2.74450114,5.04404556 2.86152164,4.99459681 2.99680182,4.99459681 L4.99476082,4.99459681 L4.99476082,2.99671982 C4.99476082,2.86143964 5.04420957,2.74444647 5.14307973,2.64554897 C5.24192255,2.54670615 5.35897039,2.49728474 5.49425057,2.49728474 L6.4932574,2.49728474 C6.62851025,2.49728474 6.74564009,2.54673349 6.84442825,2.64554897 C6.9432164,2.74441913 6.99280182,2.86143964 6.99280182,2.99671982 L6.99280182,4.99459681 L8.99054214,4.99459681 C9.12579499,4.99459681 9.24289749,5.04404556 9.34171298,5.14291572 C9.44058314,5.24173121 9.49008656,5.35880638 9.49008656,5.49408656 L9.49008656,6.49309339 Z" id="Shape"></path>
            </g>
        </g>
    </g>
</svg>