<?xml version="1.0" encoding="UTF-8"?>
<svg width="23px" height="23px" viewBox="0 0 23 23" version="1.1" xmlns="http://www.w3.org/2000/svg" xmlns:xlink="http://www.w3.org/1999/xlink">
    <!-- Generator: Sketch 51.3 (57544) - http://www.bohemiancoding.com/sketch -->
    <title>Combined Shape</title>
    <desc>Created with Sketch.</desc>
    <defs></defs>
    <g id="Page-1" stroke="none" stroke-width="1" fill="none" fill-rule="evenodd">
        <g id="eReports-relation-add-relation" transform="translate(-606.000000, -207.000000)" fill="#1C94A3" fill-rule="nonzero">
            <g id="Group-2" transform="translate(555.000000, 157.000000)">
                <path d="M73.5507812,54.8515625 C73.7989044,54.8515625 74,55.0526581 74,55.3007812 L74,72.5507812 C74,72.7989044 73.7989044,73 73.5507812,73 L66.7226562,73 C66.4745331,73 66.2734375,72.7989044 66.2734375,72.5507812 C66.2734375,72.3026581 66.4745331,72.1015625 66.7226562,72.1015625 L73.1015625,72.1015625 L73.1015625,55.75 L68.4296875,55.75 C68.1815643,55.75 67.9804688,55.5489044 67.9804688,55.3007812 C67.9804688,55.1167069 68.0913696,54.9586029 68.25,54.8892899 L68.25,50.8984375 L51.8984375,50.8984375 L51.8984375,67.25 L56.5703125,67.25 C56.8184357,67.25 57.0195312,67.4510956 57.0195312,67.6992188 C57.0195312,67.8832931 56.9086304,68.0413971 56.75,68.1107101 L56.75,72.1015625 L63.1064453,72.1015625 C63.3545685,72.1015625 63.5556641,72.3026581 63.5556641,72.5507812 C63.5556641,72.7989044 63.3545685,73 63.1064453,73 L56.3007812,73 C56.0526581,73 55.8515625,72.7989044 55.8515625,72.5507812 L55.8515625,68.1484375 L51.4492188,68.1484375 C51.2010956,68.1484375 51,67.9473419 51,67.6992188 L51,50.4492188 C51,50.2010956 51.2010956,50 51.4492188,50 L68.6992188,50 C68.9473419,50 69.1484375,50.2010956 69.1484375,50.4492188 L69.1484375,54.8515625 L73.5507812,54.8515625 Z M68,65.6153846 L68,65.3846154 C68,65.1721755 68.2238281,65 68.5,65 C68.7761719,65 69,65.1721755 69,65.3846154 L69,65.6153846 C69,65.8278245 68.7761719,66 68.5,66 C68.2238281,66 68,65.8278245 68,65.6153846 Z M68,61.6153846 L68,61.3846154 C68,61.1721755 68.2238281,61 68.5,61 C68.7761719,61 69,61.1721755 69,61.3846154 L69,61.6153846 C69,61.8278245 68.7761719,62 68.5,62 C68.2238281,62 68,61.8278245 68,61.6153846 Z M68.5,58 C68.2238281,58 68,57.8278245 68,57.6153846 L68,57.3846154 C68,57.1721755 68.2238281,57 68.5,57 C68.7761719,57 69,57.1721755 69,57.3846154 L69,57.6153846 C69,57.8278245 68.7761719,58 68.5,58 Z M68,63.6153846 L68,63.3846154 C68,63.1721755 68.2238281,63 68.5,63 C68.7761719,63 69,63.1721755 69,63.3846154 L69,63.6153846 C69,63.8278245 68.7761719,64 68.5,64 C68.2238281,64 68,63.8278245 68,63.6153846 Z M64.6153846,56 L64.3846154,56 C64.1721755,56 64,55.7761719 64,55.5 C64,55.2238281 64.1721755,55 64.3846154,55 L64.6153846,55 C64.8278245,55 65,55.2238281 65,55.5 C65,55.7761719 64.8278245,56 64.6153846,56 Z M64.6153846,68 L64.3846154,68 C64.1721755,68 64,67.7761719 64,67.5 C64,67.2238281 64.1721755,67 64.3846154,67 L64.6153846,67 C64.8278245,67 65,67.2238281 65,67.5 C65,67.7761719 64.8278245,68 64.6153846,68 Z M68,67.6153846 L68,67.3846154 C68,67.1721755 68.2238281,67 68.5,67 C68.7761719,67 69,67.1721755 69,67.3846154 L69,67.6153846 C69,67.8278245 68.7761719,68 68.5,68 C68.2238281,68 68,67.8278245 68,67.6153846 Z M66.6153846,56 L66.3846154,56 C66.1721755,56 66,55.7761719 66,55.5 C66,55.2238281 66.1721755,55 66.3846154,55 L66.6153846,55 C66.8278245,55 67,55.2238281 67,55.5 C67,55.7761719 66.8278245,56 66.6153846,56 Z M66.3846154,68 C66.1721755,68 66,67.7761719 66,67.5 C66,67.2238281 66.1721755,67 66.3846154,67 L66.6153846,67 C66.8278245,67 67,67.2238281 67,67.5 C67,67.7761719 66.8278245,68 66.6153846,68 L66.3846154,68 Z M68,59.6153846 L68,59.3846154 C68,59.1721755 68.2238281,59 68.5,59 C68.7761719,59 69,59.1721755 69,59.3846154 L69,59.6153846 C69,59.8278245 68.7761719,60 68.5,60 C68.2238281,60 68,59.8278245 68,59.6153846 Z M60.6153846,56 L60.3846154,56 C60.1721755,56 60,55.7761719 60,55.5 C60,55.2238281 60.1721755,55 60.3846154,55 L60.6153846,55 C60.8278245,55 61,55.2238281 61,55.5 C61,55.7761719 60.8278245,56 60.6153846,56 Z M57,59.3846154 L57,59.6153846 C57,59.8278245 56.7761719,60 56.5,60 C56.2238281,60 56,59.8278245 56,59.6153846 L56,59.3846154 C56,59.1721755 56.2238281,59 56.5,59 C56.7761719,59 57,59.1721755 57,59.3846154 Z M57,61.3846154 L57,61.6153846 C57,61.8278245 56.7761719,62 56.5,62 C56.2238281,62 56,61.8278245 56,61.6153846 L56,61.3846154 C56,61.1721755 56.2238281,61 56.5,61 C56.7761719,61 57,61.1721755 57,61.3846154 Z M57,55.3846154 L57,55.6153846 C57,55.8278245 56.7761719,56 56.5,56 C56.2238281,56 56,55.8278245 56,55.6153846 L56,55.3846154 C56,55.1721755 56.2238281,55 56.5,55 C56.7761719,55 57,55.1721755 57,55.3846154 Z M57,57.3846154 L57,57.6153846 C57,57.8278245 56.7761719,58 56.5,58 C56.2238281,58 56,57.8278245 56,57.6153846 L56,57.3846154 C56,57.1721755 56.2238281,57 56.5,57 C56.7761719,57 57,57.1721755 57,57.3846154 Z M56.5,65 C56.7761719,65 57,65.1721755 57,65.3846154 L57,65.6153846 C57,65.8278245 56.7761719,66 56.5,66 C56.2238281,66 56,65.8278245 56,65.6153846 L56,65.3846154 C56,65.1721755 56.2238281,65 56.5,65 Z M57,63.3846154 L57,63.6153846 C57,63.8278245 56.7761719,64 56.5,64 C56.2238281,64 56,63.8278245 56,63.6153846 L56,63.3846154 C56,63.1721755 56.2238281,63 56.5,63 C56.7761719,63 57,63.1721755 57,63.3846154 Z M60.3846154,68 C60.1721755,68 60,67.7761719 60,67.5 C60,67.2238281 60.1721755,67 60.3846154,67 L60.6153846,67 C60.8278245,67 61,67.2238281 61,67.5 C61,67.7761719 60.8278245,68 60.6153846,68 L60.3846154,68 Z M62.3846154,68 C62.1721755,68 62,67.7761719 62,67.5 C62,67.2238281 62.1721755,67 62.3846154,67 L62.6153846,67 C62.8278245,67 63,67.2238281 63,67.5 C63,67.7761719 62.8278245,68 62.6153846,68 L62.3846154,68 Z M62.6153846,56 L62.3846154,56 C62.1721755,56 62,55.7761719 62,55.5 C62,55.2238281 62.1721755,55 62.3846154,55 L62.6153846,55 C62.8278245,55 63,55.2238281 63,55.5 C63,55.7761719 62.8278245,56 62.6153846,56 Z M58.6153846,56 L58.3846154,56 C58.1721755,56 58,55.7761719 58,55.5 C58,55.2238281 58.1721755,55 58.3846154,55 L58.6153846,55 C58.8278245,55 59,55.2238281 59,55.5 C59,55.7761719 58.8278245,56 58.6153846,56 Z M58.3846154,68 C58.1721755,68 58,67.7761719 58,67.5 C58,67.2238281 58.1721755,67 58.3846154,67 L58.6153846,67 C58.8278245,67 59,67.2238281 59,67.5 C59,67.7761719 58.8278245,68 58.6153846,68 L58.3846154,68 Z M64.5,72 C64.6314453,72 64.7605469,72.0535156 64.8535156,72.1464844 C64.9464844,72.2394531 65,72.3685547 65,72.5 C65,72.6314453 64.9464844,72.7605469 64.8535156,72.8535156 C64.7605469,72.9464844 64.6314453,73 64.5,73 C64.3685547,73 64.2394531,72.9464844 64.1464844,72.8535156 C64.0535156,72.7605469 64,72.6314453 64,72.5 C64,72.3685547 64.0535156,72.2394531 64.1464844,72.1464844 C64.2394531,72.0535156 64.3685547,72 64.5,72 Z M64.5535714,61.0535714 C64.8001099,61.0535714 65,61.2534616 65,61.5 C65,61.7465384 64.8001099,61.9464286 64.5535714,61.9464286 L63.0357143,61.9464286 C62.9864066,61.9464286 62.9464286,61.9864066 62.9464286,62.0357143 L62.9464286,63.5535714 C62.9464286,63.8001099 62.7465384,64 62.5,64 C62.2534616,64 62.0535714,63.8001099 62.0535714,63.5535714 L62.0535714,62.0357143 C62.0535714,61.9864066 62.0135934,61.9464286 61.9642857,61.9464286 L60.4464286,61.9464286 C60.1998901,61.9464286 60,61.7465384 60,61.5 C60,61.2534616 60.1998901,61.0535714 60.4464286,61.0535714 L61.9642857,61.0535714 C62.0135934,61.0535714 62.0535714,61.0135934 62.0535714,60.9642857 L62.0535714,59.4464286 C62.0535714,59.1998901 62.2534616,59 62.5,59 C62.7465384,59 62.9464286,59.1998901 62.9464286,59.4464286 L62.9464286,60.9642857 C62.9464286,61.0135934 62.9864066,61.0535714 63.0357143,61.0535714 L64.5535714,61.0535714 Z" id="Combined-Shape"></path>
            </g>
        </g>
    </g>
</svg>