<?xml version="1.0" encoding="UTF-8"?>
<svg width="9px" height="9px" viewBox="0 0 9 9" version="1.1" xmlns="http://www.w3.org/2000/svg" xmlns:xlink="http://www.w3.org/1999/xlink">
    <!-- Generator: Sketch 51.3 (57544) - http://www.bohemiancoding.com/sketch -->
    <title>plus (5)</title>
    <desc>Created with Sketch.</desc>
    <defs></defs>
    <g id="Page-2" stroke="none" stroke-width="1" fill="none" fill-rule="evenodd">
        <g id="eReports-dynamic-form-final-a" transform="translate(-131.000000, -442.000000)" fill="#FF5955" fill-rule="nonzero">
            <g id="Group-5" transform="translate(76.000000, 238.000000)">
                <g id="plus-(5)" transform="translate(55.000000, 204.000000)">
                    <path d="M8.3966438,2.24116488 C7.99422847,1.55175881 7.44837777,1.0059106 6.75894804,0.603517629 C6.06939516,0.201145179 5.31665192,0 4.50014366,0 C3.68371749,0 2.9307485,0.201145179 2.24131876,0.603517629 C1.55184798,1.00584903 1.00599728,1.55169725 0.603581951,2.24116488 C0.201146097,2.93067356 0,3.68363912 0,4.5 C0,5.31640192 0.201207666,6.06924435 0.603520382,6.75879407 C1.00591519,7.44820014 1.55176589,7.99404835 2.24123667,8.39648237 C2.9307485,8.7988343 3.68365592,9 4.50006157,9 C5.31646721,9 6.06945673,8.7988343 6.75892751,8.39648237 C7.44835725,7.99419201 7.99418743,7.44820014 8.39656171,6.75879407 C8.79887443,6.06930591 9,5.31636088 9,4.5 C9.00002052,3.68355703 8.79887443,2.93057095 8.3966438,2.24116488 Z M7.12516076,4.87499487 C7.12516076,4.9765423 7.08799358,5.0645446 7.01376182,5.13865288 C6.9394685,5.21282272 6.85160946,5.25005131 6.75010262,5.25005131 L5.25005473,5.25005131 L5.25005473,6.74994869 C5.25005473,6.85149612 5.2128465,6.93941633 5.13865579,7.01375036 C5.06450612,7.08789968 4.97658552,7.12500513 4.87499658,7.12500513 L4.12502394,7.12500513 C4.02347605,7.12500513 3.93557597,7.08789968 3.86136474,7.01375036 C3.78713298,6.93943685 3.75000684,6.85151664 3.75000684,6.74994869 L3.75000684,5.25005131 L2.25,5.25005131 C2.14845211,5.25005131 2.06059307,5.21284325 1.98634079,5.13865288 C1.91212956,5.06456512 1.87502394,4.97656282 1.87502394,4.87499487 L1.87502394,4.12494356 C1.87502394,4.02339613 1.91215008,3.93549645 1.98634079,3.86128556 C2.06057255,3.78705414 2.14843159,3.74992817 2.25,3.74992817 L3.75006841,3.74992817 L3.75006841,2.24992817 C3.75006841,2.14836022 3.78719455,2.0605221 3.8614263,1.98627016 C3.93563754,1.91205927 4.0235171,1.87495382 4.12508551,1.87495382 L4.87514024,1.87495382 C4.97668813,1.87495382 5.06462926,1.91207979 5.13879945,1.98627016 C5.21296964,2.06050158 5.25019839,2.14836022 5.25019839,2.24992817 L5.25019839,3.74992817 L6.75010262,3.74992817 C6.85165051,3.74992817 6.93957111,3.78705414 7.01376182,3.86128556 C7.08799358,3.93547593 7.12516076,4.02337561 7.12516076,4.12494356 L7.12516076,4.87499487 Z" id="Shape"></path>
                </g>
            </g>
        </g>
    </g>
</svg>