<?xml version="1.0" encoding="UTF-8"?>
<svg width="15px" height="15px" viewBox="0 0 15 15" version="1.1" xmlns="http://www.w3.org/2000/svg" xmlns:xlink="http://www.w3.org/1999/xlink">
    <!-- Generator: Sketch 51.3 (57544) - http://www.bohemiancoding.com/sketch -->
    <title>Group 24</title>
    <desc>Created with Sketch.</desc>
    <defs></defs>
    <g id="Page-1" stroke="none" stroke-width="1" fill="none" fill-rule="evenodd">
        <g id="eReports-Create-Comments" transform="translate(-1435.000000, -480.000000)">
            <g id="d-f" transform="translate(787.000000, 446.000000)">
                <g id="Group-30" transform="translate(633.000000, 0.000000)">
                    <g id="Group-24" transform="translate(15.000000, 34.000000)">
                        <circle id="Oval-3" fill="#FFFFFF" cx="7.5" cy="7.5" r="7.5"></circle>
                        <path d="M7.59459459,5 L5.40540541,5 C5.18243243,5 5,5.225 5,5.5 C5,5.775 5.18243243,6 5.40540541,6 L7.59459459,6 C7.81756757,6 8,5.775 8,5.5 C8,5.225 7.81756757,5 7.59459459,5 Z" id="Shape" fill="#1C94A3" fill-rule="nonzero"></path>
                        <path d="M10.5833333,7 L5.41666667,7 C5.1875,7 5,7.225 5,7.5 C5,7.775 5.1875,8 5.41666667,8 L10.5833333,8 C10.8125,8 11,7.775 11,7.5 C11,7.225 10.8125,7 10.5833333,7 Z" id="Shape" fill="#1C94A3" fill-rule="nonzero"></path>
                        <path d="M10.5833333,9 L5.41666667,9 C5.1875,9 5,9.225 5,9.5 C5,9.775 5.1875,10 5.41666667,10 L10.5833333,10 C10.8125,10 11,9.775 11,9.5 C11,9.225 10.8125,9 10.5833333,9 Z" id="Shape" fill="#1C94A3" fill-rule="nonzero"></path>
                    </g>
                </g>
            </g>
        </g>
    </g>
</svg>