<?xml version="1.0" encoding="UTF-8"?>
<svg width="27px" height="29px" viewBox="0 0 27 29" version="1.1" xmlns="http://www.w3.org/2000/svg" xmlns:xlink="http://www.w3.org/1999/xlink">
    <!-- Generator: Sketch 51.3 (57544) - http://www.bohemiancoding.com/sketch -->
    <title>add (8)</title>
    <desc>Created with Sketch.</desc>
    <defs></defs>
    <g id="Page-2" stroke="none" stroke-width="1" fill="none" fill-rule="evenodd">
        <g id="eReports-Patient-Add-Documents" transform="translate(-338.000000, -115.000000)" fill="#000000" fill-rule="nonzero">
            <g id="add-(8)" transform="translate(338.000000, 115.000000)">
                <path d="M2.41064545,29 L20.2494218,29 C23.4059572,29.0003024 26.1411102,26.807278 26.8344857,23.720147 C27.5278611,20.633016 25.9942426,17.4764219 23.1421963,16.1204354 L23.1421963,6.28333333 C23.142201,6.15514358 23.0914084,6.03220243 23.0009928,5.94155625 L17.2154437,0.14155625 C17.1250233,0.0509147385 17.0023885,-4.67090563e-06 16.8745181,0 L2.41064545,0 C1.07990229,0.00149829846 0.00149456539,1.08259963 0,2.41666667 L0,26.5833333 C0.00149456539,27.9174004 1.07990229,28.9985017 2.41064545,29 Z M26.0349709,22.2333333 C26.0349709,25.4365849 23.4446923,28.0333333 20.2494218,28.0333333 C17.0541513,28.0333333 14.4638727,25.4365849 14.4638727,22.2333333 C14.4638727,19.0300818 17.0541513,16.4333333 20.2494218,16.4333333 C23.4432054,16.4369292 26.0313839,19.0315724 26.0349709,22.2333333 Z M17.3566472,1.65016042 L21.4961473,5.8 L18.8030345,5.8 C18.0045886,5.79910102 17.357544,5.15044022 17.3566472,4.35 L17.3566472,1.65016042 Z M0.96425818,2.41666667 C0.965188058,1.61624023 1.6122133,0.967598867 2.41064545,0.966666667 L16.3923891,0.966666667 L16.3923891,4.35 C16.3938836,5.68406704 17.4722913,6.76516837 18.8030345,6.76666667 L22.1779381,6.76666667 L22.1779381,15.7485708 C18.9185746,14.7736149 15.4448458,16.38263 14.072883,19.5027949 C12.7009201,22.6229597 13.8595394,26.2790455 16.7762241,28.0333333 L2.41064545,28.0333333 C1.6122133,28.0324011 0.965188058,27.3837598 0.96425818,26.5833333 L0.96425818,2.41666667 Z" id="Shape"></path>
                <path d="M8,9.5 C8,9.77614237 8.20663781,10 8.46153846,10 L19.5384615,10 C19.7933622,10 20,9.77614237 20,9.5 C20,9.22385763 19.7933622,9 19.5384615,9 L8.46153846,9 C8.20663781,9 8,9.22385763 8,9.5 Z" id="Shape"></path>
                <path d="M3.5,13 L13.5,13 C13.7761424,13 14,12.7761424 14,12.5 C14,12.2238576 13.7761424,12 13.5,12 L3.5,12 C3.22385763,12 3,12.2238576 3,12.5 C3,12.7761424 3.22385763,13 3.5,13 Z" id="Shape"></path>
                <path d="M3.5,18 L12.5,18 C12.7761424,18 13,17.7761424 13,17.5 C13,17.2238576 12.7761424,17 12.5,17 L3.5,17 C3.22385763,17 3,17.2238576 3,17.5 C3,17.7761424 3.22385763,18 3.5,18 Z" id="Shape"></path>
                <path d="M3.5,10 L6.5,10 C6.77614237,10 7,9.77614237 7,9.5 C7,9.22385763 6.77614237,9 6.5,9 L3.5,9 C3.22385763,9 3,9.22385763 3,9.5 C3,9.77614237 3.22385763,10 3.5,10 Z" id="Shape"></path>
                <path d="M20.5,12 L15.5,12 C15.2238576,12 15,12.2238576 15,12.5 C15,12.7761424 15.2238576,13 15.5,13 L20.5,13 C20.7761424,13 21,12.7761424 21,12.5 C21,12.2238576 20.7761424,12 20.5,12 Z" id="Shape"></path>
                <path d="M11.5,23 L9.5,23 C9.22385763,23 9,23.2238576 9,23.5 C9,23.7761424 9.22385763,24 9.5,24 L11.5,24 C11.7761424,24 12,23.7761424 12,23.5 C12,23.2238576 11.7761424,23 11.5,23 Z" id="Shape"></path>
                <path d="M3.5,24 L7.5,24 C7.77614237,24 8,23.7761424 8,23.5 C8,23.2238576 7.77614237,23 7.5,23 L3.5,23 C3.22385763,23 3,23.2238576 3,23.5 C3,23.7761424 3.22385763,24 3.5,24 Z" id="Shape"></path>
                <path d="M3.5,21 L6.5,21 C6.77614237,21 7,20.7761424 7,20.5 C7,20.2238576 6.77614237,20 6.5,20 L3.5,20 C3.22385763,20 3,20.2238576 3,20.5 C3,20.7761424 3.22385763,21 3.5,21 Z" id="Shape"></path>
                <path d="M3.5,7 L9.5,7 C9.77614237,7 10,6.77614237 10,6.5 C10,6.22385763 9.77614237,6 9.5,6 L3.5,6 C3.22385763,6 3,6.22385763 3,6.5 C3,6.77614237 3.22385763,7 3.5,7 Z" id="Shape"></path>
                <path d="M11.5,20 L8.5,20 C8.22385763,20 8,20.2238576 8,20.5 C8,20.7761424 8.22385763,21 8.5,21 L11.5,21 C11.7761424,21 12,20.7761424 12,20.5 C12,20.2238576 11.7761424,20 11.5,20 Z" id="Shape"></path>
                <path d="M20.0625,19.4375 L20.0625,22.0625 L17.4375,22.0625 C17.1958754,22.0625 17,22.2583754 17,22.5 C17,22.7416246 17.1958754,22.9375 17.4375,22.9375 L20.0625,22.9375 L20.0625,25.5625 C20.0625,25.8041246 20.2583754,26 20.5,26 C20.7416246,26 20.9375,25.8041246 20.9375,25.5625 L20.9375,22.9375 L23.5625,22.9375 C23.8041246,22.9375 24,22.7416246 24,22.5 C24,22.2583754 23.8041246,22.0625 23.5625,22.0625 L20.9375,22.0625 L20.9375,19.4375 C20.9375,19.1958754 20.7416246,19 20.5,19 C20.2583754,19 20.0625,19.1958754 20.0625,19.4375 Z" id="Shape"></path>
            </g>
        </g>
    </g>
</svg>