<?xml version="1.0" encoding="UTF-8"?>
<svg width="12px" height="7px" viewBox="0 0 12 7" version="1.1" xmlns="http://www.w3.org/2000/svg" xmlns:xlink="http://www.w3.org/1999/xlink">
    <!-- Generator: Sketch 51.3 (57544) - http://www.bohemiancoding.com/sketch -->
    <title>Group 13</title>
    <desc>Created with Sketch.</desc>
    <defs></defs>
    <g id="Page-2" stroke="none" stroke-width="1" fill="none" fill-rule="evenodd">
        <g id="eReports-Create-2" transform="translate(-1510.000000, -122.000000)" fill="#FFFFFF" fill-rule="nonzero">
            <g id="Group-13" transform="translate(1510.000000, 122.000000)">
                <g id="next-(4)" transform="translate(6.000000, 3.500000) scale(1, -1) rotate(90.000000) translate(-6.000000, -3.500000) translate(2.500000, -2.500000)">
                    <path d="M6.80993999,5.5317599 L1.50758316,0.191705758 C1.38494612,0.0680970073 1.22123632,0 1.04667712,0 C0.872117919,0 0.708408124,0.0680970073 0.585771083,0.191705758 L0.195289317,0.584873294 C-0.0587999086,0.841066333 -0.0587999086,1.25745319 0.195289317,1.51325599 L4.64780826,5.99751222 L0.190348963,10.486744 C0.0677119211,10.6103528 0,10.7751319 0,10.9508378 C0,11.1267388 0.0677119211,11.291518 0.190348963,11.4152243 L0.580830728,11.8082942 C0.703564639,11.931903 0.867177564,12 1.04173677,12 C1.21629597,12 1.38000576,11.931903 1.5026428,11.8082942 L6.80993999,6.46336209 C6.93286764,6.33936309 7.00038582,6.17380347 6.99999834,5.9978049 C7.00038582,5.82112341 6.93286764,5.65566134 6.80993999,5.5317599 Z" id="Shape"></path>
                </g>
            </g>
        </g>
    </g>
</svg>