<?xml version="1.0" encoding="UTF-8"?>
<svg width="12px" height="12px" viewBox="0 0 12 12" version="1.1" xmlns="http://www.w3.org/2000/svg" xmlns:xlink="http://www.w3.org/1999/xlink">
    <!-- Generator: Sketch 51.3 (57544) - http://www.bohemiancoding.com/sketch -->
    <title>interface (1)</title>
    <desc>Created with Sketch.</desc>
    <defs></defs>
    <g id="Page-1" stroke="none" stroke-width="1" fill="none" fill-rule="evenodd">
        <g id="eReports-Aministration" transform="translate(-1377.000000, -345.000000)" fill="#1C94A3" fill-rule="nonzero">
            <g id="Group-4" transform="translate(76.000000, 331.000000)">
                <g id="interface-(1)" transform="translate(1301.000000, 14.000000)">
                    <path d="M7.09937954,6.00008896 L11.7719384,1.32729081 C12.0760205,1.02334467 12.0760205,0.531905758 11.7719384,0.227959611 C11.4679985,-0.0759865369 10.9765698,-0.0759865369 10.67263,0.227959611 L5.99992881,4.90075779 L1.32737002,0.227959611 C1.02328783,-0.0759865369 0.532001479,-0.0759865369 0.228061642,0.227959611 C-0.0760205472,0.531905758 -0.0760205472,1.02334467 0.228061642,1.32729081 L4.90062046,6.00008896 L0.228061642,10.6728871 C-0.0760205472,10.9768333 -0.0760205472,11.4682722 0.228061642,11.7722184 C0.379533294,11.9238355 0.578695748,12 0.77771585,12 C0.976735916,12 1.17575602,11.9238355 1.32737002,11.7722184 L5.99992881,7.09942017 L10.67263,11.7722184 C10.824244,11.9238355 11.0232641,12 11.2222842,12 C11.4213043,12 11.6203243,11.9238355 11.7719384,11.7722184 C12.0760205,11.4682722 12.0760205,10.9768333 11.7719384,10.6728871 L7.09937954,6.00008896 Z" id="Shape"></path>
                </g>
            </g>
        </g>
    </g>
</svg>