<?xml version="1.0" encoding="UTF-8"?>
<svg width="14px" height="14px" viewBox="0 0 14 14" version="1.1" xmlns="http://www.w3.org/2000/svg" xmlns:xlink="http://www.w3.org/1999/xlink">
    <!-- Generator: Sketch 51.3 (57544) - http://www.bohemiancoding.com/sketch -->
    <title>calendar (10)</title>
    <desc>Created with Sketch.</desc>
    <defs></defs>
    <g id="Page-1" stroke="none" stroke-width="1" fill="none" fill-rule="evenodd">
        <g id="eReports-Thesaurus-administrative-data" transform="translate(-1223.000000, -118.000000)" fill="#FFFFFF" fill-rule="nonzero">
            <g id="calendar-(10)" transform="translate(1223.000000, 118.000000)">
                <circle id="Oval" cx="10.5546875" cy="5.7421875" r="1"></circle>
                <path d="M11.8125,1.09375 L11.1015625,1.09375 L11.1015625,0.546875 C11.1015625,0.244835938 10.8567266,0 10.5546875,0 C10.2526484,0 10.0078125,0.244835938 10.0078125,0.546875 L10.0078125,1.09375 L7.51953125,1.09375 L7.51953125,0.546875 C7.51953125,0.244835938 7.27469531,0 6.97265625,0 C6.67061719,0 6.42578125,0.244835938 6.42578125,0.546875 L6.42578125,1.09375 L3.96484375,1.09375 L3.96484375,0.546875 C3.96484375,0.244835938 3.72000781,0 3.41796875,0 C3.11592969,0 2.87109375,0.244835938 2.87109375,0.546875 L2.87109375,1.09375 L2.1875,1.09375 C0.9813125,1.09375 0,2.0750625 0,3.28125 L0,11.8125 C0,13.0186875 0.9813125,14 2.1875,14 L6.37109375,14 C6.67313281,14 6.91796875,13.7551641 6.91796875,13.453125 C6.91796875,13.1510859 6.67313281,12.90625 6.37109375,12.90625 L2.1875,12.90625 C1.58440625,12.90625 1.09375,12.4155937 1.09375,11.8125 L1.09375,3.28125 C1.09375,2.67815625 1.58440625,2.1875 2.1875,2.1875 L2.87109375,2.1875 L2.87109375,2.734375 C2.87109375,3.03641406 3.11592969,3.28125 3.41796875,3.28125 C3.72000781,3.28125 3.96484375,3.03641406 3.96484375,2.734375 L3.96484375,2.1875 L6.42578125,2.1875 L6.42578125,2.734375 C6.42578125,3.03641406 6.67061719,3.28125 6.97265625,3.28125 C7.27469531,3.28125 7.51953125,3.03641406 7.51953125,2.734375 L7.51953125,2.1875 L10.0078125,2.1875 L10.0078125,2.734375 C10.0078125,3.03641406 10.2526484,3.28125 10.5546875,3.28125 C10.8567266,3.28125 11.1015625,3.03641406 11.1015625,2.734375 L11.1015625,2.1875 L11.8125,2.1875 C12.4155937,2.1875 12.90625,2.67815625 12.90625,3.28125 L12.90625,6.3984375 C12.90625,6.70047656 13.1510859,6.9453125 13.453125,6.9453125 C13.7551641,6.9453125 14,6.70047656 14,6.3984375 L14,3.28125 C14,2.0750625 13.0186875,1.09375 11.8125,1.09375 Z" id="Shape"></path>
                <path d="M10.6914062,7.3828125 C8.86703125,7.3828125 7.3828125,8.86703125 7.3828125,10.6914062 C7.3828125,12.5157812 8.86703125,14 10.6914062,14 C12.5157812,14 14,12.5157812 14,10.6914062 C14,8.86703125 12.5157812,7.3828125 10.6914062,7.3828125 Z M10.6914062,12.90625 C9.47015234,12.90625 8.4765625,11.9126875 8.4765625,10.6914062 C8.4765625,9.470125 9.47015234,8.4765625 10.6914062,8.4765625 C11.9126602,8.4765625 12.90625,9.470125 12.90625,10.6914062 C12.90625,11.9126875 11.9126602,12.90625 10.6914062,12.90625 Z" id="Shape"></path>
                <path d="M11.484375,10.1445312 L11.2382812,10.1445312 L11.2382812,9.5703125 C11.2382812,9.26827344 10.9934453,9.0234375 10.6914062,9.0234375 C10.3893672,9.0234375 10.1445312,9.26827344 10.1445312,9.5703125 L10.1445312,10.6914062 C10.1445312,10.9934453 10.3893672,11.2382812 10.6914062,11.2382812 L11.484375,11.2382812 C11.7864141,11.2382812 12.03125,10.9934453 12.03125,10.6914062 C12.03125,10.3893672 11.7864141,10.1445312 11.484375,10.1445312 Z" id="Shape"></path>
                <circle id="Oval" cx="8.17578125" cy="5.7421875" r="1"></circle>
                <circle id="Oval" cx="5.796875" cy="8.12109375" r="1"></circle>
                <circle id="Oval" cx="3.41796875" cy="5.7421875" r="1"></circle>
                <circle id="Oval" cx="3.41796875" cy="8.12109375" r="1"></circle>
                <circle id="Oval" cx="3.41796875" cy="10.5" r="1"></circle>
                <circle id="Oval" cx="5.796875" cy="10.5" r="1"></circle>
                <circle id="Oval" cx="5.796875" cy="5.7421875" r="1"></circle>
            </g>
        </g>
    </g>
</svg>