<?xml version="1.0" encoding="UTF-8"?>
<svg width="20px" height="20px" viewBox="0 0 20 20" version="1.1" xmlns="http://www.w3.org/2000/svg" xmlns:xlink="http://www.w3.org/1999/xlink">
    <!-- Generator: Sketch 51.3 (57544) - http://www.bohemiancoding.com/sketch -->
    <title>adjust (1)</title>
    <desc>Created with Sketch.</desc>
    <defs></defs>
    <g id="Page-1" stroke="none" stroke-width="1" fill="none" fill-rule="evenodd">
        <g id="eReports-Patients-Advanced-filter" transform="translate(-421.000000, -179.000000)" fill="#1C94A3" fill-rule="nonzero">
            <g id="adjust-(1)" transform="translate(421.000000, 179.000000)">
                <path d="M8.0859375,7.8125 C8.0859375,7.38101562 7.73617188,7.03125 7.3046875,7.03125 L4.1796875,7.03125 C3.74820313,7.03125 3.3984375,7.38101562 3.3984375,7.8125 L3.3984375,9.21398437 L0,9.21398437 L0,10.7764844 L3.3984375,10.7764844 L3.3984375,12.109375 C3.3984375,12.5408594 3.74820313,12.890625 4.1796875,12.890625 L7.3046875,12.890625 C7.73617188,12.890625 8.0859375,12.5408594 8.0859375,12.109375 L8.0859375,10.7764844 L20,10.7764844 L20,9.21398437 L8.0859375,9.21398437 L8.0859375,7.8125 Z M6.5234375,11.328125 L4.9609375,11.328125 L4.9609375,8.59375 L6.5234375,8.59375 L6.5234375,11.328125 Z" id="Shape"></path>
                <path d="M16.8359375,14.921875 C16.8359375,14.4903906 16.4861719,14.140625 16.0546875,14.140625 L12.9296875,14.140625 C12.4982031,14.140625 12.1484375,14.4903906 12.1484375,14.921875 L12.1484375,16.2890625 L0,16.2890625 L0,17.8515625 L12.1484375,17.8515625 L12.1484375,19.21875 C12.1484375,19.6502344 12.4982031,20 12.9296875,20 L16.0546875,20 C16.4861719,20 16.8359375,19.6502344 16.8359375,19.21875 L16.8359375,17.8515625 L20,17.8515625 L20,16.2890625 L16.8359375,16.2890625 L16.8359375,14.921875 Z M15.2734375,18.4375 L13.7109375,18.4375 L13.7109375,15.703125 L15.2734375,15.703125 L15.2734375,18.4375 Z" id="Shape"></path>
                <path d="M16.9140625,2.1875 L16.9140625,0.78125 C16.9140625,0.349765625 16.5642969,0 16.1328125,0 L13.0078125,0 C12.5763281,0 12.2265625,0.349765625 12.2265625,0.78125 L12.2265625,2.1875 L0,2.1875 L0,3.75 L12.2265625,3.75 L12.2265625,5.078125 C12.2265625,5.50960938 12.5763281,5.859375 13.0078125,5.859375 L16.1328125,5.859375 C16.5642969,5.859375 16.9140625,5.50960938 16.9140625,5.078125 L16.9140625,3.75 L20,3.75 L20,2.1875 L16.9140625,2.1875 Z M15.3515625,4.296875 L13.7890625,4.296875 L13.7890625,1.5625 L15.3515625,1.5625 L15.3515625,4.296875 Z" id="Shape"></path>
            </g>
        </g>
    </g>
</svg>