<?xml version="1.0" encoding="UTF-8"?>
<svg width="11px" height="10px" viewBox="0 0 11 10" version="1.1" xmlns="http://www.w3.org/2000/svg" xmlns:xlink="http://www.w3.org/1999/xlink">
    <!-- Generator: Sketch 51.3 (57544) - http://www.bohemiancoding.com/sketch -->
    <title>folder (5)</title>
    <desc>Created with Sketch.</desc>
    <defs></defs>
    <g id="Page-2" stroke="none" stroke-width="1" fill="none" fill-rule="evenodd">
        <g id="sReports-User-2.0" transform="translate(-1216.000000, -300.000000)" fill="#B8B8B8" fill-rule="nonzero">
            <g id="folder-(5)" transform="translate(1216.000000, 300.000000)">
                <path d="M9.97335122,2.08937413 C10.5394488,2.08937413 11,2.55178786 11,3.12020171 L11,8.96919936 C11,9.53758627 10.5394488,10 9.97335122,10 L8.04878049,10 L1.02662195,10 C0.46055122,10 0,9.53758627 0,8.96919936 L0,2.79549385 L0,1.03080064 C0,0.462413732 0.46055122,0 1.02662195,0 L4.22560976,0 C4.36568537,0 4.49564634,0.0731091033 4.56880976,0.193036048 L5.72544634,2.08937413 L9.97335122,2.08937413 Z M2,4 L2,6 L7,6 L7,4 L2,4 Z" id="Combined-Shape"></path>
            </g>
        </g>
    </g>
</svg>