<?xml version="1.0" encoding="UTF-8"?>
<svg width="16px" height="12px" viewBox="0 0 16 12" version="1.1" xmlns="http://www.w3.org/2000/svg" xmlns:xlink="http://www.w3.org/1999/xlink">
    <!-- Generator: Sketch 51.3 (57544) - http://www.bohemiancoding.com/sketch -->
    <title>cardboard-box</title>
    <desc>Created with Sketch.</desc>
    <defs></defs>
    <g id="Page-2" stroke="none" stroke-width="1" fill="none" fill-rule="evenodd">
        <g id="sReports-User-Meta-Data--2.0-02-step-3" transform="translate(-663.000000, -710.000000)" fill="#1C94A3" fill-rule="nonzero">
            <g id="Group-5" transform="translate(552.000000, 710.000000)">
                <g id="cardboard-box" transform="translate(111.000000, 0.000000)">
                    <path d="M15.53125,0 L0.46875,0 C0.209875,0 0,0.205854406 0,0.459770115 L0,3.22988506 C0,3.48380077 0.209875,3.68965517 0.46875,3.68965517 L0.94140625,3.68965517 L0.94140625,11.5402299 C0.94140625,11.7941456 1.15128125,12 1.41015625,12 L14.5898437,12 C14.8487187,12 15.0585937,11.7941456 15.0585937,11.5402299 L15.0585937,3.68965517 L15.53125,3.68965517 C15.790125,3.68965517 16,3.48380077 16,3.22988506 L16,0.459770115 C16,0.205854406 15.790125,0 15.53125,0 Z M14.1210937,11.0804598 L1.87890625,11.0804598 L1.87890625,3.68965517 L14.1210937,3.68965517 L14.1210937,11.0804598 Z M15.0625,2.77011494 L0.9375,2.77011494 L0.9375,0.91954023 L15.0625,0.91954023 L15.0625,2.77011494 Z" id="Shape"></path>
                    <path d="M7.19933555,8 L8.80066445,8 C9.46198007,8 10,7.32710249 10,6.5 C10,5.67289751 9.46198007,5 8.80066445,5 L7.19933555,5 C6.53801993,5 6,5.67289751 6,6.5 C6,7.32710249 6.53801993,8 7.19933555,8 Z M7.19933555,5.99722992 L8.80066445,5.99722992 C9.02232558,5.99722992 9.20265781,6.22277008 9.20265781,6.5 C9.20265781,6.77722992 9.02232558,7.00277008 8.80066445,7.00277008 L7.19933555,7.00277008 C6.97767442,7.00277008 6.79734219,6.77722992 6.79734219,6.5 C6.79734219,6.22277008 6.97767442,5.99722992 7.19933555,5.99722992 Z" id="Shape"></path>
                </g>
            </g>
        </g>
    </g>
</svg>