<?xml version="1.0" encoding="UTF-8"?>
<svg width="15px" height="28px" viewBox="0 0 15 28" version="1.1" xmlns="http://www.w3.org/2000/svg" xmlns:xlink="http://www.w3.org/1999/xlink">
    <!-- Generator: Sketch 51.3 (57544) - http://www.bohemiancoding.com/sketch -->
    <title>Group 6</title>
    <desc>Created with Sketch.</desc>
    <defs></defs>
    <g id="Page-1" stroke="none" stroke-width="1" fill="none" fill-rule="evenodd">
        <g id="eReports-dynamic-form-final-a" transform="translate(-1414.000000, -285.000000)" fill="#000000" fill-rule="nonzero">
            <g id="Group-14" transform="translate(546.000000, 274.000000)">
                <g id="Group-6" transform="translate(868.000000, 11.000000)">
                    <g id="left-and-right-arrows" transform="translate(7.500000, 14.000000) scale(-1, 1) translate(-7.500000, -14.000000) ">
                        <path d="M14.5927285,12.8434323 L3.23053534,0.445095227 C2.96774168,0.158105073 2.61693498,0 2.24287954,0 C1.86882411,0 1.51801741,0.158105073 1.25522375,0.445095227 L0.418477109,1.35793684 C-0.125999804,1.95275621 -0.125999804,2.91950757 0.418477109,3.5134209 L9.95958913,13.9247985 L0.407890634,24.3477282 C0.145096974,24.6347184 0,25.0172964 0,25.4252437 C0,25.8336441 0.145096974,26.2162221 0.407890634,26.5034388 L1.24463727,27.4160539 C1.50763851,27.703044 1.85823764,27.8611491 2.23229307,27.8611491 C2.6063485,27.8611491 2.9571552,27.703044 3.21994886,27.4160539 L14.5927285,15.0063912 C14.8561449,14.718495 15.0008268,14.3341049 14.9999964,13.925478 C15.0008268,13.5152656 14.8561449,13.131102 14.5927285,12.8434323 Z" id="Shape"></path>
                    </g>
                </g>
            </g>
        </g>
    </g>
</svg>