<?xml version="1.0" encoding="UTF-8"?>
<svg width="16px" height="13px" viewBox="0 0 16 13" version="1.1" xmlns="http://www.w3.org/2000/svg" xmlns:xlink="http://www.w3.org/1999/xlink">
    <!-- Generator: Sketch 51.3 (57544) - http://www.bohemiancoding.com/sketch -->
    <title>random</title>
    <desc>Created with Sketch.</desc>
    <defs></defs>
    <g id="Page-1" stroke="none" stroke-width="1" fill="none" fill-rule="evenodd">
        <g id="eReports-relation-1" transform="translate(-981.000000, -357.000000)" fill="#000000" fill-rule="nonzero">
            <g id="Group-12" transform="translate(940.000000, 345.000000)">
                <g id="random" transform="translate(41.000000, 12.000000)">
                    <path d="M6.44175225,9.04129974 L6.93854548,8.45465932 C7.05777586,8.31405955 6.99816067,8.1322495 6.80606729,8.04498068 C6.61728586,7.95771186 6.36557729,8.00134627 6.24634691,8.14194604 L5.74955368,8.72858646 C4.84870195,9.79278128 3.56366346,10.403663 2.21900977,10.403663 L0.404058496,10.403663 C0.178845564,10.403663 0,10.5369904 0,10.7018315 C0,10.8666726 0.182157519,11 0.404058496,11 L2.22232173,11 C3.85511549,10.9951517 5.39186255,10.2824563 6.44175225,9.04129974 Z" id="Shape"></path>
                    <path d="M15.8780908,1.81635003 L13.8736038,0.103626943 C13.711625,-0.0345423143 13.4517841,-0.0345423143 13.2898054,0.103626943 C13.1278266,0.2417962 13.1278266,0.463442717 13.2898054,0.601611975 L14.5923845,1.71272309 C14.5890099,1.71272309 14.5890099,1.71272309 14.5856353,1.71272309 L12.6722614,1.71272309 C11.0119792,1.71272309 9.44281005,2.55900979 8.3730754,4.0328152 L8.06261613,4.4617156 C7.94113206,4.62867012 8.0018741,4.84455959 8.19759842,4.94818653 C8.26508956,4.98272884 8.33932982,5 8.41357008,5 C8.55192693,5 8.68690922,4.93955095 8.76452404,4.83304548 L9.07498331,4.40414508 C9.99286289,3.14047208 11.3021911,2.417962 12.6722614,2.417962 L14.5822608,2.417962 C14.5856353,2.417962 14.5856353,2.417962 14.5890099,2.417962 L13.2864308,3.52907311 C13.124452,3.66724237 13.124452,3.88888889 13.2864308,4.02705815 C13.3674202,4.09614277 13.4720314,4.13068509 13.5800173,4.13068509 C13.6880031,4.13068509 13.7926144,4.09614277 13.8736038,4.02705815 L15.8814653,2.31433506 C16.0400695,2.1761658 16.0400695,1.95164076 15.8780908,1.81635003 Z M14.9973313,2.09814623 C14.9973313,2.08814623 14.9973313,2.08814623 14.9973313,2.07814623 C14.9973313,2.06814623 14.9973313,2.06814623 14.9973313,2.05814623 L15.0186647,2.07814623 L14.9973313,2.09814623 Z" id="Shape"></path>
                    <path d="M12.5362171,12.8955972 C12.6096715,12.9651991 12.7045501,13 12.8024893,13 C12.9004285,13 12.9953071,12.9651991 13.0687615,12.8955972 L14.8898184,11.1700501 C15.0367272,11.0308463 15.0367272,10.8075402 14.8898184,10.6683364 L13.0687615,8.94568943 C12.9218527,8.80648563 12.6861865,8.80648563 12.5392777,8.94568943 C12.3923689,9.08489322 12.3923689,9.30819931 12.5392777,9.44740311 L13.7206693,10.5668336 C13.7186289,10.5668336 13.1564987,10.5668336 12.0342787,10.5668336 C10.7947358,10.5668336 9.60416242,9.83601371 8.77167925,8.56287899 L6.01101816,4.33746375 C5.040808,2.84972317 3.61762906,2 2.11181392,2 L0.373393185,2 C0.165272393,2 0,2.15950435 0,2.35670973 C0,2.55391511 0.168332993,2.71341946 0.373393185,2.71341946 L2.10875332,2.71341946 C3.34829627,2.71341946 4.53886962,3.44423939 5.37135279,4.71447403 L8.13201387,8.93988927 C9.10222404,10.4276298 10.525403,11.2802531 12.0312181,11.2802531 L13.7114875,11.2802531 C13.7135279,11.2802531 13.3217711,11.6533966 12.5362171,12.3996836 C12.3923689,12.5330873 12.3923689,12.7563934 12.5362171,12.8955972 Z M14.0879412,10.9148431 L14.1079412,10.9351508 L14.0879412,10.9554585 C14.0879412,10.9453047 14.0879412,10.9453047 14.0879412,10.9351508 C14.0879412,10.924997 14.0879412,10.924997 14.0879412,10.9148431 Z" id="Shape"></path>
                </g>
            </g>
        </g>
    </g>
</svg>