<?xml version="1.0" encoding="UTF-8"?>
<svg width="18px" height="15px" viewBox="0 0 18 15" version="1.1" xmlns="http://www.w3.org/2000/svg" xmlns:xlink="http://www.w3.org/1999/xlink">
    <!-- Generator: Sketch 51.3 (57544) - http://www.bohemiancoding.com/sketch -->
    <title>random</title>
    <desc>Created with Sketch.</desc>
    <defs></defs>
    <g id="Page-1" stroke="none" stroke-width="1" fill="none" fill-rule="evenodd">
        <g id="eReports-relation-1" transform="translate(-806.000000, -256.000000)" fill="#000000" fill-rule="nonzero">
            <g id="random" transform="translate(806.000000, 256.000000)">
                <path d="M7.36200257,10.3883997 L7.92976627,9.60621243 C8.06602955,9.41874607 7.99789791,9.17633267 7.77836262,9.05997424 C7.56261241,8.94361581 7.27494547,9.00179502 7.13868219,9.18926138 L6.57091849,9.97144862 C5.54137366,11.390375 4.07275824,12.2048841 2.53601117,12.2048841 L0.461781138,12.2048841 C0.20439493,12.2048841 0,12.3826539 0,12.602442 C0,12.8222302 0.208180021,13 0.461781138,13 L2.53979626,13 C4.40584627,12.9935356 6.16212863,12.0432751 7.36200257,10.3883997 Z" id="Shape"></path>
                <path d="M17.8628521,2.17962003 L15.6078042,0.124352332 C15.4255781,-0.0414507772 15.1332571,-0.0414507772 14.951031,0.124352332 C14.7688049,0.29015544 14.7688049,0.556131261 14.951031,0.72193437 L16.4164325,2.0552677 C16.4126361,2.0552677 16.4126361,2.0552677 16.4088398,2.0552677 L14.256294,2.0552677 C12.3884766,2.0552677 10.6231613,3.07081174 9.41970982,4.83937824 L9.07044314,5.35405872 C8.93377357,5.55440415 9.00210836,5.8134715 9.22229822,5.93782383 C9.29822576,5.97927461 9.38174605,6 9.46526634,6 C9.6209178,6 9.77277288,5.92746114 9.86008955,5.79965458 L10.2093562,5.28497409 C11.2419708,3.76856649 12.714965,2.9015544 14.256294,2.9015544 L16.4050434,2.9015544 C16.4088398,2.9015544 16.4088398,2.9015544 16.4126361,2.9015544 L14.9472346,4.23488774 C14.7650086,4.40069085 14.7650086,4.66666667 14.9472346,4.83246978 C15.0383477,4.91537133 15.1560354,4.95682211 15.2775194,4.95682211 C15.3990035,4.95682211 15.5166912,4.91537133 15.6078042,4.83246978 L17.8666485,2.77720207 C18.0450782,2.61139896 18.0450782,2.34196891 17.8628521,2.17962003 Z M16.8719978,2.50977547 C16.8719978,2.49977547 16.8719978,2.49977547 16.8719978,2.48977547 C16.8719978,2.47977547 16.8719978,2.47977547 16.8719978,2.46977547 L16.8923978,2.48977547 L16.8719978,2.50977547 Z" id="Shape"></path>
                <path d="M15.0434605,14.8766148 C15.1316058,14.9588716 15.2454601,15 15.3629871,15 C15.4805142,15 15.5943685,14.9588716 15.6825138,14.8766148 L17.8677821,12.8373319 C18.0440726,12.6728183 18.0440726,12.4089112 17.8677821,12.2443976 L15.6825138,10.2085421 C15.5062232,10.0440285 15.2234238,10.0440285 15.0471332,10.2085421 C14.8708427,10.3730556 14.8708427,10.6369628 15.0471332,10.8014764 L16.4648031,12.1244398 C16.4623546,12.1244398 15.7877984,12.1244398 14.4411345,12.1244398 C12.9536829,12.1244398 11.5249949,11.2607435 10.5260151,9.75612971 L7.21322179,4.76245716 C6.0489696,3.0042183 4.34115487,2 2.5341767,2 L0.448071822,2 C0.198326872,2 0,2.18850514 0,2.42156604 C0,2.65462694 0.201999592,2.84313209 0.448071822,2.84313209 L2.53050398,2.84313209 C4.01795552,2.84313209 5.44664354,3.70682837 6.44562334,5.20801476 L9.75841665,10.2016873 C10.9226688,11.9599262 12.6304836,12.9675718 14.4374617,12.9675718 L16.4537849,12.9675718 C16.4562334,12.9675718 15.9861253,13.4085596 15.0434605,14.2905352 C14.8708427,14.448194 14.8708427,14.7121012 15.0434605,14.8766148 Z M16.9055295,12.5357237 L16.9259295,12.5557237 L16.9055295,12.5757237 C16.9055295,12.5657237 16.9055295,12.5657237 16.9055295,12.5557237 C16.9055295,12.5457237 16.9055295,12.5457237 16.9055295,12.5357237 Z" id="Shape"></path>
            </g>
        </g>
    </g>
</svg>