<?xml version="1.0" encoding="UTF-8"?>
<svg width="8px" height="4px" viewBox="0 0 8 4" version="1.1" xmlns="http://www.w3.org/2000/svg" xmlns:xlink="http://www.w3.org/1999/xlink">
    <!-- Generator: Sketch 51.3 (57544) - http://www.bohemiancoding.com/sketch -->
    <title>arrow_down</title>
    <desc>Created with Sketch.</desc>
    <defs></defs>
    <g id="Page-1" stroke="none" stroke-width="1" fill="none" fill-rule="evenodd">
        <g id="eReports-Thesaurus-Umls-&amp;-Code" transform="translate(-650.000000, -1101.000000)" fill="#1C94A3" fill-rule="nonzero">
            <g id="arrow_down" transform="translate(654.000000, 1103.000000) scale(1, -1) translate(-654.000000, -1103.000000) translate(650.000000, 1101.000000)">
                <g id="left-and-right-arrows" transform="translate(4.000000, 2.000000) rotate(90.000000) translate(-4.000000, -2.000000) translate(2.000000, -2.000000)">
                    <path d="M3.89139428,3.38051994 L0.86147609,0.117153519 C0.791397781,0.0416148378 0.697849327,0 0.598101212,0 C0.498353097,0 0.404804642,0.0416148378 0.334726333,0.117153519 L0.111593896,0.357422568 C-0.0335999478,0.513984981 -0.0335999478,0.768443617 0.111593896,0.924767549 L2.65589043,3.66514635 L0.108770836,6.40856578 C0.0386925263,6.48410447 0,6.58480283 0,6.69217865 C0,6.79967372 0.0386925263,6.90037208 0.108770836,6.97597039 L0.331903273,7.21617981 C0.402036937,7.2917185 0.495530037,7.33333333 0.595278152,7.33333333 C0.695026267,7.33333333 0.788574721,7.2917185 0.858653031,7.21617981 L3.89139428,3.94983239 C3.96163865,3.87405522 4.00022047,3.7728799 3.99999905,3.66532521 C4.00022047,3.55735319 3.96163865,3.45623748 3.89139428,3.38051994 Z" id="Shape"></path>
                </g>
            </g>
        </g>
    </g>
</svg>