<?xml version="1.0" encoding="UTF-8"?>
<svg width="11px" height="11px" viewBox="0 0 11 11" version="1.1" xmlns="http://www.w3.org/2000/svg" xmlns:xlink="http://www.w3.org/1999/xlink">
    <!-- Generator: Sketch 51.3 (57544) - http://www.bohemiancoding.com/sketch -->
    <title>block</title>
    <desc>Created with Sketch.</desc>
    <defs></defs>
    <g id="Page-2" stroke="none" stroke-width="1" fill="none" fill-rule="evenodd">
        <g id="sReports-User-2.0" transform="translate(-1216.000000, -332.000000)" fill="#FE5959" fill-rule="nonzero">
            <g id="block" transform="translate(1216.000000, 332.000000)">
                <path d="M0,5.48825604 C0,8.51447826 2.46203382,10.9765121 5.48825604,10.9765121 C8.51447826,10.9765121 10.9765121,8.51447826 10.9765121,5.48825604 C10.9765121,2.46203382 8.5145314,0 5.48825604,0 C2.46198068,0 0,2.46203382 0,5.48825604 Z M9.03381643,5.48825604 C9.03381643,7.44328019 7.44328019,9.03381643 5.48825604,9.03381643 C4.8630628,9.03381643 4.27554589,8.87057005 3.76497585,8.58536715 L8.58531401,3.76497585 C8.87051691,4.27554589 9.03381643,4.8630628 9.03381643,5.48825604 Z M5.48825604,1.94274879 C6.11344928,1.94274879 6.70096618,2.10599517 7.21153623,2.39119807 L2.39125121,7.21158937 C2.10599517,6.70101932 1.94274879,6.11350242 1.94274879,5.48825604 C1.94274879,3.53323188 3.53323188,1.94274879 5.48825604,1.94274879 Z" id="Shape"></path>
            </g>
        </g>
    </g>
</svg>