<?xml version="1.0" encoding="UTF-8"?>
<svg width="28px" height="28px" viewBox="0 0 28 28" version="1.1" xmlns="http://www.w3.org/2000/svg" xmlns:xlink="http://www.w3.org/1999/xlink">
    <!-- Generator: Sketch 51.3 (57544) - http://www.bohemiancoding.com/sketch -->
    <title>plus (7)</title>
    <desc>Created with Sketch.</desc>
    <defs></defs>
    <g id="Page-3" stroke="none" stroke-width="1" fill="none" fill-rule="evenodd">
        <g id="eReports-Patient-Tree-Incounter-form-04" transform="translate(-1033.000000, -747.000000)" fill="#1C94A3" fill-rule="nonzero">
            <g id="plus-(7)" transform="translate(1033.000000, 747.000000)">
                <path d="M14,0 C6.26799194,0 0,6.26799194 0,14 C0.00869354839,21.7283952 6.27160484,27.9913065 14,28 C21.7320081,28 28,21.7320081 28,14 C28,6.26799194 21.7320081,0 14,0 Z M14,27.0967742 C6.76685484,27.0967742 0.903225806,21.2331452 0.903225806,14 C0.911467742,6.77024194 6.77024194,0.911467742 14,0.903225806 C21.2331452,0.903225806 27.0967742,6.76685484 27.0967742,14 C27.0967742,21.2331452 21.2331452,27.0967742 14,27.0967742 Z" id="Shape"></path>
                <path d="M18.445,13.545 L14.455,13.545 L14.455,9.555 C14.455,9.30372625 14.2512738,9.1 14,9.1 C13.7487263,9.1 13.545,9.30372625 13.545,9.555 L13.545,13.545 L9.555,13.545 C9.30372625,13.545 9.1,13.7487262 9.1,14 C9.1,14.2512738 9.30372625,14.455 9.555,14.455 L13.545,14.455 L13.545,18.445 C13.545,18.6962738 13.7487263,18.9 14,18.9 C14.2512738,18.9 14.455,18.6962738 14.455,18.445 L14.455,14.455 L18.445,14.455 C18.6962737,14.455 18.9,14.2512738 18.9,14 C18.9,13.7487262 18.6962737,13.545 18.445,13.545 Z" id="Shape"></path>
            </g>
        </g>
    </g>
</svg>