<?xml version="1.0" encoding="UTF-8"?>
<svg width="40px" height="40px" viewBox="0 0 40 40" version="1.1" xmlns="http://www.w3.org/2000/svg" xmlns:xlink="http://www.w3.org/1999/xlink">
    <!-- Generator: Sketch 51.3 (57544) - http://www.bohemiancoding.com/sketch -->
    <title>plus (7)</title>
    <desc>Created with Sketch.</desc>
    <defs></defs>
    <g id="Page-3" stroke="none" stroke-width="1" fill="none" fill-rule="evenodd">
        <g id="eReports-Patient-Tree-Incounter-form-04" transform="translate(-1027.000000, -747.000000)" fill="#1C94A3" fill-rule="nonzero">
            <g id="plus-(7)" transform="translate(1027.000000, 747.000000)">
                <path d="M20,0 C8.95427419,0 0,8.95427419 0,20 C0.0124193548,31.0405645 8.95943548,39.9875806 20,40 C31.0457258,40 40,31.0457258 40,20 C40,8.95427419 31.0457258,0 20,0 Z M20,38.7096774 C9.66693548,38.7096774 1.29032258,30.3330645 1.29032258,20 C1.30209677,9.67177419 9.67177419,1.30209677 20,1.29032258 C30.3330645,1.29032258 38.7096774,9.66693548 38.7096774,20 C38.7096774,30.3330645 30.3330645,38.7096774 20,38.7096774 Z" id="Shape"></path>
                <path d="M26.35,19.35 L20.65,19.35 L20.65,13.65 C20.65,13.2910375 20.3589625,13 20,13 C19.6410375,13 19.35,13.2910375 19.35,13.65 L19.35,19.35 L13.65,19.35 C13.2910375,19.35 13,19.6410375 13,20 C13,20.3589625 13.2910375,20.65 13.65,20.65 L19.35,20.65 L19.35,26.35 C19.35,26.7089625 19.6410375,27 20,27 C20.3589625,27 20.65,26.7089625 20.65,26.35 L20.65,20.65 L26.35,20.65 C26.7089625,20.65 27,20.3589625 27,20 C27,19.6410375 26.7089625,19.35 26.35,19.35 Z" id="Shape"></path>
            </g>
        </g>
    </g>
</svg>