<?xml version="1.0" encoding="UTF-8"?>
<svg width="12px" height="12px" viewBox="0 0 12 12" version="1.1" xmlns="http://www.w3.org/2000/svg" xmlns:xlink="http://www.w3.org/1999/xlink">
    <!-- Generator: Sketch 51.3 (57544) - http://www.bohemiancoding.com/sketch -->
    <title>calendar (8)</title>
    <desc>Created with Sketch.</desc>
    <defs></defs>
    <g id="Page-2" stroke="none" stroke-width="1" fill="none" fill-rule="evenodd">
        <g id="eReports-dynamic-form-final-a" transform="translate(-119.000000, -281.000000)" fill="#12707C" fill-rule="nonzero">
            <g id="Group-5" transform="translate(76.000000, 238.000000)">
                <g id="calendar-(8)" transform="translate(43.000000, 43.000000)">
                    <path d="M10.453125,0.9375 L9.375,0.9375 L9.375,0.375 C9.375,0.16790625 9.20711719,0 9,0 C8.79288281,0 8.625,0.16790625 8.625,0.375 L8.625,0.9375 L3.375,0.9375 L3.375,0.375 C3.375,0.16790625 3.20711719,0 3,0 C2.79288281,0 2.625,0.16790625 2.625,0.375 L2.625,0.9375 L1.546875,0.9375 C0.693914062,0.9375 0,1.63141406 0,2.484375 L0,10.453125 C0,11.3060859 0.693914062,12 1.546875,12 L10.453125,12 C11.3060859,12 12,11.3060859 12,10.453125 L12,2.484375 C12,1.63141406 11.3060859,0.9375 10.453125,0.9375 Z M1.546875,1.6875 L2.625,1.6875 L2.625,2.0625 C2.625,2.26959375 2.79288281,2.4375 3,2.4375 C3.20711719,2.4375 3.375,2.26959375 3.375,2.0625 L3.375,1.6875 L8.625,1.6875 L8.625,2.0625 C8.625,2.26959375 8.79288281,2.4375 9,2.4375 C9.20711719,2.4375 9.375,2.26959375 9.375,2.0625 L9.375,1.6875 L10.453125,1.6875 C10.8925312,1.6875 11.25,2.04496875 11.25,2.484375 L11.25,3.375 L0.75,3.375 L0.75,2.484375 C0.75,2.04496875 1.10746875,1.6875 1.546875,1.6875 Z M10.453125,11.25 L1.546875,11.25 C1.10746875,11.25 0.75,10.8925313 0.75,10.453125 L0.75,4.125 L11.25,4.125 L11.25,10.453125 C11.25,10.8925313 10.8925312,11.25 10.453125,11.25 Z" id="Shape"></path>
                </g>
            </g>
        </g>
    </g>
</svg>