<?xml version="1.0" encoding="UTF-8"?>
<svg width="23px" height="24px" viewBox="0 0 23 24" version="1.1" xmlns="http://www.w3.org/2000/svg" xmlns:xlink="http://www.w3.org/1999/xlink">
    <!-- Generator: Sketch 51.3 (57544) - http://www.bohemiancoding.com/sketch -->
    <title>c-</title>
    <desc>Created with Sketch.</desc>
    <defs></defs>
    <g id="Page-2" stroke="none" stroke-width="1" fill="none" fill-rule="evenodd">
        <g id="eReports-user-change-pass" transform="translate(-546.000000, -207.000000)" fill="#1C94A3" fill-rule="nonzero">
            <g id="Group-4" transform="translate(495.000000, 157.000000)">
                <g id="Group-2">
                    <g id="c-" transform="translate(51.000000, 50.000000)">
                        <g id="refresh-(4)" transform="translate(11.000000, 12.000000)">
                            <path d="M6.02421409,0.444478369 C4.4646734,0.440415876 2.96492598,1.02283671 1.84362632,2.06799108 L1.84362632,0.444452327 C1.84362632,0.198984018 1.63726657,0 1.38269949,0 C1.12813241,0 0.921799658,0.198984018 0.921799658,0.444452327 L0.921799658,3.11111421 C0.921745645,3.30249407 1.04875912,3.47241564 1.23707826,3.53288428 L4.00258526,4.4217629 C4.24440508,4.49934088 4.50566988,4.37316923 4.58609644,4.13999257 C4.66655001,3.9068159 4.53570155,3.65488927 4.29388173,3.57733733 L2.25202473,2.92223434 C4.13821394,0.941638935 7.33240153,0.810441254 9.38641164,2.62921403 C11.4404217,4.44798681 11.5764825,7.52800732 9.69029333,9.50860273 C7.80410412,11.4891981 4.60991653,11.6203958 2.55590642,9.80162303 C1.29662848,8.68657295 0.708040011,7.03279988 0.991882575,5.40709967 C1.03652499,5.16543344 0.869568305,4.9346526 0.61897124,4.89157976 C0.368374175,4.84850692 0.129011982,5.00952226 0.0843425622,5.25116245 C0.0277901045,5.57735978 2.70069043e-05,5.89949462 0,6.22217633 C0.0037539597,9.41164977 2.68421622,11.9963066 5.99188683,11.9999785 C9.30112384,12.0085982 11.9910385,9.42878516 11.9999778,6.23782735 C12.0088901,3.04686953 9.33347811,0.453098145 6.02421409,0.444478369 Z" id="Shape"></path>
                        </g>
                        <g id="Group" transform="translate(13.000000, 5.000000)">
                            <path d="M2,4 C1.724,4 1.5,3.776 1.5,3.5 L1.5,0.5 C1.5,0.224 1.724,0 2,0 C2.276,0 2.5,0.224 2.5,0.5 L2.5,3.5 C2.5,3.776 2.276,4 2,4 Z" id="Shape"></path>
                            <path d="M3.5,2.5 L0.5,2.5 C0.224,2.5 0,2.276 0,2 C0,1.724 0.224,1.5 0.5,1.5 L3.5,1.5 C3.776,1.5 4,1.724 4,2 C4,2.276 3.776,2.5 3.5,2.5 Z" id="Shape"></path>
                            <path d="M3.5,2.5 L0.5,2.5 C0.224,2.5 0,2.276 0,2 C0,1.724 0.224,1.5 0.5,1.5 L3.5,1.5 C3.776,1.5 4,1.724 4,2 C4,2.276 3.776,2.5 3.5,2.5 Z" id="Shape" transform="translate(2.000000, 2.000000) rotate(45.000000) translate(-2.000000, -2.000000) "></path>
                            <path d="M3.5,2.5 L0.5,2.5 C0.224,2.5 4.54747351e-13,2.276 4.54747351e-13,2 C4.54747351e-13,1.724 0.224,1.5 0.5,1.5 L3.5,1.5 C3.776,1.5 4,1.724 4,2 C4,2.276 3.776,2.5 3.5,2.5 Z" id="Shape" transform="translate(2.000000, 2.000000) scale(-1, 1) rotate(45.000000) translate(-2.000000, -2.000000) "></path>
                        </g>
                        <g id="Group" transform="translate(8.000000, 5.000000)">
                            <path d="M2,4 C1.724,4 1.5,3.776 1.5,3.5 L1.5,0.5 C1.5,0.224 1.724,0 2,0 C2.276,0 2.5,0.224 2.5,0.5 L2.5,3.5 C2.5,3.776 2.276,4 2,4 Z" id="Shape"></path>
                            <path d="M3.5,2.5 L0.5,2.5 C0.224,2.5 0,2.276 0,2 C0,1.724 0.224,1.5 0.5,1.5 L3.5,1.5 C3.776,1.5 4,1.724 4,2 C4,2.276 3.776,2.5 3.5,2.5 Z" id="Shape"></path>
                            <path d="M3.5,2.5 L0.5,2.5 C0.224,2.5 0,2.276 0,2 C0,1.724 0.224,1.5 0.5,1.5 L3.5,1.5 C3.776,1.5 4,1.724 4,2 C4,2.276 3.776,2.5 3.5,2.5 Z" id="Shape" transform="translate(2.000000, 2.000000) rotate(45.000000) translate(-2.000000, -2.000000) "></path>
                            <path d="M3.5,2.5 L0.5,2.5 C0.224,2.5 4.54747351e-13,2.276 4.54747351e-13,2 C4.54747351e-13,1.724 0.224,1.5 0.5,1.5 L3.5,1.5 C3.776,1.5 4,1.724 4,2 C4,2.276 3.776,2.5 3.5,2.5 Z" id="Shape" transform="translate(2.000000, 2.000000) scale(-1, 1) rotate(45.000000) translate(-2.000000, -2.000000) "></path>
                        </g>
                        <g id="Group" transform="translate(3.000000, 5.000000)">
                            <path d="M2,4 C1.724,4 1.5,3.776 1.5,3.5 L1.5,0.5 C1.5,0.224 1.724,0 2,0 C2.276,0 2.5,0.224 2.5,0.5 L2.5,3.5 C2.5,3.776 2.276,4 2,4 Z" id="Shape"></path>
                            <path d="M3.5,2.5 L0.5,2.5 C0.224,2.5 0,2.276 0,2 C0,1.724 0.224,1.5 0.5,1.5 L3.5,1.5 C3.776,1.5 4,1.724 4,2 C4,2.276 3.776,2.5 3.5,2.5 Z" id="Shape"></path>
                            <path d="M3.5,2.5 L0.5,2.5 C0.224,2.5 0,2.276 0,2 C0,1.724 0.224,1.5 0.5,1.5 L3.5,1.5 C3.776,1.5 4,1.724 4,2 C4,2.276 3.776,2.5 3.5,2.5 Z" id="Shape" transform="translate(2.000000, 2.000000) rotate(45.000000) translate(-2.000000, -2.000000) "></path>
                            <path d="M3.5,2.5 L0.5,2.5 C0.224,2.5 4.54747351e-13,2.276 4.54747351e-13,2 C4.54747351e-13,1.724 0.224,1.5 0.5,1.5 L3.5,1.5 C3.776,1.5 4,1.724 4,2 C4,2.276 3.776,2.5 3.5,2.5 Z" id="Shape" transform="translate(2.000000, 2.000000) scale(-1, 1) rotate(45.000000) translate(-2.000000, -2.000000) "></path>
                        </g>
                        <path d="M10.8,24 L2.5,24 C1.122,24 0,22.879 0,21.5 L0,2.5 C0,1.121 1.122,0 2.5,0 L17.5,0 C18.878,0 20,1.121 20,2.5 L20,8.72 C20,8.996 19.776,9.22 19.5,9.22 C19.224,9.22 19,8.996 19,8.72 L19,2.5 C19,1.673 18.327,1 17.5,1 L2.5,1 C1.673,1 1,1.673 1,2.5 L1,21.5 C1,22.327 1.673,23 2.5,23 L10.8,23 C11.076,23 11.3,23.224 11.3,23.5 C11.3,23.776 11.076,24 10.8,24 Z" id="Shape"></path>
                    </g>
                </g>
            </g>
        </g>
    </g>
</svg>