<?xml version="1.0" encoding="UTF-8"?>
<svg width="18px" height="18px" viewBox="0 0 18 18" version="1.1" xmlns="http://www.w3.org/2000/svg" xmlns:xlink="http://www.w3.org/1999/xlink">
    <!-- Generator: Sketch 51.3 (57544) - http://www.bohemiancoding.com/sketch -->
    <title>Group 15</title>
    <desc>Created with Sketch.</desc>
    <defs></defs>
    <g id="Page-1" stroke="none" stroke-width="1" fill="none" fill-rule="evenodd">
        <g id="eReports-dynamic-version-1" transform="translate(-411.000000, -265.000000)" fill="#FFFFFF" fill-rule="nonzero">
            <g id="Group-15" transform="translate(411.000000, 265.000000)">
                <path d="M17.1,0 L0.9,0 C0.403183589,0.000598559144 0.000578607172,0.417086472 0,0.931034483 L0,17.0689655 C0.000578607172,17.5829135 0.403183589,17.9994014 0.9,18 L17.1,18 C17.5968164,17.9994014 17.9994214,17.5829135 18,17.0689655 L18,0.931034483 C17.9994214,0.417086472 17.5968164,0.000598559144 17.1,0 Z M0.9,0.620689655 L17.1,0.620689655 C17.2656083,0.620882064 17.399814,0.759715529 17.4,0.931034483 L17.4,2.48275862 L0.6,2.48275862 L0.6,0.931034483 C0.600185996,0.759715529 0.734391678,0.620882064 0.9,0.620689655 Z M17.1,17.3793103 L0.9,17.3793103 C0.734391678,17.3791179 0.600185996,17.2402845 0.6,17.0689655 L0.6,3.10344828 L17.4,3.10344828 L17.4,17.0689655 C17.399814,17.2402845 17.2656083,17.3791179 17.1,17.3793103 Z" id="Shape"></path>
                <ellipse id="Oval" cx="3.9" cy="1.55172414" rx="1" ry="1"></ellipse>
                <ellipse id="Oval" cx="2.7" cy="1.55172414" rx="1" ry="1"></ellipse>
                <ellipse id="Oval" cx="1.5" cy="1.55172414" rx="1" ry="1"></ellipse>
                <path d="M9.5,5 L2.3,5 C2.13431458,5 2,5.13894611 2,5.31034483 L2,7.79310345 C2,7.96450216 2.13431458,8.10344828 2.3,8.10344828 L9.5,8.10344828 C9.66568542,8.10344828 9.8,7.96450216 9.8,7.79310345 L9.8,5.31034483 C9.8,5.13894611 9.66568542,5 9.5,5 Z M9.2,7.48275862 L2.6,7.48275862 L2.6,5.62068966 L9.2,5.62068966 L9.2,7.48275862 Z" id="Shape"></path>
                <path d="M14.9819824,5 L12.3,5 C12.1343146,5 12,5.13894611 12,5.31034483 L12,7.79310345 C12,7.96450216 12.1343146,8.10344828 12.3,8.10344828 L14.9819824,8.10344828 C15.1476678,8.10344828 15.2819824,7.96450216 15.2819824,7.79310345 L15.2819824,5.31034483 C15.2819824,5.13894611 15.1476678,5 14.9819824,5 Z M14.7058105,7.48275862 L12.6,7.48275862 L12.6,5.62068966 L14.7058105,5.62068966 L14.7058105,7.48275862 Z" id="Shape"></path>
                <path d="M14.9819824,9 L12.3,9 C12.1343146,9 12,9.13894611 12,9.31034483 L12,11.7931034 C12,11.9645022 12.1343146,12.1034483 12.3,12.1034483 L14.9819824,12.1034483 C15.1476678,12.1034483 15.2819824,11.9645022 15.2819824,11.7931034 L15.2819824,9.31034483 C15.2819824,9.13894611 15.1476678,9 14.9819824,9 Z M14.7058105,11.4827586 L12.6,11.4827586 L12.6,9.62068966 L14.7058105,9.62068966 L14.7058105,11.4827586 Z" id="Shape"></path>
                <path d="M9.5,9 L2.3,9 C2.13431458,9 2,9.13894611 2,9.31034483 L2,11.7931034 C2,11.9645022 2.13431458,12.1034483 2.3,12.1034483 L9.5,12.1034483 C9.66568542,12.1034483 9.8,11.9645022 9.8,11.7931034 L9.8,9.31034483 C9.8,9.13894611 9.66568542,9 9.5,9 Z M9.2,11.4827586 L2.6,11.4827586 L2.6,9.62068966 L9.2,9.62068966 L9.2,11.4827586 Z" id="Shape"></path>
                <path d="M9.5,13 L2.3,13 C2.13431458,13 2,13.1389461 2,13.3103448 L2,15.7931034 C2,15.9645022 2.13431458,16.1034483 2.3,16.1034483 L9.5,16.1034483 C9.66568542,16.1034483 9.8,15.9645022 9.8,15.7931034 L9.8,13.3103448 C9.8,13.1389461 9.66568542,13 9.5,13 Z M9.2,15.4827586 L2.6,15.4827586 L2.6,13.6206897 L9.2,13.6206897 L9.2,15.4827586 Z" id="Shape"></path>
                <path d="M15.1,14 L13.9,14 C13.4029437,14 13,14.4168383 13,14.9310345 C13,15.4452306 13.4029437,15.862069 13.9,15.862069 L15.1,15.862069 C15.5970563,15.862069 16,15.4452306 16,14.9310345 C16,14.4168383 15.5970563,14 15.1,14 Z M15.1,15.2413793 L13.9,15.2413793 C13.7343146,15.2413793 13.6,15.1024332 13.6,14.9310345 C13.6,14.7596358 13.7343146,14.6206897 13.9,14.6206897 L15.1,14.6206897 C15.2656854,14.6206897 15.4,14.7596358 15.4,14.9310345 C15.4,15.1024332 15.2656854,15.2413793 15.1,15.2413793 Z" id="Shape"></path>
            </g>
        </g>
    </g>
</svg>