<?xml version="1.0" encoding="UTF-8"?>
<svg width="14px" height="18px" viewBox="0 0 14 18" version="1.1" xmlns="http://www.w3.org/2000/svg" xmlns:xlink="http://www.w3.org/1999/xlink">
    <!-- Generator: Sketch 51.3 (57544) - http://www.bohemiancoding.com/sketch -->
    <title>research (1)</title>
    <desc>Created with Sketch.</desc>
    <defs></defs>
    <g id="Page-2" stroke="none" stroke-width="1" fill="none" fill-rule="evenodd">
        <g id="sReports-User-Meta-Data--2.0-02-step-3" transform="translate(-463.000000, -707.000000)" fill="#000000" fill-rule="nonzero">
            <g id="research-(1)" transform="translate(463.000000, 707.000000)">
                <path d="M13.9999662,10.6487578 C13.9999662,8.03376562 11.9518131,5.90632031 9.43431833,5.90632031 L9.23290115,5.90632031 C9.04126545,5.06239453 8.40069723,4.39702734 7.58819164,4.19797266 L7.58819164,2.20830469 L6.71080338,2.20830469 L6.71080338,1.0546875 L7.58819164,1.0546875 L7.58819164,0 L2.55702678,0 L2.55702678,1.0546875 L3.43441503,1.0546875 L3.43441503,2.20830469 L2.55702678,2.20830469 L2.55702678,10.6590586 L3.09829102,10.6590586 L3.09829102,12.6921094 L7.04696124,12.6921094 L7.04696124,10.6590586 L7.58822548,10.6590586 L7.58822548,8.66942578 C8.40073107,8.47037109 9.0412993,7.80496875 9.232935,6.96104297 L9.43435218,6.96104297 C11.3919674,6.96104297 12.9846219,8.61535547 12.9846219,10.648793 C12.9846219,12.6822305 11.3919674,14.336543 9.43435218,14.336543 L0,14.336543 L0,18 L14,18 L14,14.3365078 L12.3014754,14.3365078 C13.336755,13.4663906 13.9999662,12.1366055 13.9999662,10.6487578 Z M6.57284734,8.66942578 L6.57284734,9.60437109 L3.57240492,9.60437109 L3.57240492,3.26299219 L6.57281349,3.26299219 L6.57281349,4.19797266 C5.59717048,4.437 4.86863666,5.34835547 4.86863666,6.43366406 C4.86867051,7.51907812 5.59720433,8.43039844 6.57284734,8.66942578 Z M4.44982702,1.0546875 L5.69545908,1.0546875 L5.69545908,2.20830469 L4.44982702,2.20830469 L4.44982702,1.0546875 Z M6.0315831,11.637457 L4.11366917,11.637457 L4.11366917,10.6590937 L6.0315831,10.6590937 L6.0315831,11.637457 Z M7.08053641,7.67650781 C6.42077754,7.67650781 5.88404865,7.119 5.88404865,6.43366406 C5.88404865,5.74839844 6.42077754,5.19085547 7.08053641,5.19085547 C7.74029528,5.19085547 8.27702417,5.74836328 8.27702417,6.43366406 C8.27702417,7.119 7.74029528,7.67650781 7.08053641,7.67650781 Z M12.984588,15.3911953 L12.984588,16.9453125 L1.01537814,16.9453125 L1.01537814,15.3911953 L12.984588,15.3911953 Z" id="Shape"></path>
            </g>
        </g>
    </g>
</svg>