<?xml version="1.0" encoding="UTF-8"?>
<svg width="21px" height="19px" viewBox="0 0 21 19" version="1.1" xmlns="http://www.w3.org/2000/svg" xmlns:xlink="http://www.w3.org/1999/xlink">
    <!-- Generator: Sketch 51.3 (57544) - http://www.bohemiancoding.com/sketch -->
    <title>hospital (8)</title>
    <desc>Created with Sketch.</desc>
    <defs></defs>
    <g id="Page-2" stroke="none" stroke-width="1" fill="none" fill-rule="evenodd">
        <g id="sReports-User-Meta-Data--2.0-02-step-1" transform="translate(-1009.000000, -159.000000)" fill="#A6B3B4" fill-rule="nonzero">
            <g id="hospital-(8)" transform="translate(1009.000000, 159.000000)">
                <path d="M20.8160012,9.23352585 L11.8883375,0.558010083 C11.1227811,-0.186016879 9.8771779,-0.185976326 9.11166247,0.55796953 L0.18399876,9.23352585 C-0.0583625053,9.46905802 -0.0617257857,9.85419041 0.176451887,10.0937779 C0.41462956,10.3333248 0.80415485,10.3367313 1.0464751,10.1012396 L1.74123859,9.42607177 L1.74123859,16.3524125 C1.74123859,17.812282 2.94250391,19 4.41902501,19 L16.580975,19 C18.0574961,19 19.2587614,17.812282 19.2587614,16.3524125 L19.2587614,9.42607177 L19.9535249,10.1012396 C20.0733315,10.2176269 20.2290678,10.2756989 20.3847221,10.2756989 C20.5439447,10.2756989 20.7031263,10.2149504 20.8235481,10.0938184 C21.0617258,9.85419041 21.0583625,9.46905802 20.8160012,9.23352585 Z M18.028252,16.3524125 C18.028252,17.1414533 17.3789748,17.7834082 16.580934,17.7834082 L4.41902501,17.7834082 C3.6209842,17.7834082 2.97170702,17.1414533 2.97170702,16.3524125 L2.97170702,8.23036485 L9.97417982,1.42564277 C10.0466544,1.3552021 10.1305313,1.30236147 10.2200684,1.26712086 C10.4662852,1.17028016 10.7554452,1.20657514 10.9694237,1.37608693 C10.9888651,1.39149709 11.0076913,1.40800219 11.0258202,1.42564277 L18.028293,8.2303243 L18.028293,16.3524125 L18.028252,16.3524125 Z" id="Shape"></path>
                <path d="M8.63147048,7.62382455 L8.63147048,9.63133355 L6.62382744,9.63133355 C6.27930834,9.63133355 6,9.9106406 6,10.2551581 L6,12.7448835 C6,13.089401 6.27930834,13.368708 6.62382744,13.368708 L8.63147048,13.368708 L8.63147048,15.3761754 C8.63147048,15.720693 8.91077881,16 9.25529791,16 L11.7450348,16 C12.0895539,16 12.3688622,15.720693 12.3688622,15.3761754 L12.3688622,13.368708 L14.3761726,13.368708 C14.7206917,13.368708 15,13.089401 15,12.7448835 L15,10.2551581 C15,9.9106406 14.7206917,9.63133355 14.3761726,9.63133355 L12.3688622,9.63133355 L12.3688622,7.62382455 C12.3688622,7.27930705 12.0895539,7 11.7450348,7 L9.25529791,7 C8.91077881,7 8.63147048,7.27930705 8.63147048,7.62382455 Z M9.87912535,10.2551581 L9.87912535,8.24764911 L11.1212074,8.24764911 L11.1212074,10.2551581 C11.1212074,10.5996756 11.4005157,10.8789827 11.7450348,10.8789827 L13.7523451,10.8789827 L13.7523451,12.1210589 L11.7450348,12.1210589 C11.4005157,12.1210589 11.1212074,12.400366 11.1212074,12.7448835 L11.1212074,14.7523509 L9.87912535,14.7523509 L9.87912535,12.7448835 C9.87912535,12.400366 9.59981701,12.1210589 9.25529791,12.1210589 L7.24765487,12.1210589 L7.24765487,10.8789827 L9.25529791,10.8789827 C9.59981701,10.8789827 9.87912535,10.5996756 9.87912535,10.2551581 Z" id="Shape"></path>
            </g>
        </g>
    </g>
</svg>