<?xml version="1.0" encoding="UTF-8"?>
<svg width="13px" height="13px" viewBox="0 0 13 13" version="1.1" xmlns="http://www.w3.org/2000/svg" xmlns:xlink="http://www.w3.org/1999/xlink">
    <!-- Generator: Sketch 51.3 (57544) - http://www.bohemiancoding.com/sketch -->
    <title>interface (1)</title>
    <desc>Created with Sketch.</desc>
    <defs></defs>
    <g id="Page-1" stroke="none" stroke-width="1" fill="none" fill-rule="evenodd">
        <g id="eReports-editing-modal" transform="translate(-1345.000000, -137.000000)" fill="#000000" fill-rule="nonzero">
            <g id="Group-4" transform="translate(184.000000, 122.000000)">
                <g id="interface-(1)" transform="translate(1161.000000, 15.000000)">
                    <path d="M7.6909945,6.50009638 L12.7529332,1.43789838 C13.0823556,1.10862339 13.0823556,0.576231238 12.7529332,0.246956245 C12.4236651,-0.0823187483 11.891284,-0.0823187483 11.5620158,0.246956245 L6.49992287,5.30915428 L1.43798419,0.246956245 C1.10856182,-0.0823187483 0.576334936,-0.0823187483 0.247066778,0.246956245 C-0.0823555928,0.576231238 -0.0823555928,1.10862339 0.247066778,1.43789838 L5.3090055,6.50009638 L0.247066778,11.5622944 C-0.0823555928,11.8915694 -0.0823555928,12.4239616 0.247066778,12.7532365 C0.411161068,12.9174885 0.626920393,13 0.842525504,13 C1.05813058,13 1.27373569,12.9174885 1.43798419,12.7532365 L6.49992287,7.69103851 L11.5620158,12.7532365 C11.7262643,12.9174885 11.9418694,13 12.1574745,13 C12.3730796,13 12.5886847,12.9174885 12.7529332,12.7532365 C13.0823556,12.4239616 13.0823556,11.8915694 12.7529332,11.5622944 L7.6909945,6.50009638 Z" id="Shape"></path>
                </g>
            </g>
        </g>
    </g>
</svg>