<?xml version="1.0" encoding="UTF-8"?>
<svg width="38px" height="38px" viewBox="0 0 38 38" version="1.1" xmlns="http://www.w3.org/2000/svg" xmlns:xlink="http://www.w3.org/1999/xlink">
    <!-- Generator: Sketch 51.3 (57544) - http://www.bohemiancoding.com/sketch -->
    <title>Group 3</title>
    <desc>Created with Sketch.</desc>
    <defs>
        <linearGradient x1="50%" y1="100%" x2="50%" y2="3.061617e-15%" id="linearGradient-1">
            <stop stop-color="#F4F4F4" offset="0%"></stop>
            <stop stop-color="#FFFFFF" offset="100%"></stop>
        </linearGradient>
    </defs>
    <g id="Page-2" stroke="none" stroke-width="1" fill="none" fill-rule="evenodd">
        <g id="eReports-editing-calculative" transform="translate(-664.000000, -231.000000)">
            <g id="Group-3" transform="translate(664.000000, 231.000000)">
                <path d="M0.5,0.5 L0.5,37.5 L34,37.5 C35.9329966,37.5 37.5,35.9329966 37.5,34 L37.5,4 C37.5,2.06700338 35.9329966,0.5 34,0.5 L0.5,0.5 Z" id="Rectangle-17" stroke="#D4D4D4" fill="url(#linearGradient-1)"></path>
                <g id="d-f-select" transform="translate(16.000000, 17.000000)" fill="#000000" fill-rule="nonzero">
                    <path d="M5.94751059,4.46126374 L3.31236023,0.172691976 C3.17086794,-0.0575639921 2.82911379,-0.0575639921 2.6876215,0.172691976 L0.0524828662,4.46126374 C-0.0932164584,4.69836262 0.0816977312,5 0.364846374,5 L5.63514708,5 C5.91830744,5 6.09322163,4.69836262 5.94751059,4.46126374 Z" id="Shape" transform="translate(3.000000, 2.500000) scale(1, -1) translate(-3.000000, -2.500000) "></path>
                </g>
            </g>
        </g>
    </g>
</svg>