<?xml version="1.0" encoding="UTF-8"?>
<svg width="16px" height="16px" viewBox="0 0 16 16" version="1.1" xmlns="http://www.w3.org/2000/svg" xmlns:xlink="http://www.w3.org/1999/xlink">
    <!-- Generator: Sketch 51.3 (57544) - http://www.bohemiancoding.com/sketch -->
    <title>chat-comment-oval-speech-bubble-with-text-lines (1)</title>
    <desc>Created with Sketch.</desc>
    <defs></defs>
    <g id="Page-1" stroke="none" stroke-width="1" fill="none" fill-rule="evenodd">
        <g id="eReports-Create-details" transform="translate(-676.000000, -1219.000000)" fill="#1C94A3" fill-rule="nonzero">
            <g id="Group-32" transform="translate(666.000000, 1209.000000)">
                <g id="chat-comment-oval-speech-bubble-with-text-lines-(1)" transform="translate(10.000000, 10.000000)">
                    <path d="M10.5,8.5 L5.5,8.5 C5.224,8.5 5,8.724 5,9 C5,9.276 5.224,9.5 5.5,9.5 L10.5,9.5 C10.776,9.5 11,9.276 11,9 C11,8.724 10.776,8.5 10.5,8.5 Z M11.5,5.5 L4.5,5.5 C4.224,5.5 4,5.724 4,6 C4,6.276 4.224,6.5 4.5,6.5 L11.5,6.5 C11.776,6.5 12,6.276 12,6 C12,5.724 11.776,5.5 11.5,5.5 Z M8,0 C3.58201307,0 0,3.13398693 0,7 C0,9.20951634 1.17249673,11.1764967 3,12.4595033 L3,16 L6.50449673,13.8734902 C6.98951634,13.9535163 7.48849673,14 8,14 C12.4185098,14 16,10.8660131 16,7 C16,3.13398693 12.4185098,0 8,0 Z M8,13 C7.416,13 6.852,12.932 6.30998693,12.8164967 L3.95597386,14.2314771 L3.98747712,11.9124967 C2.18300654,10.8270065 1,9.03301961 1,7 C1,3.6865098 4.13398693,1 8,1 C11.8660131,1 15,3.6865098 15,7 C15,10.3134902 11.8660131,13 8,13 Z" id="Shape"></path>
                </g>
            </g>
        </g>
    </g>
</svg>