<?xml version="1.0" encoding="UTF-8"?>
<svg width="30px" height="24px" viewBox="0 0 30 24" version="1.1" xmlns="http://www.w3.org/2000/svg" xmlns:xlink="http://www.w3.org/1999/xlink">
    <!-- Generator: Sketch 51.3 (57544) - http://www.bohemiancoding.com/sketch -->
    <title>dictionary</title>
    <desc>Created with Sketch.</desc>
    <defs></defs>
    <g id="Page-1" stroke="none" stroke-width="1" fill="none" fill-rule="evenodd">
        <g id="eReports-home-2" transform="translate(-1140.000000, -645.000000)" fill="#000000">
            <g id="dictionary" transform="translate(1140.000000, 645.000000)">
                <path d="M1.71892371,0 C0.771072752,0 0,0.817601177 0,1.82251656 L0,21.8742016 C0,23.0463576 0.899436822,24 2.00502234,24 L15.3267921,24 C15.5533169,24 15.7554126,23.8568359 15.8416364,23.6352024 C15.9283044,23.4124503 15.8798902,23.15844 15.7183247,22.9880795 C15.4363901,22.6909198 15.281154,22.2953348 15.281154,21.8742016 C15.281154,21.3841354 15.4949646,20.9282708 15.8577929,20.6311111 L15.992875,20.6311111 C16.5097181,20.6311111 16.9302326,20.1853127 16.9302326,19.6372627 L16.9302326,17.981663 C16.9302326,17.7378955 16.7438493,17.5402796 16.5139377,17.5402796 C16.2840261,17.5402796 16.0976428,17.7378955 16.0976428,17.981663 L16.0976428,19.6372627 C16.0976428,19.698543 16.0506722,19.7483444 15.992875,19.7483444 L15.724321,19.7483444 L2.00502234,19.7483444 C1.58639558,19.7483444 1.17182183,19.8904489 0.832589789,20.1505813 L0.832589789,1.82251656 C0.832589789,1.30437086 1.23017418,0.88276674 1.71892371,0.88276674 L15.992875,0.88276674 C16.0506722,0.88276674 16.0976428,0.932568065 16.0976428,0.993848418 L16.0976428,2.46899191 C16.0976428,2.71275938 16.2840261,2.91037528 16.5139377,2.91037528 C16.7438493,2.91037528 16.9302326,2.71275938 16.9302326,2.46899191 L16.9302326,0.993848418 C16.930177,0.445857248 16.5097181,1.25482161e-15 15.992875,1.25482161e-15 L1.71892371,0 Z M14.7668094,20.6310522 C14.5612159,21.0018543 14.4485642,21.4290508 14.4485642,21.8742016 C14.4485642,22.3184695 14.5591616,22.7445475 14.7665318,23.1172921 L2.00502234,23.1172921 C1.35853825,23.1172921 0.832589789,22.5596468 0.832589789,21.8742016 C0.832589789,21.1887564 1.35853825,20.6311111 2.00502234,20.6311111 L14.7668094,20.6311111 L14.7668094,20.6310522 Z" id="Shape" fill-rule="nonzero"></path>
                <path d="M5.22816941,5.64705882 C4.14062473,5.64705882 3.25581395,6.5448312 3.25581395,7.64830732 L3.25581395,12.1163986 C3.25581395,13.2198747 4.14062473,14.1176471 5.22816941,14.1176471 L11.7020632,14.1176471 C12.7896078,14.1176471 13.6744186,13.2198747 13.6744186,12.1163986 L13.6744186,7.64830732 C13.6744186,6.5448312 12.7896078,5.64705882 11.7020632,5.64705882 L5.22816941,5.64705882 Z M12.8287448,7.64830732 L12.8287448,12.1163986 C12.8287448,12.7467847 12.3232917,13.2595849 11.7020632,13.2595849 L5.22816941,13.2595849 C4.60688449,13.2595849 4.1014314,12.7467275 4.1014314,12.1163986 L4.1014314,7.64830732 C4.1014314,7.0179212 4.60688449,6.50506372 5.22816941,6.50506372 L11.7020632,6.50506372 C12.3233481,6.50506372 12.8287448,7.0179212 12.8287448,7.64830732 Z" id="Shape" fill-rule="nonzero"></path>
                <path d="M16.9490996,3.64705882 C15.861555,3.64705882 14.9767442,4.5448312 14.9767442,5.64830732 L14.9767442,15.1163986 C14.9767442,16.2198747 15.861555,17.1176471 16.9490996,17.1176471 L28.0276445,17.1176471 C29.1151892,17.1176471 30,16.2198747 30,15.1163986 L30,5.64830732 C30.0000564,4.5448312 29.1152456,3.64705882 28.0277009,3.64705882 L16.9490996,3.64705882 Z M28.0277009,16.2595849 L16.9490996,16.2595849 C16.3278147,16.2595849 15.822418,15.7467275 15.822418,15.1163986 L15.822418,5.64830732 C15.822418,5.0179212 16.3278711,4.50506372 16.9490996,4.50506372 L28.0276445,4.50506372 C28.6489295,4.50506372 29.1543826,5.0179212 29.1543826,5.64830732 L29.1543826,15.1163986 C29.154439,15.7467847 28.6489859,16.2595849 28.0277009,16.2595849 Z" id="Shape" fill-rule="nonzero"></path>
                <path d="M11.3073955,8.22426752 C11.1537812,8.22426752 11.0982021,8.17931454 10.9764575,8.08090054 C10.8113744,7.94743846 10.5853088,7.76470588 10.1703956,7.76470588 C9.75548244,7.76470588 9.52941679,7.94750195 9.36433373,8.08090054 C9.24258911,8.17931454 9.18701005,8.22426752 9.03339569,8.22426752 C8.87978132,8.22426752 8.82420226,8.17931454 8.70245764,8.08090054 C8.53737458,7.94743846 8.3112538,7.76470588 7.89639577,7.76470588 C7.48153774,7.76470588 7.2554721,7.94750195 7.09044418,8.08096403 C6.96869956,8.17937803 6.91312049,8.22433101 6.75956127,8.22433101 C6.60600204,8.22433101 6.55042298,8.17944153 6.42873349,8.08096403 C6.26365044,7.94750195 6.03758479,7.76470588 5.62272677,7.76470588 C5.39440046,7.76470588 5.20930233,7.97785156 5.20930233,8.24077567 C5.20930233,8.50369978 5.39440046,8.71684546 5.62272677,8.71684546 C5.77628599,8.71684546 5.83186506,8.76173494 5.95355454,8.86021244 C6.1186376,8.99367452 6.34470324,9.17647059 6.75956127,9.17647059 C7.17441929,9.17647059 7.40048494,8.99367452 7.565568,8.86021244 C7.68725748,8.76179844 7.74283654,8.71684546 7.89639577,8.71684546 C8.05001013,8.71684546 8.1055892,8.76179844 8.22738896,8.86021244 C8.39247201,8.99367452 8.6185928,9.1764071 9.03345082,9.1764071 C9.44830885,9.1764071 9.67437449,8.99361103 9.83951269,8.86021244 C9.96125731,8.76179844 10.0168364,8.71684546 10.1705059,8.71684546 C10.3241754,8.71684546 10.3796993,8.76179844 10.5014439,8.86021244 C10.666527,8.99367452 10.8925926,9.1764071 11.3075058,9.1764071 C11.5358321,9.1764071 11.7209302,8.96326142 11.7209302,8.70033731 C11.7209302,8.43741319 11.5357218,8.22426752 11.3073955,8.22426752 Z" id="Shape" fill-rule="nonzero"></path>
                <path d="M8.73513788,10.3419352 C8.59351887,10.3419352 8.54227983,10.2969802 8.43004194,10.1985618 C8.27784979,10.0650937 8.06943703,9.88235294 7.68692337,9.88235294 C7.30440971,9.88235294 7.09599695,10.0651572 6.9438048,10.1985618 C6.83156691,10.2969802 6.78032787,10.3419352 6.63870886,10.3419352 C6.49708985,10.3419352 6.44585081,10.2969802 6.33356208,10.1985618 C6.18136993,10.0650937 5.97290634,9.88235294 5.59044351,9.88235294 C5.37994663,9.88235294 5.20930233,10.0955082 5.20930233,10.3584441 C5.20930233,10.6213801 5.37994663,10.8345353 5.59044351,10.8345353 C5.73206252,10.8345353 5.78330156,10.8794903 5.89553946,10.9779088 C6.04773161,11.1113769 6.2561952,11.2941176 6.63865803,11.2941176 C7.02112085,11.2941176 7.22953361,11.1113134 7.38177659,10.9779088 C7.49401449,10.8794903 7.54525353,10.8345353 7.68692337,10.8345353 C7.82854238,10.8345353 7.87978142,10.8794903 7.99201932,10.9779088 C8.14421146,11.1113769 8.35267505,11.2941176 8.73513788,11.2941176 C8.94563477,11.2941176 9.11627907,11.0809624 9.11627907,10.8180264 C9.11627907,10.5550905 8.94563477,10.3419352 8.73513788,10.3419352 Z" id="Shape" fill-rule="nonzero"></path>
                <ellipse id="Oval" fill-rule="nonzero" cx="14" cy="13.0588235" rx="1" ry="1"></ellipse>
                <ellipse id="Oval" fill-rule="nonzero" cx="14" cy="6" rx="1" ry="1"></ellipse>
                <path d="M18.2582028,11.2764706 C18.0860668,11.0929403 18,10.8247076 18,10.4717647 L18,9.03176471 L18.5846102,9.03176471 L18.5846102,10.4964706 C18.5846102,10.675295 18.6214186,10.8129407 18.6950366,10.9094118 C18.7686545,11.0058828 18.8747494,11.0541176 19.0133243,11.0541176 C19.1518993,11.0541176 19.2579942,11.0058828 19.3316121,10.9094118 C19.4052301,10.8129407 19.4420385,10.675295 19.4420385,10.4964706 L19.4420385,9.03176471 L20.0298965,9.03176471 L20.0298965,10.4717647 C20.0298965,10.8223547 19.9427471,11.0899991 19.7684458,11.2747059 C19.5941445,11.4594127 19.3424399,11.5517647 19.0133243,11.5517647 C18.6820436,11.5517647 18.4303389,11.4600009 18.2582028,11.2764706 Z M20.7032808,11.52 L20.7032808,9.03176471 L21.3008824,9.03176471 L21.3008824,10.9941176 L22.2752327,10.9941176 L22.2752327,11.52 L20.7032808,11.52 Z M24.6829606,9.03176471 L25.144153,9.03176471 L25.144153,11.52 L24.6244995,11.52 L24.6244995,10.2141176 L24.1827941,11.1070588 L23.7995496,11.1070588 L23.361092,10.2352941 L23.3578441,11.52 L22.8381906,11.52 L22.8381906,9.03176471 L23.3091266,9.03176471 L23.9976675,10.4470588 L24.6829606,9.03176471 Z M26.15856,11.4776471 C25.991837,11.428235 25.8565119,11.3623534 25.7525807,11.28 L25.9377072,10.8211765 C26.0481342,10.896471 26.1661376,10.9541174 26.2917212,10.9941176 C26.4173048,11.0341178 26.543969,11.0541176 26.6717178,11.0541176 C26.8016318,11.0541176 26.9006898,11.0347061 26.9688947,10.9958824 C27.0370995,10.9570586 27.0712015,10.9023533 27.0712015,10.8317647 C27.0712015,10.768235 27.0403473,10.7164708 26.9786382,10.6764706 C26.916929,10.6364704 26.7994668,10.5964708 26.6262481,10.5564706 C26.41189,10.5070586 26.2440869,10.4482356 26.1228338,10.38 C26.0015807,10.3117644 25.9165966,10.2317652 25.8678788,10.14 C25.819161,10.0482348 25.7948025,9.93529479 25.7948025,9.80117647 C25.7948025,9.64823453 25.8343175,9.51117708 25.9133485,9.39 C25.9923795,9.26882292 26.1038874,9.17352976 26.2478754,9.10411765 C26.3918635,9.03470554 26.5569601,9 26.7431702,9 C26.9077279,9 27.0674115,9.02529386 27.2222257,9.07588235 C27.37704,9.12647084 27.4977499,9.19176431 27.5843593,9.27176471 L27.4024806,9.73058824 C27.1946181,9.57529334 26.9759328,9.49764706 26.746418,9.49764706 C26.6359911,9.49764706 26.5472178,9.52058801 26.4800956,9.56647059 C26.4129733,9.61235317 26.3794127,9.6729408 26.3794127,9.74823529 C26.3794127,9.7929414 26.3913213,9.82941162 26.4151389,9.85764706 C26.4389565,9.88588249 26.4833431,9.91352928 26.5483001,9.94058824 C26.6132571,9.96764719 26.7096086,9.99529398 26.8373574,10.0235294 C27.0452198,10.0729414 27.2086925,10.1323526 27.3277804,10.2017647 C27.4468682,10.2711768 27.5313111,10.3517642 27.5811115,10.4435294 C27.6309118,10.5352946 27.6558116,10.6447052 27.6558116,10.7717647 C27.6558116,11.0164718 27.5692036,11.2076464 27.3959849,11.3452941 C27.2227662,11.4829419 26.979181,11.5517647 26.6652222,11.5517647 C26.4941687,11.5517647 26.325283,11.5270591 26.15856,11.4776471 Z" id="ULMS"></path>
            </g>
        </g>
    </g>
</svg>