<?xml version="1.0" encoding="UTF-8"?>
<svg width="18px" height="13px" viewBox="0 0 18 13" version="1.1" xmlns="http://www.w3.org/2000/svg" xmlns:xlink="http://www.w3.org/1999/xlink">
    <!-- Generator: Sketch 51.3 (57544) - http://www.bohemiancoding.com/sketch -->
    <title>contact</title>
    <desc>Created with Sketch.</desc>
    <defs></defs>
    <g id="Page-1" stroke="none" stroke-width="1" fill="none" fill-rule="evenodd">
        <g id="eReports-Patient-info-tab1-02" transform="translate(-521.000000, -765.000000)" fill="#000000" fill-rule="nonzero">
            <g id="Group-14" transform="translate(76.000000, 90.000000)">
                <g id="contact" transform="translate(445.000000, 675.000000)">
                    <path d="M5,6 C6.10456962,6 7,5.10444874 7,4 C7,2.89543038 6.10456962,2 5,2 C3.89543038,2 3,2.89543038 3,4 C3.00145068,5.10396518 3.89603482,5.99854932 5,6 Z M5,2.77756286 C5.67722436,2.77756286 6.22630561,3.3265232 6.22630561,4.00386847 C6.22630561,4.68109283 5.67722436,5.23017408 5,5.23017408 C4.32265473,5.23017408 3.77369439,4.68109283 3.77369439,4.00386847 C3.77393615,3.32664412 4.32277564,2.77780463 5,2.77756286 Z" id="Shape"></path>
                    <path d="M6,7.00006895 C5.20076355,6.99498502 4.43364296,7.27124629 3.87657431,7.76469346 C3.30982368,8.26251282 3,8.93928685 3,9.67462787 C3.00059036,9.85409093 3.16943483,9.99949161 3.37783375,10 L8.62216625,10 C8.83056517,9.99949161 8.99940964,9.85409093 9,9.67462787 C9,8.93928685 8.69017632,8.26251282 8.12342569,7.76469346 C7.56635704,7.27124629 6.79935452,6.99498502 6,7.00006895 Z M3.78211587,9.34925574 C3.8468199,8.92383168 4.06950565,8.52789445 4.41687657,8.22021444 C4.83497323,7.85589933 5.40514797,7.65081321 6,7.65081321 C6.59485203,7.65081321 7.16502677,7.85589933 7.58312343,8.22021444 C7.92978589,8.52819949 8.15247168,8.92403502 8.21788413,9.34925574 L3.78211587,9.34925574 Z" id="Shape"></path>
                    <path d="M16.125,0 L1.875,0 C0.83964843,0.000459039548 0.00046875,0.822254583 0,1.83615819 L0,11.1638418 C0.00046875,12.1777454 0.83964843,12.999541 1.875,13 L16.125,13 C17.1603516,12.999541 17.9995313,12.1777454 18,11.1638418 L18,1.83615819 C17.9995313,0.822254583 17.1603516,0.000459039548 16.125,0 Z M17.25,11.1638418 C17.2482422,11.7714954 16.7455078,12.2638153 16.125,12.2655367 L1.875,12.2655367 C1.25449218,12.2638153 0.75175782,11.7714954 0.75,11.1638418 L0.75,1.83615819 C0.75175782,1.22850458 1.25449218,0.736184682 1.875,0.734463277 L16.125,0.734463277 C16.7455078,0.736184682 17.2482422,1.22850458 17.25,1.83615819 L17.25,11.1638418 Z" id="Shape"></path>
                    <path d="M14.6336996,6 L10.3663004,6 C10.1640339,6 10,6.22375 10,6.5 C10,6.77625 10.1640339,7 10.3663004,7 L14.6336996,7 C14.8359661,7 15,6.77625 15,6.5 C15,6.22375 14.8359661,6 14.6336996,6 Z" id="Shape"></path>
                    <path d="M14.6336996,8 L10.3663004,8 C10.1640339,8 10,8.22375 10,8.5 C10,8.77625 10.1640339,9 10.3663004,9 L14.6336996,9 C14.8359661,9 15,8.77625 15,8.5 C15,8.22375 14.8359661,8 14.6336996,8 Z" id="Shape"></path>
                    <path d="M14.6336996,4 L10.3663004,4 C10.1640339,4 10,4.22375 10,4.5 C10,4.77625 10.1640339,5 10.3663004,5 L14.6336996,5 C14.8359661,5 15,4.77625 15,4.5 C15,4.22375 14.8359661,4 14.6336996,4 Z" id="Shape"></path>
                </g>
            </g>
        </g>
    </g>
</svg>