<?xml version="1.0" encoding="UTF-8"?>
<svg width="18px" height="13px" viewBox="0 0 18 13" version="1.1" xmlns="http://www.w3.org/2000/svg" xmlns:xlink="http://www.w3.org/1999/xlink">
    <!-- Generator: Sketch 51.3 (57544) - http://www.bohemiancoding.com/sketch -->
    <title>contact_person_black (2)</title>
    <desc>Created with Sketch.</desc>
    <defs></defs>
    <g id="Page-1" stroke="none" stroke-width="1" fill="none" fill-rule="evenodd">
        <g id="eReports-Aministration" transform="translate(-723.000000, -908.000000)" fill="#FFFFFF" fill-rule="nonzero">
            <g id="contact_person_black-(2)" transform="translate(723.000000, 908.000000)">
                <path d="M5.75,6.67567568 C6.71649842,6.67567568 7.5,5.8747404 7.5,4.88697789 C7.5,3.89910726 6.71649842,3.0982801 5.75,3.0982801 C4.78350158,3.0982801 4,3.89910726 4,4.88697789 C4.00126934,5.87430793 4.78403046,6.67437826 5.75,6.67567568 Z M5.75,3.79369258 C6.34257131,3.79369258 6.82301741,4.28465466 6.82301741,4.89043765 C6.82301741,5.4961125 6.34257131,5.98718272 5.75,5.98718272 C5.15732289,5.98718272 4.67698259,5.4961125 4.67698259,4.89043765 C4.67719414,4.2847628 5.15742869,3.79390881 5.75,3.79369258 Z" id="Shape"></path>
                <path d="M5.625,7.37845105 C4.82576355,7.37309232 4.05864296,7.66428663 3.50157431,8.18440662 C2.93482368,8.70913513 2.625,9.42249155 2.625,10.1975807 C2.62559036,10.3867445 2.79443483,10.5400047 3.00283375,10.5405405 L8.24716625,10.5405405 C8.45556517,10.5400047 8.62440964,10.3867445 8.625,10.1975807 C8.625,9.42249155 8.31517632,8.70913513 7.74842569,8.18440662 C7.19135704,7.66428663 6.42435452,7.37309232 5.625,7.37845105 Z M3.40711587,9.85462091 C3.4718199,9.40620095 3.69450565,8.98886172 4.04187657,8.66455036 C4.45997323,8.28054253 5.03014797,8.06437068 5.625,8.06437068 C6.21985203,8.06437068 6.79002677,8.28054253 7.20812343,8.66455036 C7.55478589,8.98918325 7.77747168,9.40641529 7.84288413,9.85462091 L3.40711587,9.85462091 Z" id="Shape"></path>
                <path d="M16.125,0 L1.875,0 C0.83964843,0.000459039548 0.00046875,0.822254583 0,1.83615819 L0,11.1638418 C0.00046875,12.1777454 0.83964843,12.999541 1.875,13 L16.125,13 C17.1603516,12.999541 17.9995313,12.1777454 18,11.1638418 L18,1.83615819 C17.9995313,0.822254583 17.1603516,0.000459039548 16.125,0 Z M17.25,11.1638418 C17.2482422,11.7714954 16.7455078,12.2638153 16.125,12.2655367 L1.875,12.2655367 C1.25449218,12.2638153 0.75175782,11.7714954 0.75,11.1638418 L0.75,1.83615819 C0.75175782,1.22850458 1.25449218,0.736184682 1.875,0.734463277 L16.125,0.734463277 C16.7455078,0.736184682 17.2482422,1.22850458 17.25,1.83615819 L17.25,11.1638418 Z" id="Shape"></path>
                <path d="M14.9903846,6.32432432 L10.5096154,6.32432432 C10.2972356,6.32432432 10.125,6.48155405 10.125,6.67567568 C10.125,6.8697973 10.2972356,7.02702703 10.5096154,7.02702703 L14.9903846,7.02702703 C15.2027644,7.02702703 15.375,6.8697973 15.375,6.67567568 C15.375,6.48155405 15.2027644,6.32432432 14.9903846,6.32432432 Z" id="Shape"></path>
                <path d="M14.9903846,8.08108108 L10.5096154,8.08108108 C10.2972356,8.08108108 10.125,8.23831081 10.125,8.43243243 C10.125,8.62655405 10.2972356,8.78378378 10.5096154,8.78378378 L14.9903846,8.78378378 C15.2027644,8.78378378 15.375,8.62655405 15.375,8.43243243 C15.375,8.23831081 15.2027644,8.08108108 14.9903846,8.08108108 Z" id="Shape"></path>
                <path d="M14.9903846,4.21621622 L10.5096154,4.21621622 C10.2972356,4.21621622 10.125,4.37344595 10.125,4.56756757 C10.125,4.76168919 10.2972356,4.91891892 10.5096154,4.91891892 L14.9903846,4.91891892 C15.2027644,4.91891892 15.375,4.76168919 15.375,4.56756757 C15.375,4.37344595 15.2027644,4.21621622 14.9903846,4.21621622 Z" id="Shape"></path>
            </g>
        </g>
    </g>
</svg>