<?xml version="1.0" encoding="UTF-8"?>
<svg width="17px" height="17px" viewBox="0 0 17 17" version="1.1" xmlns="http://www.w3.org/2000/svg" xmlns:xlink="http://www.w3.org/1999/xlink">
    <!-- Generator: Sketch 51.3 (57544) - http://www.bohemiancoding.com/sketch -->
    <title>Group 15</title>
    <desc>Created with Sketch.</desc>
    <defs></defs>
    <g id="Page-2" stroke="none" stroke-width="1" fill="none" fill-rule="evenodd">
        <g id="eReports-dynamic-field-polja-01" transform="translate(-772.000000, -554.000000)" fill="#676767" fill-rule="nonzero">
            <g id="Group-15" transform="translate(772.000000, 554.000000)">
                <g id="calendar-(8)">
                    <path d="M14.8085938,1.328125 L13.28125,1.328125 L13.28125,0.53125 C13.28125,0.237867187 13.043416,0 12.75,0 C12.456584,0 12.21875,0.237867187 12.21875,0.53125 L12.21875,1.328125 L4.78125,1.328125 L4.78125,0.53125 C4.78125,0.237867187 4.54341602,0 4.25,0 C3.95658398,0 3.71875,0.237867187 3.71875,0.53125 L3.71875,1.328125 L2.19140625,1.328125 C0.983044922,1.328125 0,2.31116992 0,3.51953125 L0,14.8085938 C0,16.0169551 0.983044922,17 2.19140625,17 L14.8085938,17 C16.0169551,17 17,16.0169551 17,14.8085938 L17,3.51953125 C17,2.31116992 16.0169551,1.328125 14.8085938,1.328125 Z M2.19140625,2.390625 L3.71875,2.390625 L3.71875,2.921875 C3.71875,3.21525781 3.95658398,3.453125 4.25,3.453125 C4.54341602,3.453125 4.78125,3.21525781 4.78125,2.921875 L4.78125,2.390625 L12.21875,2.390625 L12.21875,2.921875 C12.21875,3.21525781 12.456584,3.453125 12.75,3.453125 C13.043416,3.453125 13.28125,3.21525781 13.28125,2.921875 L13.28125,2.390625 L14.8085938,2.390625 C15.4310859,2.390625 15.9375,2.89703906 15.9375,3.51953125 L15.9375,4.78125 L1.0625,4.78125 L1.0625,3.51953125 C1.0625,2.89703906 1.56891406,2.390625 2.19140625,2.390625 Z M14.8085938,15.9375 L2.19140625,15.9375 C1.56891406,15.9375 1.0625,15.4310859 1.0625,14.8085938 L1.0625,5.84375 L15.9375,5.84375 L15.9375,14.8085938 C15.9375,15.4310859 15.4310859,15.9375 14.8085938,15.9375 Z" id="Shape"></path>
                </g>
            </g>
        </g>
    </g>
</svg>