<?xml version="1.0" encoding="UTF-8"?>
<svg width="16px" height="20px" viewBox="0 0 16 20" version="1.1" xmlns="http://www.w3.org/2000/svg" xmlns:xlink="http://www.w3.org/1999/xlink">
    <!-- Generator: Sketch 51.3 (57544) - http://www.bohemiancoding.com/sketch -->
    <title>Group</title>
    <desc>Created with Sketch.</desc>
    <defs></defs>
    <g id="Page-1" stroke="none" stroke-width="1" fill="none" fill-rule="evenodd">
        <g id="eReports-delete-item" transform="translate(-639.000000, -174.000000)" fill="#1C94A3" fill-rule="nonzero">
            <g id="Group-2" transform="translate(589.000000, 123.000000)">
                <g id="Group" transform="translate(50.000000, 51.000000)">
                    <path d="M10.8235294,7.61904762 C10.5636029,7.61904762 10.3529412,7.82303773 10.3529412,8.07473229 L10.3529412,16.6871725 C10.3529412,16.938689 10.5636029,17.1428571 10.8235294,17.1428571 C11.0834559,17.1428571 11.2941176,16.938689 11.2941176,16.6871725 L11.2941176,8.07473229 C11.2941176,7.82303773 11.0834559,7.61904762 10.8235294,7.61904762 Z" id="Shape"></path>
                    <path d="M5.17647059,7.61904762 C4.91654409,7.61904762 4.70588235,7.82303773 4.70588235,8.07473229 L4.70588235,16.6871725 C4.70588235,16.938689 4.91654409,17.1428571 5.17647059,17.1428571 C5.43639704,17.1428571 5.64705882,16.938689 5.64705882,16.6871725 L5.64705882,8.07473229 C5.64705882,7.82303773 5.43639704,7.61904762 5.17647059,7.61904762 Z" id="Shape"></path>
                    <path d="M1.31032823,5.95419282 L1.31032823,17.4941529 C1.31032823,18.1762351 1.55668545,18.816785 1.98704472,19.2763854 C2.41542159,19.7372666 3.01158097,19.9989022 3.63549377,20 L12.3645063,20 C12.9885993,19.9989022 13.5847586,19.7372666 14.0129553,19.2763854 C14.4433146,18.816785 14.6896719,18.1762351 14.6896719,17.4941529 L14.6896719,5.95419282 C15.5451641,5.72366074 16.0995129,4.88459714 15.9850749,3.99338939 C15.8704566,3.10236464 15.1227344,2.43583419 14.2375062,2.43565124 L11.8753961,2.43565124 L11.8753961,1.85017294 C11.8780994,1.35782228 11.686348,0.885048561 11.3430338,0.537237875 C10.9997195,0.189610139 10.5333168,-0.00396362162 10.0483516,6.15416366e-05 L5.95164846,6.15416366e-05 C5.46668328,-0.00396362162 5.00028052,0.189610139 4.65696628,0.537237875 C4.31365205,0.885048561 4.12190068,1.35782228 4.12460395,1.85017294 L4.12460395,2.43565124 L1.7624938,2.43565124 C0.877265677,2.43583419 0.12954348,3.10236464 0.0149251346,3.99338939 C-0.0995129127,4.88459714 0.454835969,5.72366074 1.31032823,5.95419282 Z M12.3645063,19.0632347 L3.63549377,19.0632347 C2.84668199,19.0632347 2.23304158,18.3752977 2.23304158,17.4941529 L2.23304158,5.99535925 L13.7669585,5.99535925 L13.7669585,17.4941529 C13.7669585,18.3752977 13.153318,19.0632347 12.3645063,19.0632347 Z M5.04731731,1.85017294 C5.04425358,1.60628466 5.13868752,1.37154444 5.30917325,1.19937724 C5.47947873,1.02721004 5.71123836,0.932618672 5.95164846,0.936826809 L10.0483516,0.936826809 C10.2887616,0.932618672 10.5205213,1.02721004 10.6908268,1.19937724 C10.8613125,1.37136149 10.9557465,1.60628466 10.9526828,1.85017294 L10.9526828,2.43565124 L5.04731731,2.43565124 L5.04731731,1.85017294 Z M1.7624938,3.3724165 L14.2375062,3.3724165 C14.6961596,3.3724165 15.0679483,3.74986705 15.0679483,4.21550524 C15.0679483,4.68114344 14.6961596,5.05859399 14.2375062,5.05859399 L1.7624938,5.05859399 C1.30384035,5.05859399 0.932051782,4.68114344 0.932051782,4.21550524 C0.932051782,3.74986705 1.30384035,3.3724165 1.7624938,3.3724165 Z" id="Shape"></path>
                    <path d="M8,7.61904762 C7.74007351,7.61904762 7.52941176,7.82303773 7.52941176,8.07473229 L7.52941176,16.6871725 C7.52941176,16.938689 7.74007351,17.1428571 8,17.1428571 C8.25992645,17.1428571 8.47058824,16.938689 8.47058824,16.6871725 L8.47058824,8.07473229 C8.47058824,7.82303773 8.25992645,7.61904762 8,7.61904762 Z" id="Shape"></path>
                </g>
            </g>
        </g>
    </g>
</svg>