<?xml version="1.0" encoding="UTF-8"?>
<svg width="15px" height="15px" viewBox="0 0 15 15" version="1.1" xmlns="http://www.w3.org/2000/svg" xmlns:xlink="http://www.w3.org/1999/xlink">
    <!-- Generator: Sketch 51.3 (57544) - http://www.bohemiancoding.com/sketch -->
    <title>Group 27</title>
    <desc>Created with Sketch.</desc>
    <defs></defs>
    <g id="Page-2" stroke="none" stroke-width="1" fill="none" fill-rule="evenodd">
        <g id="eReports-dynamic-field-polja-01" transform="translate(-1012.000000, -643.000000)" fill="#D83A3A" fill-rule="nonzero">
            <g id="d-f-select" transform="translate(322.000000, 643.000000)">
                <g id="d-f">
                    <g id="Group-30" transform="translate(609.000000, 0.000000)">
                        <g id="Group-27" transform="translate(81.000000, 0.000000)">
                            <path d="M12.8056828,2.19436326 C9.8793111,-0.731454418 5.12020527,-0.731454418 2.19383354,2.19436326 C-0.731277845,5.12018093 -0.731277845,9.8806178 2.19383354,12.8064355 C3.6570194,14.2690365 5.57853535,15 7.5000806,15 C9.42162586,15 11.342497,14.2690072 12.8056828,12.8064355 C15.7314391,9.88064711 15.7314391,5.12018093 12.8056828,2.19436326 Z M10.5946366,9.71116958 C10.8391165,9.95565455 10.8391165,10.3508579 10.5946366,10.5953428 C10.4727045,10.7172776 10.3126392,10.7785673 10.1525446,10.7785673 C9.99247938,10.7785673 9.83238481,10.7172776 9.71045265,10.5953428 L7.50005129,8.3842502 L5.29026546,10.594698 C5.16771778,10.7166327 5.0076232,10.7779225 4.84817346,10.7779225 C4.6881082,10.7779225 4.52801362,10.7166327 4.40608146,10.594698 C4.16160163,10.350213 4.16160163,9.95439417 4.40608146,9.71052473 L6.6158673,7.50007694 L4.40546594,5.28962915 C4.16098611,5.04514418 4.16098611,4.64932533 4.40546594,4.40545589 C4.64933025,4.16097092 5.04514079,4.16097092 5.28962062,4.40545589 L7.50002198,6.61590369 L9.71042334,4.40545589 C9.95490318,4.16097092 10.3500982,4.16097092 10.594578,4.40545589 C10.8390579,4.64932533 10.8390579,5.04514418 10.594578,5.28962915 L8.38417666,7.50007694 L10.5946366,9.71116958 Z" id="Shape"></path>
                        </g>
                    </g>
                </g>
            </g>
        </g>
    </g>
</svg>