<?xml version="1.0" encoding="UTF-8"?>
<svg width="16px" height="16px" viewBox="0 0 16 16" version="1.1" xmlns="http://www.w3.org/2000/svg" xmlns:xlink="http://www.w3.org/1999/xlink">
    <!-- Generator: Sketch 51.3 (57544) - http://www.bohemiancoding.com/sketch -->
    <title>icon-</title>
    <desc>Created with Sketch.</desc>
    <defs></defs>
    <g id="Page-1" stroke="none" stroke-width="1" fill="none" fill-rule="evenodd">
        <g id="eReports-Patients-open-menu" transform="translate(-17.000000, -127.000000)" fill="#A5B2B3">
            <g id="Group-8" transform="translate(13.000000, 79.000000)">
                <g id="icon-" transform="translate(4.000000, 48.000000)">
                    <path d="M10.7375092,0.633793764 C11.5825675,-0.211264588 12.9537126,-0.211264588 13.7987709,0.633793764 L15.3662062,2.20050741 C16.2112646,3.04628742 16.2112646,4.41743249 15.3662062,5.26249084 L5.26303208,15.365665 C4.85674015,15.7719569 4.30611716,16 3.73167954,16 L0.721655297,16 C0.323301573,16 0,15.6766984 0,15.2783447 L0,12.2675988 C0,11.6938828 0.228043074,11.1432599 0.634335006,10.7369679 L10.7375092,0.633793764 Z M12.7783503,1.65421435 C12.4961831,1.37276879 12.040097,1.37276879 11.7579298,1.65421435 L10.4019394,3.01020466 L12.9897953,5.59806055 L14.3457856,4.24207025 C14.6272312,3.95990303 14.6272312,3.50381688 14.3457856,3.22164966 L12.7783503,1.65421435 Z M11.9693748,6.61848114 L9.38151886,4.03062525 L1.6547556,11.7573885 C1.5190844,11.8930597 1.44331059,12.0763602 1.44331059,12.2675988 L1.44331059,14.5566894 L3.73167954,14.5566894 C3.92363985,14.5566894 4.10694029,14.4809156 4.24261149,14.3452444 L11.9693748,6.61848114 Z" id="Fill-1009"></path>
                </g>
            </g>
        </g>
    </g>
</svg>