<?xml version="1.0" encoding="UTF-8"?>
<svg width="31px" height="40px" viewBox="0 0 31 40" version="1.1" xmlns="http://www.w3.org/2000/svg" xmlns:xlink="http://www.w3.org/1999/xlink">
    <!-- Generator: Sketch 51.3 (57544) - http://www.bohemiancoding.com/sketch -->
    <title>check-list (1)</title>
    <desc>Created with Sketch.</desc>
    <defs></defs>
    <g id="Page-2" stroke="none" stroke-width="1" fill="none" fill-rule="evenodd">
        <g id="eReports-Patient-Add-Documents" transform="translate(-372.000000, -218.000000)" fill="#959595" fill-rule="nonzero">
            <g id="Group-4" transform="translate(338.000000, 191.000000)">
                <g id="check-list-(1)" transform="translate(34.000000, 27.000000)">
                    <path d="M30.3541667,0 L0.645833333,0 C0.289149432,0 0,0.288848548 0,0.64516129 L0,39.3548387 C0,39.7111515 0.289149432,40 0.645833333,40 L30.3541667,40 C30.7108506,40 31,39.7111515 31,39.3548387 L31,0.64516129 C31,0.288848548 30.7108506,0 30.3541667,0 Z M10.9791667,1.29032258 L20.0208333,1.29032258 L20.0208333,3.87096774 C20.0203442,4.22707788 19.7314811,4.51564039 19.375,4.51612903 L11.625,4.51612903 C11.2685189,4.51564039 10.9796558,4.22707788 10.9791667,3.87096774 L10.9791667,1.29032258 Z M11.625,5.80645161 L19.375,5.80645161 C20.4444617,5.80502999 21.3110769,4.93931656 21.3125,3.87096774 L27.125,3.87096774 L27.125,32.9032258 L23.8958333,32.9032258 C23.5391494,32.9032258 23.25,33.1920744 23.25,33.5483871 L23.25,36.7741935 L3.875,36.7741935 L3.875,3.87096774 L9.6875,3.87096774 C9.6889231,4.93931656 10.5555383,5.80502999 11.625,5.80645161 Z M26.8577865,34.1935484 L24.5416667,36.5072581 L24.5416667,34.1935484 L26.8577865,34.1935484 Z M29.7083333,38.7096774 L1.29166667,38.7096774 L1.29166667,1.29032258 L9.6875,1.29032258 L9.6875,2.58064516 L3.22916667,2.58064516 C2.87248277,2.58064516 2.58333333,2.86949371 2.58333333,3.22580645 L2.58333333,37.4193548 C2.58333333,37.7756676 2.87248277,38.0645161 3.22916667,38.0645161 L24.5416667,38.0645161 C24.7129898,38.0645799 24.8773326,37.9967067 24.9985937,37.8758065 L28.2277604,34.65 C28.3487866,34.528865 28.4167305,34.3646932 28.4166667,34.1935484 L28.4166667,3.22580645 C28.4166667,2.86949371 28.1275172,2.58064516 27.7708333,2.58064516 L21.3125,2.58064516 L21.3125,1.29032258 L29.7083333,1.29032258 L29.7083333,38.7096774 Z" id="Shape"></path>
                    <path d="M11.4,8 L6.6,8 C6.26862915,8 6,8.26862915 6,8.6 L6,13.4 C6,13.7313708 6.26862915,14 6.6,14 L11.4,14 C11.7313708,14 12,13.7313708 12,13.4 L12,8.6 C12,8.26862915 11.7313708,8 11.4,8 Z M10.8,12.8 L7.2,12.8 L7.2,9.2 L10.8,9.2 L10.8,12.8 Z" id="Shape"></path>
                    <path d="M14,8.5 C14,8.77614237 14.2984768,9 14.6666667,9 L25.3333333,9 C25.7015232,9 26,8.77614237 26,8.5 C26,8.22385763 25.7015232,8 25.3333333,8 L14.6666667,8 C14.2984768,8 14,8.22385763 14,8.5 Z" id="Shape"></path>
                    <path d="M25.3333333,11 L14.6666667,11 C14.2984768,11 14,11.2238576 14,11.5 C14,11.7761424 14.2984768,12 14.6666667,12 L25.3333333,12 C25.7015232,12 26,11.7761424 26,11.5 C26,11.2238576 25.7015232,11 25.3333333,11 Z" id="Shape"></path>
                    <path d="M14.6,15 L19.4,15 C19.7313708,15 20,14.7761424 20,14.5 C20,14.2238576 19.7313708,14 19.4,14 L14.6,14 C14.2686292,14 14,14.2238576 14,14.5 C14,14.7761424 14.2686292,15 14.6,15 Z" id="Shape"></path>
                    <path d="M22.3333333,15 C22.7015232,15 23,14.7761424 23,14.5 C23,14.2238576 22.7015232,14 22.3333333,14 L21.6666667,14 C21.2984768,14 21,14.2238576 21,14.5 C21,14.7761424 21.2984768,15 21.6666667,15 L22.3333333,15 Z" id="Shape"></path>
                    <path d="M11.4,16 L6.6,16 C6.26862915,16 6,16.2686292 6,16.6 L6,21.4 C6,21.7313708 6.26862915,22 6.6,22 L11.4,22 C11.7313708,22 12,21.7313708 12,21.4 L12,16.6 C12,16.2686292 11.7313708,16 11.4,16 Z M10.8,20.8 L7.2,20.8 L7.2,17.2 L10.8,17.2 L10.8,20.8 Z" id="Shape"></path>
                    <path d="M25.3333333,16 L14.6666667,16 C14.2984768,16 14,16.2238576 14,16.5 C14,16.7761424 14.2984768,17 14.6666667,17 L25.3333333,17 C25.7015232,17 26,16.7761424 26,16.5 C26,16.2238576 25.7015232,16 25.3333333,16 Z" id="Shape"></path>
                    <path d="M25.3333333,19 L14.6666667,19 C14.2984768,19 14,19.2238576 14,19.5 C14,19.7761424 14.2984768,20 14.6666667,20 L25.3333333,20 C25.7015232,20 26,19.7761424 26,19.5 C26,19.2238576 25.7015232,19 25.3333333,19 Z" id="Shape"></path>
                    <path d="M14.6,22 L19.4,22 C19.7313708,22 20,21.7761424 20,21.5 C20,21.2238576 19.7313708,21 19.4,21 L14.6,21 C14.2686292,21 14,21.2238576 14,21.5 C14,21.7761424 14.2686292,22 14.6,22 Z" id="Shape"></path>
                    <path d="M22.3333333,22 C22.7015232,22 23,21.7761424 23,21.5 C23,21.2238576 22.7015232,21 22.3333333,21 L21.6666667,21 C21.2984768,21 21,21.2238576 21,21.5 C21,21.7761424 21.2984768,22 21.6666667,22 L22.3333333,22 Z" id="Shape"></path>
                    <path d="M11.4,24 L6.6,24 C6.26862915,24 6,24.2686292 6,24.6 L6,29.4 C6,29.7313708 6.26862915,30 6.6,30 L11.4,30 C11.7313708,30 12,29.7313708 12,29.4 L12,24.6 C12,24.2686292 11.7313708,24 11.4,24 Z M10.8,28.8 L7.2,28.8 L7.2,25.2 L10.8,25.2 L10.8,28.8 Z" id="Shape"></path>
                    <path d="M25.3333333,24 L14.6666667,24 C14.2984768,24 14,24.2238576 14,24.5 C14,24.7761424 14.2984768,25 14.6666667,25 L25.3333333,25 C25.7015232,25 26,24.7761424 26,24.5 C26,24.2238576 25.7015232,24 25.3333333,24 Z" id="Shape"></path>
                    <path d="M25.3333333,26 L14.6666667,26 C14.2984768,26 14,26.2238576 14,26.5 C14,26.7761424 14.2984768,27 14.6666667,27 L25.3333333,27 C25.7015232,27 26,26.7761424 26,26.5 C26,26.2238576 25.7015232,26 25.3333333,26 Z" id="Shape"></path>
                    <path d="M19.4,29 L14.6,29 C14.2686292,29 14,29.2238576 14,29.5 C14,29.7761424 14.2686292,30 14.6,30 L19.4,30 C19.7313708,30 20,29.7761424 20,29.5 C20,29.2238576 19.7313708,29 19.4,29 Z" id="Shape"></path>
                    <path d="M22.3333333,29 L21.6666667,29 C21.2984768,29 21,29.2238576 21,29.5 C21,29.7761424 21.2984768,30 21.6666667,30 L22.3333333,30 C22.7015232,30 23,29.7761424 23,29.5 C23,29.2238576 22.7015232,29 22.3333333,29 Z" id="Shape"></path>
                </g>
            </g>
        </g>
    </g>
</svg>