<?xml version="1.0" encoding="UTF-8"?>
<svg width="35px" height="35px" viewBox="0 0 35 35" version="1.1" xmlns="http://www.w3.org/2000/svg" xmlns:xlink="http://www.w3.org/1999/xlink">
    <!-- Generator: Sketch 51.3 (57544) - http://www.bohemiancoding.com/sketch -->
    <title>Group 33</title>
    <desc>Created with Sketch.</desc>
    <defs></defs>
    <g id="Page-1" stroke="none" stroke-width="1" fill="none" fill-rule="evenodd">
        <g id="eReports-Create-003" transform="translate(-1498.000000, -158.000000)">
            <g id="Group-33" transform="translate(1498.000000, 158.000000)">
                <rect id="Rectangle-12" fill="#FFFFFF" x="0" y="1" width="34" height="33"></rect>
                <g id="Group-32" fill-rule="nonzero">
                    <g id="Group-25" fill="#000000">
                        <g id="expand">
                            <g id="Group">
                                <path d="M8.75,0.583310547 C8.75,0.260722656 8.48866211,0 8.16668945,0 L7,0 C6.67802734,0 6.41668945,0.260722656 6.41668945,0.583310547 C6.41668945,0.905898438 6.67802734,1.16662109 7,1.16662109 L8.16668945,1.16662109 C8.48866211,1.16668945 8.75,0.905898438 8.75,0.583310547 Z" id="Shape"></path>
                                <path d="M5.25,0.583310547 C5.25,0.260722656 4.98866211,0 4.66668945,0 L3.5,0 C3.16517578,0 2.83322266,0.0472363281 2.51418945,0.140615234 C2.205,0.231054687 2.02767578,0.555351563 2.11811523,0.864541016 C2.1922168,1.11945313 2.42498047,1.28392578 2.6775,1.28392578 C2.73177734,1.28392578 2.78714844,1.27633789 2.84197266,1.26061523 C3.05429688,1.19820313 3.27598633,1.16668945 3.5,1.16668945 L4.66668945,1.16668945 C4.98866211,1.16668945 5.25,0.905898438 5.25,0.583310547 Z" id="Shape"></path>
                                <path d="M5.66706055,33.8333105 L4.50043945,33.8333105 C4.1784668,33.8333105 3.91712891,34.0940332 3.91712891,34.4166211 C3.91712891,34.739209 4.1784668,34.9999316 4.50043945,34.9999316 L5.66712891,34.9999316 C5.98910156,34.9999316 6.25043945,34.739209 6.25043945,34.4166211 C6.25043945,34.0941016 5.98910156,33.8333105 5.66706055,33.8333105 Z" id="Shape"></path>
                                <path d="M9.16706055,33.8333105 L8.00037109,33.8333105 C7.67839844,33.8333105 7.41706055,34.0940332 7.41706055,34.4166211 C7.41706055,34.739209 7.67839844,34.9999316 8.00037109,34.9999316 L9.16706055,34.9999316 C9.4890332,34.9999316 9.75037109,34.739209 9.75037109,34.4166211 C9.75043945,34.0941016 9.48910156,33.8333105 9.16706055,33.8333105 Z" id="Shape"></path>
                                <path d="M15.75,0.583310547 C15.75,0.260722656 15.4886621,0 15.1666895,0 L14,0 C13.6780273,0 13.4166895,0.260722656 13.4166895,0.583310547 C13.4166895,0.905898438 13.6780273,1.16662109 14,1.16662109 L15.1666895,1.16662109 C15.4886621,1.16668945 15.75,0.905898438 15.75,0.583310547 Z" id="Shape"></path>
                                <path d="M16.1670605,33.8333105 L15.0003711,33.8333105 C14.6783984,33.8333105 14.4170605,34.0940332 14.4170605,34.4166211 C14.4170605,34.739209 14.6783984,34.9999316 15.0003711,34.9999316 L16.1670605,34.9999316 C16.4890332,34.9999316 16.7503711,34.739209 16.7503711,34.4166211 C16.7504395,34.0941016 16.4891016,33.8333105 16.1670605,33.8333105 Z" id="Shape"></path>
                                <path d="M2.47098633,33.5941895 C2.19037109,33.4559668 1.94304688,33.2651758 1.73660156,33.0272168 C1.52543945,32.7833789 1.15677734,32.756582 0.913486328,32.9689062 C0.670263672,33.1800684 0.644013672,33.5481836 0.855175781,33.7914062 C1.16436523,34.1472168 1.53473633,34.4336426 1.95535156,34.6407715 C2.03820313,34.681582 2.12625,34.7008594 2.21258789,34.7008594 C2.42785156,34.7008594 2.63491211,34.5812988 2.73642578,34.3759473 C2.87875,34.0865137 2.76035156,33.7365137 2.47098633,33.5941895 Z" id="Shape"></path>
                                <path d="M12.6670605,33.8333105 L11.5003711,33.8333105 C11.1783984,33.8333105 10.9170605,34.0940332 10.9170605,34.4166211 C10.9170605,34.739209 11.1783984,34.9999316 11.5003711,34.9999316 L12.6670605,34.9999316 C12.9890332,34.9999316 13.2503711,34.739209 13.2503711,34.4166211 C13.2504395,34.0941016 12.9891016,33.8333105 12.6670605,33.8333105 Z" id="Shape"></path>
                                <path d="M12.25,0.583310547 C12.25,0.260722656 11.9886621,0 11.6666895,0 L10.5,0 C10.1780273,0 9.91668945,0.260722656 9.91668945,0.583310547 C9.91668945,0.905898438 10.1780273,1.16662109 10.5,1.16662109 L11.6666895,1.16662109 C11.9886621,1.16668945 12.25,0.905898438 12.25,0.583310547 Z" id="Shape"></path>
                                <path d="M0.583310547,14.3331152 C0.905283203,14.3331152 1.16662109,14.0723926 1.16662109,13.7498047 L1.16662109,12.5831152 C1.16662109,12.2605273 0.905283203,11.9998047 0.583310547,11.9998047 C0.261337891,11.9998047 0,12.2605273 0,12.5831152 L0,13.7498047 C0,14.0723242 0.261337891,14.3331152 0.583310547,14.3331152 Z" id="Shape"></path>
                                <path d="M19.25,0.583310547 C19.25,0.260722656 18.9886621,0 18.6666895,0 L17.5,0 C17.1780273,0 16.9166895,0.260722656 16.9166895,0.583310547 C16.9166895,0.905898438 17.1780273,1.16662109 17.5,1.16662109 L18.6666895,1.16662109 C18.9886621,1.16668945 19.25,0.905898438 19.25,0.583310547 Z" id="Shape"></path>
                                <path d="M0.583310547,10.8331152 C0.905283203,10.8331152 1.16662109,10.5723926 1.16662109,10.2498047 L1.16662109,9.08311523 C1.16662109,8.76052734 0.905283203,8.49980469 0.583310547,8.49980469 C0.261337891,8.49980469 0,8.76052734 0,9.08311523 L0,10.2498047 C0,10.5723242 0.261337891,10.8331152 0.583310547,10.8331152 Z" id="Shape"></path>
                                <path d="M0.583310547,7.33311523 C0.905283203,7.33311523 1.16662109,7.07239258 1.16662109,6.74980469 L1.16662109,5.58311523 C1.16662109,5.26052734 0.905283203,4.99980469 0.583310547,4.99980469 C0.261337891,4.99980469 0,5.26052734 0,5.58311523 L0,6.74980469 C0,7.07232422 0.261337891,7.33311523 0.583310547,7.33311523 Z" id="Shape"></path>
                                <path d="M0.544824219,3.83072266 C0.561162109,3.8325 0.578046875,3.83304688 0.594384766,3.83304688 C0.894208984,3.83304688 1.14912109,3.60322266 1.17482422,3.29868164 C1.20168945,2.98662109 1.28912109,2.68734375 1.43554687,2.4102832 C1.58607422,2.12501953 1.47751953,1.77269531 1.19232422,1.62216797 C0.907675781,1.47047852 0.554736328,1.58019531 0.404208984,1.86539063 C0.183681641,2.2819043 0.0524316406,2.73102539 0.0127832031,3.2006543 C-0.0145605469,3.52160156 0.223398437,3.80392578 0.544824219,3.83072266 Z" id="Shape"></path>
                                <path d="M0.583310547,17.8331152 C0.905283203,17.8331152 1.16662109,17.5723926 1.16662109,17.2498047 L1.16662109,16.0831152 C1.16662109,15.7605273 0.905283203,15.4998047 0.583310547,15.4998047 C0.261337891,15.4998047 0,15.7605273 0,16.0831152 L0,17.2498047 C0,17.5723242 0.261337891,17.8331152 0.583310547,17.8331152 Z" id="Shape"></path>
                                <path d="M1.16668945,31.2497363 L1.16668945,30.0830469 C1.16668945,29.760459 0.905351563,29.4997363 0.583378906,29.4997363 C0.26140625,29.4997363 0,29.7605273 0,30.0831152 L0,31.2498047 C0,31.5723926 0.261337891,31.8331152 0.583310547,31.8331152 C0.905283203,31.8331152 1.16668945,31.5723242 1.16668945,31.2497363 Z" id="Shape"></path>
                                <path d="M0.583310547,28.3331152 C0.905283203,28.3331152 1.16662109,28.0723926 1.16662109,27.7498047 L1.16662109,26.5831152 C1.16662109,26.2605273 0.905283203,25.9998047 0.583310547,25.9998047 C0.261337891,25.9998047 0,26.2605273 0,26.5831152 L0,27.7498047 C0,28.0723242 0.261337891,28.3331152 0.583310547,28.3331152 Z" id="Shape"></path>
                                <path d="M0.583310547,24.8331152 C0.905283203,24.8331152 1.16662109,24.5723926 1.16662109,24.2498047 L1.16662109,23.0831152 C1.16662109,22.7605273 0.905283203,22.4998047 0.583310547,22.4998047 C0.261337891,22.4998047 0,22.7605273 0,23.0831152 L0,24.2498047 C0,24.5723242 0.261337891,24.8331152 0.583310547,24.8331152 Z" id="Shape"></path>
                                <path d="M0.583310547,21.3331152 C0.905283203,21.3331152 1.16662109,21.0723926 1.16662109,20.7498047 L1.16662109,19.5831152 C1.16662109,19.2605273 0.905283203,18.9998047 0.583310547,18.9998047 C0.261337891,18.9998047 0,19.2605273 0,19.5831152 L0,20.7498047 C0,21.0723242 0.261337891,21.3331152 0.583310547,21.3331152 Z" id="Shape"></path>
                                <path d="M34.4166895,19.3333984 C34.0947168,19.3333984 33.8333789,19.5941211 33.8333789,19.916709 L33.8333789,21.0833984 C33.8333789,21.4059863 34.0947168,21.666709 34.4166895,21.666709 C34.7386621,21.666709 35,21.4054395 35,21.0833984 L35,19.916709 C35,19.5941895 34.7386621,19.3333984 34.4166895,19.3333984 Z" id="Shape"></path>
                                <path d="M34.4166895,22.8333984 C34.0947168,22.8333984 33.8333789,23.0941211 33.8333789,23.416709 L33.8333789,24.5833984 C33.8333789,24.9059863 34.0947168,25.166709 34.4166895,25.166709 C34.7386621,25.166709 35,24.9054395 35,24.5833984 L35,23.416709 C35,23.0941895 34.7386621,22.8333984 34.4166895,22.8333984 Z" id="Shape"></path>
                                <path d="M19.6670605,33.8333105 L18.5003711,33.8333105 C18.1783984,33.8333105 17.9170605,34.0940332 17.9170605,34.4166211 C17.9170605,34.739209 18.1783984,34.9999316 18.5003711,34.9999316 L19.6670605,34.9999316 C19.9890332,34.9999316 20.2503711,34.739209 20.2503711,34.4166211 C20.2504395,34.0941016 19.9891016,33.8333105 19.6670605,33.8333105 Z" id="Shape"></path>
                                <path d="M34.4166895,26.3333984 C34.0947168,26.3333984 33.8333789,26.5941211 33.8333789,26.916709 L33.8333789,28.0833984 C33.8333789,28.4059863 34.0947168,28.666709 34.4166895,28.666709 C34.7386621,28.666709 35,28.4054395 35,28.0833984 L35,26.916709 C35,26.5941895 34.7386621,26.3333984 34.4166895,26.3333984 Z" id="Shape"></path>
                                <path d="M34.7625879,2.22947266 C34.6453516,1.92964844 34.3064258,1.7802832 34.0071484,1.89813477 C33.706709,2.01482422 33.557959,2.35313477 33.6752637,2.65357422 C33.7802637,2.92304688 33.8333789,3.20776367 33.8333789,3.5 L33.8333789,3.58339844 C33.8333789,3.90598633 34.0947168,4.16670898 34.4166895,4.16670898 C34.7386621,4.16670898 35,3.90543945 35,3.58339844 L35,3.5 C35,3.0625 34.9200879,2.63552734 34.7625879,2.22947266 Z" id="Shape"></path>
                                <path d="M34.4166895,5.33339844 C34.0947168,5.33339844 33.8333789,5.59412109 33.8333789,5.91670898 L33.8333789,7.08339844 C33.8333789,7.40598633 34.0947168,7.66670898 34.4166895,7.66670898 C34.7386621,7.66670898 35,7.40543945 35,7.08339844 L35,5.91677734 C35,5.59418945 34.7386621,5.33339844 34.4166895,5.33339844 Z" id="Shape"></path>
                                <path d="M34.4166895,12.3333984 C34.0947168,12.3333984 33.8333789,12.5941211 33.8333789,12.916709 L33.8333789,14.0833984 C33.8333789,14.4059863 34.0947168,14.666709 34.4166895,14.666709 C34.7386621,14.666709 35,14.4054395 35,14.0833984 L35,12.916709 C35,12.5941895 34.7386621,12.3333984 34.4166895,12.3333984 Z" id="Shape"></path>
                                <path d="M34.4166895,29.8333984 C34.0947168,29.8333984 33.8333789,30.0941211 33.8333789,30.416709 L33.8322168,31.5682227 C33.8240137,31.8901953 34.0783789,32.157959 34.4003516,32.166709 C34.4056152,32.166709 34.4108789,32.166709 34.4160742,32.166709 C34.7310742,32.166709 34.9906348,31.9152832 34.9988379,31.5985742 L35,30.4167773 C35,30.0941895 34.7386621,29.8333984 34.4166895,29.8333984 Z" id="Shape"></path>
                                <path d="M34.4166895,8.83339844 C34.0947168,8.83339844 33.8333789,9.09412109 33.8333789,9.41670898 L33.8333789,10.5833984 C33.8333789,10.9059863 34.0947168,11.166709 34.4166895,11.166709 C34.7386621,11.166709 35,10.9054395 35,10.5833984 L35,9.41670898 C35,9.09418945 34.7386621,8.83339844 34.4166895,8.83339844 Z" id="Shape"></path>
                                <path d="M34.4166895,15.8333984 C34.0947168,15.8333984 33.8333789,16.0941211 33.8333789,16.416709 L33.8333789,17.5833984 C33.8333789,17.9059863 34.0947168,18.166709 34.4166895,18.166709 C34.7386621,18.166709 35,17.9054395 35,17.5833984 L35,16.416709 C35,16.0941895 34.7386621,15.8333984 34.4166895,15.8333984 Z" id="Shape"></path>
                                <path d="M23.1670605,33.8333105 L22.0003711,33.8333105 C21.6783984,33.8333105 21.4170605,34.0940332 21.4170605,34.4166211 C21.4170605,34.739209 21.6783984,34.9999316 22.0003711,34.9999316 L23.1670605,34.9999316 C23.4890332,34.9999316 23.7503711,34.739209 23.7503711,34.4166211 C23.7504395,34.0941016 23.4891016,33.8333105 23.1670605,33.8333105 Z" id="Shape"></path>
                                <path d="M26.6670605,33.8333105 L25.5003711,33.8333105 C25.1783984,33.8333105 24.9170605,34.0940332 24.9170605,34.4166211 C24.9170605,34.739209 25.1783984,34.9999316 25.5003711,34.9999316 L26.6670605,34.9999316 C26.9890332,34.9999316 27.2503711,34.739209 27.2503711,34.4166211 C27.2504395,34.0941016 26.9891016,33.8333105 26.6670605,33.8333105 Z" id="Shape"></path>
                                <path d="M26.25,0.583310547 C26.25,0.260722656 25.9886621,0 25.6666895,0 L24.5,0 C24.1780273,0 23.9166895,0.260722656 23.9166895,0.583310547 C23.9166895,0.905898438 24.1780273,1.16662109 24.5,1.16662109 L25.6666895,1.16662109 C25.9886621,1.16668945 26.25,0.905898438 26.25,0.583310547 Z" id="Shape"></path>
                                <path d="M22.75,0.583310547 C22.75,0.260722656 22.4886621,0 22.1666895,0 L21,0 C20.6780273,0 20.4166895,0.260722656 20.4166895,0.583310547 C20.4166895,0.905898438 20.6780273,1.16662109 21,1.16662109 L22.1666895,1.16662109 C22.4886621,1.16668945 22.75,0.905898438 22.75,0.583310547 Z" id="Shape"></path>
                                <path d="M30.1670605,33.8333105 L29.0003711,33.8333105 C28.6783984,33.8333105 28.4170605,34.0940332 28.4170605,34.4166211 C28.4170605,34.739209 28.6783984,34.9999316 29.0003711,34.9999316 L30.1670605,34.9999316 C30.4890332,34.9999316 30.7503711,34.739209 30.7503711,34.4166211 C30.7504395,34.0941016 30.4891016,33.8333105 30.1670605,33.8333105 Z" id="Shape"></path>
                                <path d="M32.6351758,1.39651367 C32.8620605,1.39651367 33.0784863,1.26293945 33.1724121,1.04125 C33.2983984,0.744365234 33.1595605,0.401884766 32.8632227,0.275898437 C32.4316016,0.0927636719 31.9731152,0 31.5,0 C31.1780273,0 30.9166895,0.260722656 30.9166895,0.583310547 C30.9166895,0.905898437 31.1780273,1.16662109 31.5,1.16662109 C31.8156152,1.16662109 32.12125,1.22787109 32.4076758,1.35037109 C32.4817773,1.38188477 32.5593652,1.39651367 32.6351758,1.39651367 Z" id="Shape"></path>
                                <path d="M29.75,0.583310547 C29.75,0.260722656 29.4886621,0 29.1666895,0 L28,0 C27.6780273,0 27.4166895,0.260722656 27.4166895,0.583310547 C27.4166895,0.905898438 27.6780273,1.16662109 28,1.16662109 L29.1666895,1.16662109 C29.4886621,1.16668945 29.75,0.905898438 29.75,0.583310547 Z" id="Shape"></path>
                                <path d="M33.0779395,33.2191016 C32.845791,33.432041 32.5785742,33.5935742 32.2840137,33.6991895 C31.9807031,33.8071289 31.8232031,34.1413379 31.9316895,34.4447168 C32.0168652,34.683291 32.2414258,34.8314941 32.4806152,34.8314941 C32.5459668,34.8314941 32.6124805,34.8204199 32.6772168,34.7976563 C33.1188184,34.6401563 33.5189941,34.3980957 33.8666016,34.079541 C34.1040137,33.8614063 34.1203516,33.4926758 33.9022168,33.2552637 C33.6845605,33.0178516 33.3153516,33.0020605 33.0779395,33.2191016 Z" id="Shape"></path>
                            </g>
                        </g>
                    </g>
                    <g id="selection" transform="translate(10.000000, 10.000000)">
                        <path d="M18.9638567,14.4485714 L11.2135743,7.03535714 C11.190574,7.01335714 11.1593593,7 11.1248588,7 C11.0558579,7 11,7.05342857 11,7.11942857 L11,17.8805714 C11,17.9465714 11.0558579,18 11.1248588,18 C11.1601807,18 11.1922169,17.9858571 11.2152172,17.9630714 L14.5535476,14.6520714 L18.8743197,14.6520714 L18.8751412,14.6520714 C18.9441421,14.6520714 19,14.5986429 19,14.5326429 C19,14.5004286 18.9860355,14.4705714 18.9638567,14.4485714 Z" id="Shape" fill="#94C0C6"></path>
                        <path d="M13,8.59892857 L11.2311111,7.03535714 C11.2062222,7.01335714 11.1724444,7 11.1351111,7 C11.0604444,7 11,7.05342857 11,7.11942857 L11,17.8805714 C11,17.9465714 11.0604444,18 11.1351111,18 C11.1733333,18 11.208,17.9858571 11.2328889,17.9630714 L13,16.3429286 L13,8.59892857 Z" id="Shape" fill="#7FA4A9"></path>
                        <path d="M1.2,3 L0,3 L0,2.2 C0,0.9864 0.9864,0 2.2,0 L3,0 L3,1.2 L2.2,1.2 C1.6488,1.2 1.2,1.6488 1.2,2.2 L1.2,3 Z" id="Shape" fill="#000000"></path>
                        <path d="M16,3 L14.8,3 L14.8,2.2 C14.8,1.6488 14.3512,1.2 13.8,1.2 L13,1.2 L13,0 L13.8,0 C15.0136,0 16,0.9864 16,2.2 L16,3 Z" id="Shape" fill="#000000"></path>
                        <polygon id="Shape" fill="#000000" points="6 0 10 0 10 1 6 1"></polygon>
                        <polygon id="Shape" fill="#000000" points="6 15 8 15 8 16 6 16"></polygon>
                        <path d="M3,16 L2.2,16 C0.9864,16 0,15.0136 0,13.8 L0,13 L1.2,13 L1.2,13.8 C1.2,14.3512 1.6488,14.8 2.2,14.8 L3,14.8 L3,16 Z" id="Shape" fill="#000000"></path>
                        <polygon id="Shape" fill="#000000" points="0 6 1 6 1 10 0 10"></polygon>
                        <polygon id="Shape" fill="#000000" points="15 6 16 6 16 8 15 8"></polygon>
                        <path d="M10.7223063,19 C10.3235163,19 10,18.6864516 10,18.3016774 L10,7.69832258 C10,7.31277419 10.3243171,7 10.7223063,7 C10.915295,7 11.0962719,7.07277419 11.2332058,7.2043871 L18.7869917,14.508129 C18.9223241,14.6381935 19,14.8178065 19,15.0028387 C19,15.3883871 18.6756829,15.7011613 18.2776937,15.7011613 L14.3202242,15.7011613 L11.2428152,18.7863226 C11.1026782,18.9233548 10.915295,19 10.7223063,19 Z M11.2011745,8.81548387 L11.2011745,17.1543226 L13.6323516,14.7171613 C13.7460628,14.604129 13.9014147,14.539871 14.0647744,14.539871 L17.1221639,14.539871 L11.2011745,8.81548387 Z" id="Shape" fill="#000000"></path>
                    </g>
                </g>
            </g>
        </g>
    </g>
</svg>