<?xml version="1.0" encoding="UTF-8"?>
<svg width="19px" height="19px" viewBox="0 0 19 19" version="1.1" xmlns="http://www.w3.org/2000/svg" xmlns:xlink="http://www.w3.org/1999/xlink">
    <!-- Generator: Sketch 51.3 (57544) - http://www.bohemiancoding.com/sketch -->
    <title>selection</title>
    <desc>Created with Sketch.</desc>
    <defs></defs>
    <g id="Page-1" stroke="none" stroke-width="1" fill="none" fill-rule="evenodd">
        <g id="eReports-Create-drag-and-drop" transform="translate(-1090.000000, -678.000000)" fill-rule="nonzero">
            <g id="selection" transform="translate(1090.000000, 678.000000)">
                <path d="M18.9638567,14.4485714 L11.2135743,7.03535714 C11.190574,7.01335714 11.1593593,7 11.1248588,7 C11.0558579,7 11,7.05342857 11,7.11942857 L11,17.8805714 C11,17.9465714 11.0558579,18 11.1248588,18 C11.1601807,18 11.1922169,17.9858571 11.2152172,17.9630714 L14.5535476,14.6520714 L18.8743197,14.6520714 L18.8751412,14.6520714 C18.9441421,14.6520714 19,14.5986429 19,14.5326429 C19,14.5004286 18.9860355,14.4705714 18.9638567,14.4485714 Z" id="Shape" fill="#94C0C6"></path>
                <path d="M13,8.59892857 L11.2311111,7.03535714 C11.2062222,7.01335714 11.1724444,7 11.1351111,7 C11.0604444,7 11,7.05342857 11,7.11942857 L11,17.8805714 C11,17.9465714 11.0604444,18 11.1351111,18 C11.1733333,18 11.208,17.9858571 11.2328889,17.9630714 L13,16.3429286 L13,8.59892857 Z" id="Shape" fill="#7FA4A9"></path>
                <path d="M1.2,3 L0,3 L0,2.2 C0,0.9864 0.9864,0 2.2,0 L13.7648926,0 L13.7648926,1.2 L2.2,1.2 C1.6488,1.2 1.2,1.6488 1.2,2.2 L1.2,3 Z" id="Shape" fill="#000000"></path>
                <path d="M16,9.66394043 L14.8,9.66394043 L14.8,2.2 C14.8,1.6488 14.3512,1.2 13.8,1.2 L13,1.2 L13,0 L13.8,0 C15.0136,0 16,0.9864 16,2.2 L16,9.66394043 Z" id="Shape" fill="#000000"></path>
                <polygon id="Shape" fill="#000000" points="6 15 8 15 8 16 6 16"></polygon>
                <path d="M8.93591309,16 L2.2,16 C0.9864,16 0,15.0136 0,13.8 L0,2.72558594 L1.2,2.72558594 L1.2,13.8 C1.2,14.3512 1.6488,14.8 2.2,14.8 L8.93591309,14.8 L8.93591309,16 Z" id="Shape" fill="#000000"></path>
                <polygon id="Shape" fill="#000000" points="15 6 16 6 16 8 15 8"></polygon>
                <path d="M10.7223063,19 C10.3235163,19 10,18.6864516 10,18.3016774 L10,7.69832258 C10,7.31277419 10.3243171,7 10.7223063,7 C10.915295,7 11.0962719,7.07277419 11.2332058,7.2043871 L18.7869917,14.508129 C18.9223241,14.6381935 19,14.8178065 19,15.0028387 C19,15.3883871 18.6756829,15.7011613 18.2776937,15.7011613 L14.3202242,15.7011613 L11.2428152,18.7863226 C11.1026782,18.9233548 10.915295,19 10.7223063,19 Z M11.2011745,8.81548387 L11.2011745,17.1543226 L13.6323516,14.7171613 C13.7460628,14.604129 13.9014147,14.539871 14.0647744,14.539871 L17.1221639,14.539871 L11.2011745,8.81548387 Z" id="Shape" fill="#000000"></path>
            </g>
        </g>
    </g>
</svg>