<?xml version="1.0" encoding="UTF-8"?>
<svg width="35px" height="11px" viewBox="0 0 35 11" version="1.1" xmlns="http://www.w3.org/2000/svg" xmlns:xlink="http://www.w3.org/1999/xlink">
    <!-- Generator: Sketch 51.3 (57544) - http://www.bohemiancoding.com/sketch -->
    <title>Group 7</title>
    <desc>Created with Sketch.</desc>
    <defs></defs>
    <g id="Page-1" stroke="none" stroke-width="1" fill="none" fill-rule="evenodd">
        <g id="eReports-dynamic-field-polja-01" transform="translate(-1202.000000, -1801.000000)" fill="#FFFFFF" fill-rule="nonzero">
            <g id="Group-12" transform="translate(1190.000000, 1789.000000)">
                <g id="Group-7" transform="translate(12.000000, 12.000000)">
                    <g id="menu-(1)">
                        <g id="view">
                            <path d="M11.696517,5.35677083 C11.696517,4.83463338 11.2738079,4.41145833 10.7526571,4.41145833 L1.03090021,4.41145833 C0.509565099,4.41145833 0.0870403189,4.83463338 0.0870403189,5.35677083 C0.0870403189,5.87890828 0.509565099,6.30208333 1.03090021,6.30208333 L10.7526571,6.30208333 C11.2738079,6.30208333 11.696517,5.87890828 11.696517,5.35677083 Z M11.696517,1.57552083 C11.696517,1.05338338 11.2738079,0.630208333 10.7526571,0.630208333 L1.03090021,0.630208333 C0.509565099,0.630208333 0.0870403189,1.05338338 0.0870403189,1.57552083 C0.0870403189,2.09765828 0.509565099,2.52083333 1.03090021,2.52083333 L10.7526571,2.52083333 C11.2738079,2.52083333 11.696517,2.09765828 11.696517,1.57552083 Z M1.03090021,8.19270833 C0.509565099,8.19270833 0.0870403189,8.61588338 0.0870403189,9.13802083 C0.0870403189,9.66015828 0.509565099,10.0833333 1.03090021,10.0833333 L7.78953854,10.0833333 C8.31087366,10.0833333 8.73339844,9.66015828 8.73339844,9.13802083 C8.73339844,8.61588338 8.31087366,8.19270833 7.78953854,8.19270833 L1.03090021,8.19270833 Z" id="Shape"></path>
                        </g>
                    </g>
                    <g id="next-(4)" transform="translate(28.500000, 6.000000) rotate(90.000000) translate(-28.500000, -6.000000) translate(25.000000, 0.000000)">
                        <path d="M6.80993999,5.5317599 L1.50758316,0.191705758 C1.38494612,0.0680970073 1.22123632,0 1.04667712,0 C0.872117919,0 0.708408124,0.0680970073 0.585771083,0.191705758 L0.195289317,0.584873294 C-0.0587999086,0.841066333 -0.0587999086,1.25745319 0.195289317,1.51325599 L4.64780826,5.99751222 L0.190348963,10.486744 C0.0677119211,10.6103528 0,10.7751319 0,10.9508378 C0,11.1267388 0.0677119211,11.291518 0.190348963,11.4152243 L0.580830728,11.8082942 C0.703564639,11.931903 0.867177564,12 1.04173677,12 C1.21629597,12 1.38000576,11.931903 1.5026428,11.8082942 L6.80993999,6.46336209 C6.93286764,6.33936309 7.00038582,6.17380347 6.99999834,5.9978049 C7.00038582,5.82112341 6.93286764,5.65566134 6.80993999,5.5317599 Z" id="Shape"></path>
                    </g>
                </g>
            </g>
        </g>
    </g>
</svg>