<?xml version="1.0" encoding="UTF-8"?>
<svg width="15px" height="15px" viewBox="0 0 15 15" version="1.1" xmlns="http://www.w3.org/2000/svg" xmlns:xlink="http://www.w3.org/1999/xlink">
    <!-- Generator: Sketch 51.3 (57544) - http://www.bohemiancoding.com/sketch -->
    <title>Group 17</title>
    <desc>Created with Sketch.</desc>
    <defs></defs>
    <g id="Page-1" stroke="none" stroke-width="1" fill="none" fill-rule="evenodd">
        <g id="eReports-Thesaurus-administrative-data" transform="translate(-972.000000, -122.000000)">
            <g id="Group-17" transform="translate(972.000000, 122.000000)">
                <g id="edit_pencil_03" transform="translate(1.000000, 1.000000)">
                    <circle id="Oval-2" fill="#DEF9FD" cx="6.5" cy="6.5" r="6.5"></circle>
                    <g id="edit-(6)" transform="translate(3.000000, 3.000000)" fill="#1C94A3" fill-rule="nonzero">
                        <polygon id="Shape" points="0.777777778 4.76292274 0.396674262 6.68630642 2.23611111 6.22125608 5.76138281 2.69596615 4.30304948 1.23763281"></polygon>
                        <path d="M6.88528385,1.02179948 L5.97721615,0.11375 C5.82554948,-0.0379166667 5.57859896,-0.0379166667 5.42693229,0.11375 L4.71526562,0.825416667 L6.17359896,2.28375 L6.88526562,1.57208333 C7.03695052,1.42041667 7.03695052,1.17346615 6.88528385,1.02179948 Z" id="Shape"></path>
                    </g>
                </g>
                <g id="correct-(7)" fill="#1C94A3" fill-rule="nonzero">
                    <path d="M15,7.5 C15,11.6456222 11.64505,15 7.5,15 C3.35437775,15 0,11.64505 0,7.5 C0,3.35437775 3.35494995,0 7.5,0 C11.6456222,0 15,3.35494995 15,7.5 Z M13.828125,7.5 C13.828125,4.00211335 10.9974289,1.171875 7.5,1.171875 C4.00211335,1.171875 1.171875,4.00257111 1.171875,7.5 C1.171875,10.9978867 4.00257111,13.828125 7.5,13.828125 C10.9978867,13.828125 13.828125,10.9974289 13.828125,7.5 Z" id="Shape"></path>
                </g>
            </g>
        </g>
    </g>
</svg>