<?xml version="1.0" encoding="UTF-8"?>
<svg width="20px" height="20px" viewBox="0 0 20 20" version="1.1" xmlns="http://www.w3.org/2000/svg" xmlns:xlink="http://www.w3.org/1999/xlink">
    <!-- Generator: Sketch 51.3 (57544) - http://www.bohemiancoding.com/sketch -->
    <title>Group 5</title>
    <desc>Created with Sketch.</desc>
    <defs></defs>
    <g id="Page-2" stroke="none" stroke-width="1" fill="none" fill-rule="evenodd">
        <g id="eReports-editing-modal-" transform="translate(-234.000000, -172.000000)" fill="#1C94A3" fill-rule="nonzero">
            <g id="Group-5" transform="translate(234.000000, 172.000000)">
                <g id="focus">
                    <path d="M0.573474932,8 C0.890206087,8 1.14694986,7.73371093 1.14694986,7.40520425 L1.14694986,2.52786771 C1.14694986,1.69513089 1.92113279,1.1895915 2.72401965,1.1895915 L7.42652507,1.1895915 C7.74325622,1.1895915 8,0.923302429 8,0.594795751 C8,0.266289073 7.74325622,0 7.42652507,0 L2.72401965,0 C1.29030488,1.61944884e-17 0,1.04090679 0,2.52786771 L0,7.40520425 C0,7.733654 0.256743778,8 0.573474932,8 Z" id="Shape"></path>
                    <path d="M17.7139716,0.00311533681 C17.6326596,-0.0010384456 17.5512339,-0.0010384456 17.4699788,0.00311533681 L12.5945617,0.00311533681 C12.2661843,0.00311533681 12,0.269298818 12,0.597675233 C12,0.926051648 12.2661843,1.19223513 12.5945617,1.19223513 L17.4699788,1.19223513 C18.157631,1.14108101 18.7565741,1.65706045 18.8077284,2.3447675 C18.8123374,2.40644832 18.8123374,2.46835675 18.8077284,2.53003757 L18.8077284,7.4054401 C18.8077284,7.73381652 19.0739127,8 19.4022901,8 C19.7306675,8 19.9968517,7.73381652 19.9968517,7.4054401 L19.9968517,2.52998067 C20.0642229,1.20179452 19.0421617,0.0704862735 17.7139716,0.00311533681 Z" id="Shape"></path>
                    <path d="M19.4052042,12 C19.0766976,12 18.8104085,12.2567438 18.8104085,12.5734749 L18.8104085,17.2759804 C18.8104085,18.0788672 18.3048122,18.8530501 17.4721323,18.8530501 L12.5947958,18.8530501 C12.2662891,18.8530501 12,19.1097939 12,19.4265251 C12,19.7432562 12.2662891,20 12.5947958,20 L17.4721323,20 C18.9590932,20 20,18.7096951 20,17.2759804 L20,12.5734749 C20,12.2567987 19.7337109,12 19.4052042,12 Z" id="Shape"></path>
                    <path d="M7.42647018,18.8530501 L2.72401965,18.8530501 C1.87151834,18.8099668 1.1900332,18.1284817 1.14694986,17.2759804 L1.14694986,12.5734749 C1.14694986,12.2567438 0.890206087,12 0.573474932,12 C0.256743778,12 0,12.2567987 0,12.5734749 L0,17.2759804 C0.0448396037,18.76145 1.23854998,19.9551604 2.72401965,20 L7.42652507,20 C7.74325622,20 8,19.7432562 8,19.4265251 C8,19.1097939 7.74320134,18.8530501 7.42647018,18.8530501 Z" id="Shape"></path>
                </g>
                <g id="edit-(6)" transform="translate(5.000000, 5.000000)">
                    <polygon id="Shape" points="1.11111111 6.80417535 0.566677517 9.55186632 3.19444444 8.88750868 8.23054687 3.85138021 6.14721354 1.76804688"></polygon>
                    <path d="M9.83611979,1.45971354 L8.53888021,0.1625 C8.32221354,-0.0541666667 7.96942708,-0.0541666667 7.75276042,0.1625 L6.73609375,1.17916667 L8.81942708,3.2625 L9.83609375,2.24583333 C10.0527865,2.02916667 10.0527865,1.67638021 9.83611979,1.45971354 Z" id="Shape"></path>
                </g>
            </g>
        </g>
    </g>
</svg>