<?xml version="1.0" encoding="UTF-8"?>
<svg width="15px" height="15px" viewBox="0 0 15 15" version="1.1" xmlns="http://www.w3.org/2000/svg" xmlns:xlink="http://www.w3.org/1999/xlink">
    <!-- Generator: Sketch 51.3 (57544) - http://www.bohemiancoding.com/sketch -->
    <title>Group 5</title>
    <desc>Created with Sketch.</desc>
    <defs></defs>
    <g id="Page-2" stroke="none" stroke-width="1" fill="none" fill-rule="evenodd">
        <g id="eReports-relation-2" transform="translate(-578.000000, -397.000000)" fill-rule="nonzero">
            <g id="Group-15" transform="translate(75.000000, 171.000000)">
                <g id="Group-5" transform="translate(503.000000, 226.000000)">
                    <g id="Group-27" fill="#FFFFFF" stroke="#1C94A3">
                        <path d="M12.4521443,2.54793153 C9.72102551,-0.182650039 5.2784645,-0.182643842 2.5474296,2.54787396 C-0.182476534,5.27843926 -0.182476534,9.72235947 2.54731625,12.4528114 C3.87658669,13.7815506 5.65218334,14.5 7.5000806,14.5 C9.34777902,14.5 11.1228092,13.7816444 12.4521275,12.452884 C15.1826183,9.72236327 15.1826245,5.27848919 12.4521443,2.54793153 Z M12.4521443,2.54793153 C12.4521381,2.54792533 12.4521319,2.54791913 12.4521257,2.54791293 L12.4521629,2.54795012 C12.4521567,2.54794392 12.4521505,2.54793772 12.4521443,2.54793153 Z" id="Shape"></path>
                    </g>
                    <g id="edit-(6)" transform="translate(4.000000, 4.000000)" fill="#1C94A3">
                        <polygon id="Shape" points="0.777777778 4.76292274 0.396674262 6.68630642 2.23611111 6.22125608 5.76138281 2.69596615 4.30304948 1.23763281"></polygon>
                        <path d="M6.88528385,1.02179948 L5.97721615,0.11375 C5.82554948,-0.0379166667 5.57859896,-0.0379166667 5.42693229,0.11375 L4.71526562,0.825416667 L6.17359896,2.28375 L6.88526562,1.57208333 C7.03695052,1.42041667 7.03695052,1.17346615 6.88528385,1.02179948 Z" id="Shape"></path>
                    </g>
                </g>
            </g>
        </g>
    </g>
</svg>