<?xml version="1.0" encoding="UTF-8"?>
<svg width="10px" height="10px" viewBox="0 0 10 10" version="1.1" xmlns="http://www.w3.org/2000/svg" xmlns:xlink="http://www.w3.org/1999/xlink">
    <!-- Generator: Sketch 51.3 (57544) - http://www.bohemiancoding.com/sketch -->
    <title>edit (9)</title>
    <desc>Created with Sketch.</desc>
    <defs></defs>
    <g id="Page-2" stroke="none" stroke-width="1" fill="none" fill-rule="evenodd">
        <g id="sReports-User-2.0" transform="translate(-1216.000000, -269.000000)" fill="#B8B8B8" fill-rule="nonzero">
            <g id="edit-(9)" transform="translate(1216.000000, 269.000000)">
                <path d="M10,1.30822581 C10,0.585698925 9.41430108,0 8.69177419,0 L1.30822581,0 C0.585698925,0 0,0.585698925 0,1.30822581 L0,8.69172043 C0,9.41430108 0.585698925,10 1.30822581,10 L8.69172043,10 C9.41430108,10 10,9.41430108 10,8.69177419 L10,1.30822581 Z M2.24467742,8.16569892 C2.02801075,8.2238172 1.82973118,8.02553763 1.88784946,7.80887097 L2.24715054,6.46962366 L3.58387097,7.80634409 L2.24467742,8.16569892 Z M8.01752688,3.29532258 L4.06139785,7.25150538 L2.73080645,5.92091398 L6.68693548,1.96478495 C6.87456989,1.77715054 7.17870968,1.77715054 7.36634409,1.96478495 L8.01752688,2.61596774 C8.20510753,2.80354839 8.20510753,3.10768817 8.01752688,3.29532258 Z" id="Shape"></path>
            </g>
        </g>
    </g>
</svg>