<?xml version="1.0" encoding="UTF-8"?>
<svg width="20px" height="14px" viewBox="0 0 20 14" version="1.1" xmlns="http://www.w3.org/2000/svg" xmlns:xlink="http://www.w3.org/1999/xlink">
    <!-- Generator: Sketch 51.3 (57544) - http://www.bohemiancoding.com/sketch -->
    <title>shake-hands</title>
    <desc>Created with Sketch.</desc>
    <defs></defs>
    <g id="Page-1" stroke="none" stroke-width="1" fill="none" fill-rule="evenodd">
        <g id="eReports-Patients-open-menu" transform="translate(-63.000000, -423.000000)" fill="#000000">
            <g id="shake-hands" transform="translate(63.000000, 423.000000)">
                <path d="M20,10.7105251 L20,2.37323103 L12.9315625,2.37323103 L12.9315625,1.779449 C12.9315625,0.798270055 12.1426172,0 11.1728516,0 L7.38015625,0 L5.03449219,2.37323103 L0,2.37323103 L0,10.7105251 L2.345625,10.7105251 L5.03449219,10.7105251 C7.93120697,12.9035084 9.41011733,14 9.47122325,14 L10.6978176,14 L17.1997656,10.7105251 L20,10.7105251 Z M16.4825,8.6486897 L12.7639063,4.74642253 L9.75730469,4.74642253 L7.64777344,6.88078119 C7.53691406,6.99290576 7.38957031,7.05467901 7.23277344,7.05467901 C7.07601563,7.05467901 6.92867188,6.99290576 6.8178125,6.88074166 C6.70695313,6.76861709 6.6459375,6.6194997 6.6459375,6.46089699 C6.6459375,6.30229427 6.70699219,6.15317688 6.8178125,6.04101279 L9.27109375,3.55885848 L16.4825,3.55885848 L16.4825,8.6486897 Z M18.828125,9.52485807 L17.654375,9.52485807 L17.654375,3.55889801 L18.828125,3.55889801 L18.828125,9.52485807 Z M5.51988281,3.55889801 L7.86554688,1.18566698 L11.1728516,1.18566698 C11.4964453,1.18566698 11.7596875,1.45204683 11.7596875,1.779449 L11.7596875,2.37323103 L8.78570313,2.37323103 L5.98917969,5.20266719 C5.65699219,5.53876425 5.47402344,5.98564214 5.47402344,6.46093651 C5.47402344,6.93623088 5.65699219,7.38310876 5.98917969,7.71916631 C6.32132813,8.05526337 6.76300781,8.24038551 7.23277344,8.24038551 C7.70257813,8.24038551 8.14425781,8.05526337 8.47640625,7.71916631 L10.2426953,5.93208951 L12.2659375,5.93208951 L16.0797656,9.93426888 L10.0589453,12.8095904 L5.46328125,9.52485807 L3.5175,9.52485807 L3.5175,3.55889801 L5.51988281,3.55889801 Z M1.171875,3.55889801 L2.345625,3.55889801 L2.345625,9.52485807 L1.171875,9.52485807 L1.171875,3.55889801 Z" id="Shape"></path>
            </g>
        </g>
    </g>
</svg>