<?xml version="1.0" encoding="UTF-8"?>
<svg width="17px" height="18px" viewBox="0 0 17 18" version="1.1" xmlns="http://www.w3.org/2000/svg" xmlns:xlink="http://www.w3.org/1999/xlink">
    <!-- Generator: Sketch 51.3 (57544) - http://www.bohemiancoding.com/sketch -->
    <title>Fill 1157</title>
    <desc>Created with Sketch.</desc>
    <defs></defs>
    <g id="Page-1" stroke="none" stroke-width="1" fill="none" fill-rule="evenodd">
        <g id="eReports-Patients-open-menu" transform="translate(-66.000000, -175.000000)" fill="#000000">
            <path d="M74.3071754,176.5 C74.1196754,176.5 73.9329254,176.50675 73.7484254,176.52025 C73.5256754,176.53675 73.2894254,176.731 73.2406754,177.06775 L73.1694254,177.5575 C73.0471754,178.4005 72.4689254,179.02675 71.8261754,179.37175 C71.7294254,179.4235 71.6349254,179.479 71.5419254,179.536 C70.9209254,179.92225 70.0891754,180.10975 69.2979254,179.794 L68.8374254,179.61025 C68.5209254,179.48425 68.2351754,179.59075 68.1084254,179.776 C67.8991754,180.08275 67.7116754,180.406 67.5489254,180.74425 C67.4514254,180.94525 67.5016754,181.24525 67.7686754,181.456 L68.1609254,181.76575 C68.8284254,182.29225 69.0826754,183.1045 69.0594254,183.83425 L69.0571754,184 L69.0594254,184.16575 C69.0826754,184.8955 68.8284254,185.70775 68.1609254,186.23425 L67.7686754,186.544 C67.5016754,186.75475 67.4514254,187.05475 67.5489254,187.25575 C67.7116754,187.594 67.8991754,187.91725 68.1084254,188.224 C68.2351754,188.40925 68.5209254,188.51575 68.8374254,188.38975 L69.2979254,188.206 C70.0891754,187.89025 70.9209254,188.0785 71.5419254,188.464 C71.6349254,188.521 71.7294254,188.5765 71.8261754,188.62825 C72.4689254,188.97325 73.0471754,189.5995 73.1694254,190.4425 L73.2406754,190.93225 C73.2894254,191.269 73.5256754,191.46325 73.7484254,191.47975 C73.9329254,191.49325 74.1196754,191.5 74.3071754,191.5 C74.4946754,191.5 74.6814254,191.49325 74.8659254,191.47975 C75.0894254,191.46325 75.3249254,191.269 75.3736754,190.93225 L75.4449254,190.4425 C75.5671754,189.5995 76.1454254,188.97325 76.7881754,188.62825 C76.8849254,188.5765 76.9794254,188.521 77.0731754,188.464 C77.6934254,188.0785 78.5251754,187.89025 79.3164254,188.206 L79.7769254,188.38975 C80.0934254,188.51575 80.3791754,188.40925 80.5059254,188.224 C80.7151754,187.91725 80.9026754,187.59325 81.0654254,187.25575 C81.1629254,187.05475 81.1126754,186.75475 80.8456754,186.544 L80.4534254,186.23425 C79.7859254,185.70775 79.5316754,184.8955 79.5549254,184.16575 L79.5571754,184 L79.5549254,183.83425 C79.5316754,183.1045 79.7859254,182.29225 80.4534254,181.76575 L80.8456754,181.456 C81.1126754,181.24525 81.1629254,180.94525 81.0654254,180.74425 C80.9026754,180.40675 80.7151754,180.08275 80.5059254,179.776 C80.3791754,179.59075 80.0934254,179.48425 79.7769254,179.61025 L79.3164254,179.794 C78.5251754,180.10975 77.6934254,179.92225 77.0731754,179.536 C76.9794254,179.479 76.8849254,179.4235 76.7881754,179.37175 C76.1454254,179.02675 75.5671754,178.4005 75.4449254,177.5575 L75.3736754,177.06775 C75.3249254,176.731 75.0894254,176.53675 74.8659254,176.52025 C74.6814254,176.50675 74.4946754,176.5 74.3071754,176.5 Z M73.6389254,175.02475 C73.8594254,175.00825 74.0821754,175 74.3071754,175 C74.5321754,175 74.7549254,175.00825 74.9754254,175.02475 C76.0141754,175.1005 76.7251754,175.9375 76.8579254,176.8525 L76.9291754,177.34225 C76.9666754,177.60025 77.1601754,177.86875 77.4976754,178.05025 C77.6221754,178.117 77.7444254,178.1875 77.8636754,178.2625 C78.1891754,178.46425 78.5184254,178.49725 78.7606754,178.4005 L79.2219254,178.21675 C80.0791754,177.87475 81.1576754,178.072 81.7441754,178.93 C81.9954254,179.29825 82.2211754,179.68675 82.4169254,180.09175 C82.8691754,181.02925 82.4994254,182.06275 81.7741754,182.63425 L81.3826754,182.94325 C81.1779254,183.1045 81.0421754,183.406 81.0541754,183.78775 C81.0564254,183.85825 81.0571754,183.92875 81.0571754,184 C81.0571754,184.07125 81.0564254,184.14175 81.0541754,184.21225 C81.0421754,184.594 81.1779254,184.8955 81.3826754,185.05675 L81.7741754,185.36575 C82.4994254,185.93725 82.8691754,186.97075 82.4169254,187.90825 C82.2211754,188.31325 81.9954254,188.70175 81.7441754,189.07 C81.1576754,189.928 80.0791754,190.12525 79.2219254,189.78325 L78.7606754,189.5995 C78.5184254,189.50275 78.1891754,189.53575 77.8636754,189.7375 C77.7444254,189.8125 77.6221754,189.883 77.4976754,189.94975 C77.1601754,190.13125 76.9666754,190.39975 76.9291754,190.65775 L76.8579254,191.1475 C76.7251754,192.0625 76.0141754,192.8995 74.9754254,192.97525 C74.7549254,192.99175 74.5321754,193 74.3071754,193 C74.0821754,193 73.8594254,192.99175 73.6389254,192.97525 C72.6009254,192.8995 71.8891754,192.0625 71.7564254,191.1475 L71.6851754,190.65775 C71.6476754,190.39975 71.4541754,190.13125 71.1166754,189.94975 C70.9921754,189.883 70.8699254,189.8125 70.7506754,189.7375 C70.4251754,189.53575 70.0959254,189.50275 69.8536754,189.5995 L69.3924254,189.78325 C68.5351754,190.12525 67.4566754,189.928 66.8701754,189.07 C66.6189254,188.70175 66.3931754,188.31325 66.1981754,187.90825 C65.7451754,186.97075 66.1149254,185.93725 66.8401754,185.36575 L67.2316754,185.05675 C67.4364254,184.8955 67.5721754,184.594 67.5601754,184.21225 C67.5579254,184.14175 67.5571754,184.07125 67.5571754,184 C67.5571754,183.92875 67.5579254,183.85825 67.5601754,183.78775 C67.5721754,183.406 67.4364254,183.1045 67.2316754,182.94325 L66.8401754,182.63425 C66.1149254,182.06275 65.7451754,181.02925 66.1981754,180.09175 C66.3931754,179.68675 66.6189254,179.29825 66.8701754,178.93 C67.4566754,178.072 68.5351754,177.87475 69.3924254,178.21675 L69.8536754,178.4005 C70.0959254,178.49725 70.4251754,178.46425 70.7506754,178.2625 C70.8699254,178.1875 70.9921754,178.117 71.1166754,178.05025 C71.4541754,177.86875 71.6476754,177.60025 71.6851754,177.34225 L71.7564254,176.8525 C71.8891754,175.9375 72.6009254,175.1005 73.6389254,175.02475 Z M74.3071754,181.75 C73.0644254,181.75 72.0571754,182.75725 72.0571754,184 C72.0571754,185.24275 73.0644254,186.25 74.3071754,186.25 C75.5499254,186.25 76.5571754,185.24275 76.5571754,184 C76.5571754,182.75725 75.5499254,181.75 74.3071754,181.75 Z M70.5571754,184 C70.5571754,181.92925 72.2356754,180.25 74.3071754,180.25 C76.3779254,180.25 78.0571754,181.92925 78.0571754,184 C78.0571754,186.07075 76.3779254,187.75 74.3071754,187.75 C72.2356754,187.75 70.5571754,186.07075 70.5571754,184 Z" id="Fill-1157"></path>
        </g>
    </g>
</svg>