<?xml version="1.0" encoding="UTF-8"?>
<svg width="17px" height="18px" viewBox="0 0 17 18" version="1.1" xmlns="http://www.w3.org/2000/svg" xmlns:xlink="http://www.w3.org/1999/xlink">
    <!-- Generator: Sketch 51.3 (57544) - http://www.bohemiancoding.com/sketch -->
    <title>Fill 1157</title>
    <desc>Created with Sketch.</desc>
    <defs></defs>
    <g id="Page-1" stroke="none" stroke-width="1" fill="none" fill-rule="evenodd">
        <g id="eReports-Patients-open-menu" transform="translate(-16.000000, -175.000000)" fill="#A5B2B3">
            <path d="M24.3071754,176.5 C24.1196754,176.5 23.9329254,176.50675 23.7484254,176.52025 C23.5256754,176.53675 23.2894254,176.731 23.2406754,177.06775 L23.1694254,177.5575 C23.0471754,178.4005 22.4689254,179.02675 21.8261754,179.37175 C21.7294254,179.4235 21.6349254,179.479 21.5419254,179.536 C20.9209254,179.92225 20.0891754,180.10975 19.2979254,179.794 L18.8374254,179.61025 C18.5209254,179.48425 18.2351754,179.59075 18.1084254,179.776 C17.8991754,180.08275 17.7116754,180.406 17.5489254,180.74425 C17.4514254,180.94525 17.5016754,181.24525 17.7686754,181.456 L18.1609254,181.76575 C18.8284254,182.29225 19.0826754,183.1045 19.0594254,183.83425 L19.0571754,184 L19.0594254,184.16575 C19.0826754,184.8955 18.8284254,185.70775 18.1609254,186.23425 L17.7686754,186.544 C17.5016754,186.75475 17.4514254,187.05475 17.5489254,187.25575 C17.7116754,187.594 17.8991754,187.91725 18.1084254,188.224 C18.2351754,188.40925 18.5209254,188.51575 18.8374254,188.38975 L19.2979254,188.206 C20.0891754,187.89025 20.9209254,188.0785 21.5419254,188.464 C21.6349254,188.521 21.7294254,188.5765 21.8261754,188.62825 C22.4689254,188.97325 23.0471754,189.5995 23.1694254,190.4425 L23.2406754,190.93225 C23.2894254,191.269 23.5256754,191.46325 23.7484254,191.47975 C23.9329254,191.49325 24.1196754,191.5 24.3071754,191.5 C24.4946754,191.5 24.6814254,191.49325 24.8659254,191.47975 C25.0894254,191.46325 25.3249254,191.269 25.3736754,190.93225 L25.4449254,190.4425 C25.5671754,189.5995 26.1454254,188.97325 26.7881754,188.62825 C26.8849254,188.5765 26.9794254,188.521 27.0731754,188.464 C27.6934254,188.0785 28.5251754,187.89025 29.3164254,188.206 L29.7769254,188.38975 C30.0934254,188.51575 30.3791754,188.40925 30.5059254,188.224 C30.7151754,187.91725 30.9026754,187.59325 31.0654254,187.25575 C31.1629254,187.05475 31.1126754,186.75475 30.8456754,186.544 L30.4534254,186.23425 C29.7859254,185.70775 29.5316754,184.8955 29.5549254,184.16575 L29.5571754,184 L29.5549254,183.83425 C29.5316754,183.1045 29.7859254,182.29225 30.4534254,181.76575 L30.8456754,181.456 C31.1126754,181.24525 31.1629254,180.94525 31.0654254,180.74425 C30.9026754,180.40675 30.7151754,180.08275 30.5059254,179.776 C30.3791754,179.59075 30.0934254,179.48425 29.7769254,179.61025 L29.3164254,179.794 C28.5251754,180.10975 27.6934254,179.92225 27.0731754,179.536 C26.9794254,179.479 26.8849254,179.4235 26.7881754,179.37175 C26.1454254,179.02675 25.5671754,178.4005 25.4449254,177.5575 L25.3736754,177.06775 C25.3249254,176.731 25.0894254,176.53675 24.8659254,176.52025 C24.6814254,176.50675 24.4946754,176.5 24.3071754,176.5 Z M23.6389254,175.02475 C23.8594254,175.00825 24.0821754,175 24.3071754,175 C24.5321754,175 24.7549254,175.00825 24.9754254,175.02475 C26.0141754,175.1005 26.7251754,175.9375 26.8579254,176.8525 L26.9291754,177.34225 C26.9666754,177.60025 27.1601754,177.86875 27.4976754,178.05025 C27.6221754,178.117 27.7444254,178.1875 27.8636754,178.2625 C28.1891754,178.46425 28.5184254,178.49725 28.7606754,178.4005 L29.2219254,178.21675 C30.0791754,177.87475 31.1576754,178.072 31.7441754,178.93 C31.9954254,179.29825 32.2211754,179.68675 32.4169254,180.09175 C32.8691754,181.02925 32.4994254,182.06275 31.7741754,182.63425 L31.3826754,182.94325 C31.1779254,183.1045 31.0421754,183.406 31.0541754,183.78775 C31.0564254,183.85825 31.0571754,183.92875 31.0571754,184 C31.0571754,184.07125 31.0564254,184.14175 31.0541754,184.21225 C31.0421754,184.594 31.1779254,184.8955 31.3826754,185.05675 L31.7741754,185.36575 C32.4994254,185.93725 32.8691754,186.97075 32.4169254,187.90825 C32.2211754,188.31325 31.9954254,188.70175 31.7441754,189.07 C31.1576754,189.928 30.0791754,190.12525 29.2219254,189.78325 L28.7606754,189.5995 C28.5184254,189.50275 28.1891754,189.53575 27.8636754,189.7375 C27.7444254,189.8125 27.6221754,189.883 27.4976754,189.94975 C27.1601754,190.13125 26.9666754,190.39975 26.9291754,190.65775 L26.8579254,191.1475 C26.7251754,192.0625 26.0141754,192.8995 24.9754254,192.97525 C24.7549254,192.99175 24.5321754,193 24.3071754,193 C24.0821754,193 23.8594254,192.99175 23.6389254,192.97525 C22.6009254,192.8995 21.8891754,192.0625 21.7564254,191.1475 L21.6851754,190.65775 C21.6476754,190.39975 21.4541754,190.13125 21.1166754,189.94975 C20.9921754,189.883 20.8699254,189.8125 20.7506754,189.7375 C20.4251754,189.53575 20.0959254,189.50275 19.8536754,189.5995 L19.3924254,189.78325 C18.5351754,190.12525 17.4566754,189.928 16.8701754,189.07 C16.6189254,188.70175 16.3931754,188.31325 16.1981754,187.90825 C15.7451754,186.97075 16.1149254,185.93725 16.8401754,185.36575 L17.2316754,185.05675 C17.4364254,184.8955 17.5721754,184.594 17.5601754,184.21225 C17.5579254,184.14175 17.5571754,184.07125 17.5571754,184 C17.5571754,183.92875 17.5579254,183.85825 17.5601754,183.78775 C17.5721754,183.406 17.4364254,183.1045 17.2316754,182.94325 L16.8401754,182.63425 C16.1149254,182.06275 15.7451754,181.02925 16.1981754,180.09175 C16.3931754,179.68675 16.6189254,179.29825 16.8701754,178.93 C17.4566754,178.072 18.5351754,177.87475 19.3924254,178.21675 L19.8536754,178.4005 C20.0959254,178.49725 20.4251754,178.46425 20.7506754,178.2625 C20.8699254,178.1875 20.9921754,178.117 21.1166754,178.05025 C21.4541754,177.86875 21.6476754,177.60025 21.6851754,177.34225 L21.7564254,176.8525 C21.8891754,175.9375 22.6009254,175.1005 23.6389254,175.02475 Z M24.3071754,181.75 C23.0644254,181.75 22.0571754,182.75725 22.0571754,184 C22.0571754,185.24275 23.0644254,186.25 24.3071754,186.25 C25.5499254,186.25 26.5571754,185.24275 26.5571754,184 C26.5571754,182.75725 25.5499254,181.75 24.3071754,181.75 Z M20.5571754,184 C20.5571754,181.92925 22.2356754,180.25 24.3071754,180.25 C26.3779254,180.25 28.0571754,181.92925 28.0571754,184 C28.0571754,186.07075 26.3779254,187.75 24.3071754,187.75 C22.2356754,187.75 20.5571754,186.07075 20.5571754,184 Z" id="Fill-1157"></path>
        </g>
    </g>
</svg>