<?xml version="1.0" encoding="UTF-8"?>
<svg width="16px" height="16px" viewBox="0 0 16 16" version="1.1" xmlns="http://www.w3.org/2000/svg" xmlns:xlink="http://www.w3.org/1999/xlink">
    <!-- Generator: Sketch 51.3 (57544) - http://www.bohemiancoding.com/sketch -->
    <title>Fill 1110</title>
    <desc>Created with Sketch.</desc>
    <defs></defs>
    <g id="Page-1" stroke="none" stroke-width="1" fill="none" fill-rule="evenodd">
        <g id="eReports-Patients-open-menu" transform="translate(-67.000000, -322.000000)" fill="#000000">
            <path d="M71.0450909,323.454545 C70.7112727,323.454545 70.4203636,323.682182 70.3389091,324.005091 L68.6589091,330.727273 L72.0909091,330.727273 C72.9287273,330.727273 73.4407273,331.399273 73.6247273,331.930909 C73.8225455,332.501091 74.3643636,332.909091 75,332.909091 C75.6356364,332.909091 76.1774545,332.501091 76.3752727,331.930909 C76.5592727,331.399273 77.0712727,330.727273 77.9090909,330.727273 L81.3410909,330.727273 L79.6610909,324.005091 C79.5796364,323.682182 79.2887273,323.454545 78.9549091,323.454545 L71.0450909,323.454545 Z M81.5454545,332.181818 L77.9105455,332.181818 L77.872,332.208727 C77.8290909,332.247273 77.7803636,332.317091 77.7498182,332.406545 C77.3556364,333.544727 76.2741818,334.363636 75,334.363636 C73.7258182,334.363636 72.6443636,333.544727 72.2501818,332.406545 C72.2196364,332.317091 72.1709091,332.247273 72.128,332.208727 L72.0887273,332.181818 L68.4545455,332.181818 L68.4545455,335.818182 C68.4545455,336.219636 68.7803636,336.545455 69.1818182,336.545455 L80.8181818,336.545455 C81.2196364,336.545455 81.5454545,336.219636 81.5454545,335.818182 L81.5454545,332.181818 Z M68.928,323.652364 C69.1709091,322.681455 70.0436364,322 71.0450909,322 L78.9549091,322 C79.9563636,322 80.8290909,322.681455 81.072,323.652364 L83,331.365091 L83,335.818182 C83,337.023273 82.0232727,338 80.8181818,338 L69.1818182,338 C67.9767273,338 67,337.023273 67,335.818182 L67,331.365091 L68.928,323.652364 Z M71.3636364,325.636364 C71.3636364,325.234909 71.6894545,324.909091 72.0909091,324.909091 L77.9090909,324.909091 C78.3105455,324.909091 78.6363636,325.234909 78.6363636,325.636364 C78.6363636,326.037818 78.3105455,326.363636 77.9090909,326.363636 L72.0909091,326.363636 C71.6894545,326.363636 71.3636364,326.037818 71.3636364,325.636364 Z M70.6363636,328.545455 C70.6363636,328.144 70.9621818,327.818182 71.3636364,327.818182 L78.6363636,327.818182 C79.0378182,327.818182 79.3636364,328.144 79.3636364,328.545455 C79.3636364,328.946909 79.0378182,329.272727 78.6363636,329.272727 L71.3636364,329.272727 C70.9621818,329.272727 70.6363636,328.946909 70.6363636,328.545455 Z" id="Fill-1110"></path>
        </g>
    </g>
</svg>