<?xml version="1.0" encoding="UTF-8"?>
<svg width="16px" height="16px" viewBox="0 0 16 16" version="1.1" xmlns="http://www.w3.org/2000/svg" xmlns:xlink="http://www.w3.org/1999/xlink">
    <!-- Generator: Sketch 51.3 (57544) - http://www.bohemiancoding.com/sketch -->
    <title>Fill 1110</title>
    <desc>Created with Sketch.</desc>
    <defs></defs>
    <g id="Page-1" stroke="none" stroke-width="1" fill="none" fill-rule="evenodd">
        <g id="eReports-Patients-open-menu" transform="translate(-17.000000, -322.000000)" fill="#A5B2B3">
            <path d="M21.0450909,323.454545 C20.7112727,323.454545 20.4203636,323.682182 20.3389091,324.005091 L18.6589091,330.727273 L22.0909091,330.727273 C22.9287273,330.727273 23.4407273,331.399273 23.6247273,331.930909 C23.8225455,332.501091 24.3643636,332.909091 25,332.909091 C25.6356364,332.909091 26.1774545,332.501091 26.3752727,331.930909 C26.5592727,331.399273 27.0712727,330.727273 27.9090909,330.727273 L31.3410909,330.727273 L29.6610909,324.005091 C29.5796364,323.682182 29.2887273,323.454545 28.9549091,323.454545 L21.0450909,323.454545 Z M31.5454545,332.181818 L27.9105455,332.181818 L27.872,332.208727 C27.8290909,332.247273 27.7803636,332.317091 27.7498182,332.406545 C27.3556364,333.544727 26.2741818,334.363636 25,334.363636 C23.7258182,334.363636 22.6443636,333.544727 22.2501818,332.406545 C22.2196364,332.317091 22.1709091,332.247273 22.128,332.208727 L22.0887273,332.181818 L18.4545455,332.181818 L18.4545455,335.818182 C18.4545455,336.219636 18.7803636,336.545455 19.1818182,336.545455 L30.8181818,336.545455 C31.2196364,336.545455 31.5454545,336.219636 31.5454545,335.818182 L31.5454545,332.181818 Z M18.928,323.652364 C19.1709091,322.681455 20.0436364,322 21.0450909,322 L28.9549091,322 C29.9563636,322 30.8290909,322.681455 31.072,323.652364 L33,331.365091 L33,335.818182 C33,337.023273 32.0232727,338 30.8181818,338 L19.1818182,338 C17.9767273,338 17,337.023273 17,335.818182 L17,331.365091 L18.928,323.652364 Z M21.3636364,325.636364 C21.3636364,325.234909 21.6894545,324.909091 22.0909091,324.909091 L27.9090909,324.909091 C28.3105455,324.909091 28.6363636,325.234909 28.6363636,325.636364 C28.6363636,326.037818 28.3105455,326.363636 27.9090909,326.363636 L22.0909091,326.363636 C21.6894545,326.363636 21.3636364,326.037818 21.3636364,325.636364 Z M20.6363636,328.545455 C20.6363636,328.144 20.9621818,327.818182 21.3636364,327.818182 L28.6363636,327.818182 C29.0378182,327.818182 29.3636364,328.144 29.3636364,328.545455 C29.3636364,328.946909 29.0378182,329.272727 28.6363636,329.272727 L21.3636364,329.272727 C20.9621818,329.272727 20.6363636,328.946909 20.6363636,328.545455 Z" id="Fill-1110"></path>
        </g>
    </g>
</svg>