<?xml version="1.0" encoding="UTF-8"?>
<svg width="15px" height="15px" viewBox="0 0 15 15" version="1.1" xmlns="http://www.w3.org/2000/svg" xmlns:xlink="http://www.w3.org/1999/xlink">
    <!-- Generator: Sketch 51.3 (57544) - http://www.bohemiancoding.com/sketch -->
    <title>Group 17</title>
    <desc>Created with Sketch.</desc>
    <defs></defs>
    <g id="Page-2" stroke="none" stroke-width="1" fill="none" fill-rule="evenodd">
        <g id="eReports-dynamic-form-final-b" transform="translate(-430.000000, -370.000000)" fill="#1C94A3" fill-rule="nonzero">
            <g id="Group-18" transform="translate(430.000000, 367.000000)">
                <g id="Group-17" transform="translate(0.000000, 3.000000)">
                    <path d="M14.6135213,4.72051758 C14.0994714,4.20647461 13.2630159,4.20650391 12.7487901,4.72063477 C12.5906344,4.87892578 11.5808464,5.88946289 11.4265875,6.04385742 L11.4265875,2.56130859 C11.4265875,2.20916016 11.2894391,1.87810547 11.0403981,1.62911133 L9.79739049,0.386132812 C9.54837878,0.137109375 9.21727143,0 8.86509815,0 L1.3184524,0 C0.591457747,0 0,0.591416016 0,1.31835937 L0,13.6816406 C0,14.408584 0.591457747,15 1.3184524,15 L10.1081351,15 C10.8351297,15 11.4265875,14.408584 11.4265875,13.6816406 L11.4265875,9.7743457 L14.613492,6.5849707 C15.1287725,6.06975586 15.1288897,5.23579102 14.6135213,4.72051758 Z M8.78971197,0.87890625 C8.87274517,0.87890625 9.03274669,0.864521484 9.17587203,1.00760742 L10.4189089,2.25058594 C10.5583719,2.39006836 10.5476485,2.54291016 10.5476485,2.63671875 L8.78971197,2.63671875 L8.78971197,0.87890625 Z M10.5476192,13.6816406 C10.5476192,13.9239551 10.3504959,14.1210937 10.1081351,14.1210937 L1.3184524,14.1210937 C1.07612085,14.1210937 0.878968267,13.9239551 0.878968267,13.6816406 L0.878968267,1.31835937 C0.878968267,1.07604492 1.07612085,0.87890625 1.3184524,0.87890625 L7.9107144,0.87890625 L7.9107144,3.07617187 C7.9107144,3.31886719 8.1074861,3.515625 8.35019854,3.515625 L10.5476192,3.515625 L10.5476192,6.92352539 C10.5476192,6.92352539 9.25102381,8.22114258 9.25096522,8.22117187 L8.62973974,8.84238281 C8.58151368,8.89060547 8.5451244,8.94943359 8.52356038,9.01415039 L7.90201262,10.8786035 C7.84936242,11.0365137 7.89046883,11.210625 8.00819198,11.3283105 C8.12606163,11.4461719 8.30024384,11.4870703 8.45793075,11.4344824 L10.3225154,10.8130078 C10.3872368,10.7914453 10.4460691,10.7550879 10.4942951,10.7068359 L10.5476192,10.6535156 L10.5476192,13.6816406 Z M9.56200279,9.15313477 L10.1835212,9.77460937 L9.94611192,10.012002 L9.01384888,10.3227246 L9.32459346,9.39049805 L9.56200279,9.15313477 Z M10.8049225,9.15298828 L10.1834041,8.53151367 C10.5143649,8.2003125 11.9842635,6.72925781 12.2960043,6.41727539 L12.9175227,7.03875 L10.8049225,9.15298828 Z M13.9918564,5.96361328 L13.5388068,6.41701172 L12.9172884,5.79553711 L13.3704844,5.34199219 C13.5419418,5.17063477 13.8206919,5.17066406 13.9920322,5.34199219 C14.1633431,5.51337891 14.1642513,5.79120117 13.9918564,5.96361328 Z" id="Shape"></path>
                    <path d="M6.58333333,6 L2.41666667,6 C2.18655556,6 2,6.22386667 2,6.5 C2,6.77613333 2.18655556,7 2.41666667,7 L6.58333333,7 C6.81344444,7 7,6.77613333 7,6.5 C7,6.22386667 6.81344444,6 6.58333333,6 Z" id="Shape"></path>
                    <path d="M6.58333333,8 L2.41666667,8 C2.18655556,8 2,8.22386667 2,8.5 C2,8.77613333 2.18655556,9 2.41666667,9 L6.58333333,9 C6.81344444,9 7,8.77613333 7,8.5 C7,8.22386667 6.81344444,8 6.58333333,8 Z" id="Shape"></path>
                    <path d="M6.58333333,10 L2.41666667,10 C2.18655556,10 2,10.2238667 2,10.5 C2,10.7761333 2.18655556,11 2.41666667,11 L6.58333333,11 C6.81344444,11 7,10.7761333 7,10.5 C7,10.2238667 6.81344444,10 6.58333333,10 Z" id="Shape"></path>
                </g>
            </g>
        </g>
    </g>
</svg>