<?xml version="1.0" encoding="UTF-8"?>
<svg width="14px" height="14px" viewBox="0 0 14 14" version="1.1" xmlns="http://www.w3.org/2000/svg" xmlns:xlink="http://www.w3.org/1999/xlink">
    <!-- Generator: Sketch 51.3 (57544) - http://www.bohemiancoding.com/sketch -->
    <title>check-mark (5)</title>
    <desc>Created with Sketch.</desc>
    <defs></defs>
    <g id="Page-2" stroke="none" stroke-width="1" fill="none" fill-rule="evenodd">
        <g id="sReports-2.0-Create-/-chage-status" transform="translate(-1617.000000, -204.000000)" fill="#FFFFFF" fill-rule="nonzero">
            <g id="check-mark-(5)" transform="translate(1617.000000, 204.000000)">
                <path d="M10.0943298,4.77885436 C10.3079529,4.99247741 10.3079529,5.33876038 10.0943298,5.55227662 L6.42556764,9.22114564 C6.21194459,9.43466185 5.86576843,9.43466185 5.65214538,9.22114564 L3.90567018,7.47456361 C3.69204713,7.26104736 3.69204713,6.91476439 3.90567018,6.70124818 C4.11918639,6.48762513 4.46546937,6.48762513 4.67898561,6.70124818 L6.03880309,8.06106569 L9.32090759,4.77885436 C9.53453063,4.56533815 9.88081361,4.56533815 10.0943298,4.77885436 Z M14,7 C14,10.8692474 10.8687134,14 7,14 C3.13075257,14 0,10.8687134 0,7 C0,3.13075257 3.13128662,0 7,0 C10.8692474,0 14,3.13128662 14,7 Z M12.90625,7 C12.90625,3.73530579 10.264267,1.09375 7,1.09375 C3.73530579,1.09375 1.09375,3.73573304 1.09375,7 C1.09375,10.2646942 3.73573304,12.90625 7,12.90625 C10.2646942,12.90625 12.90625,10.264267 12.90625,7 Z" id="Shape"></path>
            </g>
        </g>
    </g>
</svg>