<?xml version="1.0" encoding="UTF-8"?>
<svg width="10px" height="10px" viewBox="0 0 10 10" version="1.1" xmlns="http://www.w3.org/2000/svg" xmlns:xlink="http://www.w3.org/1999/xlink">
    <!-- Generator: Sketch 51.3 (57544) - http://www.bohemiancoding.com/sketch -->
    <title>gear</title>
    <desc>Created with Sketch.</desc>
    <defs></defs>
    <g id="Page-2" stroke="none" stroke-width="1" fill="none" fill-rule="evenodd">
        <g id="eReports-Simulator" transform="translate(-1223.000000, -329.000000)" fill="#B8B8B8" fill-rule="nonzero">
            <g id="gear" transform="translate(1223.000000, 329.000000)">
                <path d="M5,2.72727273 C3.74680637,2.72727273 2.72727273,3.74682767 2.72727273,5 C2.72727273,6.25317233 3.74682767,7.27272727 5,7.27272727 C6.25317233,7.27272727 7.27272727,6.25317233 7.27272727,5 C7.27272727,3.74682767 6.25319363,2.72727273 5,2.72727273 Z M5,6.36364488 C4.24818179,6.36364488 3.63635512,5.75181821 3.63635512,5 C3.63635512,4.24818179 4.24818179,3.63635512 5,3.63635512 C5.75226546,3.63635512 6.36364488,4.24818179 6.36364488,5 C6.36364488,5.75181821 5.75181821,6.36364488 5,6.36364488 Z" id="Shape"></path>
                <path d="M9.64234375,3.77376336 L8.45726562,3.58194926 L9.16589844,2.63547668 C9.29011719,2.46921163 9.2746875,2.23720978 9.12962891,2.08937065 L7.94539062,0.882815811 C7.79865234,0.732877035 7.56523437,0.715706975 7.39890625,0.841352569 L6.43058594,1.5248387 L6.24300781,0.352211896 C6.21048828,0.149094991 6.03625,0 5.83158203,0 L4.16421875,0 C3.95664062,0 3.78072266,0.153274674 3.75154297,0.359335018 L3.55646484,1.54620807 L2.59316406,0.83840913 C2.42683594,0.716119056 2.19800781,0.733701198 2.05251953,0.879872372 L0.872871094,2.06087817 C0.7253125,2.20828558 0.709042969,2.44240671 0.834101562,2.60949593 L1.52480469,3.5806934 L0.35765625,3.74821431 C0.152558594,3.77753096 0,3.95427466 0,4.16282711 L0,5.83801667 C0,6.04656913 0.152558594,6.22331282 0.35765625,6.25178569 L1.54273437,6.44359979 L0.834101562,7.39007237 C0.709042969,7.55718121 0.7253125,7.79043893 0.872460937,7.93827805 L2.05210937,9.12346352 C2.19925781,9.27212681 2.43185547,9.28721684 2.59775391,9.16198333 L3.56398437,8.46803818 L3.73072266,9.64066498 C3.75990234,9.8467057 3.93580078,10 4.14339844,10 L5.81076172,10 C6.01833984,10 6.19425781,9.84713741 6.2234375,9.64192085 L6.41435547,8.4512802 L7.35640625,9.1632392 C7.52314453,9.28888479 7.7553125,9.2729706 7.90205078,9.12471939 L9.08169922,7.93953392 C9.22884766,7.79169479 9.24509766,7.55800537 9.12003906,7.39132824 L8.41849609,6.42181834 L9.63150391,6.27943439 C9.84160156,6.25514121 10,6.07631748 10,5.86356572 L10,4.18837616 C10,3.97980408 9.84744141,3.80308001 9.64234375,3.77376336 Z M9.16673828,5.49041616 L8.31597656,5.590081 C8.00626953,5.63070046 7.74740234,5.83927254 7.65111328,6.10812625 C7.53023437,6.38284721 7.56566406,6.7040745 7.74574219,6.94824257 L8.23677734,7.60366792 L7.56900391,8.27457575 L6.91373047,7.77913612 C6.67238281,7.59990032 6.35265625,7.56428471 6.10630859,7.67611576 C5.81285156,7.78290372 5.60527344,8.04298598 5.56482422,8.34953533 L5.44978516,9.16241503 L4.50521484,9.16241503 L4.38974609,8.3545588 C4.34931641,8.04339806 4.14171875,7.7833158 3.87453125,7.68700648 C3.60150391,7.5655602 3.28261719,7.6003124 3.03792969,7.78164785 L2.38556641,8.27498783 L1.71779297,7.60408 L2.21091797,6.94573084 C2.38890625,6.70409413 2.42433594,6.38327891 2.31345703,6.13451908 C2.20673828,5.83968462 1.94830078,5.63070046 1.64275391,5.59049308 L0.833671875,5.47491405 L0.833671875,4.52591011 L1.63816406,4.40989937 C1.94787109,4.36927992 2.20673828,4.16070784 2.30261719,3.89226621 C2.42392578,3.61754525 2.38847656,3.29716174 2.20882813,3.05173781 L1.71820313,2.39674416 L2.38806641,1.72583633 L3.06208984,2.22086388 C3.30302734,2.40009968 3.62191406,2.43445943 3.86951172,2.32388424 C4.16337891,2.21666457 4.37054687,1.95575815 4.41015625,1.65046467 L4.525625,0.837153263 L5.47644531,0.837153263 L5.60566406,1.64459742 C5.64568359,1.95618986 5.85285156,2.21666457 6.12128906,2.3138373 C6.39431641,2.43445943 6.71361328,2.40009968 6.95621094,2.21960801 L7.60732422,1.73044772 L8.2846875,2.41978148 L7.78990234,3.08023029 C7.61191406,3.32188663 7.57648437,3.64268222 7.68736328,3.89185413 C7.79408203,4.18710067 8.05376953,4.39524105 8.35763672,4.43503634 L9.16671875,4.55104708 L9.16671875,5.49041616 L9.16673828,5.49041616 Z" id="Shape"></path>
            </g>
        </g>
    </g>
</svg>