<?xml version="1.0" encoding="UTF-8"?>
<svg width="12px" height="12px" viewBox="0 0 12 12" version="1.1" xmlns="http://www.w3.org/2000/svg" xmlns:xlink="http://www.w3.org/1999/xlink">
    <!-- Generator: Sketch 51.3 (57544) - http://www.bohemiancoding.com/sketch -->
    <title>generate_ translate_12x12</title>
    <desc>Created with Sketch.</desc>
    <defs></defs>
    <g id="Page-1" stroke="none" stroke-width="1" fill="none" fill-rule="evenodd">
        <g id="eReports-generate-translation-01" transform="translate(-1282.000000, -547.000000)" fill="#B8B8B8" fill-rule="nonzero">
            <g id="generate_-translate_12x12" transform="translate(1282.000000, 547.000000)">
                <g id="Group-3">
                    <path d="M10.5740351,2.15253801 L6.12912281,2.15169591 L5.38435088,0.00016374269 L1.40350877,0.00016374269 C0.629614035,0.00016374269 -5.68434189e-14,0.629777778 -5.68434189e-14,1.40367251 L-5.68434189e-14,8.42121637 C-5.68434189e-14,9.19511111 0.629614035,9.82472515 1.40350877,9.82472515 L5.58608187,9.82472515 L6.33040936,11.9763041 C6.33040936,11.9763041 10.5721637,11.9770994 10.5724444,11.9770994 C11.3462222,11.9770994 11.9757895,11.3476725 11.9759532,10.5738713 L11.9772632,3.55632749 C11.9774269,2.78243275 11.3479298,2.15270175 10.5740351,2.15253801 Z M0.701754386,8.42121637 L0.701754386,1.40367251 C0.701754386,1.01672515 1.0165614,0.701918129 1.40350877,0.701918129 L4.88465497,0.701918129 L7.79964912,9.12297076 L1.40350877,9.12297076 C1.0165614,9.12297076 0.701754386,8.80816374 0.701754386,8.42121637 Z M7.56336842,9.82472515 L6.70196491,10.9039064 L6.32863158,9.82472515 L7.56336842,9.82472515 Z M11.2741988,10.573731 C11.2741287,10.960655 10.9593684,11.275345 10.5723041,11.275345 L7.30385965,11.2747368 L8.68718129,9.54168421 L6.37202339,2.85349708 L10.5738713,2.8542924 C10.9608187,2.85436257 11.2755556,3.16923977 11.2754854,3.55618713 L11.2741988,10.573731 Z" id="Shape"></path>
                    <path d="M3.4502924,4.56156725 L3.4502924,5.26332164 L4.74891228,5.26332164 C4.59417544,5.83534503 4.07059649,6.25747368 3.4502924,6.25747368 C2.70863158,6.25747368 2.10526316,5.65410526 2.10526316,4.91244444 C2.10526316,4.17078363 2.70863158,3.5674152 3.4502924,3.5674152 C3.79730994,3.5674152 4.12671345,3.69915789 4.37784795,3.93838596 L4.86187135,3.43026901 C4.47967251,3.06617544 3.97833918,2.86563743 3.4502924,2.86563743 C2.32168421,2.86563743 1.40350877,3.78381287 1.40350877,4.91242105 C1.40350877,6.04102924 2.32168421,6.95920468 3.4502924,6.95920468 C4.57890058,6.95920468 5.49707602,6.04102924 5.49707602,4.91242105 L5.49707602,4.56154386 L3.4502924,4.56154386 L3.4502924,4.56156725 Z" id="Shape"></path>
                </g>
            </g>
        </g>
    </g>
</svg>