<?xml version="1.0" encoding="UTF-8"?>
<svg width="23px" height="23px" viewBox="0 0 23 23" version="1.1" xmlns="http://www.w3.org/2000/svg" xmlns:xlink="http://www.w3.org/1999/xlink">
    <!-- Generator: Sketch 51.3 (57544) - http://www.bohemiancoding.com/sketch -->
    <title>support</title>
    <desc>Created with Sketch.</desc>
    <defs></defs>
    <g id="Page-1" stroke="none" stroke-width="1" fill="none" fill-rule="evenodd">
        <g id="eReports-Simulator-modal" transform="translate(-545.000000, -207.000000)" fill="#1C94A3" fill-rule="nonzero">
            <g id="support" transform="translate(545.000000, 207.000000)">
                <path d="M4.04524993,17.7867813 C3.72325132,17.7867813 3.41371157,17.8671493 3.13909148,18.0180588 C1.69246672,16.1636276 0.8984375,13.8599777 0.8984375,11.5 C0.8984375,5.65419009 5.65419009,0.8984375 11.5,0.8984375 C12.2106781,0.8984375 12.9210052,0.969154369 13.6113281,1.10865786 C13.854187,1.15779116 14.0914307,1.0005646 14.140564,0.757354736 C14.1896973,0.514144875 14.0324707,0.277252197 13.7892609,0.227943432 C13.0405045,0.0766830332 12.27034,0 11.5,0 C8.42829133,0 5.54030608,1.19622039 3.36826326,3.36826326 C1.19622039,5.54030608 0,8.42829133 0,11.5 C0,14.0838852 0.877380371,16.6054764 2.47473909,18.6269608 C2.26908113,18.9342194 2.15853118,19.2953491 2.15853118,19.6735001 C2.15853118,20.1774674 2.35488892,20.6512528 2.71128083,21.0074692 C3.06749724,21.3638611 3.54128264,21.5602188 4.04524993,21.5602188 C4.54921721,21.5602188 5.02300261,21.3638611 5.37939453,21.0074692 C5.73578645,20.6512528 5.93196868,20.1772918 5.93196868,19.6733246 C5.93196868,19.1695328 5.73578645,18.6955719 5.37939453,18.3393555 C5.02300261,17.9829636 4.54921721,17.7867813 4.04524993,17.7867813 Z M4.74399568,20.3722458 C4.5574646,20.5589523 4.30916594,20.6617813 4.04524993,20.6617813 C3.78133391,20.6617813 3.53321077,20.5589523 3.34650422,20.3722458 C3.15979768,20.1855392 3.05696868,19.9374161 3.05696868,19.6735001 C3.05696868,19.4094085 3.15979768,19.1612854 3.34650422,18.9745789 C3.5330353,18.7878723 3.78133391,18.6852188 4.04524993,18.6852188 C4.30916594,18.6852188 4.55728913,18.7880478 4.74399568,18.9745789 C4.93070222,19.1612854 5.03353118,19.4094085 5.03353118,19.6735001 C5.03353118,19.9374161 4.93070222,20.1855392 4.74399568,20.3722458 Z" id="Shape"></path>
                <path d="M20.52491,4.37251284 C21.0132599,3.63990022 20.9348221,2.63828279 20.2888947,1.99235532 C19.9325028,1.63613892 19.4587174,1.43978118 18.9547501,1.43978118 C18.4507828,1.43978118 17.9769974,1.63613892 17.6206055,1.99235532 C17.2642136,2.34874724 17.0680313,2.82253264 17.0680313,3.32649993 C17.0680313,3.83046721 17.2642136,4.30425261 17.6206055,4.66064453 C17.9769974,5.01703645 18.4507828,5.21321868 18.9547501,5.21321868 C19.2767487,5.21321868 19.5862884,5.13285066 19.8609085,4.98194123 C21.3075333,6.83654785 22.1015625,9.14002229 22.1015625,11.5 C22.1015625,17.3458099 17.3458099,22.1015625 11.5,22.1015625 C10.796341,22.1015625 10.0926819,22.0322494 9.40885163,21.8953781 C9.16564177,21.8467712 8.92892456,22.0045242 8.88014223,22.2477341 C8.83153533,22.4911194 8.98928833,22.7276611 9.23249819,22.7764435 C9.97423552,22.9247208 10.7372055,23 11.5,23 C14.5717087,23 17.4596939,21.8037796 19.6317367,19.6317367 C21.8037796,17.4596939 23,14.5717087 23,11.5 C23,8.91593931 22.1224442,6.39417268 20.52491,4.37251284 Z M18.2560043,4.02542114 C18.0692978,3.8387146 17.9664688,3.59059145 17.9664688,3.32649993 C17.9664688,3.06258391 18.0692978,2.81446077 18.2560043,2.62775422 C18.4425354,2.44104768 18.6908341,2.33821868 18.9547501,2.33821868 C19.2186661,2.33821868 19.4669647,2.44104768 19.6536712,2.62775422 C20.0388412,3.01309968 20.0388412,3.64007568 19.6536712,4.02542114 C19.4669647,4.21195222 19.2186661,4.31478118 18.9547501,4.31478118 C18.6906585,4.31478118 18.4425354,4.21195222 18.2560043,4.02542114 Z" id="Shape"></path>
                <path d="M9.64627075,19.2265625 C9.64627075,19.4746857 9.84754182,19.6757812 10.0954895,19.6757812 L12.904335,19.6757812 C13.1524582,19.6757812 13.3535538,19.4746857 13.3535538,19.2265625 L13.3535538,18.3556747 C13.9442062,18.1966934 14.5088883,17.9626083 15.0395279,17.656929 L15.6543961,18.2717972 C15.7386246,18.3560257 15.8528595,18.4034042 15.9721833,18.4034042 C16.091156,18.4034042 16.2055664,18.3560257 16.2897949,18.2716217 L18.2751312,16.2848816 C18.4504318,16.1094055 18.4504318,15.8249588 18.2751312,15.6496582 L17.660965,15.0354919 C17.9666443,14.5048523 18.2007293,13.9401703 18.3597107,13.3495178 L19.2272644,13.3495178 C19.4753876,13.3495178 19.6764832,13.1484222 19.6764832,12.9002991 L19.6764832,10.0914535 C19.6764832,9.84333039 19.4753876,9.64223479 19.2272644,9.64223479 L18.3595352,9.64223479 C18.2005539,9.05175781 17.9666443,8.48707583 17.660965,7.95643618 L18.2717972,7.34560393 C18.3560257,7.26137542 18.4034042,7.14696502 18.4034042,7.02781675 C18.4032288,6.90866853 18.3558502,6.79425813 18.2716217,6.71002961 L16.2847061,4.72469329 C16.1094055,4.54939272 15.8249588,4.54939272 15.6494827,4.7248688 L15.0395279,5.3349991 C14.5088883,5.02931975 13.9442062,4.79523469 13.3535538,4.63625335 L13.3535538,3.7734375 C13.3535538,3.52531431 13.1524582,3.32421875 12.904335,3.32421875 L10.0954895,3.32421875 C9.84754182,3.32421875 9.64627075,3.52531431 9.64627075,3.7734375 L9.64627075,4.63642886 C9.05579377,4.79523469 8.49111174,5.02931975 7.9604721,5.3349991 L7.3503418,4.7248688 C7.17504119,4.54956819 6.89059448,4.54939272 6.71511841,4.72469329 L4.72837827,6.71020508 C4.64397429,6.79443359 4.59659578,6.90866853 4.59659578,7.02781675 C4.59659578,7.14696502 4.64397429,7.26137542 4.72820281,7.34560393 L5.33903501,7.95643618 C5.03335571,8.48707583 4.79927065,9.05158235 4.64028931,9.64223479 L3.77431487,9.64223479 C3.52619172,9.64223479 3.32509612,9.84333039 3.32509612,10.0912781 L3.32351685,12.9001236 C3.32334138,13.0192718 3.3707199,13.1336823 3.45494841,13.2179108 C3.53917693,13.3021393 3.65341187,13.3495178 3.7727356,13.3495178 L4.64028931,13.3495178 C4.79927065,13.9401703 5.03335571,14.5048523 5.33903501,15.0354919 L4.7248688,15.6496582 C4.54956819,15.8249588 4.54939272,16.1094055 4.7248688,16.2848816 L6.71020508,18.2716217 C6.79443359,18.3558502 6.90866853,18.4034042 7.02781675,18.4034042 L7.02799226,18.4034042 C7.14714048,18.4034042 7.26137542,18.3560257 7.34560393,18.2717972 L7.96029663,17.656929 C8.49111174,17.9626083 9.05579377,18.1966934 9.64627075,18.3556747 L9.64627075,19.2265625 Z M8.13647461,16.7121658 C7.95871736,16.597229 7.72480776,16.6221466 7.57495117,16.7718277 L7.02799226,17.3187866 L5.67770386,15.9674454 L6.22413637,15.4208374 C6.37381746,15.2711563 6.39873504,15.0372467 6.2837982,14.8594894 C5.87651824,14.2291794 5.59014129,13.5383301 5.43291472,12.8058929 C5.38834382,12.5990067 5.20549773,12.4510803 4.9936981,12.4510803 L4.22212981,12.4510803 L4.22318269,10.5406723 L4.9936981,10.5406723 C5.20549773,10.5406723 5.38834382,10.3929215 5.43291472,10.1858597 C5.59014129,9.453598 5.87651824,8.76274871 6.2837982,8.13243865 C6.39873504,7.9546814 6.37381746,7.7207718 6.22413637,7.57109068 L5.68121338,7.02799226 L7.03255462,5.67770386 L7.57495117,6.22027588 C7.72480776,6.36995696 7.95854185,6.39469907 8.13647461,6.27993774 C8.7666092,5.87265779 9.4574585,5.58628083 10.1898957,5.42905427 C10.3967819,5.38448333 10.5447083,5.20146177 10.5447083,4.98983765 L10.5447083,4.22265625 L12.4551163,4.22265625 L12.4551163,4.98966218 C12.4551163,5.20146177 12.6028671,5.38448333 12.8099289,5.42887876 C13.5421906,5.58628083 14.2332153,5.87248228 14.8633499,6.27976228 C15.0411072,6.39469907 15.2750168,6.36995696 15.4246979,6.22010041 L15.9672699,5.67770386 L17.3186112,7.02799226 L16.7756882,7.57091521 C16.6258316,7.7207718 16.6010895,7.9546814 16.7160263,8.13243865 C17.1233063,8.76274871 17.4095077,9.453598 17.5669098,10.1858597 C17.6113052,10.3929215 17.7943268,10.5406723 18.0061264,10.5406723 L18.7780457,10.5406723 L18.7780457,12.4510803 L18.0061264,12.4510803 C17.7943268,12.4510803 17.6114807,12.5990067 17.5669098,12.8058929 C17.4096833,13.5381546 17.1233063,14.2291794 16.7160263,14.859314 C16.6010895,15.0372467 16.6260071,15.2711563 16.7756882,15.4208374 L17.3221207,15.9672699 L15.9718323,17.3186112 L15.4248734,16.7718277 C15.2750168,16.6219711 15.0411072,16.597229 14.8633499,16.7121658 C14.2330399,17.1194458 13.5421906,17.4056473 12.8099289,17.5630493 C12.6028671,17.6076203 12.4551163,17.7904663 12.4551163,18.0022659 L12.4551163,18.7773438 L10.5447083,18.7773438 L10.5447083,18.0022659 C10.5447083,17.7906418 10.3967819,17.6076203 10.1898957,17.5630493 C9.45763396,17.4058228 8.76678467,17.1194458 8.13647461,16.7121658 Z" id="Shape"></path>
                <path d="M15.2118454,11.5 C15.2118454,9.45324707 13.5467529,7.78815461 11.5,7.78815461 C9.45324707,7.78815461 7.78815461,9.45324707 7.78815461,11.5 C7.78815461,13.5467529 9.45324707,15.2118454 11.5,15.2118454 C13.5467529,15.2118454 15.2118454,13.5467529 15.2118454,11.5 Z M8.68659211,11.5 C8.68659211,9.94861604 9.94861604,8.68659211 11.5,8.68659211 C13.051384,8.68659211 14.3134079,9.9487915 14.3134079,11.5 C14.3134079,13.0512085 13.051384,14.3134079 11.5,14.3134079 C9.94861604,14.3134079 8.68659211,13.051384 8.68659211,11.5 Z" id="Shape"></path>
                <path d="M15.636322,1.69895933 C15.7545929,1.69895933 15.8704071,1.65087891 15.9539337,1.56735229 C16.0374603,1.48329924 16.0855408,1.36748504 16.0855408,1.24921418 C16.0855408,1.13164519 16.0376358,1.01565552 15.9539337,0.931602467 C15.8704071,0.848075855 15.7545929,0.799995434 15.636322,0.799995434 C15.5177002,0.799995434 15.4024124,0.848075855 15.3188858,0.931602467 C15.2351837,1.01565552 15.1871033,1.1311188 15.1871033,1.24921418 C15.1871033,1.36783601 15.2351837,1.48329924 15.3188858,1.56735229 C15.4024124,1.65087891 15.5177002,1.69895933 15.636322,1.69895933 Z" id="Shape"></path>
                <path d="M7.3833313,21.3091125 C7.26523591,21.3091125 7.14924624,21.357193 7.06571958,21.4407196 C6.98219302,21.5242462 6.93411255,21.6402359 6.93411255,21.7583313 C6.93411255,21.8769531 6.98219302,21.9924164 7.06571958,22.075943 C7.14924624,22.1594696 7.26523591,22.20755 7.3833313,22.20755 C7.50142669,22.20755 7.61741636,22.1594696 7.70094302,22.075943 C7.78446958,21.9924164 7.83255005,21.8764267 7.83255005,21.7583313 C7.83255005,21.6402359 7.78446958,21.5242462 7.70094302,21.4407196 C7.61741636,21.357193 7.50142669,21.3091125 7.3833313,21.3091125 Z" id="Shape"></path>
            </g>
        </g>
    </g>
</svg>