<?xml version="1.0" encoding="UTF-8"?>
<svg width="12px" height="16px" viewBox="0 0 12 16" version="1.1" xmlns="http://www.w3.org/2000/svg" xmlns:xlink="http://www.w3.org/1999/xlink">
    <!-- Generator: Sketch 51.3 (57544) - http://www.bohemiancoding.com/sketch -->
    <title>information (1)</title>
    <desc>Created with Sketch.</desc>
    <defs></defs>
    <g id="Page-1" stroke="none" stroke-width="1" fill="none" fill-rule="evenodd">
        <g id="eReports-Patient-info-tab1-02" transform="translate(-126.000000, -721.000000)" fill="#1C94A3" fill-rule="nonzero">
            <g id="Group-14" transform="translate(76.000000, 90.000000)">
                <g id="information-(1)" transform="translate(50.000000, 631.000000)">
                    <path d="M11.8647385,3.88725 L8.17255385,0.13734375 C8.08498462,0.048375 7.96532308,0 7.84615385,0 L1.38461538,0 C0.621138462,0 0,0.63084375 0,1.40625 L0,14.59375 C0,15.3691562 0.621138462,16 1.38461538,16 L10.6153846,16 C11.3788615,16 12,15.3691562 12,14.59375 L12,4.21875 C12,4.090125 11.9463692,3.97009375 11.8647385,3.88725 Z M8.30769231,1.60040625 L10.4242154,3.75 L8.76923077,3.75 C8.51473846,3.75 8.30769231,3.53971875 8.30769231,3.28125 L8.30769231,1.60040625 Z M10.6153846,15.0625 L1.38461538,15.0625 C1.13012308,15.0625 0.923076923,14.8522187 0.923076923,14.59375 L0.923076923,1.40625 C0.923076923,1.14778125 1.13012308,0.9375 1.38461538,0.9375 L7.38461538,0.9375 L7.38461538,3.28125 C7.38461538,4.05665625 8.00575385,4.6875 8.76923077,4.6875 L11.0769231,4.6875 L11.0769231,14.59375 C11.0769231,14.8522187 10.8698769,15.0625 10.6153846,15.0625 Z" id="Shape"></path>
                    <path d="M9.5,7 L4.5,7 C4.22386667,7 4,7.22386667 4,7.5 C4,7.77613333 4.22386667,8 4.5,8 L9.5,8 C9.77613333,8 10,7.77613333 10,7.5 C10,7.22386667 9.77613333,7 9.5,7 Z" id="Shape"></path>
                    <path d="M9.5,9 L4.5,9 C4.22386667,9 4,9.22386667 4,9.5 C4,9.77613333 4.22386667,10 4.5,10 L9.5,10 C9.77613333,10 10,9.77613333 10,9.5 C10,9.22386667 9.77613333,9 9.5,9 Z" id="Shape"></path>
                    <path d="M9.5,11 L4.5,11 C4.22386667,11 4,11.2238667 4,11.5 C4,11.7761333 4.22386667,12 4.5,12 L9.5,12 C9.77613333,12 10,11.7761333 10,11.5 C10,11.2238667 9.77613333,11 9.5,11 Z" id="Shape"></path>
                    <circle id="Oval" cx="2.5" cy="7.5" r="1"></circle>
                    <circle id="Oval" cx="2.5" cy="9.5" r="1"></circle>
                    <circle id="Oval" cx="2.5" cy="11.5" r="1"></circle>
                </g>
            </g>
        </g>
    </g>
</svg>