<?xml version="1.0" encoding="UTF-8"?>
<svg width="17px" height="17px" viewBox="0 0 17 17" version="1.1" xmlns="http://www.w3.org/2000/svg" xmlns:xlink="http://www.w3.org/1999/xlink">
    <!-- Generator: Sketch 51.3 (57544) - http://www.bohemiancoding.com/sketch -->
    <title>Group 19</title>
    <desc>Created with Sketch.</desc>
    <defs></defs>
    <g id="Page-2" stroke="none" stroke-width="1" fill="none" fill-rule="evenodd">
        <g id="eReports-dynamic-field-polja-01" transform="translate(-1143.000000, -642.000000)">
            <g id="d-f-select" transform="translate(322.000000, 643.000000)">
                <g id="d-f">
                    <g id="Group-30" transform="translate(822.000000, 0.000000)">
                        <g id="Group-19">
                            <circle id="Oval-3" stroke="#1C94A3" fill="#FFFFFF" cx="7.5" cy="7.5" r="7.5"></circle>
                            <path d="M8.91018073,10.2445845 L8.81531066,10.644407 C8.53070042,10.7602194 8.30335301,10.8483648 8.13405951,10.9089687 C7.96458346,10.9697608 7.76766263,11 7.54329702,11 C7.19874642,11 6.9307491,10.9129839 6.73960932,10.7401436 C6.54846954,10.5666132 6.45286923,10.3467202 6.45286923,10.0799627 C6.45286923,9.97669771 6.45980649,9.87048406 6.47422869,9.76226283 C6.48877259,9.65391613 6.51189679,9.53189277 6.54354044,9.39550266 L6.89922716,8.09760076 C6.93087081,7.97331887 6.95776791,7.85556163 6.97930993,7.74420355 C7.00115621,7.63353559 7.01168381,7.53171353 7.01168381,7.44005485 C7.01168381,7.27430384 6.97839713,7.15836597 6.91212804,7.09318229 C6.84585894,7.02818681 6.71940607,6.99518718 6.53167407,6.99518718 C6.43972494,6.99518718 6.34521998,7.01036952 6.24888943,7.03973041 C6.1521329,7.06921677 6.06943346,7.09769935 6,7.12417434 L6.09511349,6.72403811 C6.32812025,6.62623121 6.55084282,6.54247739 6.76388973,6.47296486 C6.97693665,6.40326411 7.17823891,6.36838237 7.36864845,6.36838237 C7.71082578,6.36838237 7.97486764,6.45364188 8.16028723,6.62416089 C8.34570681,6.79480538 8.43838617,7.01601585 8.43838617,7.28860787 C8.43838617,7.34500838 8.43230086,7.4443837 8.41921743,7.58642014 C8.40643826,7.72877027 8.38264468,7.85920037 8.34795838,7.97783593 L7.99379298,9.27053066 C7.96476602,9.37436031 7.93866001,9.49305861 7.91596178,9.62662556 C7.89253332,9.7593142 7.88133634,9.8606971 7.88133634,9.92870394 C7.88133634,10.1003522 7.91845676,10.2175448 7.99288018,10.2798426 C8.06785127,10.3421404 8.19698168,10.3731325 8.38039311,10.3731325 C8.46650033,10.3731325 8.56447392,10.3573855 8.67334023,10.3264562 C8.78190227,10.2955269 8.86107223,10.2683618 8.91018073,10.2445845 Z M9,4.81746238 C9,5.04268801 8.91766567,5.23503948 8.75220593,5.39319932 C8.58717215,5.55192378 8.38830402,5.63134875 8.15566239,5.63134875 C7.92229051,5.63134875 7.72293556,5.55192378 7.55601533,5.39319932 C7.38939938,5.23497674 7.30590884,5.04268801 7.30590884,4.81746238 C7.30590884,4.59267591 7.38939938,4.40001075 7.55601533,4.23984334 C7.72263129,4.07992687 7.92235137,4 8.15566239,4 C8.38824317,4 8.58717215,4.08011508 8.75220593,4.23984334 C8.91778738,4.40001075 9,4.59273865 9,4.81746238 Z" id="Shape" fill="#1C94A3" fill-rule="nonzero"></path>
                        </g>
                    </g>
                </g>
            </g>
        </g>
    </g>
</svg>