<?xml version="1.0" encoding="UTF-8"?>
<svg width="20px" height="20px" viewBox="0 0 20 20" version="1.1" xmlns="http://www.w3.org/2000/svg" xmlns:xlink="http://www.w3.org/1999/xlink">
    <!-- Generator: Sketch 51.3 (57544) - http://www.bohemiancoding.com/sketch -->
    <title>university</title>
    <desc>Created with Sketch.</desc>
    <defs></defs>
    <g id="Page-2" stroke="none" stroke-width="1" fill="none" fill-rule="evenodd">
        <g id="sReports-User-Meta-Data--2.0-02-step-1" transform="translate(-651.000000, -158.000000)" fill="#A6B3B4" fill-rule="nonzero">
            <g id="university" transform="translate(651.000000, 158.000000)">
                <path d="M18.8235294,16.3135936 L18.1176471,16.3135936 C18.1176471,16.1834713 18.1176471,6.83211703 18.1176471,6.50932117 L19.4117647,6.50932117 C20.012,6.50932117 20.2252941,5.71090044 19.7054118,5.41136031 L10.5836471,0.15556439 C10.2236078,-0.0518547968 9.77635294,-0.0518547968 9.41631373,0.15556439 L0.294588235,5.41136031 C-0.225490196,5.71101809 -0.0117647059,6.50932117 0.588235294,6.50932117 L1.88235294,6.50932117 L1.88235294,16.3135936 L1.17647059,16.3135936 C0.527764706,16.3135936 0,16.8413772 0,17.4901063 L0,18.8234873 C0,19.4722164 0.527764706,20 1.17647059,20 L18.8235294,20 C19.4722353,20 20,19.4722164 20,18.8234873 L20,17.4901063 C20,16.8413772 19.4722353,16.3135936 18.8235294,16.3135936 Z M10,1.17709114 L17.2125098,5.33280848 C15.0406667,5.33280848 4.52964706,5.33280848 2.7874902,5.33280848 L10,1.17709114 Z M16.9411765,14.9802125 L16.9411765,16.3135936 L3.05882353,16.3135936 L3.05882353,14.9802125 L16.9411765,14.9802125 Z M3.05882353,13.8036998 L3.05882353,6.50932117 L4.39215686,6.50932117 L4.39215686,13.8036998 L3.05882353,13.8036998 Z M5.56862745,13.8036998 L5.56862745,6.50932117 L8.15686275,6.50932117 L8.15686275,13.8036998 L5.56862745,13.8036998 Z M9.33333333,13.8036998 L9.33333333,6.50932117 L10.6666667,6.50932117 L10.6666667,13.8036998 L9.33333333,13.8036998 Z M11.8431373,13.8036998 L11.8431373,6.50932117 L14.4313725,6.50932117 L14.4313725,13.8036998 L11.8431373,13.8036998 Z M15.6078431,13.8036998 L15.6078431,6.50932117 L16.9411765,6.50932117 L16.9411765,13.8036998 L15.6078431,13.8036998 Z M18.8235294,18.8234873 L1.17647059,18.8234873 L1.17647059,17.4901063 L18.8235294,17.4901063 C18.8242745,18.8530178 18.827451,18.8234873 18.8235294,18.8234873 Z" id="Shape"></path>
            </g>
        </g>
    </g>
</svg>