<?xml version="1.0" encoding="UTF-8"?>
<svg width="18px" height="24px" viewBox="0 0 18 24" version="1.1" xmlns="http://www.w3.org/2000/svg" xmlns:xlink="http://www.w3.org/1999/xlink">
    <!-- Generator: Sketch 51.3 (57544) - http://www.bohemiancoding.com/sketch -->
    <title>placeholder (1)</title>
    <desc>Created with Sketch.</desc>
    <defs></defs>
    <g id="Page-2" stroke="none" stroke-width="1" fill="none" fill-rule="evenodd">
        <g id="sReports-2.0-Create-,-find-consensus,--Users-03" transform="translate(-643.000000, -1702.000000)" fill="#000000" fill-rule="nonzero">
            <g id="placeholder-(1)" transform="translate(643.000000, 1702.000000)">
                <path d="M9,0 C4.0374,0 0,4.10048437 0,9.140625 C0,12.3943125 0.974538462,13.699125 5.65758462,19.9692187 C6.47049231,21.0576094 7.39190769,22.2912187 8.44615385,23.71875 C8.57690769,23.8957969 8.78210769,24 9.00004615,24 C9.21798462,24 9.42313846,23.89575 9.55389231,23.7186562 C10.6019538,22.2988125 11.5193538,21.0698906 12.3288,19.985625 C17.0231077,13.6972969 18,12.3886875 18,9.140625 C18,4.10048437 13.9626,0 9,0 Z M11.2254923,19.1360156 C10.5606923,20.0265469 9.8232,21.0144844 8.99986154,22.126125 C8.17089231,21.0073594 7.4292,20.0143125 6.76070769,19.1192812 C2.20541538,13.0202812 1.38461538,11.9212969 1.38461538,9.140625 C1.38461538,4.87589062 4.80087692,1.40625 9,1.40625 C13.1991231,1.40625 16.6153846,4.87589062 16.6153846,9.140625 C16.6153846,11.9158594 15.7924615,13.0182187 11.2254923,19.1360156 Z" id="Shape"></path>
                <path d="M9,4 C6.243,4 4,6.243 4,9 C4,11.757 6.243,14 9,14 C11.757,14 14,11.757 14,9 C14,6.243 11.757,4 9,4 Z M9,12.5714286 C7.03071429,12.5714286 5.42857143,10.9692857 5.42857143,9 C5.42857143,7.03071429 7.03071429,5.42857143 9,5.42857143 C10.9692857,5.42857143 12.5714286,7.03071429 12.5714286,9 C12.5714286,10.9692857 10.9692857,12.5714286 9,12.5714286 Z" id="Shape"></path>
            </g>
        </g>
    </g>
</svg>