<?xml version="1.0" encoding="UTF-8"?>
<svg width="13px" height="13px" viewBox="0 0 13 13" version="1.1" xmlns="http://www.w3.org/2000/svg" xmlns:xlink="http://www.w3.org/1999/xlink">
    <!-- Generator: Sketch 51.3 (57544) - http://www.bohemiancoding.com/sketch -->
    <title>logout (1)</title>
    <desc>Created with Sketch.</desc>
    <defs></defs>
    <g id="Page-1" stroke="none" stroke-width="1" fill="none" fill-rule="evenodd">
        <g id="eReports-Patienets-06" transform="translate(-1279.000000, -182.000000)" fill="#000000" fill-rule="nonzero">
            <g id="logout-(1)" transform="translate(1279.000000, 182.000000)">
                <path d="M9.16641775,9.953125 L9.16641775,10.96875 C9.16641775,12.0888138 8.25519155,13 7.13507864,13 L2.03133911,13 C0.9112262,13 0,12.0888138 0,10.96875 L0,2.03125 C0,0.911186225 0.9112262,0 2.03133911,0 L7.13507864,0 C8.25519155,0 9.16641775,0.911186225 9.16641775,2.03125 L9.16641775,3.046875 C9.16641775,3.32736206 8.93908234,3.5546875 8.65858297,3.5546875 C8.37808361,3.5546875 8.1507482,3.32736206 8.1507482,3.046875 L8.1507482,2.03125 C8.1507482,1.47126769 7.69508552,1.015625 7.13507864,1.015625 L2.03133911,1.015625 C1.47133223,1.015625 1.01566956,1.47126769 1.01566956,2.03125 L1.01566956,10.96875 C1.01566956,11.5287323 1.47133223,11.984375 2.03133911,11.984375 L7.13507864,11.984375 C7.69508552,11.984375 8.1507482,11.5287323 8.1507482,10.96875 L8.1507482,9.953125 C8.1507482,9.67263794 8.37808361,9.4453125 8.65858297,9.4453125 C8.93908234,9.4453125 9.16641775,9.67263794 9.16641775,9.953125 Z M12.6287202,5.62769317 L11.4915472,4.49057007 C11.2931742,4.29220581 10.9716117,4.29220581 10.7733379,4.49057007 C10.574965,4.68883515 10.574965,5.0103836 10.7733379,5.20864868 L11.5822037,6.01757812 L5.48461561,6.01757812 C5.20411624,6.01757812 4.97678083,6.24490356 4.97678083,6.52539062 C4.97678083,6.80587769 5.20411624,7.03320312 5.48461561,7.03320312 L11.5822037,7.03320312 L10.7733379,7.84213257 C10.574965,8.04039765 10.574965,8.3619461 10.7733379,8.56021118 C10.8725244,8.65939331 11.0024587,8.70898438 11.132393,8.70898438 C11.2624265,8.70898438 11.3923607,8.65939331 11.4915472,8.56021118 L12.6287202,7.42308808 C13.1237599,6.92807007 13.1237599,6.12271118 12.6287202,5.62769317 Z" id="Shape"></path>
            </g>
        </g>
    </g>
</svg>