<?xml version="1.0" encoding="UTF-8"?>
<svg width="23px" height="23px" viewBox="0 0 23 23" version="1.1" xmlns="http://www.w3.org/2000/svg" xmlns:xlink="http://www.w3.org/1999/xlink">
    <!-- Generator: Sketch 51.3 (57544) - http://www.bohemiancoding.com/sketch -->
    <title>indent</title>
    <desc>Created with Sketch.</desc>
    <defs></defs>
    <g id="Page-2" stroke="none" stroke-width="1" fill="none" fill-rule="evenodd">
        <g id="eReports-Thesaurus-merge" transform="translate(-548.000000, -209.000000)" fill="#1C94A3" fill-rule="nonzero">
            <g id="indent" transform="translate(548.000000, 209.000000)">
                <path d="M17.5195312,5.48046875 L17.5195312,0 L0,0 L0,17.5195312 L5.48046875,17.5195312 L5.48046875,23 L23,23 L23,5.48046875 L17.5195312,5.48046875 Z M5.48046875,16.171875 L1.34765625,16.171875 L1.34765625,1.34765625 L16.171875,1.34765625 L16.171875,5.48046875 L5.48046875,5.48046875 L5.48046875,16.171875 Z M16.171875,6.828125 L16.171875,16.171875 L6.828125,16.171875 L6.828125,6.828125 L16.171875,6.828125 Z M21.6523438,21.6523438 L6.828125,21.6523438 L6.828125,17.5195312 L17.5195312,17.5195312 L17.5195312,6.828125 L21.6523438,6.828125 L21.6523438,21.6523438 Z" id="Shape"></path>
            </g>
        </g>
    </g>
</svg>