<?xml version="1.0" encoding="UTF-8"?>
<svg width="15px" height="15px" viewBox="0 0 15 15" version="1.1" xmlns="http://www.w3.org/2000/svg" xmlns:xlink="http://www.w3.org/1999/xlink">
    <!-- Generator: Sketch 51.3 (57544) - http://www.bohemiancoding.com/sketch -->
    <title>union</title>
    <desc>Created with Sketch.</desc>
    <defs></defs>
    <g id="Page-1" stroke="none" stroke-width="1" fill="none" fill-rule="evenodd">
        <g id="eReports-relation-1" transform="translate(-680.000000, -205.000000)" fill="#000000" fill-rule="nonzero">
            <g id="union" transform="translate(680.000000, 205.000000)">
                <path d="M14.7070312,3.1640625 L11.8359375,3.1640625 L11.8359375,0.29296875 C11.8359375,0.131149277 11.7047882,0 11.5429688,0 L0.29296875,0 C0.131149277,0 0,0.131149277 0,0.29296875 L0,11.5429688 C0,11.7047882 0.131149277,11.8359375 0.29296875,11.8359375 L3.1640625,11.8359375 L3.1640625,14.7070312 C3.1640625,14.8688507 3.29521178,15 3.45703125,15 L7.89550781,15 C8.05732729,15 8.18847656,14.8688507 8.18847656,14.7070312 C8.18847656,14.5452118 8.05732729,14.4140625 7.89550781,14.4140625 L3.75,14.4140625 L3.75,11.8113327 C3.85345459,11.7661286 3.92578125,11.6630173 3.92578125,11.5429688 C3.92578125,11.3811493 3.79463197,11.25 3.6328125,11.25 L0.5859375,11.25 L0.5859375,0.5859375 L11.25,0.5859375 L11.25,3.1886673 C11.1465454,3.23387145 11.0742188,3.33698273 11.0742188,3.45703125 C11.0742188,3.61885072 11.205368,3.75 11.3671875,3.75 L14.4140625,3.75 L14.4140625,14.4140625 L10.2539062,14.4140625 C10.0920868,14.4140625 9.9609375,14.5452118 9.9609375,14.7070312 C9.9609375,14.8688507 10.0920868,15 10.2539062,15 L14.7070312,15 C14.8688507,15 15,14.8688507 15,14.7070312 L15,3.45703125 C15,3.29521178 14.8688507,3.1640625 14.7070312,3.1640625 Z" id="Shape"></path>
                <path d="M11.25,10.1953125 C11.25,10.357132 11.3811493,10.4882812 11.5429688,10.4882812 C11.7047882,10.4882812 11.8359375,10.357132 11.8359375,10.1953125 L11.8359375,10.0195312 C11.8359375,9.85771178 11.7047882,9.7265625 11.5429688,9.7265625 C11.3811493,9.7265625 11.25,9.85771178 11.25,10.0195312 L11.25,10.1953125 Z" id="Shape"></path>
                <path d="M11.25,7.5 C11.25,7.66181947 11.3811493,7.79296875 11.5429688,7.79296875 C11.7047882,7.79296875 11.8359375,7.66181947 11.8359375,7.5 L11.8359375,7.32421875 C11.8359375,7.16239928 11.7047882,7.03125 11.5429688,7.03125 C11.3811493,7.03125 11.25,7.16239928 11.25,7.32421875 L11.25,7.5 Z" id="Shape"></path>
                <path d="M11.5429688,5.09765625 C11.7047882,5.09765625 11.8359375,4.96650697 11.8359375,4.8046875 L11.8359375,4.62890625 C11.8359375,4.46708678 11.7047882,4.3359375 11.5429688,4.3359375 C11.3811493,4.3359375 11.25,4.46708678 11.25,4.62890625 L11.25,4.8046875 C11.25,4.96650697 11.3811493,5.09765625 11.5429688,5.09765625 Z" id="Shape"></path>
                <path d="M11.25,8.84765625 C11.25,9.00947572 11.3811493,9.140625 11.5429688,9.140625 C11.7047882,9.140625 11.8359375,9.00947572 11.8359375,8.84765625 L11.8359375,8.671875 C11.8359375,8.51005553 11.7047882,8.37890625 11.5429688,8.37890625 C11.3811493,8.37890625 11.25,8.51005553 11.25,8.671875 L11.25,8.84765625 Z" id="Shape"></path>
                <path d="M8.84765625,3.75 C9.00947572,3.75 9.140625,3.61885072 9.140625,3.45703125 C9.140625,3.29521178 9.00947572,3.1640625 8.84765625,3.1640625 L8.671875,3.1640625 C8.51005553,3.1640625 8.37890625,3.29521178 8.37890625,3.45703125 C8.37890625,3.61885072 8.51005553,3.75 8.671875,3.75 L8.84765625,3.75 Z" id="Shape"></path>
                <path d="M9.0234375,11.8359375 C9.18525697,11.8359375 9.31640625,11.7047882 9.31640625,11.5429688 C9.31640625,11.3811493 9.18525697,11.25 9.0234375,11.25 L8.84765625,11.25 C8.68583678,11.25 8.5546875,11.3811493 8.5546875,11.5429688 C8.5546875,11.7047882 8.68583678,11.8359375 8.84765625,11.8359375 L9.0234375,11.8359375 Z" id="Shape"></path>
                <path d="M11.25,11.5429688 C11.25,11.7047882 11.3811493,11.8359375 11.5429688,11.8359375 C11.7047882,11.8359375 11.8359375,11.7047882 11.8359375,11.5429688 L11.8359375,11.3671875 C11.8359375,11.205368 11.7047882,11.0742188 11.5429688,11.0742188 C11.3811493,11.0742188 11.25,11.205368 11.25,11.3671875 L11.25,11.5429688 Z" id="Shape"></path>
                <path d="M10.1953125,3.75 C10.357132,3.75 10.4882812,3.61885072 10.4882812,3.45703125 C10.4882812,3.29521178 10.357132,3.1640625 10.1953125,3.1640625 L10.0195312,3.1640625 C9.85771178,3.1640625 9.7265625,3.29521178 9.7265625,3.45703125 C9.7265625,3.61885072 9.85771178,3.75 10.0195312,3.75 L10.1953125,3.75 Z" id="Shape"></path>
                <path d="M10.1953125,11.8359375 L10.3710938,11.8359375 C10.5329132,11.8359375 10.6640625,11.7047882 10.6640625,11.5429688 C10.6640625,11.3811493 10.5329132,11.25 10.3710938,11.25 L10.1953125,11.25 C10.033493,11.25 9.90234375,11.3811493 9.90234375,11.5429688 C9.90234375,11.7047882 10.033493,11.8359375 10.1953125,11.8359375 Z" id="Shape"></path>
                <path d="M11.25,6.15234375 C11.25,6.31416322 11.3811493,6.4453125 11.5429688,6.4453125 C11.7047882,6.4453125 11.8359375,6.31416322 11.8359375,6.15234375 L11.8359375,5.9765625 C11.8359375,5.81474303 11.7047882,5.68359375 11.5429688,5.68359375 C11.3811493,5.68359375 11.25,5.81474303 11.25,5.9765625 L11.25,6.15234375 Z" id="Shape"></path>
                <path d="M6.15234375,3.75 C6.31416322,3.75 6.4453125,3.61885072 6.4453125,3.45703125 C6.4453125,3.29521178 6.31416322,3.1640625 6.15234375,3.1640625 L5.9765625,3.1640625 C5.81474303,3.1640625 5.68359375,3.29521178 5.68359375,3.45703125 C5.68359375,3.61885072 5.81474303,3.75 5.9765625,3.75 L6.15234375,3.75 Z" id="Shape"></path>
                <path d="M3.75,6.15234375 C3.75,5.99052428 3.61885072,5.859375 3.45703125,5.859375 C3.29521178,5.859375 3.1640625,5.99052428 3.1640625,6.15234375 L3.1640625,6.328125 C3.1640625,6.48994447 3.29521178,6.62109375 3.45703125,6.62109375 C3.61885072,6.62109375 3.75,6.48994447 3.75,6.328125 L3.75,6.15234375 Z" id="Shape"></path>
                <path d="M3.75,7.5 C3.75,7.33818053 3.61885072,7.20703125 3.45703125,7.20703125 C3.29521178,7.20703125 3.1640625,7.33818053 3.1640625,7.5 L3.1640625,7.67578125 C3.1640625,7.83760072 3.29521178,7.96875 3.45703125,7.96875 C3.61885072,7.96875 3.75,7.83760072 3.75,7.67578125 L3.75,7.5 Z" id="Shape"></path>
                <path d="M3.75,3.45703125 C3.75,3.29521178 3.61885072,3.1640625 3.45703125,3.1640625 C3.29521178,3.1640625 3.1640625,3.29521178 3.1640625,3.45703125 L3.1640625,3.6328125 C3.1640625,3.79463197 3.29521178,3.92578125 3.45703125,3.92578125 C3.61885072,3.92578125 3.75,3.79463197 3.75,3.6328125 L3.75,3.45703125 Z" id="Shape"></path>
                <path d="M3.75,4.8046875 C3.75,4.64286803 3.61885072,4.51171875 3.45703125,4.51171875 C3.29521178,4.51171875 3.1640625,4.64286803 3.1640625,4.8046875 L3.1640625,4.98046875 C3.1640625,5.14228822 3.29521178,5.2734375 3.45703125,5.2734375 C3.61885072,5.2734375 3.75,5.14228822 3.75,4.98046875 L3.75,4.8046875 Z" id="Shape"></path>
                <path d="M3.45703125,9.90234375 C3.29521178,9.90234375 3.1640625,10.033493 3.1640625,10.1953125 L3.1640625,10.3710938 C3.1640625,10.5329132 3.29521178,10.6640625 3.45703125,10.6640625 C3.61885072,10.6640625 3.75,10.5329132 3.75,10.3710938 L3.75,10.1953125 C3.75,10.033493 3.61885072,9.90234375 3.45703125,9.90234375 Z" id="Shape"></path>
                <path d="M3.75,8.84765625 C3.75,8.68583678 3.61885072,8.5546875 3.45703125,8.5546875 C3.29521178,8.5546875 3.1640625,8.68583678 3.1640625,8.84765625 L3.1640625,9.0234375 C3.1640625,9.18525697 3.29521178,9.31640625 3.45703125,9.31640625 C3.61885072,9.31640625 3.75,9.18525697 3.75,9.0234375 L3.75,8.84765625 Z" id="Shape"></path>
                <path d="M6.15234375,11.8359375 L6.328125,11.8359375 C6.48994447,11.8359375 6.62109375,11.7047882 6.62109375,11.5429688 C6.62109375,11.3811493 6.48994447,11.25 6.328125,11.25 L6.15234375,11.25 C5.99052428,11.25 5.859375,11.3811493 5.859375,11.5429688 C5.859375,11.7047882 5.99052428,11.8359375 6.15234375,11.8359375 Z" id="Shape"></path>
                <path d="M7.5,11.8359375 L7.67578125,11.8359375 C7.83760072,11.8359375 7.96875,11.7047882 7.96875,11.5429688 C7.96875,11.3811493 7.83760072,11.25 7.67578125,11.25 L7.5,11.25 C7.33818053,11.25 7.20703125,11.3811493 7.20703125,11.5429688 C7.20703125,11.7047882 7.33818053,11.8359375 7.5,11.8359375 Z" id="Shape"></path>
                <path d="M7.5,3.75 C7.66181947,3.75 7.79296875,3.61885072 7.79296875,3.45703125 C7.79296875,3.29521178 7.66181947,3.1640625 7.5,3.1640625 L7.32421875,3.1640625 C7.16239928,3.1640625 7.03125,3.29521178 7.03125,3.45703125 C7.03125,3.61885072 7.16239928,3.75 7.32421875,3.75 L7.5,3.75 Z" id="Shape"></path>
                <path d="M4.8046875,3.75 C4.96650697,3.75 5.09765625,3.61885072 5.09765625,3.45703125 C5.09765625,3.29521178 4.96650697,3.1640625 4.8046875,3.1640625 L4.62890625,3.1640625 C4.46708678,3.1640625 4.3359375,3.29521178 4.3359375,3.45703125 C4.3359375,3.61885072 4.46708678,3.75 4.62890625,3.75 L4.8046875,3.75 Z" id="Shape"></path>
                <path d="M4.8046875,11.8359375 L4.98046875,11.8359375 C5.14228822,11.8359375 5.2734375,11.7047882 5.2734375,11.5429688 C5.2734375,11.3811493 5.14228822,11.25 4.98046875,11.25 L4.8046875,11.25 C4.64286803,11.25 4.51171875,11.3811493 4.51171875,11.5429688 C4.51171875,11.7047882 4.64286803,11.8359375 4.8046875,11.8359375 Z" id="Shape"></path>
                <path d="M9.08203125,14.4140625 C9.00501252,14.4140625 8.92936705,14.4454193 8.8748932,14.4998932 C8.8204193,14.5543671 8.7890625,14.6300125 8.7890625,14.7070312 C8.7890625,14.78405 8.8204193,14.8596954 8.8748932,14.9141693 C8.92936705,14.9686432 9.00501252,15 9.08203125,15 C9.15904998,15 9.23469545,14.9686432 9.2891693,14.9141693 C9.3436432,14.8596954 9.375,14.78405 9.375,14.7070312 C9.375,14.6300125 9.3436432,14.5543671 9.2891693,14.4998932 C9.23469545,14.4454193 9.15904998,14.4140625 9.08203125,14.4140625 Z" id="Shape"></path>
            </g>
        </g>
    </g>
</svg>