<?xml version="1.0" encoding="UTF-8"?>
<svg width="13px" height="13px" viewBox="0 0 13 13" version="1.1" xmlns="http://www.w3.org/2000/svg" xmlns:xlink="http://www.w3.org/1999/xlink">
    <!-- Generator: Sketch 51.3 (57544) - http://www.bohemiancoding.com/sketch -->
    <title>merge (1)</title>
    <desc>Created with Sketch.</desc>
    <defs></defs>
    <g id="Page-2" stroke="none" stroke-width="1" fill="none" fill-rule="evenodd">
        <g id="eReports-Thesaurus-review" transform="translate(-538.000000, -1078.000000)" fill="#FFFFFF" fill-rule="nonzero">
            <g id="merge-(1)" transform="translate(538.000000, 1078.000000)">
                <path d="M6.53488372,4 L5.86046512,4 C4.83460465,4 4,4.82818462 4,5.84615385 L4,6.53846154 C4,6.79336923 4.20823256,7 4.46511628,7 C4.722,7 4.93023256,6.79336923 4.93023256,6.53846154 L4.93023256,5.84615385 C4.93023256,5.33716923 5.34753488,4.92307692 5.86046512,4.92307692 L6.53488372,4.92307692 C6.79176744,4.92307692 7,4.71644615 7,4.46153846 C7,4.20663077 6.79176744,4 6.53488372,4 Z" id="Shape"></path>
                <path d="M10.96875,3.60546875 L9.39453125,3.60546875 L9.39453125,2.03125 C9.39453125,0.91121875 8.4833125,0 7.36328125,0 L2.03125,0 C0.91121875,0 0,0.91121875 0,2.03125 L0,7.36328125 C0,8.4833125 0.91121875,9.39453125 2.03125,9.39453125 L3.60546875,9.39453125 L3.60546875,10.96875 C3.60546875,12.0887812 4.5166875,13 5.63671875,13 L10.96875,13 C12.0887812,13 13,12.0887812 13,10.96875 L13,5.63671875 C13,4.5166875 12.0887812,3.60546875 10.96875,3.60546875 Z M11.984375,10.96875 C11.984375,11.5287656 11.5287656,11.984375 10.96875,11.984375 L5.63671875,11.984375 C5.07670313,11.984375 4.62109375,11.5287656 4.62109375,10.96875 L4.62109375,8.88671875 C4.62109375,8.60625391 4.39374609,8.37890625 4.11328125,8.37890625 L2.03125,8.37890625 C1.47123437,8.37890625 1.015625,7.92329688 1.015625,7.36328125 L1.015625,2.03125 C1.015625,1.47123437 1.47123437,1.015625 2.03125,1.015625 L7.36328125,1.015625 C7.92329688,1.015625 8.37890625,1.47123437 8.37890625,2.03125 L8.37890625,4.11328125 C8.37890625,4.39374609 8.60625391,4.62109375 8.88671875,4.62109375 L10.96875,4.62109375 C11.5287656,4.62109375 11.984375,5.07670313 11.984375,5.63671875 L11.984375,10.96875 Z" id="Shape"></path>
                <path d="M8.53488372,6 C8.278,6 8.06976744,6.20505344 8.06976744,6.45801527 L8.06976744,7.16793893 C8.06976744,7.67303817 7.65246512,8.08396947 7.13953488,8.08396947 L6.46511628,8.08396947 C6.20823256,8.08396947 6,8.2890229 6,8.54198473 C6,8.79494656 6.20823256,9 6.46511628,9 L7.13953488,9 C8.16539535,9 9,8.1781374 9,7.16793893 L9,6.45801527 C9,6.20505344 8.79176744,6 8.53488372,6 Z" id="Shape"></path>
            </g>
        </g>
    </g>
</svg>