<?xml version="1.0" encoding="UTF-8"?>
<svg width="17px" height="17px" viewBox="0 0 17 17" version="1.1" xmlns="http://www.w3.org/2000/svg" xmlns:xlink="http://www.w3.org/1999/xlink">
    <!-- Generator: Sketch 51.3 (57544) - http://www.bohemiancoding.com/sketch -->
    <title>add (13)</title>
    <desc>Created with Sketch.</desc>
    <defs></defs>
    <g id="Page-1" stroke="none" stroke-width="1" fill="none" fill-rule="evenodd">
        <g id="eReports-Create-details" transform="translate(-1154.000000, -1320.000000)" fill="#FFFFFF" fill-rule="nonzero">
            <g id="add-(13)" transform="translate(1154.000000, 1320.000000)">
                <path d="M13.9642933,0 L3.03570666,0 C1.35995446,0.00199219028 0.00199219028,1.35995446 0,3.03570666 L0,13.9642933 C0.00199219028,15.6400455 1.35995446,16.9980078 3.03570666,17 L13.9642933,17 C15.6400455,16.9980078 16.9980078,15.6400455 17,13.9642933 L17,3.03570666 C16.9980078,1.35995446 15.6400455,0.00199219028 13.9642933,0 Z M15.7857244,13.9642933 C15.7857244,14.9702427 14.9702427,15.7857244 13.9642933,15.7857244 L3.03570666,15.7857244 C2.0297573,15.7857244 1.21427555,14.9702427 1.21427555,13.9642933 L1.21427555,3.03570666 C1.21427555,2.0297573 2.0297573,1.21427555 3.03570666,1.21427555 L13.9642933,1.21427555 C14.9702427,1.21427555 15.7857244,2.0297573 15.7857244,3.03570666 L15.7857244,13.9642933 Z" id="Shape"></path>
                <path d="M11.4166581,7.91667521 L9.08332479,7.91667521 L7.91664103,7.91667521 L5.58334188,7.91667521 C5.26116572,7.91667521 5,8.17784093 5,8.50001709 C5,8.82219325 5.26116572,9.08332479 5.58334188,9.08332479 L7.91667521,9.08332479 L9.08332479,9.08332479 L11.4166581,9.08332479 C11.7388343,9.08332479 12,8.82215907 12,8.49998291 C12,8.17780675 11.7388001,7.91667521 11.4166581,7.91667521 Z" id="Shape"></path>
            </g>
        </g>
    </g>
</svg>