<?xml version="1.0" encoding="UTF-8"?>
<svg width="115px" height="116px" viewBox="0 0 115 116" version="1.1" xmlns="http://www.w3.org/2000/svg" xmlns:xlink="http://www.w3.org/1999/xlink">
    <!-- Generator: Sketch 51.3 (57544) - http://www.bohemiancoding.com/sketch -->
    <title>Group 6</title>
    <desc>Created with Sketch.</desc>
    <defs></defs>
    <g id="Page-2" stroke="none" stroke-width="1" fill="none" fill-rule="evenodd">
        <g id="eReports-Thesaurus-no-results" transform="translate(-663.000000, -372.000000)">
            <g id="Group-6" transform="translate(663.000000, 372.000000)">
                <g id="28502">
                    <path d="M45.7833717,41.5061286 L45.7833717,35.7841505 C45.7833717,32.589659 43.2047203,30 40.0235738,30 L11.7597979,30 C8.57865137,30 6,32.589659 6,35.7841505 L6,110.215615 C6,113.410341 8.57865137,116 11.7597979,116 L109.240202,116 C112.421115,116 115,113.410341 115,110.215615 L115,53.0748989 C115,49.8801727 112.421115,47.2905137 109.240202,47.2905137 L51.5431696,47.2905137 C48.3620231,47.2905137 45.7833717,44.7008547 45.7833717,41.5061286" id="Fill-7" fill="#DADDDD"></path>
                    <path d="M44.000001,0.710056498 C43.9993465,0.374805809 44.3074032,0.102534631 44.6883289,0.101958599 L106.162224,9.15552834e-07 C106.542931,-0.000575116558 106.852297,0.270736008 106.853169,0.605794686 L106.999998,69.2899435 C107.000871,69.6251942 106.692596,69.8974654 106.31167,69.8980414 L44.8379938,69.9999991 C44.4570682,70.0005751 44.1477025,69.729456 44.1470479,69.3942053 L44.000001,0.710056498 Z" id="Fill-28" fill="#F6F6F6"></path>
                    <polyline id="Fill-35" fill="#E6E6E7" points="103 53.9177515 51.0021131 54 51 53.0822485 102.998122 53 103 53.9177515"></polyline>
                    <polyline id="Fill-36" fill="#E6E6E7" points="103 60.9177515 51.0021131 61 51 60.0824458 102.997887 60 103 60.9177515"></polyline>
                    <polyline id="Fill-37" fill="#E6E6E7" points="103 67.9177353 51.0021131 68 51 67.0822647 102.998122 67 103 67.9177353"></polyline>
                    <polygon id="Fill-38" fill="#FFFFFF" points="51.0229418 13 51 8.02980256 89.9768883 8 90 12.9701974"></polygon>
                    <polygon id="Fill-38" fill="#1C94A3" points="94.0029413 13 94 8.02980256 98.997037 8 99 12.9701974"></polygon>
                    <path d="M39.7832233,41.5061286 L39.7832233,35.7841505 C39.7832233,32.589659 37.2045664,30 34.0236467,30 L5.75957666,30 C2.5786569,30 0,32.589659 0,35.7841505 L0,110.215615 C0,113.410341 2.5786569,116 5.75957666,116 L103.24019,116 C106.421343,116 109,113.410341 109,110.215615 L109,53.0748989 C109,49.8801727 106.421343,47.2905137 103.24019,47.2905137 L45.5430336,47.2905137 C42.3621139,47.2905137 39.7832233,44.7008547 39.7832233,41.5061286" id="Fill-40" fill="#F0F1F1"></path>
                    <polygon id="Fill-38" fill="#DADDDD" points="90.0052943 57 90 54.0178815 98.9946665 54 99 56.9821185"></polygon>
                </g>
                <g id="search-(3)" transform="translate(9.000000, 0.000000)" fill="#F0F1F1" fill-rule="nonzero">
                    <path d="M22.3457011,19.8277282 C26.2729436,14.1638979 24.9594845,6.32115479 19.4138726,2.31115131 C13.8682606,-1.69885217 6.18921599,-0.35835177 2.26291157,5.30643698 C-1.66339285,10.9702676 -0.35087189,18.8120523 5.19567819,22.8220558 C9.15388078,25.684154 14.3870772,25.9045366 18.5620006,23.3864268 L23.5584842,28.1816915 C24.5379496,29.2347367 26.167577,29.2768968 27.1986422,28.2765518 C28.2297076,27.277165 28.2709878,25.612798 27.2924609,24.559753 C27.2615007,24.5262165 27.2314787,24.4955546 27.1986422,24.4639343 L22.3457011,19.8277282 Z M4.35881687,12.5857674 C4.35787875,8.11008594 7.90797102,4.4814399 12.2911716,4.47952365 C16.6678049,4.47760716 20.2188355,8.09762959 20.2272791,12.5675618 C20.2347846,17.0442013 16.6865688,20.6785964 12.3024298,20.6862619 C7.91453837,20.6872202 4.36163149,17.0614488 4.35881687,12.5857674 Z" id="Shape"></path>
                </g>
            </g>
        </g>
    </g>
</svg>