<?xml version="1.0" encoding="UTF-8"?>
<svg width="9px" height="11px" viewBox="0 0 9 11" version="1.1" xmlns="http://www.w3.org/2000/svg" xmlns:xlink="http://www.w3.org/1999/xlink">
    <!-- Generator: Sketch 51.3 (57544) - http://www.bohemiancoding.com/sketch -->
    <title>portable-document-format (1)</title>
    <desc>Created with Sketch.</desc>
    <defs></defs>
    <g id="Page-1" stroke="none" stroke-width="1" fill="none" fill-rule="evenodd">
        <g id="eReports-field-polja-02" transform="translate(-1542.000000, -163.000000)" fill="#187580" fill-rule="nonzero">
            <g id="Group-10" transform="translate(1160.000000, 156.000000)">
                <g id="portable-document-format-(1)" transform="translate(382.000000, 7.000000)">
                    <path d="M7.67647059,11 L1.32352941,11 C0.594,11 0,10.38345 0,9.625 L0,1.375 C0,0.61655 0.594,0 1.32352941,0 L7.67647059,0 C8.406,0 9,0.61655 9,1.375 L9,9.625 C9,10.38345 8.406,11 7.67647059,11 Z M1.32352941,0.55 C0.885705882,0.55 0.529411765,0.92015 0.529411765,1.375 L0.529411765,9.625 C0.529411765,10.07985 0.885705882,10.45 1.32352941,10.45 L7.67647059,10.45 C8.11429412,10.45 8.47058824,10.07985 8.47058824,9.625 L8.47058824,1.375 C8.47058824,0.92015 8.11429412,0.55 7.67647059,0.55 L1.32352941,0.55 Z" id="Shape"></path>
                    <path d="M6.72222222,8 L2.27777778,8 C2.12444444,8 2,7.776 2,7.5 C2,7.224 2.12444444,7 2.27777778,7 L6.72222222,7 C6.87555556,7 7,7.224 7,7.5 C7,7.776 6.87555556,8 6.72222222,8 Z" id="Shape"></path>
                    <path d="M6.72222222,6 L2.27777778,6 C2.12444444,6 2,5.776 2,5.5 C2,5.224 2.12444444,5 2.27777778,5 L6.72222222,5 C6.87555556,5 7,5.224 7,5.5 C7,5.776 6.87555556,6 6.72222222,6 Z" id="Shape"></path>
                    <path d="M6.72222222,4 L2.27777778,4 C2.12444444,4 2,3.776 2,3.5 C2,3.224 2.12444444,3 2.27777778,3 L6.72222222,3 C6.87555556,3 7,3.224 7,3.5 C7,3.776 6.87555556,4 6.72222222,4 Z" id="Shape"></path>
                </g>
            </g>
        </g>
    </g>
</svg>