<svg width="17" height="14" viewBox="0 0 17 14" fill="none" xmlns="http://www.w3.org/2000/svg">
<path fill-rule="evenodd" clip-rule="evenodd" d="M7.51813 14H9.03614C9.59502 14 10.0483 13.4411 10.0483 12.9879C10.0483 12.429 9.59504 11.9758 9.03614 11.9758H7.51813C6.95926 11.9758 6.50602 12.5347 6.50602 12.9879C6.50602 13.5468 6.95924 14 7.51813 14ZM7.51813 10.4458H11.2516C11.8105 10.4458 12.2637 9.88691 12.2637 9.43367C12.2637 8.8748 11.8105 8.42157 11.2516 8.42157H7.51813C6.95926 8.42157 6.50602 8.98044 6.50602 9.43367C6.50602 9.99255 6.95924 10.4458 7.51813 10.4458ZM7.33741 6.89157H13.1786C13.7375 6.89157 14.1907 6.33269 14.1907 5.87946C14.1907 5.32058 13.7375 4.86735 13.1786 4.86735H7.33741C6.77854 4.86735 6.3253 5.42622 6.3253 5.87946C6.3253 6.43833 6.77852 6.89157 7.33741 6.89157ZM15.0353 3.33735H7.33741C6.77852 3.33735 6.3253 2.88411 6.3253 2.32524C6.3253 1.87201 6.77854 1.31313 7.33741 1.31313H15.0353C15.5942 1.31313 16.0474 1.76637 16.0474 2.32524C16.0474 2.77848 15.5942 3.33735 15.0353 3.33735ZM1.87294 4.06515H0L2.88459 0.0169907L5.66736 4.06515H3.89696V13.9373H1.87294V4.06515Z" fill="#A5B2B3"/>
</svg>
