<svg width="17" height="14" viewBox="0 0 17 14" fill="none" xmlns="http://www.w3.org/2000/svg">
<path fill-rule="evenodd" clip-rule="evenodd" d="M7.51813 0H9.03614C9.59502 0 10.0483 0.558874 10.0483 1.01211C10.0483 1.57098 9.59504 2.02422 9.03614 2.02422H7.51813C6.95926 2.02422 6.50602 1.46534 6.50602 1.01211C6.50602 0.453235 6.95924 0 7.51813 0ZM7.51813 3.55422H11.2516C11.8105 3.55422 12.2637 4.11309 12.2637 4.56633C12.2637 5.1252 11.8105 5.57843 11.2516 5.57843H7.51813C6.95926 5.57843 6.50602 5.01956 6.50602 4.56633C6.50602 4.00745 6.95924 3.55422 7.51813 3.55422ZM7.33741 7.10843H13.1786C13.7375 7.10843 14.1907 7.66731 14.1907 8.12054C14.1907 8.67942 13.7375 9.13265 13.1786 9.13265H7.33741C6.77854 9.13265 6.3253 8.57378 6.3253 8.12054C6.3253 7.56167 6.77852 7.10843 7.33741 7.10843ZM15.0353 10.6627H7.33741C6.77852 10.6627 6.3253 11.1159 6.3253 11.6748C6.3253 12.128 6.77854 12.6869 7.33741 12.6869H15.0353C15.5942 12.6869 16.0474 12.2336 16.0474 11.6748C16.0474 11.2215 15.5942 10.6627 15.0353 10.6627ZM1.87294 9.93485H0L2.88459 13.983L5.66736 9.93485H3.89696V0.0627441H1.87294V9.93485Z" fill="#A5B2B3"/>
</svg>
