<?xml version="1.0" encoding="UTF-8"?>
<svg width="18px" height="9px" viewBox="0 0 18 9" version="1.1" xmlns="http://www.w3.org/2000/svg" xmlns:xlink="http://www.w3.org/1999/xlink">
    <!-- Generator: Sketch 51.3 (57544) - http://www.bohemiancoding.com/sketch -->
    <title>Fill 919</title>
    <desc>Created with Sketch.</desc>
    <defs></defs>
    <g id="Page-1" stroke="none" stroke-width="1" fill="none" fill-rule="evenodd">
        <g id="eReports-Patients-open-menu" transform="translate(-66.000000, -375.000000)" fill="#000000">
            <path d="M68.4699118,375.219373 C68.7631587,374.926876 69.2371538,374.926876 69.5304007,375.219373 L71.7803773,377.469349 C72.0736242,377.761846 72.0736242,378.241841 71.7803773,378.534338 C71.4871303,378.826835 71.0131353,378.826835 70.7198883,378.534338 L69.7501484,377.559348 L69.7501484,383.251789 C69.7501484,383.664285 69.4141519,384.001781 69.0001562,384.001781 C68.5861606,384.001781 68.2501641,383.664285 68.2501641,383.251789 L68.2501641,377.559348 L67.2804242,378.534338 C66.9871772,378.826835 66.5131822,378.826835 66.2199352,378.534338 C65.9266883,378.241841 65.9266883,377.761846 66.2199352,377.469349 L68.4699118,375.219373 Z M83.2500078,376.501859 L74.2501016,376.501859 C73.8361059,376.501859 73.5001094,376.164363 73.5001094,375.751867 C73.5001094,375.339371 73.8361059,375.001875 74.2501016,375.001875 L83.2500078,375.001875 C83.6640035,375.001875 84,375.339371 84,375.751867 C84,376.164363 83.6640035,376.501859 83.2500078,376.501859 Z M73.5001094,379.501828 C73.5001094,379.089332 73.8361059,378.751836 74.2501016,378.751836 L80.2500391,378.751836 C80.6640347,378.751836 81.0000312,379.089332 81.0000312,379.501828 C81.0000312,379.914324 80.6640347,380.25182 80.2500391,380.25182 L74.2501016,380.25182 C73.8361059,380.25182 73.5001094,379.914324 73.5001094,379.501828 Z M73.5001094,383.251789 C73.5001094,382.839293 73.8361059,382.501797 74.2501016,382.501797 L80.2500391,382.501797 C80.6640347,382.501797 81.0000312,382.839293 81.0000312,383.251789 C81.0000312,383.664285 80.6640347,384.001781 80.2500391,384.001781 L74.2501016,384.001781 C73.8361059,384.001781 73.5001094,383.664285 73.5001094,383.251789 Z" id="Fill-919"></path>
        </g>
    </g>
</svg>