<?xml version="1.0" encoding="UTF-8"?>
<svg width="18px" height="9px" viewBox="0 0 18 9" version="1.1" xmlns="http://www.w3.org/2000/svg" xmlns:xlink="http://www.w3.org/1999/xlink">
    <!-- Generator: Sketch 51.3 (57544) - http://www.bohemiancoding.com/sketch -->
    <title>Fill 919</title>
    <desc>Created with Sketch.</desc>
    <defs></defs>
    <g id="Page-1" stroke="none" stroke-width="1" fill="none" fill-rule="evenodd">
        <g id="eReports-Patients-open-menu" transform="translate(-16.000000, -375.000000)" fill="#A5B2B3">
            <path d="M18.4699118,375.219373 C18.7631587,374.926876 19.2371538,374.926876 19.5304007,375.219373 L21.7803773,377.469349 C22.0736242,377.761846 22.0736242,378.241841 21.7803773,378.534338 C21.4871303,378.826835 21.0131353,378.826835 20.7198883,378.534338 L19.7501484,377.559348 L19.7501484,383.251789 C19.7501484,383.664285 19.4141519,384.001781 19.0001562,384.001781 C18.5861606,384.001781 18.2501641,383.664285 18.2501641,383.251789 L18.2501641,377.559348 L17.2804242,378.534338 C16.9871772,378.826835 16.5131822,378.826835 16.2199352,378.534338 C15.9266883,378.241841 15.9266883,377.761846 16.2199352,377.469349 L18.4699118,375.219373 Z M33.2500078,376.501859 L24.2501016,376.501859 C23.8361059,376.501859 23.5001094,376.164363 23.5001094,375.751867 C23.5001094,375.339371 23.8361059,375.001875 24.2501016,375.001875 L33.2500078,375.001875 C33.6640035,375.001875 34,375.339371 34,375.751867 C34,376.164363 33.6640035,376.501859 33.2500078,376.501859 Z M23.5001094,379.501828 C23.5001094,379.089332 23.8361059,378.751836 24.2501016,378.751836 L30.2500391,378.751836 C30.6640347,378.751836 31.0000312,379.089332 31.0000312,379.501828 C31.0000312,379.914324 30.6640347,380.25182 30.2500391,380.25182 L24.2501016,380.25182 C23.8361059,380.25182 23.5001094,379.914324 23.5001094,379.501828 Z M23.5001094,383.251789 C23.5001094,382.839293 23.8361059,382.501797 24.2501016,382.501797 L30.2500391,382.501797 C30.6640347,382.501797 31.0000312,382.839293 31.0000312,383.251789 C31.0000312,383.664285 30.6640347,384.001781 30.2500391,384.001781 L24.2501016,384.001781 C23.8361059,384.001781 23.5001094,383.664285 23.5001094,383.251789 Z" id="Fill-919"></path>
        </g>
    </g>
</svg>