<?xml version="1.0" encoding="UTF-8"?>
<svg width="18px" height="18px" viewBox="0 0 18 18" version="1.1" xmlns="http://www.w3.org/2000/svg" xmlns:xlink="http://www.w3.org/1999/xlink">
    <!-- Generator: Sketch 51.3 (57544) - http://www.bohemiancoding.com/sketch -->
    <title>Fill 1184</title>
    <desc>Created with Sketch.</desc>
    <defs></defs>
    <g id="Page-1" stroke="none" stroke-width="1" fill="none" fill-rule="evenodd">
        <g id="eReports-Patients-open-menu" transform="translate(-15.000000, -79.000000)" fill="#A5B2B3">
            <g id="Group-8" transform="translate(13.000000, 79.000000)">
                <path d="M11.4408327,2.53998174 C11.1783357,2.3487339 10.8220897,2.3487339 10.5588426,2.53998174 L5.74989694,6.03794225 L5.74989694,14.7918434 C5.74989694,15.2058387 6.08589315,15.5418349 6.49988847,15.5418349 L7.99987154,15.5418349 L7.99987154,11.0418858 C7.99987154,9.79914978 9.00711017,8.79191115 10.2498461,8.79191115 L11.7498292,8.79191115 C12.9925652,8.79191115 13.9998038,9.79914978 13.9998038,11.0418858 L13.9998038,15.5418349 L15.4997869,15.5418349 C15.9137822,15.5418349 16.2497784,15.2058387 16.2497784,14.7918434 L16.2497784,6.03794225 L11.4408327,2.53998174 Z M17.7497615,7.12842993 L18.8087495,7.89867124 C19.1432457,8.14241849 19.6127404,8.06816932 19.8564877,7.73292311 C20.1002349,7.39842689 20.0259858,6.92893219 19.6907395,6.68518494 L12.3235727,1.32724543 C11.5338316,0.753501909 10.4658437,0.753501909 9.67610261,1.32724543 L2.30893579,6.68518494 C1.97368958,6.92893219 1.90019041,7.39842689 2.14318766,7.73292311 C2.38693491,8.06816932 2.85642961,8.14241849 3.19092583,7.89867124 L4.24991388,7.12842993 L4.24991388,14.7918434 C4.24991388,16.0345794 5.2571525,17.041818 6.49988847,17.041818 L15.4997869,17.041818 C16.7425228,17.041818 17.7497615,16.0345794 17.7497615,14.7918434 L17.7497615,7.12842993 Z M12.4998207,15.5418349 L12.4998207,11.0418858 C12.4998207,10.6278904 12.1638245,10.2918942 11.7498292,10.2918942 L10.2498461,10.2918942 C9.83585081,10.2918942 9.4998546,10.6278904 9.4998546,11.0418858 L9.4998546,15.5418349 L12.4998207,15.5418349 Z" id="Fill-1184"></path>
            </g>
        </g>
    </g>
</svg>