<?xml version="1.0" encoding="UTF-8"?>
<svg width="10px" height="10px" viewBox="0 0 10 10" version="1.1" xmlns="http://www.w3.org/2000/svg" xmlns:xlink="http://www.w3.org/1999/xlink">
    <!-- Generator: Sketch 51.3 (57544) - http://www.bohemiancoding.com/sketch -->
    <title>advanced_filter</title>
    <desc>Created with Sketch.</desc>
    <defs></defs>
    <g id="Page-2" stroke="none" stroke-width="1" fill="none" fill-rule="evenodd">
        <g id="eReports-Simulator" transform="translate(-1223.000000, -302.000000)" fill="#B8B8B8" fill-rule="nonzero">
            <g id="advanced_filter" transform="translate(1228.000000, 307.000000) scale(-1, 1) translate(-1228.000000, -307.000000) translate(1223.000000, 302.000000)">
                <path d="M4.04296875,0.90625 C4.04296875,0.69050781 3.86808594,0.515625 3.65234375,0.515625 L2.08984375,0.515625 C1.87410156,0.515625 1.69921875,0.69050781 1.69921875,0.90625 L1.69921875,1.60699219 L0,1.60699219 L0,2.3882422 L1.69921875,2.3882422 L1.69921875,3.0546875 C1.69921875,3.2704297 1.87410156,3.4453125 2.08984375,3.4453125 L3.65234375,3.4453125 C3.86808594,3.4453125 4.04296875,3.2704297 4.04296875,3.0546875 L4.04296875,2.3882422 L10,2.3882422 L10,1.60699219 L4.04296875,1.60699219 L4.04296875,0.90625 Z M3.26171875,2.6640625 L2.48046875,2.6640625 L2.48046875,1.296875 L3.26171875,1.296875 L3.26171875,2.6640625 Z" id="Shape"></path>
                <path d="M4.04296875,7.390625 C4.04296875,7.17488281 3.86808594,7 3.65234375,7 L2.08984375,7 C1.87410156,7 1.69921875,7.17488281 1.69921875,7.390625 L1.69921875,8.09136718 L0,8.09136718 L0,8.8726172 L1.69921875,8.8726172 L1.69921875,9.5390625 C1.69921875,9.7548047 1.87410156,9.9296875 2.08984375,9.9296875 L3.65234375,9.9296875 C3.86808594,9.9296875 4.04296875,9.7548047 4.04296875,9.5390625 L4.04296875,8.8726172 L10,8.8726172 L10,8.09136718 L4.04296875,8.09136718 L4.04296875,7.390625 Z M3.26171875,9.1484375 L2.48046875,9.1484375 L2.48046875,7.78125 L3.26171875,7.78125 L3.26171875,9.1484375 Z" id="Shape"></path>
                <path d="M8.41796875,4.4609375 C8.41796875,4.2451953 8.24308595,4.0703125 8.02734375,4.0703125 L6.46484375,4.0703125 C6.24910155,4.0703125 6.07421875,4.2451953 6.07421875,4.4609375 L6.07421875,5.14453125 L0,5.14453125 L0,5.92578125 L6.07421875,5.92578125 L6.07421875,6.609375 C6.07421875,6.8251172 6.24910155,7 6.46484375,7 L8.02734375,7 C8.24308595,7 8.41796875,6.8251172 8.41796875,6.609375 L8.41796875,5.92578125 L10,5.92578125 L10,5.14453125 L8.41796875,5.14453125 L8.41796875,4.4609375 Z M7.63671875,6.21875 L6.85546875,6.21875 L6.85546875,4.8515625 L7.63671875,4.8515625 L7.63671875,6.21875 Z" id="Shape"></path>
            </g>
        </g>
    </g>
</svg>