<?xml version="1.0" encoding="UTF-8"?>
<svg width="9px" height="12px" viewBox="0 0 9 12" version="1.1" xmlns="http://www.w3.org/2000/svg" xmlns:xlink="http://www.w3.org/1999/xlink">
    <!-- Generator: Sketch 51.3 (57544) - http://www.bohemiancoding.com/sketch -->
    <title>lock</title>
    <desc>Created with Sketch.</desc>
    <defs></defs>
    <g id="Page-2" stroke="none" stroke-width="1" fill="none" fill-rule="evenodd">
        <g id="sReports-User-2.0" transform="translate(-1218.000000, -363.000000)" fill="#B8B8B8" fill-rule="nonzero">
            <g id="lock" transform="translate(1218.000000, 363.000000)">
                <path d="M8.74999219,4.5 L7.99999219,4.5 L7.99999219,3.49999219 C7.99999219,1.57007812 6.4299375,0 4.5,0 C2.5700625,0 1.00000781,1.57007812 1.00000781,3.49999219 L1.00000781,4.5 L0.250007813,4.5 C0.111820313,4.5 0,4.61182031 0,4.75000781 L0,11.0000156 C0,11.5515234 0.448476563,12 1.00000781,12 L8.00001562,12 C8.55152344,12 9,11.5515234 9,10.9999922 L9,4.75000781 C9,4.61182031 8.88817969,4.5 8.74999219,4.5 Z M5.24854687,9.72241406 C5.25635156,9.79296094 5.23366406,9.86376563 5.18629687,9.91675781 C5.13892969,9.96972656 5.07105469,10.0000078 5.00001562,10.0000078 L4.00000781,10.0000078 C3.92896875,10.0000078 3.86109375,9.96972656 3.81372656,9.91675781 C3.76635937,9.86378906 3.74364844,9.79298438 3.75147656,9.72241406 L3.9091875,8.30421094 C3.65308594,8.11792969 3.50001562,7.82325 3.50001562,7.5 C3.50001562,6.94849219 3.94849219,6.49999219 4.50002344,6.49999219 C5.05155469,6.49999219 5.50003125,6.94846875 5.50003125,7.5 C5.50003125,7.82325 5.34696094,8.11792969 5.09085937,8.30421094 L5.24854687,9.72241406 Z M6.49999219,4.5 L2.50000781,4.5 L2.50000781,3.49999219 C2.50000781,2.39721094 3.39721875,1.5 4.5,1.5 C5.60278125,1.5 6.49999219,2.39721094 6.49999219,3.49999219 L6.49999219,4.5 Z" id="Shape"></path>
            </g>
        </g>
    </g>
</svg>