<?xml version="1.0" encoding="UTF-8"?>
<svg width="15px" height="19px" viewBox="0 0 15 19" version="1.1" xmlns="http://www.w3.org/2000/svg" xmlns:xlink="http://www.w3.org/1999/xlink">
    <!-- Generator: Sketch 51.3 (57544) - http://www.bohemiancoding.com/sketch -->
    <title>Shape</title>
    <desc>Created with Sketch.</desc>
    <defs></defs>
    <g id="Page-1" stroke="none" stroke-width="1" fill="none" fill-rule="evenodd">
        <g id="eReports-login-04" transform="translate(-714.000000, -535.000000)" fill="#000000" fill-rule="nonzero">
            <g id="Group" transform="translate(334.000000, 301.000000)">
                <path d="M393.203125,240.53125 L392.5,240.53125 L392.5,238.75 C392.5,236.13082 390.257031,234 387.5,234 C384.742969,234 382.5,236.13082 382.5,238.75 L382.5,240.53125 L381.796875,240.53125 C380.806094,240.53125 380,241.297039 380,242.238281 L380,251.292969 C380,252.234211 380.806094,253 381.796875,253 L393.203125,253 C394.193906,253 395,252.234211 395,251.292969 L395,242.238281 C395,241.297039 394.193906,240.53125 393.203125,240.53125 Z M383.75,238.75 C383.75,236.785615 385.432227,235.1875 387.5,235.1875 C389.567773,235.1875 391.25,236.785615 391.25,238.75 L391.25,240.53125 L383.75,240.53125 L383.75,238.75 Z M393.75,251.292969 C393.75,251.579453 393.504687,251.8125 393.203125,251.8125 L381.796875,251.8125 C381.495313,251.8125 381.25,251.579453 381.25,251.292969 L381.25,242.238281 C381.25,241.951797 381.495313,241.71875 381.796875,241.71875 L393.203125,241.71875 C393.504687,241.71875 393.75,241.951797 393.75,242.238281 L393.75,251.292969 Z" id="Shape"></path>
            </g>
        </g>
    </g>
</svg>