<?xml version="1.0" encoding="UTF-8"?>
<svg width="17px" height="18px" viewBox="0 0 17 18" version="1.1" xmlns="http://www.w3.org/2000/svg" xmlns:xlink="http://www.w3.org/1999/xlink">
    <!-- Generator: Sketch 51.3 (57544) - http://www.bohemiancoding.com/sketch -->
    <title>user (11)</title>
    <desc>Created with Sketch.</desc>
    <defs></defs>
    <g id="Page-1" stroke="none" stroke-width="1" fill="none" fill-rule="evenodd">
        <g id="eReports-Patients-open-menu" transform="translate(-67.000000, -273.000000)" fill="#000000" fill-rule="nonzero">
            <g id="user-(11)" transform="translate(67.000000, 273.500000)">
                <path d="M13.0475996,6.62724414 C13.8763496,5.93987305 14.4051426,4.90277344 14.4051426,3.74444922 C14.4051094,1.6798125 12.7253633,6.640625e-05 10.6606934,6.640625e-05 C8.59602344,6.640625e-05 6.91631055,1.6798125 6.91631055,3.74444922 C6.91631055,4.01432422 6.94526367,4.27752539 6.9997832,4.53136328 C6.78655273,4.49351172 6.56721289,4.47368945 6.34329102,4.47368945 C4.27862109,4.47368945 2.5989082,6.15343555 2.5989082,8.21807227 C2.5989082,9.37629688 3.12760156,10.4132969 3.95621875,11.1007012 C1.63820898,12.0457285 0,14.3236289 0,16.9773223 L1.32842383,16.9773223 C1.32842383,14.2120996 3.57806836,11.9624883 6.34325781,11.9624883 C8.40792773,11.9624883 10.0876406,10.2827422 10.0876406,8.21810547 C10.0876406,7.94823047 10.0586875,7.68499609 10.004168,7.4311582 C10.2173984,7.46900977 10.4367383,7.48883203 10.6606602,7.48883203 C12.2902031,7.48883203 13.7401172,8.27056641 14.6566562,9.47823047 L15.5568262,8.47596094 C14.891502,7.66852734 14.0306113,7.02817187 13.0475996,6.62724414 Z M6.34329102,10.6340313 C5.01114844,10.6340313 3.92733203,9.55024805 3.92733203,8.21807227 C3.92733203,6.88589648 5.01114844,5.80211328 6.34329102,5.80211328 C7.67543359,5.80211328 8.75925,6.88592969 8.75925,8.21807227 C8.75925,9.55021484 7.67543359,10.6340313 6.34329102,10.6340313 Z M10.6606934,6.160375 C9.32855078,6.160375 8.24473438,5.0765918 8.24473438,3.74441602 C8.24473438,2.41224023 9.32855078,1.32849023 10.6606934,1.32849023 C11.9928359,1.32849023 13.0766523,2.41227344 13.0766523,3.74444922 C13.0766523,5.0766582 11.9928691,6.160375 10.6606934,6.160375 Z" id="Shape"></path>
                <polygon id="Shape" points="16.0116426 9.9577168 11.3976699 15.0949043 8.79388086 12.6163242 7.87800586 13.5785508 11.4723105 16.9999336 17 10.8454023"></polygon>
            </g>
        </g>
    </g>
</svg>