<?xml version="1.0" encoding="UTF-8"?>
<svg width="24px" height="24px" viewBox="0 0 24 24" version="1.1" xmlns="http://www.w3.org/2000/svg" xmlns:xlink="http://www.w3.org/1999/xlink">
    <!-- Generator: Sketch 51.3 (57544) - http://www.bohemiancoding.com/sketch -->
    <title>pdf (1)</title>
    <desc>Created with Sketch.</desc>
    <defs></defs>
    <g id="Page-2" stroke="none" stroke-width="1" fill="none" fill-rule="evenodd">
        <g id="eReports-editing-PDF-upl" transform="translate(-605.000000, -206.000000)" fill="#1C94A3" fill-rule="nonzero">
            <g id="Group-4" transform="translate(555.000000, 157.000000)">
                <g id="Group-2">
                    <g id="pdf-(1)" transform="translate(50.000000, 49.000000)">
                        <path d="M17.5,24 L2.5,24 C1.122,24 0,22.878 0,21.5 L0,2.5 C0,1.122 1.122,0 2.5,0 L9.5,0 C9.776,0 10,0.224 10,0.5 C10,0.776 9.776,1 9.5,1 L2.5,1 C1.673,1 1,1.673 1,2.5 L1,21.5 C1,22.327 1.673,23 2.5,23 L17.5,23 C18.327,23 19,22.327 19,21.5 L19,15.5 C19,15.224 19.224,15 19.5,15 C19.776,15 20,15.224 20,15.5 L20,21.5 C20,22.878 18.878,24 17.5,24 Z" id="Shape"></path>
                        <path d="M3.5,21 C3.224,21 3,20.776 3,20.5 L3,15.5 C3,15.224 3.224,15 3.5,15 L5,15 C6.103,15 7,15.897 7,17 C7,18.103 6.103,19 5,19 L4,19 L4,20.5 C4,20.776 3.776,21 3.5,21 Z M4,18 L5,18 C5.551,18 6,17.551 6,17 C6,16.449 5.551,16 5,16 L4,16 L4,18 Z" id="Shape"></path>
                        <path d="M10.5,21 L8.5,21 C8.224,21 8,20.776 8,20.5 L8,15.5 C8,15.224 8.224,15 8.5,15 L10.5,15 C11.327,15 12,15.673 12,16.5 L12,19.5 C12,20.327 11.327,21 10.5,21 Z M9,20 L10.5,20 C10.776,20 11,19.776 11,19.5 L11,16.5 C11,16.224 10.776,16 10.5,16 L9,16 L9,20 Z" id="Shape"></path>
                        <path d="M13.5,21 C13.224,21 13,20.776 13,20.5 L13,16.5 C13,15.673 13.673,15 14.5,15 L16.5,15 C16.776,15 17,15.224 17,15.5 C17,15.776 16.776,16 16.5,16 L14.5,16 C14.224,16 14,16.224 14,16.5 L14,20.5 C14,20.776 13.776,21 13.5,21 Z" id="Shape"></path>
                        <path d="M16.5,19 L13.5,19 C13.224,19 13,18.776 13,18.5 C13,18.224 13.224,18 13.5,18 L16.5,18 C16.776,18 17,18.224 17,18.5 C17,18.776 16.776,19 16.5,19 Z" id="Shape"></path>
                        <path d="M17.5,13 C13.916,13 11,10.084 11,6.5 C11,2.916 13.916,0 17.5,0 C21.084,0 24,2.916 24,6.5 C24,10.084 21.084,13 17.5,13 Z M17.5,1 C14.467,1 12,3.467 12,6.5 C12,9.533 14.467,12 17.5,12 C20.533,12 23,9.533 23,6.5 C23,3.467 20.533,1 17.5,1 Z" id="Shape"></path>
                        <path d="M17.5,10 C17.224,10 17,9.776 17,9.5 L17,3.5 C17,3.224 17.224,3 17.5,3 C17.776,3 18,3.224 18,3.5 L18,9.5 C18,9.776 17.776,10 17.5,10 Z" id="Shape"></path>
                        <path d="M20.5,7 L14.5,7 C14.224,7 14,6.776 14,6.5 C14,6.224 14.224,6 14.5,6 L20.5,6 C20.776,6 21,6.224 21,6.5 C21,6.776 20.776,7 20.5,7 Z" id="Shape"></path>
                    </g>
                </g>
            </g>
        </g>
    </g>
</svg>