<?xml version="1.0" encoding="UTF-8"?>
<svg width="17px" height="17px" viewBox="0 0 17 17" version="1.1" xmlns="http://www.w3.org/2000/svg" xmlns:xlink="http://www.w3.org/1999/xlink">
    <!-- Generator: Sketch 51.3 (57544) - http://www.bohemiancoding.com/sketch -->
    <title>Group 27</title>
    <desc>Created with Sketch.</desc>
    <defs></defs>
    <g id="Page-2" stroke="none" stroke-width="1" fill="none" fill-rule="evenodd">
        <g id="eReports-editing-PDF-upl" transform="translate(-927.000000, -646.000000)" fill="#D83A3A" fill-rule="nonzero">
            <g id="Group-4" transform="translate(555.000000, 518.000000)">
                <g id="Group-27" transform="translate(372.000000, 128.000000)">
                    <path d="M14.5131072,2.48694502 C11.1965526,-0.828981674 5.80289931,-0.828981674 2.48634467,2.48694502 C-0.828781558,5.80287172 -0.828781558,11.1980335 2.48634467,14.5139602 C4.14462199,16.1715748 6.32234006,17 8.50009135,17 C10.6778426,17 12.8548299,16.1715415 14.5131072,14.5139602 C17.8289643,11.1980667 17.8289643,5.80287172 14.5131072,2.48694502 Z M12.0072549,11.0059922 C12.284332,11.2830752 12.284332,11.7309722 12.0072549,12.0080552 C11.8690651,12.1462479 11.6876578,12.2157096 11.5062173,12.2157096 C11.32481,12.2157096 11.1433695,12.1462479 11.0051797,12.0080552 L8.50005813,9.50215022 L5.99563418,12.0073244 C5.85674681,12.1455171 5.6753063,12.2149788 5.49459659,12.2149788 C5.31318929,12.2149788 5.13174877,12.1455171 4.99355899,12.0073244 C4.71648185,11.7302414 4.71648185,11.2816467 4.99355899,11.0052614 L7.49798294,8.5000872 L4.9928614,5.99491304 C4.71578425,5.71783007 4.71578425,5.26923537 4.9928614,4.99285001 C5.26924095,4.71576705 5.71782623,4.71576705 5.99490337,4.99285001 L8.50002491,7.49802418 L11.0051465,4.99285001 C11.2822236,4.71576705 11.7301113,4.71576705 12.0071884,4.99285001 C12.2842656,5.26923537 12.2842656,5.71783007 12.0071884,5.99491304 L9.50206689,8.5000872 L12.0072549,11.0059922 Z" id="Shape"></path>
                </g>
            </g>
        </g>
    </g>
</svg>