<?xml version="1.0" encoding="UTF-8"?>
<svg width="12px" height="17px" viewBox="0 0 12 17" version="1.1" xmlns="http://www.w3.org/2000/svg" xmlns:xlink="http://www.w3.org/1999/xlink">
    <!-- Generator: Sketch 51.3 (57544) - http://www.bohemiancoding.com/sketch -->
    <title>telephone (1)</title>
    <desc>Created with Sketch.</desc>
    <defs></defs>
    <g id="Page-2" stroke="none" stroke-width="1" fill="none" fill-rule="evenodd">
        <g id="eReports-user-1" transform="translate(-402.000000, -560.000000)" fill="#676767" fill-rule="nonzero">
            <g id="Group-3" transform="translate(76.000000, 529.000000)">
                <g id="telephone-(1)" transform="translate(326.000000, 31.000000)">
                    <path d="M10.9714286,0 L1.02857143,0 C0.461417143,0 0,0.446847656 0,0.99609375 C0,1.61589648 0,15.3440605 0,16.0039062 C0,16.5531523 0.461417143,17 1.02857143,17 L10.9714286,17 C11.5385829,17 12,16.5531523 12,16.0039062 C12,15.3440605 12,1.61589648 12,0.99609375 C12,0.446847656 11.5385829,0 10.9714286,0 Z M1.02857143,0.99609375 L10.9714971,0.99609375 L10.9714971,3.02148438 L1.02857143,3.02148438 L1.02857143,0.99609375 Z M1.02857143,4.01757813 L10.9714286,4.01757813 L10.9714286,12.9824219 L1.02857143,12.9824219 L1.02857143,4.01757813 Z M10.9714286,16.0039063 L1.02857143,16.0039063 L1.02857143,13.9785156 L10.9720494,13.9785156 L10.9720457,16.003873 C10.97208,16.003873 10.9718743,16.0039063 10.9714286,16.0039063 Z" id="Shape"></path>
                    <path d="M7.19008264,1.0625 L4.80991736,1.0625 C4.56345124,1.0625 4.36363636,1.30035833 4.36363636,1.59375 C4.36363636,1.88714167 4.56345124,2.125 4.80991736,2.125 L7.19008264,2.125 C7.43654876,2.125 7.63636364,1.88714167 7.63636364,1.59375 C7.63636364,1.30035833 7.43654876,1.0625 7.19008264,1.0625 Z" id="Shape"></path>
                    <ellipse id="Oval" cx="6" cy="15.40625" rx="1" ry="1"></ellipse>
                </g>
            </g>
        </g>
    </g>
</svg>