<?xml version="1.0" encoding="UTF-8"?>
<svg width="14px" height="14px" viewBox="0 0 14 14" version="1.1" xmlns="http://www.w3.org/2000/svg" xmlns:xlink="http://www.w3.org/1999/xlink">
    <!-- Generator: Sketch 51.3 (57544) - http://www.bohemiancoding.com/sketch -->
    <title>Group</title>
    <desc>Created with Sketch.</desc>
    <defs></defs>
    <g id="Page-2" stroke="none" stroke-width="1" fill="none" fill-rule="evenodd">
        <g id="eReports-Patient-Add-Documents" transform="translate(-830.000000, -494.000000)" fill="#C6C6C6">
            <g id="Group-2" transform="translate(815.000000, 478.000000)">
                <g id="Group" transform="translate(21.485281, 23.485281) rotate(-45.000000) translate(-21.485281, -23.485281) translate(13.485281, 19.485281)">
                    <path d="M7.01566622,0.326291137 C8.60269157,1.01613368 10.018408,1.36105496 11.2628155,1.36105496 C12.2965733,1.36105496 13.2449006,1.20560255 14.1077974,0.894697736 L14.107796,0.894693818 C14.6273856,0.70748381 15.20036,0.976930744 15.38757,1.49652039 C15.4267427,1.60524194 15.4467739,1.71993077 15.4467739,1.83549409 L15.4467893,5.87981159 C15.4467893,6.43210489 14.9990672,6.87982707 14.4467739,6.87982707 C14.3504153,6.87982707 14.2545626,6.8659002 14.1621883,6.83847837 C13.0337856,6.50350571 12.067328,6.33601938 11.2628155,6.33601938 C10.3620374,6.33601938 8.92834942,6.6971789 6.96175147,7.41949794 L6.96174091,7.41946918 C6.44333486,7.60987645 5.86872814,7.34398091 5.67832086,6.82557487 C5.63776424,6.71515473 5.61700868,6.59844468 5.61700868,6.480812 L5.61697527,1.24342742 C5.61697527,0.691124226 6.06470548,0.24339402 6.61700868,0.24339402 C6.75417338,0.24339402 6.88987169,0.271611218 7.01566622,0.326291137 Z" id="Rectangle-5"></path>
                    <path d="M0.702126084,3.51063042 L4.21275651,3.51063042 L4.21275651,4.91488259 L0.702126084,4.91488259 C0.314352556,4.91488259 4.74885611e-17,4.60053004 0,4.21275651 L0,4.21275651 C-4.74885611e-17,3.82498298 0.314352556,3.51063042 0.702126084,3.51063042 Z" id="Rectangle-6"></path>
                </g>
            </g>
        </g>
    </g>
</svg>