<?xml version="1.0" encoding="UTF-8"?>
<svg width="21px" height="28px" viewBox="0 0 21 28" version="1.1" xmlns="http://www.w3.org/2000/svg" xmlns:xlink="http://www.w3.org/1999/xlink">
    <!-- Generator: Sketch 51.3 (57544) - http://www.bohemiancoding.com/sketch -->
    <title>check-list (1)</title>
    <desc>Created with Sketch.</desc>
    <defs></defs>
    <g id="Page-3" stroke="none" stroke-width="1" fill="none" fill-rule="evenodd">
        <g id="eReports-Patient-Tree-Incounter-form-04" transform="translate(-563.000000, -985.000000)" fill="#959595" fill-rule="nonzero">
            <g id="Group-4" transform="translate(543.000000, 970.000000)">
                <g id="check-list-(1)" transform="translate(20.000000, 15.000000)">
                    <path d="M20.5625,0 L0.4375,0 C0.195875422,0 0,0.202193984 0,0.451612903 L0,27.5483871 C0,27.797806 0.195875422,28 0.4375,28 L20.5625,28 C20.8041246,28 21,27.797806 21,27.5483871 L21,0.451612903 C21,0.202193984 20.8041246,0 20.5625,0 Z M7.4375,0.903225806 L13.5625,0.903225806 L13.5625,2.70967742 C13.5621686,2.95895452 13.3664872,3.16094827 13.125,3.16129032 L7.875,3.16129032 C7.63351281,3.16094827 7.43783136,2.95895452 7.4375,2.70967742 L7.4375,0.903225806 Z M7.875,4.06451613 L13.125,4.06451613 C13.849474,4.06352099 14.436536,3.45752159 14.4375,2.70967742 L18.375,2.70967742 L18.375,23.0322581 L16.1875,23.0322581 C15.9458754,23.0322581 15.75,23.234452 15.75,23.483871 L15.75,25.7419355 L2.625,25.7419355 L2.625,2.70967742 L6.5625,2.70967742 C6.56346404,3.45752159 7.15052596,4.06352099 7.875,4.06451613 Z M18.1939844,23.9354839 L16.625,25.5550806 L16.625,23.9354839 L18.1939844,23.9354839 Z M20.125,27.0967742 L0.875,27.0967742 L0.875,0.903225806 L6.5625,0.903225806 L6.5625,1.80645161 L2.1875,1.80645161 C1.94587542,1.80645161 1.75,2.0086456 1.75,2.25806452 L1.75,26.1935484 C1.75,26.4429673 1.94587542,26.6451613 2.1875,26.6451613 L16.625,26.6451613 C16.7410576,26.6452059 16.8523866,26.5976947 16.9345313,26.5130645 L19.1220313,24.255 C19.2040168,24.1702055 19.2500432,24.0552853 19.25,23.9354839 L19.25,2.25806452 C19.25,2.0086456 19.0541246,1.80645161 18.8125,1.80645161 L14.4375,1.80645161 L14.4375,0.903225806 L20.125,0.903225806 L20.125,27.0967742 Z" id="Shape"></path>
                    <g id="plus-(8)" transform="translate(5.000000, 9.000000)">
                        <path d="M5.5,0 C2.46711523,0 0,2.46711523 0,5.5 C0,8.53288477 2.46711523,11 5.5,11 C8.53288477,11 11,8.53245508 11,5.5 C11,2.46754492 8.53288477,0 5.5,0 Z M5.5,10.1479512 C2.93745117,10.1479512 0.852048828,8.06297852 0.852048828,5.5 C0.852048828,2.93702148 2.93745117,0.852048828 5.5,0.852048828 C8.06254883,0.852048828 10.1479512,2.93702148 10.1479512,5.5 C10.1479512,8.06297852 8.06297852,10.1479512 5.5,10.1479512 Z" id="Shape"></path>
                        <path d="M7.58332633,5.08332633 L5.91667367,5.08332633 L5.91667367,3.41667367 C5.91667367,3.18667317 5.73042075,3 5.5,3 C5.26957925,3 5.08332633,3.18667317 5.08332633,3.41667367 L5.08332633,5.08332633 L3.41667367,5.08332633 C3.18625292,5.08332633 3,5.2699995 3,5.5 C3,5.7300005 3.18625292,5.91667367 3.41667367,5.91667367 L5.08332633,5.91667367 L5.08332633,7.58332633 C5.08332633,7.81332683 5.26957925,8 5.5,8 C5.73042075,8 5.91667367,7.81332683 5.91667367,7.58332633 L5.91667367,5.91667367 L7.58332633,5.91667367 C7.81374708,5.91667367 8,5.7300005 8,5.5 C8,5.2699995 7.81374708,5.08332633 7.58332633,5.08332633 Z" id="Shape"></path>
                    </g>
                </g>
            </g>
        </g>
    </g>
</svg>