<?xml version="1.0" encoding="UTF-8"?>
<svg width="50px" height="50px" viewBox="0 0 50 50" version="1.1" xmlns="http://www.w3.org/2000/svg" xmlns:xlink="http://www.w3.org/1999/xlink">
    <!-- Generator: Sketch 51.3 (57544) - http://www.bohemiancoding.com/sketch -->
    <title>Group 10</title>
    <desc>Created with Sketch.</desc>
    <defs></defs>
    <g id="Page-1" stroke="none" stroke-width="1" fill="none" fill-rule="evenodd">
        <g id="eReports-Patient-info-tab-1-a" transform="translate(-465.000000, -449.000000)">
            <g id="Group-10" transform="translate(465.000000, 449.000000)">
                <g id="no_results-(1)" fill-rule="nonzero">
                    <g id="28502">
                        <path d="M19.9058138,17.8905727 L19.9058138,15.4242028 C19.9058138,14.0472668 18.784661,12.9310345 17.4015538,12.9310345 L5.11295561,12.9310345 C3.72984842,12.9310345 2.60869565,14.0472668 2.60869565,15.4242028 L2.60869565,47.5067306 C2.60869565,48.8837677 3.72984842,50 5.11295561,50 L47.49574,50 C48.8787457,50 50,48.8837677 50,47.5067306 L50,22.8771116 C50,21.5000744 48.8787457,20.3838421 47.49574,20.3838421 L22.4100737,20.3838421 C21.0269666,20.3838421 19.9058138,19.2676098 19.9058138,17.8905727" id="Fill-7" fill="#DADDDD"></path>
                        <path d="M19.1304352,0.306058835 C19.1301507,0.161554228 19.2640883,0.0441959616 19.4297082,0.043947672 L46.1574887,3.94634842e-07 C46.3230135,-0.000247895068 46.4575204,0.116696555 46.4578996,0.261118399 L46.5217383,29.866355 C46.5221178,30.0108596 46.3880852,30.1282178 46.2224652,30.1284661 L19.4947799,30.1724134 C19.3291601,30.1726617 19.1946533,30.0558 19.1943687,29.9112954 L19.1304352,0.306058835 Z" id="Fill-28" fill="#FFFFFF"></path>
                        <g id="list-(9)" transform="translate(24.000000, 4.000000)">
                            <path d="M10.3333333,0 L3.66666667,0 C3.29847917,0 3,0.44771875 3,1 C3,1.55228125 3.29847917,2 3.66666667,2 L10.3333333,2 C10.7015208,2 11,1.55228125 11,1 C11,0.44771875 10.7015208,0 10.3333333,0 Z" id="Shape" fill="#BDC2C2"></path>
                            <path d="M1.99442964,0.995178738 C1.99331091,0.730559774 1.88780814,0.477183915 1.7010729,0.290610836 C1.31321426,-0.0968702788 0.686785739,-0.0968702788 0.298927104,0.290610836 C0.112160787,0.477183915 0.0066580172,0.730559774 0.00557035978,0.995178738 C-0.00185678659,1.05992028 -0.00185678659,1.12531768 0.00557035978,1.19005922 C0.0168198451,1.25517554 0.0351546416,1.31885523 0.06026399,1.37994277 C0.0869582106,1.43912522 0.118562428,1.49596536 0.154734806,1.54983858 C0.190441045,1.60586671 0.232113862,1.65780361 0.279038511,1.70474358 C0.324285059,1.7500283 0.374286225,1.79025363 0.428202957,1.82467003 C0.480565893,1.86299028 0.53734161,1.89487697 0.597255996,1.9196118 C0.663168035,1.95396573 0.733430705,1.97920026 0.80608622,1.99456583 C0.870506615,2.00181139 0.935579605,2.00181139 1,1.99456583 C1.26259158,1.99478445 1.51461734,1.89059834 1.7010729,1.70474358 C1.74799755,1.65780361 1.78967036,1.60586671 1.8253766,1.54983858 C1.86154898,1.49596536 1.8931532,1.43912522 1.91984742,1.37994277 C1.95157594,1.31960477 1.97659206,1.25592508 1.99442964,1.19005922 C2.00185679,1.12531768 2.00185679,1.05992028 1.99442964,0.995178738 Z" id="Shape" fill="#E3E3E3"></path>
                            <path d="M1.99425095,5.99509716 C2.00166707,5.93036092 2.00166707,5.86496889 1.99425095,5.80023265 C1.97701937,5.73574624 1.95190428,5.67366441 1.91946654,5.61536119 C1.89379056,5.55406007 1.86203834,5.4954758 1.82473962,5.44048279 C1.79018299,5.38508381 1.7482414,5.33465013 1.70009893,5.29058701 C1.31118884,4.90313766 0.68306211,4.90313766 0.294152015,5.29058701 C0.106879387,5.4771448 0.00109060599,5.73049989 0,5.99509716 C0.00193193061,6.12678684 0.0272651497,6.25704003 0.0747844106,6.37982965 C0.0997748678,6.4389448 0.129813273,6.49578028 0.164525703,6.54971153 C0.202447631,6.60401752 0.24588491,6.65426383 0.294152015,6.6996073 C0.338212497,6.74776132 0.388505013,6.7897946 0.443720836,6.82452045 C0.496225724,6.86286879 0.553124197,6.89475287 0.613232167,6.91945444 C0.67402566,6.94509287 0.73762357,6.96354878 0.802686007,6.97441623 C0.866470877,6.98875001 0.931751435,6.99546409 0.997125474,6.99440233 C1.06172051,7.00186589 1.12696991,7.00186589 1.19156494,6.99440233 C1.25500705,6.98350366 1.31695347,6.96504774 1.37603315,6.93944055 C1.43776145,6.91489511 1.49634257,6.88301103 1.55053011,6.84450655 C1.60574594,6.8097807 1.65603845,6.76774743 1.70009893,6.71959341 C1.74814792,6.67543661 1.79008951,6.62503416 1.82473962,6.56969763 C1.86306663,6.5171092 1.89488116,6.46008635 1.91946654,6.39981575 C1.9535246,6.33348687 1.97867086,6.26291094 1.99425095,6.18996167 C2.00191635,6.12522543 2.00191635,6.0598334 1.99425095,5.99509716 Z" id="Shape" fill="#E3E3E3"></path>
                            <path d="M1.99425112,10.9950972 C2.00163586,10.9303609 2.00163586,10.8649689 1.99425112,10.8002327 C1.97702008,10.7341536 1.95190575,10.6704167 1.919469,10.6103647 C1.89270323,10.5511871 1.8610143,10.4943516 1.82474497,10.4404828 C1.79009592,10.3851463 1.74815561,10.3347438 1.7001081,10.290587 C1.31120989,9.90313766 0.683102357,9.90313766 0.294204147,10.290587 C0.246156631,10.3347438 0.204216323,10.3851463 0.169567272,10.4404828 C0.133297941,10.4943516 0.101609015,10.5511871 0.0748432465,10.6103647 C0.0489810949,10.6711974 0.0305659966,10.7349655 0.0200030214,10.8002327 C0.00595021375,10.8642194 -0.000717859067,10.9295802 6.11214031e-05,10.9950972 C0.00118285328,11.2596944 0.106968401,11.5130495 0.294204147,11.6996073 C0.338263282,11.7477613 0.388554261,11.7897946 0.443768397,11.8245205 C0.496271681,11.8628688 0.553168414,11.8947529 0.613274547,11.9194544 C0.674066183,11.9450929 0.737662149,11.9635488 0.802722598,11.9744162 C0.866505518,11.98875 0.931784082,11.9954641 0.997156123,11.9944023 C1.06174918,12.0018659 1.12699659,12.0018659 1.19158965,11.9944023 C1.25502982,11.9835037 1.31697434,11.9650477 1.37605222,11.9394405 C1.43777864,11.9148951 1.49635797,11.883011 1.55054385,11.8445066 C1.60575798,11.8097807 1.65604896,11.7677474 1.7001081,11.7195934 C1.74815561,11.6754366 1.79009592,11.6250342 1.82474497,11.5696976 C1.86310197,11.5171404 1.89491553,11.4600863 1.919469,11.3998158 C1.95349487,11.3334556 1.97864036,11.2629109 1.99425112,11.1899617 C2.00191629,11.1252254 2.00191629,11.0598334 1.99425112,10.9950972 Z" id="Shape" fill="#E3E3E3"></path>
                            <path d="M11.3076923,5 L3.69230769,5 C3.30995913,5 3,5.44771875 3,6 C3,6.55228125 3.30995913,7 3.69230769,7 L11.3076923,7 C11.6900409,7 12,6.55228125 12,6 C12,5.44771875 11.6900409,5 11.3076923,5 Z" id="Shape" fill="#BDC2C2"></path>
                            <path d="M8.29411765,10 L3.70588235,10 C3.31603676,10 3,10.4477187 3,11 C3,11.5522812 3.31603676,12 3.70588235,12 L8.29411765,12 C8.68396324,12 9,11.5522812 9,11 C9,10.4477187 8.68396324,10 8.29411765,10 Z" id="Shape" fill="#BDC2C2"></path>
                        </g>
                        <polyline id="Fill-35" fill="#E6E6E7" points="44.7826087 23.3037033 22.1748318 23.3448276 22.173913 22.8859518 44.7817922 22.8448276 44.7826087 23.3037033"></polyline>
                        <polyline id="Fill-36" fill="#E6E6E7" points="44.7826087 26.3209447 22.1748318 26.362069 22.173913 25.9032919 44.78169 25.862069 44.7826087 26.3209447"></polyline>
                        <polyline id="Fill-37" fill="#E6E6E7" points="44.7826087 29.338178 22.1748318 29.3793103 22.173913 28.9204427 44.7817922 28.8793103 44.7826087 29.338178"></polyline>
                        <path d="M17.2970536,17.8905727 L17.2970536,15.4242028 C17.2970536,14.0472668 16.1758984,12.9310345 14.7928899,12.9310345 L2.50416377,12.9310345 C1.12115517,12.9310345 0,14.0472668 0,15.4242028 L0,47.5067306 C0,48.8837677 1.12115517,50 2.50416377,50 L44.8870391,50 C46.2701491,50 47.3913043,48.8837677 47.3913043,47.5067306 L47.3913043,22.8771116 C47.3913043,21.5000744 46.2701491,20.3838421 44.8870391,20.3838421 L19.801319,20.3838421 C18.4183104,20.3838421 17.2970536,19.2676098 17.2970536,17.8905727" id="Fill-40" fill="#E9E9E9"></path>
                        <polygon id="Fill-38" fill="#DADDDD" points="39.1327367 24.5689655 39.1304348 23.2835696 43.0411593 23.2758621 43.0434783 24.561258"></polygon>
                    </g>
                </g>
                <g id="global-(3)" transform="translate(26.000000, 31.000000)" fill="#BDC2C2" fill-rule="nonzero">
                    <path d="M10.8909367,2.53660686 C10.8907357,2.53273858 10.8903087,2.5288703 10.8896555,2.52502713 C10.8746585,2.50360087 10.85622,2.48516374 10.8407708,2.46416449 C10.7287328,2.3115432 10.6101131,2.16464897 10.484937,2.02345669 C10.4506474,1.98487435 10.4163326,1.94671903 10.3811888,1.90899072 C10.2522949,1.7709634 10.1170956,1.63934135 9.97561624,1.5141748 C9.94946566,1.49101535 9.92502329,1.46702698 9.89887271,1.44429455 C9.55019835,1.14560794 9.16841499,0.887839717 8.76103371,0.676088975 C8.74473042,0.667523494 8.72759815,0.660239067 8.71086781,0.651648468 C8.52944661,0.559462794 8.34342834,0.476596163 8.15351637,0.403425355 C8.11063545,0.388002466 8.07162311,0.373408494 8.03090256,0.360547714 C7.86199144,0.299685074 7.69049289,0.246383167 7.51643203,0.200641992 C7.46498498,0.186927176 7.41353793,0.172785341 7.36123677,0.160778596 C7.18973822,0.1209152 7.01826479,0.0904713212 6.84289766,0.0656037963 C6.78974241,0.0578923517 6.73744125,0.0475936797 6.68383383,0.0411632894 C6.23219,-0.0137210965 5.77557228,-0.0137210965 5.32390333,0.0411632894 C5.27032102,0.0475936797 5.21801987,0.0578923517 5.16483949,0.0656037963 C4.98949748,0.0904713212 4.81629073,0.1209152 4.64650038,0.160778596 C4.59419923,0.172785341 4.54275217,0.186927176 4.49130512,0.200641992 C4.31608872,0.246358048 4.14461529,0.299659955 3.97683459,0.360547714 C3.93395367,0.375116567 3.89494133,0.389710538 3.85422079,0.403425355 C3.66433394,0.476596163 3.47829054,0.559437676 3.29686934,0.651648468 C3.280139,0.660213949 3.26300673,0.667498375 3.24670344,0.676088975 C2.83796565,0.887613649 2.45490114,1.14535675 2.10499587,1.44429455 C2.07884529,1.46700186 2.05440291,1.49101535 2.02825234,1.5141748 C1.88534106,1.63991908 1.75014183,1.77154113 1.62267974,1.90899072 C1.58753598,1.94671903 1.5532212,1.98487435 1.51893154,2.02345669 C1.39345398,2.16434755 1.27483436,2.31124177 1.16309779,2.46413938 C1.14767372,2.48513862 1.12923518,2.50357575 1.11421304,2.52500201 C1.11225363,2.5287447 1.11052031,2.53261298 1.10906331,2.53658174 C-0.369687771,4.60880013 -0.369687771,7.39119987 1.10906331,9.46339314 C1.11052031,9.4673619 1.11222851,9.47123018 1.11421304,9.47497287 C1.12921006,9.49639913 1.1476486,9.51483626 1.16309779,9.53583551 C1.27485948,9.6884568 1.39345398,9.83535103 1.51893154,9.97654331 C1.5532212,10.0151257 1.58753598,10.053281 1.62267974,10.0910093 C1.75187515,10.2290366 1.88704927,10.3606587 2.02825234,10.4858252 C2.05440291,10.5089846 2.07884529,10.532973 2.10499587,10.5557055 C2.45367023,10.8543921 2.83545358,11.1121603 3.24283486,11.323911 C3.25913815,11.3324765 3.27627042,11.3397609 3.29300076,11.3483515 C3.47442196,11.4405372 3.66044024,11.5234038 3.85035221,11.5965746 C3.89323313,11.6119975 3.93224547,11.6265915 3.97296601,11.6394523 C4.14187714,11.7003149 4.31337569,11.7536168 4.48743654,11.799358 C4.5388836,11.8130728 4.59033065,11.8272147 4.6426318,11.8392214 C4.81413036,11.8790848 4.98560378,11.9095287 5.16097091,11.9343962 C5.21412617,11.9421076 5.26642732,11.9524063 5.32003475,11.9588367 C5.77167858,12.0137211 6.2282963,12.0137211 6.67996525,11.9588367 C6.73354756,11.9524063 6.78584871,11.9421076 6.83902909,11.9343962 C7.01437109,11.9095287 7.18757785,11.8790848 7.3573682,11.8392214 C7.40966935,11.8272147 7.4611164,11.8130728 7.51256346,11.799358 C7.68805619,11.753642 7.85955474,11.70034 8.02703399,11.6394523 C8.0699149,11.6248834 8.10892724,11.6102895 8.14964779,11.5965746 C8.33953464,11.5234038 8.52557804,11.4405623 8.70699924,11.3483515 C8.72372958,11.3397861 8.74086185,11.3325016 8.75716514,11.323911 C9.16454642,11.1121352 9.54632977,10.8543921 9.89500413,10.5557055 C9.92115471,10.532973 9.94559709,10.5089846 9.97174766,10.4858252 C10.1146589,10.3603572 10.2498582,10.2287603 10.3773203,10.0910093 C10.412464,10.053281 10.4467788,10.0151257 10.4810685,9.97654331 C10.606546,9.83535103 10.7251656,9.6884568 10.8369022,9.53583551 C10.8523263,9.51483626 10.8707648,9.49639913 10.885787,9.47497287 C10.8877464,9.47123018 10.8894797,9.4673619 10.8909367,9.46339314 C12.3696878,7.39122499 12.3696878,4.60882525 10.8909367,2.53660686 Z M10.4017626,3.34771519 C10.8117816,4.02293129 11.0593705,4.78412874 11.1250107,5.57134918 L8.5569537,5.57134918 C8.52550267,5.06053505 8.44511665,4.55394086 8.31687583,4.05849939 C9.0422843,3.92265739 9.74443107,3.68327607 10.4017626,3.34771519 Z M7.09284795,0.974022019 C7.11686327,0.979598373 7.13999937,0.987309817 7.1640147,0.992886171 C7.31750175,1.0289064 7.46970766,1.07005085 7.61847204,1.12149398 C7.64120621,1.12920542 7.66348821,1.13822304 7.68579533,1.1463615 C7.83327856,1.19780462 7.97860141,1.2548241 8.12096003,1.31784695 C8.14582945,1.32942668 8.17027183,1.34228746 8.19514125,1.35386718 C8.33147092,1.41874882 8.46466051,1.48890538 8.59471001,1.56436199 L8.68044673,1.61623213 C8.80391463,1.69168874 8.92396613,1.77242028 9.0405761,1.85845187 C9.07059525,1.88030515 9.10058929,1.90132951 9.13018139,1.92531788 C9.24450539,2.01104805 9.3539811,2.1029323 9.45858341,2.20097063 C9.48601514,2.22583815 9.51432609,2.25027866 9.54133077,2.27600022 C9.6510828,2.38016752 9.75568511,2.49033819 9.85687102,2.60437714 C9.86973278,2.61937302 9.88344864,2.63308783 9.89631041,2.64725479 C9.31579774,2.92388716 8.70081956,3.12142071 8.06780477,3.23455539 C7.77454652,2.42844569 7.38716126,1.65976286 6.9136876,0.944482413 C6.9732235,0.955182985 7.03411591,0.961186357 7.09284795,0.974022019 Z M4.30269942,5.57132406 C4.33651179,5.10748192 4.41549106,4.64803556 4.53850679,4.19951584 C5.02426444,4.25721352 5.51301144,4.28582373 6.00218549,4.285246 C6.49181172,4.28509529 6.9810109,4.25575663 7.46714535,4.19735563 C7.589935,4.64660379 7.66848721,5.1067786 7.70164645,5.57132406 L4.30269942,5.57132406 Z M7.70164645,6.42872618 C7.66783408,6.89256832 7.58885481,7.35201468 7.46583908,7.8005344 C6.98008143,7.74283672 6.49133443,7.71422651 6.00216037,7.71480424 C5.51255927,7.71425162 5.02338521,7.74286184 4.53720051,7.8005344 C4.41453647,7.35198956 4.33600938,6.8925432 4.3026743,6.42872618 L7.70164645,6.42872618 Z M6.00216037,1.13523391 C6.49005328,1.8266767 6.89133024,2.57533991 7.19702321,3.36444425 C6.80014235,3.40659345 6.40130209,3.42776853 6.00216037,3.42789412 C5.60347083,3.42741686 5.20505762,3.4061162 4.8085787,3.36401724 C5.11464847,2.57544039 5.51544814,1.82702836 6.00216037,1.13523391 Z M2.14792702,2.60392501 C2.24868588,2.48988606 2.35371524,2.37971538 2.46346728,2.27554809 C2.49047195,2.24982652 2.51878291,2.22538602 2.54621463,2.20051849 C2.65197249,2.10421335 2.7614482,2.0123291 2.87461665,1.92486575 C2.90420875,1.90213331 2.93420279,1.8819881 2.96422194,1.85799973 C3.08083191,1.77226957 3.20088341,1.69151291 3.32435131,1.61577999 L3.41008803,1.56390985 C3.54013754,1.48790063 3.67332712,1.41771895 3.80965679,1.35341505 C3.83452621,1.34183532 3.85896859,1.32897454 3.88383801,1.31739481 C4.02617151,1.25309091 4.17151948,1.19607143 4.31900271,1.14590937 C4.34128471,1.1377709 4.36188363,1.12875329 4.38630088,1.12104184 C4.53506526,1.07130679 4.68641707,1.03016234 4.84075822,0.992434035 C4.86477355,0.986857681 4.88790965,0.979146236 4.91235202,0.9739969 C4.97108406,0.961136119 5.03197647,0.955132747 5.09156261,0.944407057 C4.61788798,1.6598131 4.23037712,2.42864664 3.93699327,3.23490706 C3.30397848,3.12177238 2.68897518,2.92423882 2.10848763,2.64760645 C2.1213494,2.6326357 2.13506526,2.61892088 2.14792702,2.60392501 Z M1.60258324,3.34771519 C2.25976408,3.68325095 2.96176012,3.92263227 3.68704299,4.05849939 C3.55895289,4.55396598 3.47869247,5.06056017 3.44739216,5.57134918 L0.879335141,5.57134918 C0.945000471,4.78412874 1.19258941,4.02293129 1.60258324,3.34771519 Z M1.60258324,8.65236016 C1.19256429,7.97714407 0.94497535,7.21594661 0.879335141,6.42872618 L3.44739216,6.42872618 C3.47884319,6.93954031 3.55922922,7.44613449 3.68747004,7.94157597 C2.96206157,8.07739285 2.2599148,8.31677417 1.60258324,8.65236016 Z M4.91149792,11.0260282 C4.8874826,11.0204519 4.8643465,11.0127404 4.84033117,11.0071641 C4.68684412,10.9711438 4.53463821,10.9299994 4.38587383,10.8785563 C4.36313966,10.8708448 4.34085766,10.8618272 4.31855054,10.8536887 C4.17106731,10.8022456 4.02574446,10.7452261 3.88338584,10.6822033 C3.85851642,10.6706236 3.83407404,10.6577628 3.80920462,10.6461831 C3.67287495,10.5813014 3.53968536,10.5111449 3.40963586,10.4356882 L3.32389914,10.3838181 C3.20043124,10.3083615 3.08037974,10.22763 2.96376977,10.1415984 C2.93375061,10.1197451 2.90375658,10.0987207 2.87416448,10.0747324 C2.75984048,9.98900219 2.65036477,9.89711794 2.54576246,9.79907961 C2.51833073,9.77421208 2.49001978,9.74977158 2.4630151,9.72405002 C2.35326307,9.61988272 2.24866076,9.50971205 2.14747485,9.39567309 C2.13461309,9.38067722 2.12089723,9.3669624 2.10803546,9.35279545 C2.68854813,9.07616307 3.30352631,8.87862952 3.9365411,8.76549484 C4.22979935,9.57160455 4.61718461,10.3402874 5.09065827,11.0555678 C5.03109725,11.0448924 4.97022996,11.038889 4.91149792,11.0260282 Z M6.00216037,10.8648414 C5.51426747,10.1733987 5.11299051,9.42473544 4.80729754,8.6356311 C5.60128534,8.55017724 6.40215619,8.55017724 7.19614398,8.6356311 L7.19571693,8.63605812 C6.8896974,9.42460985 6.48889773,10.1730219 6.00216037,10.8648414 Z M9.85641884,9.39612523 C9.75565999,9.51016418 9.65063063,9.62033485 9.54087859,9.72450215 C9.51387392,9.75022371 9.48556296,9.77466422 9.45813123,9.79953175 C9.35237338,9.89613831 9.24289766,9.98802256 9.12972922,10.0751845 C9.10013712,10.0978918 9.07014308,10.1201972 9.04012393,10.1420505 C8.92351396,10.2277807 8.80346246,10.3085373 8.67999456,10.3842702 L8.59425784,10.4361404 C8.46448466,10.5118733 8.33129507,10.5820299 8.19468908,10.6466352 C8.16981965,10.6582149 8.14537728,10.6710757 8.12050786,10.6826554 C7.97817436,10.7469593 7.83282639,10.8039788 7.68534316,10.8541409 C7.66306116,10.8622793 7.64246224,10.871297 7.61804499,10.8790084 C7.46928061,10.9287434 7.3179288,10.9698879 7.16358764,11.0076162 C7.13957232,11.0131926 7.11643622,11.020904 7.09199385,11.0260533 C7.03326181,11.0389141 6.9723694,11.0449175 6.91278326,11.0556432 C7.38625692,10.3403627 7.7736673,9.57167991 8.06690043,8.7655702 C8.69991522,8.87870488 9.31491851,9.07623843 9.89540606,9.35287081 C9.88299647,9.36741454 9.86928061,9.38112936 9.85641884,9.39612523 Z M10.4017626,8.65236016 C9.74458179,8.31682441 9.04258575,8.07744308 8.31730288,7.94157597 C8.44539298,7.44610937 8.5256534,6.93951519 8.5569537,6.42872618 L11.1250107,6.42872618 C11.0593454,7.2159215 10.8117565,7.97711895 10.4017626,8.65236016 Z" id="Shape"></path>
                </g>
                <g id="Group-15" transform="translate(38.000000, 3.000000)">
                    <g id="Group-7" fill="#FE5959">
                        <rect id="Rectangle-17" x="0" y="0" width="7" height="7" rx="3.5"></rect>
                    </g>
                    <g id="plus-(6)" transform="translate(1.166667, 1.166667)" fill="#FFFFFF" fill-rule="nonzero">
                        <path d="M4.25,1.91666667 L2.83333333,1.91666667 C2.78731282,1.91666667 2.75,1.87935384 2.75,1.83333333 L2.75,0.416666667 C2.75,0.186564125 2.56343587,0 2.33333333,0 C2.10323079,0 1.91666667,0.186564125 1.91666667,0.416666667 L1.91666667,1.83333333 C1.91666667,1.87935384 1.87935384,1.91666667 1.83333333,1.91666667 L0.416666667,1.91666667 C0.186564125,1.91666667 0,2.10323079 0,2.33333333 C0,2.56343587 0.186564125,2.75 0.416666667,2.75 L1.83333333,2.75 C1.87935384,2.75 1.91666667,2.78731282 1.91666667,2.83333333 L1.91666667,4.25 C1.91666667,4.48010254 2.10323079,4.66666667 2.33333333,4.66666667 C2.56343587,4.66666667 2.75,4.48010254 2.75,4.25 L2.75,2.83333333 C2.75,2.78731282 2.78731282,2.75 2.83333333,2.75 L4.25,2.75 C4.48010254,2.75 4.66666667,2.56343587 4.66666667,2.33333333 C4.66666667,2.10323079 4.48010254,1.91666667 4.25,1.91666667 Z" id="Shape"></path>
                    </g>
                </g>
            </g>
        </g>
    </g>
</svg>