<?xml version="1.0" encoding="UTF-8"?>
<svg width="50px" height="50px" viewBox="0 0 50 50" version="1.1" xmlns="http://www.w3.org/2000/svg" xmlns:xlink="http://www.w3.org/1999/xlink">
    <!-- Generator: Sketch 51.3 (57544) - http://www.bohemiancoding.com/sketch -->
    <title>Group 10</title>
    <desc>Created with Sketch.</desc>
    <defs></defs>
    <g id="Page-1" stroke="none" stroke-width="1" fill="none" fill-rule="evenodd">
        <g id="eReports-Patient-Tree-Incounter-a" transform="translate(-78.000000, -290.000000)" fill-rule="nonzero">
            <g id="Group-10" transform="translate(78.000000, 290.000000)">
                <g id="no_results-(1)">
                    <g id="28502">
                        <path d="M19.9058138,17.8905727 L19.9058138,15.4242028 C19.9058138,14.0472668 18.784661,12.9310345 17.4015538,12.9310345 L5.11295561,12.9310345 C3.72984842,12.9310345 2.60869565,14.0472668 2.60869565,15.4242028 L2.60869565,47.5067306 C2.60869565,48.8837677 3.72984842,50 5.11295561,50 L47.49574,50 C48.8787457,50 50,48.8837677 50,47.5067306 L50,22.8771116 C50,21.5000744 48.8787457,20.3838421 47.49574,20.3838421 L22.4100737,20.3838421 C21.0269666,20.3838421 19.9058138,19.2676098 19.9058138,17.8905727" id="Fill-7" fill="#DADDDD"></path>
                        <path d="M19.1304352,0.306058835 C19.1301507,0.161554228 19.2640883,0.0441959616 19.4297082,0.043947672 L46.1574887,3.94634842e-07 C46.3230135,-0.000247895068 46.4575204,0.116696555 46.4578996,0.261118399 L46.5217383,29.866355 C46.5221178,30.0108596 46.3880852,30.1282178 46.2224652,30.1284661 L19.4947799,30.1724134 C19.3291601,30.1726617 19.1946533,30.0558 19.1943687,29.9112954 L19.1304352,0.306058835 Z" id="Fill-28" fill="#FFFFFF"></path>
                        <g id="list-(9)" transform="translate(24.000000, 4.000000)">
                            <path d="M10.3333333,0 L3.66666667,0 C3.29847917,0 3,0.44771875 3,1 C3,1.55228125 3.29847917,2 3.66666667,2 L10.3333333,2 C10.7015208,2 11,1.55228125 11,1 C11,0.44771875 10.7015208,0 10.3333333,0 Z" id="Shape" fill="#BDC2C2"></path>
                            <path d="M1.99442964,0.995178738 C1.99331091,0.730559774 1.88780814,0.477183915 1.7010729,0.290610836 C1.31321426,-0.0968702788 0.686785739,-0.0968702788 0.298927104,0.290610836 C0.112160787,0.477183915 0.0066580172,0.730559774 0.00557035978,0.995178738 C-0.00185678659,1.05992028 -0.00185678659,1.12531768 0.00557035978,1.19005922 C0.0168198451,1.25517554 0.0351546416,1.31885523 0.06026399,1.37994277 C0.0869582106,1.43912522 0.118562428,1.49596536 0.154734806,1.54983858 C0.190441045,1.60586671 0.232113862,1.65780361 0.279038511,1.70474358 C0.324285059,1.7500283 0.374286225,1.79025363 0.428202957,1.82467003 C0.480565893,1.86299028 0.53734161,1.89487697 0.597255996,1.9196118 C0.663168035,1.95396573 0.733430705,1.97920026 0.80608622,1.99456583 C0.870506615,2.00181139 0.935579605,2.00181139 1,1.99456583 C1.26259158,1.99478445 1.51461734,1.89059834 1.7010729,1.70474358 C1.74799755,1.65780361 1.78967036,1.60586671 1.8253766,1.54983858 C1.86154898,1.49596536 1.8931532,1.43912522 1.91984742,1.37994277 C1.95157594,1.31960477 1.97659206,1.25592508 1.99442964,1.19005922 C2.00185679,1.12531768 2.00185679,1.05992028 1.99442964,0.995178738 Z" id="Shape" fill="#E3E3E3"></path>
                            <path d="M1.99425095,5.99509716 C2.00166707,5.93036092 2.00166707,5.86496889 1.99425095,5.80023265 C1.97701937,5.73574624 1.95190428,5.67366441 1.91946654,5.61536119 C1.89379056,5.55406007 1.86203834,5.4954758 1.82473962,5.44048279 C1.79018299,5.38508381 1.7482414,5.33465013 1.70009893,5.29058701 C1.31118884,4.90313766 0.68306211,4.90313766 0.294152015,5.29058701 C0.106879387,5.4771448 0.00109060599,5.73049989 0,5.99509716 C0.00193193061,6.12678684 0.0272651497,6.25704003 0.0747844106,6.37982965 C0.0997748678,6.4389448 0.129813273,6.49578028 0.164525703,6.54971153 C0.202447631,6.60401752 0.24588491,6.65426383 0.294152015,6.6996073 C0.338212497,6.74776132 0.388505013,6.7897946 0.443720836,6.82452045 C0.496225724,6.86286879 0.553124197,6.89475287 0.613232167,6.91945444 C0.67402566,6.94509287 0.73762357,6.96354878 0.802686007,6.97441623 C0.866470877,6.98875001 0.931751435,6.99546409 0.997125474,6.99440233 C1.06172051,7.00186589 1.12696991,7.00186589 1.19156494,6.99440233 C1.25500705,6.98350366 1.31695347,6.96504774 1.37603315,6.93944055 C1.43776145,6.91489511 1.49634257,6.88301103 1.55053011,6.84450655 C1.60574594,6.8097807 1.65603845,6.76774743 1.70009893,6.71959341 C1.74814792,6.67543661 1.79008951,6.62503416 1.82473962,6.56969763 C1.86306663,6.5171092 1.89488116,6.46008635 1.91946654,6.39981575 C1.9535246,6.33348687 1.97867086,6.26291094 1.99425095,6.18996167 C2.00191635,6.12522543 2.00191635,6.0598334 1.99425095,5.99509716 Z" id="Shape" fill="#E3E3E3"></path>
                            <path d="M1.99425112,10.9950972 C2.00163586,10.9303609 2.00163586,10.8649689 1.99425112,10.8002327 C1.97702008,10.7341536 1.95190575,10.6704167 1.919469,10.6103647 C1.89270323,10.5511871 1.8610143,10.4943516 1.82474497,10.4404828 C1.79009592,10.3851463 1.74815561,10.3347438 1.7001081,10.290587 C1.31120989,9.90313766 0.683102357,9.90313766 0.294204147,10.290587 C0.246156631,10.3347438 0.204216323,10.3851463 0.169567272,10.4404828 C0.133297941,10.4943516 0.101609015,10.5511871 0.0748432465,10.6103647 C0.0489810949,10.6711974 0.0305659966,10.7349655 0.0200030214,10.8002327 C0.00595021375,10.8642194 -0.000717859067,10.9295802 6.11214031e-05,10.9950972 C0.00118285328,11.2596944 0.106968401,11.5130495 0.294204147,11.6996073 C0.338263282,11.7477613 0.388554261,11.7897946 0.443768397,11.8245205 C0.496271681,11.8628688 0.553168414,11.8947529 0.613274547,11.9194544 C0.674066183,11.9450929 0.737662149,11.9635488 0.802722598,11.9744162 C0.866505518,11.98875 0.931784082,11.9954641 0.997156123,11.9944023 C1.06174918,12.0018659 1.12699659,12.0018659 1.19158965,11.9944023 C1.25502982,11.9835037 1.31697434,11.9650477 1.37605222,11.9394405 C1.43777864,11.9148951 1.49635797,11.883011 1.55054385,11.8445066 C1.60575798,11.8097807 1.65604896,11.7677474 1.7001081,11.7195934 C1.74815561,11.6754366 1.79009592,11.6250342 1.82474497,11.5696976 C1.86310197,11.5171404 1.89491553,11.4600863 1.919469,11.3998158 C1.95349487,11.3334556 1.97864036,11.2629109 1.99425112,11.1899617 C2.00191629,11.1252254 2.00191629,11.0598334 1.99425112,10.9950972 Z" id="Shape" fill="#E3E3E3"></path>
                            <path d="M11.3076923,5 L3.69230769,5 C3.30995913,5 3,5.44771875 3,6 C3,6.55228125 3.30995913,7 3.69230769,7 L11.3076923,7 C11.6900409,7 12,6.55228125 12,6 C12,5.44771875 11.6900409,5 11.3076923,5 Z" id="Shape" fill="#BDC2C2"></path>
                            <path d="M8.29411765,10 L3.70588235,10 C3.31603676,10 3,10.4477187 3,11 C3,11.5522812 3.31603676,12 3.70588235,12 L8.29411765,12 C8.68396324,12 9,11.5522812 9,11 C9,10.4477187 8.68396324,10 8.29411765,10 Z" id="Shape" fill="#BDC2C2"></path>
                        </g>
                        <polyline id="Fill-35" fill="#E6E6E7" points="44.7826087 23.3037033 22.1748318 23.3448276 22.173913 22.8859518 44.7817922 22.8448276 44.7826087 23.3037033"></polyline>
                        <polyline id="Fill-36" fill="#E6E6E7" points="44.7826087 26.3209447 22.1748318 26.362069 22.173913 25.9032919 44.78169 25.862069 44.7826087 26.3209447"></polyline>
                        <polyline id="Fill-37" fill="#E6E6E7" points="44.7826087 29.338178 22.1748318 29.3793103 22.173913 28.9204427 44.7817922 28.8793103 44.7826087 29.338178"></polyline>
                        <path d="M17.2970536,17.8905727 L17.2970536,15.4242028 C17.2970536,14.0472668 16.1758984,12.9310345 14.7928899,12.9310345 L2.50416377,12.9310345 C1.12115517,12.9310345 0,14.0472668 0,15.4242028 L0,47.5067306 C0,48.8837677 1.12115517,50 2.50416377,50 L44.8870391,50 C46.2701491,50 47.3913043,48.8837677 47.3913043,47.5067306 L47.3913043,22.8771116 C47.3913043,21.5000744 46.2701491,20.3838421 44.8870391,20.3838421 L19.801319,20.3838421 C18.4183104,20.3838421 17.2970536,19.2676098 17.2970536,17.8905727" id="Fill-40" fill="#E9E9E9"></path>
                        <polygon id="Fill-38" fill="#DADDDD" points="39.1327367 24.5689655 39.1304348 23.2835696 43.0411593 23.2758621 43.0434783 24.561258"></polygon>
                    </g>
                    <g id="user-(17)" transform="translate(29.000000, 30.000000)" fill="#B3B9B9">
                        <path d="M11.0962109,8.40378906 C10.3882441,7.69584766 9.54558008,7.17175977 8.62618555,6.85450391 C9.61088477,6.17629492 10.2578125,5.04125781 10.2578125,3.7578125 C10.2578125,1.68575977 8.57205273,0 6.5,0 C4.42794727,0 2.7421875,1.68575977 2.7421875,3.7578125 C2.7421875,5.04125781 3.38911523,6.17629492 4.37383984,6.85450391 C3.45444531,7.17175977 2.61178125,7.69584766 1.90381445,8.40378906 C0.676126953,9.63150195 0,11.2637891 0,13 L1.015625,13 C1.015625,9.97590039 3.47590039,7.515625 6.5,7.515625 C9.52409961,7.515625 11.984375,9.97590039 11.984375,13 L13,13 C13,11.2637891 12.323873,9.63150195 11.0962109,8.40378906 Z M6.5,6.5 C4.98796289,6.5 3.7578125,5.269875 3.7578125,3.7578125 C3.7578125,2.24575 4.98796289,1.015625 6.5,1.015625 C8.01203711,1.015625 9.2421875,2.24575 9.2421875,3.7578125 C9.2421875,5.269875 8.01203711,6.5 6.5,6.5 Z" id="Shape"></path>
                    </g>
                </g>
            </g>
        </g>
    </g>
</svg>