<?xml version="1.0" encoding="UTF-8"?>
<svg width="17px" height="17px" viewBox="0 0 17 17" version="1.1" xmlns="http://www.w3.org/2000/svg" xmlns:xlink="http://www.w3.org/1999/xlink">
    <!-- Generator: Sketch 51.3 (57544) - http://www.bohemiancoding.com/sketch -->
    <title>add (12)</title>
    <desc>Created with Sketch.</desc>
    <defs></defs>
    <g id="Page-1" stroke="none" stroke-width="1" fill="none" fill-rule="evenodd">
        <g id="eReports-Create-003" transform="translate(-642.000000, -218.000000)" fill-rule="nonzero">
            <g id="add-(12)" transform="translate(642.000000, 218.000000)">
                <path d="M13.9603787,0 L3.03485565,0 C1.35957322,0.0019916318 0.0019916318,1.35957322 0,3.03485565 L0,13.9603787 C0.0019916318,15.6356611 1.35957322,16.9932427 3.03485565,16.9952343 L13.9603787,16.9952343 C15.6356611,16.9932427 16.9932427,15.6356611 16.9952343,13.9603787 L16.9952343,3.03485565 C16.9932427,1.35957322 15.6356611,0.0019916318 13.9603787,0 Z" id="Shape" fill="#889293"></path>
                <path d="M11.5325084,7.89066736 L9.10460251,7.89066736 L9.10460251,5.46276151 C9.10460251,5.1275272 8.83285146,4.85577615 8.49761715,4.85577615 C8.16238285,4.85577615 7.8906318,5.1275272 7.8906318,5.46276151 L7.8906318,7.89066736 L5.46276151,7.89066736 C5.1275272,7.89066736 4.85577615,8.16241841 4.85577615,8.49765272 C4.85577615,8.83288703 5.1275272,9.10460251 5.46276151,9.10460251 L7.89066736,9.10460251 L7.89066736,11.5325084 C7.89066736,11.8677427 8.16241841,12.1394937 8.49765272,12.1394937 C8.83288703,12.1394937 9.10460251,11.8677071 9.10460251,11.5325084 L9.10460251,9.10460251 L11.5325084,9.10460251 C11.8677427,9.10460251 12.1394937,8.83285146 12.1394937,8.49761715 C12.1394937,8.16238285 11.8677071,7.89066736 11.5325084,7.89066736 Z" id="Shape" fill="#FFFFFF"></path>
            </g>
        </g>
    </g>
</svg>