<?xml version="1.0" encoding="UTF-8"?>
<svg width="17px" height="18px" viewBox="0 0 17 18" version="1.1" xmlns="http://www.w3.org/2000/svg" xmlns:xlink="http://www.w3.org/1999/xlink">
    <!-- Generator: Sketch 51.3 (57544) - http://www.bohemiancoding.com/sketch -->
    <title>user (10)</title>
    <desc>Created with Sketch.</desc>
    <defs></defs>
    <g id="Page-1" stroke="none" stroke-width="1" fill="none" fill-rule="evenodd">
        <g id="eReports-Patients-open-menu" transform="translate(-16.000000, -567.000000)" fill="#A5B2B3">
            <g id="user-(10)" transform="translate(16.000000, 567.500000)">
                <path d="M14.5104297,10.9895703 C13.584627,10.0638008 12.4826816,9.37845508 11.2803965,8.96358203 C12.5680801,8.07669336 13.4140625,6.59241406 13.4140625,4.9140625 C13.4140625,2.20445508 11.2096074,0 8.5,0 C5.79039258,0 3.5859375,2.20445508 3.5859375,4.9140625 C3.5859375,6.59241406 4.43191992,8.07669336 5.71963672,8.96358203 C4.51735156,9.37845508 3.41540625,10.0638008 2.48960352,10.9895703 C0.884166016,12.595041 0,14.7295703 0,17 L1.328125,17 C1.328125,13.0454082 4.5454082,9.828125 8.5,9.828125 C12.4545918,9.828125 15.671875,13.0454082 15.671875,17 L17,17 C17,14.7295703 16.115834,12.595041 14.5104297,10.9895703 Z M8.5,8.5 C6.5227207,8.5 4.9140625,6.891375 4.9140625,4.9140625 C4.9140625,2.93675 6.5227207,1.328125 8.5,1.328125 C10.4772793,1.328125 12.0859375,2.93675 12.0859375,4.9140625 C12.0859375,6.891375 10.4772793,8.5 8.5,8.5 Z" id="Shape"></path>
            </g>
        </g>
    </g>
</svg>