<?xml version="1.0" encoding="UTF-8"?>
<svg width="18px" height="18px" viewBox="0 0 18 18" version="1.1" xmlns="http://www.w3.org/2000/svg" xmlns:xlink="http://www.w3.org/1999/xlink">
    <!-- Generator: Sketch 51.3 (57544) - http://www.bohemiancoding.com/sketch -->
    <title>information (5)</title>
    <desc>Created with Sketch.</desc>
    <defs></defs>
    <g id="Page-2" stroke="none" stroke-width="1" fill="none" fill-rule="evenodd">
        <g id="sReports-2.0-Create-/-find-consensus" transform="translate(-648.000000, -1557.000000)" fill-rule="nonzero">
            <g id="Group-20" transform="translate(76.000000, 1092.000000)">
                <g id="Group-19" transform="translate(535.000000, 438.000000)">
                    <g id="information-(5)" transform="translate(37.000000, 27.000000)">
                        <path d="M9,0 C4.02595313,0 0,4.02528516 0,9 C0,13.9740469 4.02528516,18 9,18 C13.9740469,18 18,13.9747148 18,9 C18,4.02595313 13.9747148,0 9,0 Z" id="Shape" fill="#1C94A3"></path>
                        <circle id="Oval" fill="#FFFFFF" cx="9" cy="13.3066406" r="1"></circle>
                        <path d="M9,4.51757812 C7.4491875,4.51757812 6.1875,5.77926563 6.1875,7.33007812 C6.1875,7.71841406 6.50228906,8.03320312 6.890625,8.03320312 C7.27896094,8.03320312 7.59375,7.71841406 7.59375,7.33007812 C7.59375,6.55467187 8.22459375,5.92382812 9,5.92382812 C9.77540625,5.92382812 10.40625,6.55467187 10.40625,7.33007812 C10.40625,8.10548437 9.77540625,8.73632812 9,8.73632812 C8.61166406,8.73632812 8.296875,9.05111719 8.296875,9.43945312 L8.296875,11.1972656 C8.296875,11.5856016 8.61166406,11.9003906 9,11.9003906 C9.38833594,11.9003906 9.703125,11.5856016 9.703125,11.1972656 L9.703125,10.0535977 C10.9148203,9.74060156 11.8125,8.63820703 11.8125,7.33007812 C11.8125,5.77926563 10.5508125,4.51757812 9,4.51757812 Z" id="Shape" fill="#FFFFFF"></path>
                    </g>
                </g>
            </g>
        </g>
    </g>
</svg>