<?xml version="1.0" encoding="UTF-8"?>
<svg width="17px" height="17px" viewBox="0 0 17 17" version="1.1" xmlns="http://www.w3.org/2000/svg" xmlns:xlink="http://www.w3.org/1999/xlink">
    <!-- Generator: Sketch 51.3 (57544) - http://www.bohemiancoding.com/sketch -->
    <title>Group 3</title>
    <desc>Created with Sketch.</desc>
    <defs></defs>
    <g id="Page-2" stroke="none" stroke-width="1" fill="none" fill-rule="evenodd">
        <g id="eReports-editing-regex-5" transform="translate(-558.000000, -742.000000)" fill="#1C94A3" fill-rule="nonzero">
            <g id="Group" transform="translate(235.000000, 712.000000)">
                <g id="Group-3">
                    <g transform="translate(323.000000, 30.000000)" id="question-(4)">
                        <g>
                            <path d="M9.20829009,12.75 C9.20829009,13.1411743 8.89117432,13.4582901 8.5,13.4582901 C8.10882568,13.4582901 7.79170991,13.1411743 7.79170991,12.75 C7.79170991,12.3588257 8.10882568,12.0417099 8.5,12.0417099 C8.89117432,12.0417099 9.20829009,12.3588257 9.20829009,12.75 Z" id="Shape"></path>
                            <path d="M8.5,17 C3.812912,17 0,13.187088 0,8.5 C0,3.812912 3.812912,0 8.5,0 C13.187088,0 17,3.812912 17,8.5 C17,13.187088 13.187088,17 8.5,17 Z M8.5,1.0625 C4.39876557,1.0625 1.0625,4.39876557 1.0625,8.5 C1.0625,12.6012344 4.39876557,15.9375 8.5,15.9375 C12.6012344,15.9375 15.9375,12.6012344 15.9375,8.5 C15.9375,4.39876557 12.6012344,1.0625 8.5,1.0625 Z" id="Shape"></path>
                            <path d="M8.5,10.4479599 C8.20674897,10.4479599 7.96875,10.2099609 7.96875,9.91670991 L7.96875,9.20128632 C7.96875,8.52697754 8.39662934,7.9227066 9.03267671,7.69819639 C9.87909698,7.40001679 10.4479599,6.49821474 10.4479599,5.84375 C10.4479599,4.76918794 9.57456206,3.89579009 8.5,3.89579009 C7.42543794,3.89579009 6.55204009,4.76918794 6.55204009,5.84375 C6.55204009,6.13700103 6.31404112,6.375 6.02079009,6.375 C5.72753906,6.375 5.48954009,6.13700103 5.48954009,5.84375 C5.48954009,4.18411255 6.83971406,2.83329009 8.5,2.83329009 C10.1602859,2.83329009 11.5104599,4.18411255 11.5104599,5.84375 C11.5104599,7.02531435 10.5775299,8.27976991 9.3861084,8.70051573 C9.17366026,8.77483369 9.03125,8.97664643 9.03125,9.20193481 L9.03125,9.91670991 C9.03125,10.2099609 8.79325103,10.4479599 8.5,10.4479599 Z" id="Shape"></path>
                        </g>
                    </g>
                </g>
            </g>
        </g>
    </g>
</svg>