<?xml version="1.0" encoding="UTF-8"?>
<svg width="8px" height="12px" viewBox="0 0 8 12" version="1.1" xmlns="http://www.w3.org/2000/svg" xmlns:xlink="http://www.w3.org/1999/xlink">
    <!-- Generator: Sketch 51.3 (57544) - http://www.bohemiancoding.com/sketch -->
    <title>bin</title>
    <desc>Created with Sketch.</desc>
    <defs></defs>
    <g id="Page-1" stroke="none" stroke-width="1" fill="none" fill-rule="evenodd">
        <g id="eReports-Patients-open-menu" transform="translate(-1305.000000, -377.000000)" fill="#B8B8B8" fill-rule="nonzero">
            <g id="Group-7" transform="translate(1295.000000, 327.000000)">
                <g id="bin" transform="translate(10.000000, 50.000000)">
                    <path d="M7.64097477,1.13200644 L5.67412127,1.13200644 L5.67412127,0.368004585 C5.67412127,0.16478212 5.5133621,0 5.31505303,0 L2.68498999,0 C2.48670242,0 2.32592174,0.164760078 2.32592174,0.368004585 L2.32592174,1.13200644 L0.359068242,1.13200644 C0.160780677,1.13200644 0,1.29676651 0,1.50001102 L0,2.63199542 C0,2.83521788 0.16075917,3 0.359068242,3 L7.64093176,3 C7.83921932,3 8,2.83523992 8,2.63199542 L8,1.50001102 C8.00002151,1.29674447 7.83926234,1.13200644 7.64097477,1.13200644 Z M5,1.39601931 L3,1.39601931 L3,1 L5,1 L5,1.39601931 Z" id="Shape"></path>
                    <path d="M0,4 L0.340131751,11.626562 C0.349418792,11.835307 0.530172136,12 0.749940881,12 L7.25008369,12 C7.46985243,12 7.65060578,11.835307 7.65989282,11.6265387 L8,4 L0,4 Z M2.90909091,10.2958082 C2.90909091,10.5006067 2.74628654,10.6666667 2.54545455,10.6666667 C2.34464434,10.6666667 2.18181818,10.5006289 2.18181818,10.2958082 L2.18181818,5.70419176 C2.18181818,5.49939332 2.34462256,5.33333333 2.54545455,5.33333333 C2.74626476,5.33333333 2.90909091,5.49937111 2.90909091,5.70419176 L2.90909091,10.2958082 Z M4.36363636,10.2958082 C4.36363636,10.5006067 4.20083199,10.6666667 4,10.6666667 C3.79916801,10.6666667 3.63636364,10.5006289 3.63636364,10.2958082 L3.63636364,5.70419176 C3.63636364,5.49939332 3.79916801,5.33333333 4,5.33333333 C4.20083199,5.33333333 4.36363636,5.49937111 4.36363636,5.70419176 L4.36363636,10.2958082 Z M5.81818182,10.2958082 C5.81818182,10.5006067 5.65537744,10.6666667 5.45454545,10.6666667 C5.25371346,10.6666667 5.09090909,10.5006289 5.09090909,10.2958082 L5.09090909,5.70419176 C5.09090909,5.49939332 5.25371346,5.33333333 5.45454545,5.33333333 C5.65537744,5.33333333 5.81818182,5.49937111 5.81818182,5.70419176 L5.81818182,10.2958082 Z" id="Shape"></path>
                </g>
            </g>
        </g>
    </g>
</svg>