<?xml version="1.0" encoding="UTF-8"?>
<svg width="7px" height="11px" viewBox="0 0 7 11" version="1.1" xmlns="http://www.w3.org/2000/svg" xmlns:xlink="http://www.w3.org/1999/xlink">
    <!-- Generator: Sketch 51.3 (57544) - http://www.bohemiancoding.com/sketch -->
    <title>bin</title>
    <desc>Created with Sketch.</desc>
    <defs></defs>
    <g id="Page-1" stroke="none" stroke-width="1" fill="none" fill-rule="evenodd">
        <g id="eReports-field-polja-02" transform="translate(-1714.000000, -162.000000)" fill="#FFFFFF" fill-rule="nonzero">
            <g id="Group-10" transform="translate(1160.000000, 156.000000)">
                <g id="Group-11">
                    <g id="Group-9" transform="translate(542.000000, 0.000000)">
                        <g id="bin" transform="translate(12.000000, 6.000000)">
                            <path d="M6.68585292,1.13200644 L4.96485611,1.13200644 L4.96485611,0.368004585 C4.96485611,0.16478212 4.82419184,0 4.6506714,0 L2.34936624,0 C2.17586462,0 2.03518153,0.164760078 2.03518153,0.368004585 L2.03518153,1.13200644 L0.314184712,1.13200644 C0.140683092,1.13200644 0,1.29676651 0,1.50001102 L0,2.63199542 C0,2.83521788 0.140664274,3 0.314184712,3 L6.68581529,3 C6.85931691,3 7,2.83523992 7,2.63199542 L7,1.50001102 C7.00001882,1.29674447 6.85935454,1.13200644 6.68585292,1.13200644 Z M4.375,1.39601931 L2.625,1.39601931 L2.625,1 L4.375,1 L4.375,1.39601931 Z" id="Shape"></path>
                            <path d="M0,4 L0.297615282,10.6732418 C0.305741443,10.8558937 0.463900619,11 0.656198271,11 L6.34382323,11 C6.53612088,11 6.69428005,10.8558937 6.70240622,10.6732213 L7,4 L0,4 Z M2.54545455,9.50883221 C2.54545455,9.68803084 2.40300072,9.83333333 2.22727273,9.83333333 C2.05156379,9.83333333 1.90909091,9.68805028 1.90909091,9.50883221 L1.90909091,5.49116779 C1.90909091,5.31196916 2.05154474,5.16666667 2.22727273,5.16666667 C2.40298166,5.16666667 2.54545455,5.31194972 2.54545455,5.49116779 L2.54545455,9.50883221 Z M3.81818182,9.50883221 C3.81818182,9.68803084 3.67572799,9.83333333 3.5,9.83333333 C3.32427201,9.83333333 3.18181818,9.68805028 3.18181818,9.50883221 L3.18181818,5.49116779 C3.18181818,5.31196916 3.32427201,5.16666667 3.5,5.16666667 C3.67572799,5.16666667 3.81818182,5.31194972 3.81818182,5.49116779 L3.81818182,9.50883221 Z M5.09090909,9.50883221 C5.09090909,9.68803084 4.94845526,9.83333333 4.77272727,9.83333333 C4.59699928,9.83333333 4.45454545,9.68805028 4.45454545,9.50883221 L4.45454545,5.49116779 C4.45454545,5.31196916 4.59699928,5.16666667 4.77272727,5.16666667 C4.94845526,5.16666667 5.09090909,5.31194972 5.09090909,5.49116779 L5.09090909,9.50883221 Z" id="Shape"></path>
                        </g>
                    </g>
                </g>
            </g>
        </g>
    </g>
</svg>