<?xml version="1.0" encoding="UTF-8"?>
<svg width="15px" height="15px" viewBox="0 0 15 15" version="1.1" xmlns="http://www.w3.org/2000/svg" xmlns:xlink="http://www.w3.org/1999/xlink">
    <!-- Generator: Sketch 51.3 (57544) - http://www.bohemiancoding.com/sketch -->
    <title>Group 26</title>
    <desc>Created with Sketch.</desc>
    <defs></defs>
    <g id="Page-2" stroke="none" stroke-width="1" fill="none" fill-rule="evenodd">
        <g id="eReports-dynamic-field-polja-01" transform="translate(-992.000000, -643.000000)" fill="#C3C3C3" fill-rule="nonzero">
            <g id="d-f-select" transform="translate(322.000000, 643.000000)">
                <g id="d-f">
                    <g id="Group-30" transform="translate(609.000000, 0.000000)">
                        <g id="Group-26" transform="translate(61.000000, 0.000000)">
                            <path d="M14.4672363,2.06920898 C14.1449414,2.03982422 13.8599121,2.27727539 13.8305273,2.59954102 L13.7528906,3.45117188 C12.4357324,1.38263672 10.1492871,0 7.5,0 C4.6499707,0 2.13832031,1.62662109 0.891503906,4.06798828 C0.744316406,4.35618164 0.858632813,4.70912109 1.14682617,4.85630859 C1.43507813,5.00349609 1.78795898,4.88920898 1.93514648,4.60098633 C2.99033203,2.53485352 5.10928711,1.171875 7.5,1.171875 C9.67901367,1.171875 11.6454785,2.30657227 12.7720605,4.08421875 L11.9366016,3.4875293 C11.673252,3.29947266 11.3073047,3.36046875 11.119248,3.62378906 C10.9311914,3.88713867 10.9921875,4.25305664 11.2555078,4.44114258 L13.7889551,6.25054688 C14.1602637,6.51524414 14.6724023,6.27292969 14.7130078,5.82694336 L14.9975098,2.70594727 C15.0269238,2.38365234 14.789502,2.09859375 14.4672363,2.06920898 Z" id="Shape"></path>
                            <path d="M13.8531738,10.1436914 C13.5649512,9.9965332 13.212041,10.1108203 13.0648535,10.3990137 C12.009668,12.4651465 9.89071289,13.828125 7.5,13.828125 C5.32098633,13.828125 3.35452148,12.6934277 2.22793945,10.9157813 L3.06339844,11.5124707 C3.32674805,11.7005273 3.69266602,11.6395313 3.88075195,11.3762109 C4.06880859,11.1128613 4.0078125,10.7469434 3.74449219,10.5588574 L1.21104492,8.74945313 C0.844277344,8.48742188 0.328007812,8.7224707 0.286992187,9.17305664 L0.00249023437,12.2940527 C-0.0268945313,12.6163184 0.210556641,12.901377 0.532792969,12.9307617 C0.85546875,12.9600879 1.14014648,12.7224023 1.16950195,12.4004297 L1.24713867,11.5487988 C2.56426758,13.6173633 4.85071289,15 7.5,15 C10.3500293,15 12.8616797,13.3733789 14.1084961,10.9320117 C14.2556836,10.6438184 14.1413672,10.2908789 13.8531738,10.1436914 Z" id="Shape"></path>
                        </g>
                    </g>
                </g>
            </g>
        </g>
    </g>
</svg>