<?xml version="1.0" encoding="UTF-8"?>
<svg width="34px" height="34px" viewBox="0 0 34 34" version="1.1" xmlns="http://www.w3.org/2000/svg" xmlns:xlink="http://www.w3.org/1999/xlink">
    <!-- Generator: Sketch 51.3 (57544) - http://www.bohemiancoding.com/sketch -->
    <title>Group 6</title>
    <desc>Created with Sketch.</desc>
    <defs></defs>
    <g id="Page-2" stroke="none" stroke-width="1" fill="none" fill-rule="evenodd">
        <g id="eReports-editing-image-2" transform="translate(-345.000000, -782.000000)">
            <g id="Group-4" transform="translate(326.000000, 744.000000)">
                <g id="Group-6" transform="translate(19.000000, 38.000000)">
                    <circle id="Oval" fill="#FFFFFF" cx="17" cy="17" r="17"></circle>
                    <g id="arrow-(4)" transform="translate(16.400000, 17.400000) scale(-1, 1) translate(-16.400000, -17.400000) translate(2.400000, 3.400000)" fill="#000000" fill-rule="nonzero">
                        <path d="M22.66185,0.611496296 C22.2285094,0.611496296 21.8772469,0.962127096 21.8772469,1.39456998 L21.8772469,2.8016 C19.5136094,0.984820273 16.6328,0 13.6,0 C9.9673125,0 6.55206563,1.41190799 3.9833125,3.97554776 C1.4146125,6.53924055 0,9.94788304 0,13.5734893 C0,17.1992016 1.41466563,20.6078441 3.98341875,23.1715368 C4.13663125,23.3245037 4.33744375,23.4009076 4.53820312,23.4009076 C4.7389625,23.4009076 4.93982813,23.3244507 5.09304062,23.1715368 C5.3994125,22.8657092 5.3994125,22.3699057 5.09304062,22.064078 C2.82067187,19.7961388 1.56920625,16.7808624 1.56920625,13.5734893 C1.56920625,6.95264873 6.96622812,1.56614737 13.6,1.56614737 C16.1122281,1.56614737 18.5068375,2.32949708 20.5180438,3.74623002 L19.5233844,3.74623002 C19.0900437,3.74623002 18.7387812,4.09686082 18.7387812,4.5293037 C18.7387812,4.96174659 19.0900969,5.31237739 19.5233844,5.31237739 L22.66185,5.31237739 C22.686925,5.31237739 22.7116281,5.31089279 22.7361187,5.30861287 C22.7363844,5.30861287 22.73665,5.30861287 22.7369156,5.30855984 C22.7586969,5.30649201 22.7800531,5.30309864 22.8013031,5.29933411 C22.8050219,5.29864483 22.8087937,5.29832671 22.8125125,5.29763743 C22.8332312,5.2936078 22.8534719,5.28835867 22.8736062,5.2827384 C22.8779625,5.28151891 22.8823719,5.28067057 22.8867281,5.27934503 C22.9062781,5.27351267 22.92535,5.26656686 22.9442094,5.2592499 C22.94915,5.25739415 22.9541438,5.25580351 22.9590844,5.25384172 C22.9776781,5.24625965 22.9955812,5.23761715 23.0134312,5.22865653 C23.0185312,5.2261115 23.0237375,5.22393762 23.0287844,5.22128655 C23.0474844,5.21142456 23.0654406,5.20050214 23.0831844,5.18915556 C23.0870094,5.18671657 23.0910469,5.18459571 23.0948719,5.1821037 C23.1826344,5.1239922 23.2579656,5.0488078 23.3161375,4.96121637 C23.3186875,4.95739883 23.3208125,4.9533692 23.3232563,4.94949864 C23.3345719,4.93178947 23.3454625,4.91386823 23.3553969,4.89531072 C23.3580531,4.89022066 23.3602844,4.88502456 23.3628344,4.8799345 C23.3717594,4.86217232 23.3804188,4.84430409 23.3880156,4.82579961 C23.3899812,4.82086862 23.391575,4.8158846 23.3934344,4.81090058 C23.4007656,4.79207797 23.407725,4.77304327 23.4135687,4.75353138 C23.4148437,4.74934269 23.4156406,4.74504795 23.4168094,4.74085926 C23.4224938,4.72065809 23.4278062,4.70024483 23.4318437,4.67940741 C23.4324813,4.67612008 23.4328,4.67272671 23.4333844,4.66943938 C23.4416719,4.62384094 23.4466125,4.57718207 23.4466125,4.52925068 L23.4466125,1.39456998 C23.4464531,0.962074074 23.0951375,0.611496296 22.66185,0.611496296 Z" id="Shape"></path>
                        <g id="Group-8" transform="translate(14.000000, 14.000000) scale(-1, 1) translate(-14.000000, -14.000000) translate(5.000000, 10.000000)">
                            <path d="M4.01159375,3.57348928 C4.71241875,3.31840312 5.18719687,2.65266589 5.18719687,1.8945653 C5.18719687,0.908737622 4.38362812,0.106788304 3.39598125,0.106788304 L0.817453125,0.106788304 C0.3841125,0.106788304 0.03285,0.457419103 0.03285,0.889861988 C0.03285,1.32230487 0.384165625,1.67293567 0.817453125,1.67293567 L3.39598125,1.67293567 C3.51838125,1.67293567 3.61799062,1.77235088 3.61799062,1.8945653 C3.61799062,1.99641949 3.54882187,2.08480624 3.44979687,2.10951423 L1.73784375,2.53670799 C1.26025,2.65584717 0.926784375,3.08219259 0.926784375,3.57348928 C0.926784375,4.06478596 1.26030312,4.49118441 1.73784375,4.61027057 L3.44979687,5.03746433 C3.54882187,5.06222534 3.6179375,5.15055906 3.6179375,5.25241326 C3.6179375,5.37462768 3.51832812,5.47404288 3.39592812,5.47404288 L0.8174,5.47404288 C0.384059375,5.47404288 0.032796875,5.82467368 0.032796875,6.25711657 C0.032796875,6.68955945 0.3841125,7.04019025 0.8174,7.04019025 L3.39592812,7.04019025 C4.38362812,7.04019025 5.18719687,6.23818791 5.18719687,5.25241326 C5.18719687,4.49431267 4.7123125,3.82857544 4.01159375,3.57348928 Z" id="Shape"></path>
                            <path d="M9.04810938,2.79041559 L7.59200625,2.79041559 L7.59200625,2.23172865 C7.59200625,1.92367407 7.84312813,1.67298869 8.1518375,1.67298869 L10.3925438,1.67298869 C10.8258844,1.67298869 11.1771469,1.32235789 11.1771469,0.88991501 C11.1771469,0.457472125 10.8258313,0.106841326 10.3925438,0.106841326 L8.1518375,0.106841326 C6.97788125,0.106841326 6.02274688,1.06011384 6.02274688,2.23178168 L6.02274688,4.91535595 C6.02274688,6.08702378 6.97782813,7.0402963 8.1518375,7.0402963 L9.04810938,7.0402963 C10.2220656,7.0402963 11.1772,6.08702378 11.1772,4.91535595 C11.1772,3.74368811 10.2221188,2.79041559 9.04810938,2.79041559 Z M9.04810938,5.47404288 L8.1518375,5.47404288 C7.84318125,5.47404288 7.59200625,5.2233575 7.59200625,4.91530292 L7.59200625,4.35661598 L9.04810938,4.35661598 C9.35676563,4.35661598 9.60794063,4.60724834 9.60794063,4.91530292 C9.60794063,5.2233575 9.35681875,5.47404288 9.04810938,5.47404288 Z" id="Shape"></path>
                            <path d="M15.0381656,0.106788304 L14.1418937,0.106788304 C12.9679375,0.106788304 12.0128562,1.06006082 12.0128562,2.23172865 L12.0128562,4.91530292 C12.0128562,6.08697076 12.9679375,7.04024327 14.1418937,7.04024327 L15.0381656,7.04024327 C16.2121219,7.04024327 17.1672031,6.08697076 17.1672031,4.91530292 L17.1672031,2.23172865 C17.1672031,1.06006082 16.2121219,0.106788304 15.0381656,0.106788304 Z M15.5979969,4.91530292 C15.5979969,5.2233575 15.346875,5.47404288 15.0382187,5.47404288 L14.1419469,5.47404288 C13.8332906,5.47404288 13.5821687,5.2233575 13.5821687,4.91530292 L13.5821687,2.23172865 C13.5821687,1.92367407 13.8332906,1.67298869 14.1419469,1.67298869 L15.0382187,1.67298869 C15.346875,1.67298869 15.5979969,1.92367407 15.5979969,2.23172865 L15.5979969,4.91530292 Z" id="Shape"></path>
                        </g>
                        <path d="M7.85044062,24.1236429 C7.67257812,24.0268788 7.49503437,23.9243883 7.32269687,23.8189287 C6.95331875,23.5928982 6.4702,23.708432 6.243675,24.0771431 C6.01715,24.4458012 6.13301562,24.9279782 6.50239375,25.1540616 C6.69741562,25.2734129 6.89828125,25.3894238 7.09946562,25.498807 C7.21873125,25.5636522 7.34734687,25.5944577 7.4742625,25.5944577 C7.75215937,25.5944577 8.02150312,25.44674 8.16387812,25.1859275 C8.37127812,24.8062409 8.23086875,24.3305856 7.85044062,24.1236429 Z" id="Shape"></path>
                        <path d="M10.7820906,25.2498183 C10.5849969,25.2026292 10.3867344,25.1498199 10.1929344,25.0927158 C9.77723125,24.9705544 9.341075,25.2076663 9.21856875,25.622506 C9.0960625,26.0373458 9.33374375,26.4727579 9.74939375,26.5950253 C9.96869375,26.6594994 10.1929875,26.7192546 10.4159531,26.7727002 C10.4774719,26.7874402 10.5390969,26.794545 10.5996594,26.794545 C10.9541094,26.794545 11.2756219,26.5530854 11.3620031,26.1939712 C11.4631,25.7734581 11.2034781,25.3507712 10.7820906,25.2498183 Z" id="Shape"></path>
                        <path d="M26.8223875,10.3845146 C26.7688375,10.1624608 26.7087531,9.93881637 26.6439406,9.71989084 C26.5211156,9.30510409 26.0846937,9.06841637 25.6690969,9.19089591 C25.2535,9.3135345 25.0161906,9.74915867 25.1390687,10.1638394 C25.1963906,10.3573676 25.2494625,10.5549786 25.29685,10.7512109 C25.3834437,11.11006 25.7047437,11.3511485 26.0590344,11.3511485 C26.1198094,11.3511485 26.1816469,11.3439906 26.2433781,11.3291446 C26.6645531,11.2279267 26.9238563,10.8049747 26.8223875,10.3845146 Z" id="Shape"></path>
                        <path d="M13.908975,25.5769606 C13.7068875,25.5820507 13.5000719,25.5820507 13.2980375,25.5771197 C12.8650156,25.5682651 12.5049344,25.9081326 12.4940969,26.3404694 C12.4833125,26.7728593 12.8257562,27.1320265 13.2589906,27.1427899 C13.3718281,27.1456 13.486525,27.1470316 13.6,27.1470316 C13.7159719,27.1470316 13.8332188,27.145547 13.9486062,27.1426308 C14.3818406,27.1317084 14.724125,26.7723821 14.7131812,26.3400452 C14.7022375,25.9076554 14.3408281,25.5667805 13.908975,25.5769606 Z" id="Shape"></path>
                        <path d="M26.2460344,15.8020335 C25.8245406,15.7012928 25.4011344,15.9606207 25.30025,16.3812398 C25.2531281,16.5775782 25.2002688,16.7753481 25.1432125,16.9689294 C25.0208656,17.3838222 25.2587063,17.8190752 25.6744094,17.9411836 C25.7483063,17.9629224 25.8228406,17.9732616 25.8962594,17.9732616 C26.2353031,17.9732616 26.54805,17.7521622 26.6486156,17.4110222 C26.7132156,17.1919906 26.7729813,16.9681871 26.8263188,16.7459743 C26.9272563,16.3254082 26.6674219,15.9028273 26.2460344,15.8020335 Z" id="Shape"></path>
                        <path d="M25.2376688,18.9939244 C24.8571344,18.7870877 24.3806031,18.9272234 24.1733094,19.307122 C24.0764625,19.4844788 23.9737719,19.6619945 23.8678406,19.8346854 C23.6415813,20.2035025 23.7577656,20.6856265 24.1273563,20.9114448 C24.255175,20.9895454 24.3965938,21.0267665 24.5362594,21.0267665 C24.8002906,21.0267665 25.0582125,20.8936827 25.2062188,20.6524351 C25.3259094,20.4573162 25.4420938,20.256683 25.551425,20.0561559 C25.7587188,19.6763634 25.6182031,19.200761 25.2376688,18.9939244 Z" id="Shape"></path>
                        <path d="M27.1955375,13.2219571 C27.1846469,12.796407 26.8356688,12.4588195 26.4115719,12.4588195 C26.404825,12.4588195 26.398025,12.4589255 26.391225,12.4590846 C25.9579906,12.4701131 25.6157594,12.8294924 25.6268094,13.2618292 C25.6294125,13.3649559 25.6307938,13.4697793 25.6307938,13.5735423 C25.6307938,13.6725864 25.6295719,13.7726908 25.6271813,13.8712047 C25.6166625,14.3035945 25.9593719,14.6625497 26.3925531,14.673048 C26.3990344,14.673207 26.4054625,14.67326 26.4118906,14.67326 C26.8364125,14.67326 27.18555,14.3350363 27.1959094,13.909115 C27.1985656,13.7980351 27.2,13.6850994 27.2,13.5734893 C27.2,13.456524 27.1984594,13.3382331 27.1955375,13.2219571 Z" id="Shape"></path>
                        <path d="M23.4320562,21.8147181 C23.117875,21.5168437 22.6212625,21.5294628 22.3227531,21.8430316 C22.1833,21.9895298 22.0382687,22.1343314 21.8915906,22.2736187 C21.577675,22.5717583 21.5652969,23.0674027 21.8640187,23.3807595 C22.0182937,23.5425279 22.2252156,23.6240218 22.4326156,23.6240218 C22.6268937,23.6240218 22.8214906,23.5524429 22.9733219,23.4082776 C23.1389656,23.2509099 23.3028562,23.0873388 23.460425,22.9218058 C23.7588812,22.6083431 23.7462375,22.1126986 23.4320562,21.8147181 Z" id="Shape"></path>
                        <path d="M20.9596187,24.0748632 C20.7330937,23.7063111 20.249975,23.5907244 19.8805437,23.8168608 C19.7083656,23.9223735 19.5310875,24.0247579 19.3535969,24.121416 C18.9732219,24.3285708 18.8331312,24.8042791 19.0406906,25.1839127 C19.1831187,25.44446 19.4523031,25.5920717 19.7300937,25.5920717 C19.8571156,25.5920717 19.9859437,25.5612133 20.1052625,25.496209 C20.3059156,25.3869318 20.5063562,25.2710269 20.7011125,25.1518347 C21.0705437,24.9257513 21.18625,24.4435743 20.9596187,24.0748632 Z" id="Shape"></path>
                        <path d="M25.5434563,7.07618869 C25.4339125,6.87603275 25.3175688,6.67577076 25.197825,6.48096998 C24.9711406,6.11241793 24.4879156,5.99699025 24.1186438,6.22328577 C23.7493719,6.44952827 23.6337719,6.93175828 23.8604563,7.30036335 C23.9664406,7.47268304 24.0693438,7.64982768 24.1661906,7.8269193 C24.308725,8.08736062 24.57775,8.23481326 24.8554875,8.23481326 C24.9826156,8.23481326 25.11155,8.20390175 25.2309219,8.13879142 C25.6112438,7.93147758 25.7511219,7.4557692 25.5434563,7.07618869 Z" id="Shape"></path>
                        <path d="M17.9867969,25.6207033 C17.8641844,25.2059166 17.4278688,24.9689637 17.0122188,25.0912842 C16.8176219,25.1486004 16.619625,25.2014628 16.4237,25.2484928 C16.0023656,25.3494986 15.7427969,25.7722916 15.844,26.1928047 C15.9304344,26.5518659 16.2518406,26.7932195 16.6062906,26.7932195 C16.6669063,26.7932195 16.7285844,26.7861146 16.7901563,26.7713216 C17.0121125,26.7181411 17.2362469,26.6582799 17.4563969,26.5934347 C17.8719406,26.4710082 18.1094094,26.035437 17.9867969,25.6207033 Z" id="Shape"></path>
                    </g>
                </g>
            </g>
        </g>
    </g>
</svg>