<?xml version="1.0" encoding="UTF-8"?>
<svg width="27px" height="30px" viewBox="0 0 27 30" version="1.1" xmlns="http://www.w3.org/2000/svg" xmlns:xlink="http://www.w3.org/1999/xlink">
    <!-- Generator: Sketch 51.3 (57544) - http://www.bohemiancoding.com/sketch -->
    <title>pdf</title>
    <desc>Created with Sketch.</desc>
    <defs></defs>
    <g id="Page-1" stroke="none" stroke-width="1" fill="none" fill-rule="evenodd">
        <g id="eReports-Thesaurus-search-UMLS" transform="translate(-338.000000, -114.000000)" fill="#000000" fill-rule="nonzero">
            <g id="pdf" transform="translate(338.000000, 114.000000)">
                <path d="M18.4090902,12.5 C18.407863,12.5 18.407863,12.5 18.4066357,12.5 C15.0230454,12.4987499 12.2715004,9.69221922 12.2727277,6.24687469 C12.273955,2.80153015 15.0267272,0 18.4090902,0 L18.412772,0 C20.0511808,0 21.5926351,0.651315132 22.7511804,1.83268327 C23.9097256,3.01405141 24.54668,4.58420842 24.5454528,6.25312531 C24.5442255,9.69846985 21.7914533,12.5 18.4090902,12.5 Z M13.5000002,6.24687469 C13.4987729,9.00465047 15.7004998,11.2486249 18.407863,11.249875 L18.4090902,11.249875 C21.1152261,11.249875 23.316953,9.00840084 23.3181803,6.25187519 C23.3181803,4.91674167 22.8088622,3.66036604 21.8822714,2.71527153 C20.9556807,1.77017702 19.7234991,1.25012501 18.4115448,1.24887489 C18.4103175,1.24887489 18.4090902,1.24887489 18.4090902,1.24887489 C17.0983632,1.24887489 15.8661816,1.76892689 14.9395908,2.71152115 C14.0130001,3.65536554 13.5012275,4.91174117 13.5000002,6.24687469 Z" id="Shape"></path>
                <path d="M26.4320789,15 C26.2864727,15 26.1408664,14.9432772 26.0293867,14.8309892 L22.2572756,10.9877294 C22.0354536,10.7619957 22.0354536,10.3950339 22.2572756,10.1693002 C22.4790975,9.94356659 22.8397004,9.94356659 23.0615224,10.1693002 L26.8336335,14.0125601 C27.0554555,14.2382937 27.0554555,14.6052555 26.8336335,14.8309892 C26.7232913,14.9432772 26.5776851,15 26.4320789,15 Z" id="Shape"></path>
                <path d="M21.4772727,30 L3.06818182,30 C1.377,30 0,28.59875 0,26.875 L0,3.125 C0,1.4025 1.377,0 3.06818182,0 L11.6590909,0 C11.9978182,0 12.2727273,0.28 12.2727273,0.625 C12.2727273,0.97 11.9978182,1.25 11.6590909,1.25 L3.06818182,1.25 C2.05322727,1.25 1.22727273,2.09125 1.22727273,3.125 L1.22727273,26.875 C1.22727273,27.90875 2.05322727,28.75 3.06818182,28.75 L21.4772727,28.75 C22.4922273,28.75 23.3181818,27.90875 23.3181818,26.875 L23.3181818,19.375 C23.3181818,19.03 23.5930909,18.75 23.9318182,18.75 C24.2705455,18.75 24.5454545,19.03 24.5454545,19.375 L24.5454545,26.875 C24.5454545,28.59875 23.1684545,30 21.4772727,30 Z" id="Shape"></path>
            </g>
        </g>
    </g>
</svg>