<?xml version="1.0" encoding="UTF-8"?>
<svg width="17px" height="17px" viewBox="0 0 17 17" version="1.1" xmlns="http://www.w3.org/2000/svg" xmlns:xlink="http://www.w3.org/1999/xlink">
    <!-- Generator: Sketch 51.3 (57544) - http://www.bohemiancoding.com/sketch -->
    <title>search (2)</title>
    <desc>Created with Sketch.</desc>
    <defs></defs>
    <g id="Page-2" stroke="none" stroke-width="1" fill="none" fill-rule="evenodd">
        <g id="eReports-Patient-Add-Documents" transform="translate(-1189.000000, -202.000000)" fill="#1C94A3" fill-rule="nonzero">
            <g id="Group-3" transform="translate(815.000000, 191.000000)">
                <g id="search-(2)" transform="translate(374.000000, 11.000000)">
                    <path d="M16.7918367,15.7926531 L12.704898,11.7057143 C13.7179592,10.4706122 14.3285714,8.88857143 14.3285714,7.16428571 C14.3285714,3.20918367 11.1193878,0 7.16428571,0 C3.20571429,0 0,3.20918367 0,7.16428571 C0,11.1193878 3.20571429,14.3285714 7.16428571,14.3285714 C8.88857143,14.3285714 10.4671429,13.7214286 11.7022449,12.7083673 L15.7891837,16.7918367 C16.0667347,17.0693878 16.5142857,17.0693878 16.7918367,16.7918367 C17.0693878,16.5177551 17.0693878,16.0667347 16.7918367,15.7926531 Z M7.16428571,12.9026531 C3.99673469,12.9026531 1.42244898,10.3283673 1.42244898,7.16428571 C1.42244898,4.00020408 3.99673469,1.42244898 7.16428571,1.42244898 C10.3283673,1.42244898 12.9061224,4.00020408 12.9061224,7.16428571 C12.9061224,10.3283673 10.3283673,12.9026531 7.16428571,12.9026531 Z" id="Shape"></path>
                </g>
            </g>
        </g>
    </g>
</svg>