<?xml version="1.0" encoding="UTF-8"?>
<svg width="14px" height="19px" viewBox="0 0 14 19" version="1.1" xmlns="http://www.w3.org/2000/svg" xmlns:xlink="http://www.w3.org/1999/xlink">
    <!-- Generator: Sketch 51.3 (57544) - http://www.bohemiancoding.com/sketch -->
    <title>shopping-list</title>
    <desc>Created with Sketch.</desc>
    <defs></defs>
    <g id="Page-2" stroke="none" stroke-width="1" fill="none" fill-rule="evenodd">
        <g id="sReports-2.0-Create-,-find-consensus,--Users-03" transform="translate(-1216.000000, -1174.000000)" fill="#000000" fill-rule="nonzero">
            <g id="shopping-list" transform="translate(1216.000000, 1174.000000)">
                <path d="M6.81716465,7.19568419 C6.57338417,6.93566261 6.17708464,6.93432916 5.93205401,7.19435075 L3.87429679,9.39053306 L3.06669584,8.52779478 C2.82291536,8.26777319 2.42661583,8.26777319 2.18283535,8.52779478 C1.93905488,8.78781636 1.93905488,9.21051812 2.18283535,9.4705397 L3.43299162,10.8039837 C3.55425678,10.9346612 3.71427678,11 3.87429679,11 C4.03431679,11 4.19433679,10.9346612 4.31685211,10.8053172 L6.81716465,8.13842912 C7.06094512,7.87840753 7.06094512,7.45570578 6.81716465,7.19568419 Z" id="Shape"></path>
                <path d="M6.81716465,12.1956842 C6.57338417,11.9356626 6.17708464,11.9343292 5.93205401,12.1943507 L3.87429679,14.3905331 L3.06669584,13.5291282 C2.82291536,13.2691066 2.42661583,13.2691066 2.18283535,13.5291282 C1.93905488,13.7891498 1.93905488,14.2118516 2.18283535,14.4718731 L3.43299162,15.8053172 C3.55425678,15.9346612 3.71427678,16 3.87429679,16 C4.03431679,16 4.19433679,15.9346612 4.31685211,15.8053172 L6.81716465,13.1384291 C7.06094512,12.8784075 7.06094512,12.4557058 6.81716465,12.1956842 Z" id="Shape"></path>
                <path d="M10.5,8 L8.5,8 C8.224,8 8,8.224 8,8.5 C8,8.776 8.224,9 8.5,9 L10.5,9 C10.776,9 11,8.776 11,8.5 C11,8.224 10.776,8 10.5,8 Z" id="Shape"></path>
                <path d="M10.5,13 L8.5,13 C8.224,13 8,13.224 8,13.5 C8,13.776 8.224,14 8.5,14 L10.5,14 C10.776,14 11,13.776 11,13.5 C11,13.224 10.776,13 10.5,13 Z" id="Shape"></path>
                <path d="M12.8333333,2.375 L10.5,2.375 L10.5,1.78125 C10.5,1.4535 10.2386667,1.1875 9.91666667,1.1875 L8.65083333,1.1875 C8.40933333,0.496375 7.76066667,0 7,0 C6.23933333,0 5.59066667,0.496375 5.34916667,1.1875 L4.08333333,1.1875 C3.76133333,1.1875 3.5,1.4535 3.5,1.78125 L3.5,2.375 L1.16666667,2.375 C0.523833333,2.375 0,2.9081875 0,3.5625 L0,17.8125 C0,18.4668125 0.523833333,19 1.16666667,19 L12.8333333,19 C13.4761667,19 14,18.4668125 14,17.8125 L14,3.5625 C14,2.9081875 13.4761667,2.375 12.8333333,2.375 Z M4.66666667,2.375 L5.83333333,2.375 C6.15533333,2.375 6.41666667,2.109 6.41666667,1.78125 C6.41666667,1.4535 6.678,1.1875 7,1.1875 C7.322,1.1875 7.58333333,1.4535 7.58333333,1.78125 C7.58333333,2.109 7.84466667,2.375 8.16666667,2.375 L9.33333333,2.375 L9.33333333,3.5625 L4.66666667,3.5625 L4.66666667,2.375 Z M12.8333333,17.8125 L1.16666667,17.8125 L1.16666667,3.5625 L3.5,3.5625 L3.5,4.15625 C3.5,4.484 3.76133333,4.75 4.08333333,4.75 L9.91666667,4.75 C10.2386667,4.75 10.5,4.484 10.5,4.15625 L10.5,3.5625 L12.8333333,3.5625 L12.8333333,17.8125 Z" id="Shape"></path>
            </g>
        </g>
    </g>
</svg>