<?xml version="1.0" encoding="UTF-8"?>
<svg width="15px" height="15px" viewBox="0 0 15 15" version="1.1" xmlns="http://www.w3.org/2000/svg" xmlns:xlink="http://www.w3.org/1999/xlink">
    <!-- Generator: Sketch 51.3 (57544) - http://www.bohemiancoding.com/sketch -->
    <title>list (11)</title>
    <desc>Created with Sketch.</desc>
    <defs></defs>
    <g id="Page-2" stroke="none" stroke-width="1" fill="none" fill-rule="evenodd">
        <g id="sReports-2.0-Create-,-find-consensus,--Users-03" transform="translate(-78.000000, -1985.000000)" fill="#000000" fill-rule="nonzero">
            <g id="list-(11)" transform="translate(78.000000, 1985.000000)">
                <path d="M13.3891318,0 L1.60669456,0 C0.719341004,0 0,0.719341004 0,1.60669456 L0,13.3891318 C0,14.2764854 0.719341004,14.9958264 1.60669456,14.9958264 L13.3891318,14.9958264 C14.2764854,14.9958264 14.9958264,14.2764854 14.9958264,13.3891318 L14.9958264,1.60669456 C14.9958264,0.719341004 14.2764854,0 13.3891318,0 Z M13.9246757,13.3891318 C13.9246757,13.6849268 13.6848954,13.9247071 13.3891004,13.9247071 L1.60669456,13.9247071 C1.31089958,13.9247071 1.07111925,13.6849268 1.07111925,13.3891318 L1.07111925,1.60669456 C1.07111925,1.31089958 1.31089958,1.07111925 1.60669456,1.07111925 L13.3891318,1.07111925 C13.6849268,1.07111925 13.9247071,1.31089958 13.9247071,1.60669456 L13.9247071,13.3891318 L13.9246757,13.3891318 Z" id="Shape"></path>
                <path d="M4.82008368,3.21338912 L3.21338912,3.21338912 C2.91759414,3.21338912 2.67781381,3.45316946 2.67781381,3.74896444 C2.67781381,4.04475941 2.91759414,4.28453975 3.21338912,4.28453975 L4.82008368,4.28453975 C5.11587866,4.28453975 5.355659,4.04475941 5.355659,3.74896444 C5.355659,3.45316946 5.11587866,3.21338912 4.82008368,3.21338912 Z" id="Shape"></path>
                <path d="M11.7824372,3.21338912 L6.96235356,3.21338912 C6.66655858,3.21338912 6.42677824,3.45316946 6.42677824,3.74896444 C6.42677824,4.04475941 6.66655858,4.28453975 6.96235356,4.28453975 L11.7824372,4.28453975 C12.0782322,4.28453975 12.3180126,4.04475941 12.3180126,3.74896444 C12.3180126,3.45316946 12.0782008,3.21338912 11.7824372,3.21338912 Z" id="Shape"></path>
                <path d="M4.82008368,6.96235356 L3.21338912,6.96235356 C2.91759414,6.96235356 2.67781381,7.20213389 2.67781381,7.49792887 C2.67781381,7.79372385 2.91759414,8.0334728 3.21338912,8.0334728 L4.82008368,8.0334728 C5.11587866,8.0334728 5.355659,7.79369247 5.355659,7.49789749 C5.355659,7.20210251 5.11587866,6.96235356 4.82008368,6.96235356 Z" id="Shape"></path>
                <path d="M11.7824372,6.96235356 L6.96235356,6.96235356 C6.66655858,6.96235356 6.42677824,7.20213389 6.42677824,7.49792887 C6.42677824,7.79372385 6.66655858,8.0334728 6.96235356,8.0334728 L11.7824372,8.0334728 C12.0782322,8.0334728 12.3180126,7.79369247 12.3180126,7.49789749 C12.3180126,7.20210251 12.0782008,6.96235356 11.7824372,6.96235356 Z" id="Shape"></path>
                <path d="M4.82008368,10.7112866 L3.21338912,10.7112866 C2.91759414,10.7112866 2.67781381,10.9510669 2.67781381,11.2468619 C2.67781381,11.5426569 2.91759414,11.7824372 3.21338912,11.7824372 L4.82008368,11.7824372 C5.11587866,11.7824372 5.355659,11.5426569 5.355659,11.2468619 C5.355659,10.9510669 5.11587866,10.7112866 4.82008368,10.7112866 Z" id="Shape"></path>
                <path d="M11.7824372,10.7112866 L6.96235356,10.7112866 C6.66655858,10.7112866 6.42677824,10.9510669 6.42677824,11.2468619 C6.42677824,11.5426569 6.66655858,11.7824372 6.96235356,11.7824372 L11.7824372,11.7824372 C12.0782322,11.7824372 12.3180126,11.5426569 12.3180126,11.2468619 C12.3180126,10.9510669 12.0782008,10.7112866 11.7824372,10.7112866 Z" id="Shape"></path>
            </g>
        </g>
    </g>
</svg>