<?xml version="1.0" encoding="UTF-8"?>
<svg width="30px" height="30px" viewBox="0 0 30 30" version="1.1" xmlns="http://www.w3.org/2000/svg" xmlns:xlink="http://www.w3.org/1999/xlink">
    <!-- Generator: Sketch 51.3 (57544) - http://www.bohemiancoding.com/sketch -->
    <title>clock (13)</title>
    <desc>Created with Sketch.</desc>
    <defs></defs>
    <g id="Page-1" stroke="none" stroke-width="1" fill="none" fill-rule="evenodd">
        <g id="eReports-sesion-modal" transform="translate(-705.000000, -191.000000)" fill-rule="nonzero">
            <g id="clock-(13)" transform="translate(705.000000, 191.000000)">
                <circle id="Oval" fill="#1C94A3" cx="14.9773561" cy="14.9773561" r="14.9773561"></circle>
                <circle id="Oval" fill="#EBF0F3" cx="14.9773561" cy="14.9773561" r="12.8446055"></circle>
                <g id="Group" transform="translate(2.110874, 2.110874)" fill="#64798A">
                    <path d="M13.3740512,0.0312153518 L13.3740512,1.67769723 C13.3740512,1.95895522 13.1489552,2.18398721 12.8676972,2.18398721 C12.5864392,2.18398721 12.3576972,1.95895522 12.3576972,1.67769723 L12.3576972,0.0312153518 C12.5264392,0.0237313433 12.6951812,0.0199573561 12.8676972,0.0199573561 C13.0365032,0.0199573561 13.2053092,0.0236673774 13.3740512,0.0312153518 Z" id="Shape"></path>
                    <path d="M4.14946695,3.43176972 L5.31371002,4.59601279 C5.51257996,4.79488273 5.51257996,5.11317697 5.31364606,5.31204691 C5.11477612,5.51091684 4.79392324,5.51353945 4.59498934,5.31466951 L3.43081023,4.15042644 C3.54479744,4.0258209 3.66147122,3.90383795 3.78345416,3.78185501 C3.9028145,3.66249467 4.02479744,3.54575693 4.14946695,3.43176972 Z" id="Shape"></path>
                    <path d="M0.0312793177,12.3591045 L1.67776119,12.3591045 C1.95901919,12.3591045 2.18405117,12.5842004 2.18405117,12.8654584 C2.18405117,13.1467164 1.95901919,13.3754584 1.67776119,13.3754584 L0.0312793177,13.3754584 C0.0237953092,13.2067164 0.020021322,13.0379744 0.020021322,12.8654584 C0.0199573561,12.6966525 0.0237313433,12.5278465 0.0312793177,12.3591045 Z" id="Shape"></path>
                    <path d="M3.43183369,21.5837527 L4.59607676,20.4195096 C4.7949467,20.2206397 5.11324094,20.2206397 5.31211087,20.4195736 C5.51098081,20.6184435 5.51360341,20.9392964 5.31473348,21.1382303 L4.15049041,22.3024733 C4.02588486,22.1884861 3.90390192,22.0718124 3.78191898,21.9498294 C3.66255864,21.8304051 3.5458209,21.7083582 3.43183369,21.5837527 Z" id="Shape"></path>
                    <path d="M12.3591684,25.7019403 L12.3591684,24.0554584 C12.3591684,23.7742004 12.5842644,23.5491684 12.8655224,23.5491684 C13.1467804,23.5491684 13.3755224,23.7742004 13.3755224,24.0554584 L13.3755224,25.7019403 C13.2067804,25.7094243 13.0380384,25.7131983 12.8655224,25.7131983 C12.6967164,25.7131983 12.5279104,25.7094243 12.3591684,25.7019403 Z" id="Shape"></path>
                    <path d="M21.5838166,22.3013859 L20.4195736,21.1371429 C20.2207036,20.9382729 20.2207036,20.6199787 20.4196375,20.4211087 C20.6185075,20.2222388 20.9393603,20.2196162 21.1382942,20.4184861 L22.3025373,21.5827292 C22.1885501,21.7073348 22.0718763,21.8293177 21.9498934,21.9513006 C21.8304051,22.070661 21.7084222,22.1873348 21.5838166,22.3013859 Z" id="Shape"></path>
                    <path d="M25.7020043,13.3739872 L24.0555224,13.3739872 C23.7742644,13.3739872 23.5492324,13.1488913 23.5492324,12.8676333 C23.5492324,12.5863753 23.7742644,12.3576333 24.0555224,12.3576333 L25.7020043,12.3576333 C25.7094883,12.5263753 25.7132623,12.6951173 25.7132623,12.8676333 C25.7132623,13.0364392 25.7094883,13.2052452 25.7020043,13.3739872 Z" id="Shape"></path>
                    <path d="M22.3014499,4.14940299 L21.1372068,5.31364606 C20.9383369,5.51251599 20.6200426,5.51251599 20.4211727,5.31358209 C20.2223028,5.11471215 20.2196802,4.79385928 20.4185501,4.59492537 L21.5827932,3.4306823 C21.7073987,3.54466951 21.8293817,3.66134328 21.9513646,3.78332623 C22.0707249,3.90275053 22.1873987,4.02479744 22.3014499,4.14940299 Z" id="Shape"></path>
                </g>
                <path d="M19.8384435,15.7282516 L14.9540725,15.7282516 C14.5398294,15.7282516 14.2040085,15.3923667 14.2040085,14.9781876 L14.2040085,7.97206823 C14.2040085,7.55782516 14.5398934,7.22200426 14.9540725,7.22200426 C15.3683156,7.22200426 15.7041365,7.55788913 15.7041365,7.97206823 L15.7041365,14.2280597 L19.8384435,14.2280597 C20.2526866,14.2280597 20.5885075,14.5639446 20.5885075,14.9781237 C20.5885075,15.3924307 20.2526866,15.7282516 19.8384435,15.7282516 Z" id="Shape" fill="#CE412D"></path>
                <circle id="Oval" fill="#2F4859" cx="14.9773561" cy="14.9773561" r="1.75017058"></circle>
            </g>
        </g>
    </g>
</svg>