<?xml version="1.0" encoding="UTF-8"?>
<svg width="16px" height="17px" viewBox="0 0 16 17" version="1.1" xmlns="http://www.w3.org/2000/svg" xmlns:xlink="http://www.w3.org/1999/xlink">
    <!-- Generator: Sketch 51.3 (57544) - http://www.bohemiancoding.com/sketch -->
    <title>Fill 1004</title>
    <desc>Created with Sketch.</desc>
    <defs></defs>
    <g id="Page-1" stroke="none" stroke-width="1" fill="none" fill-rule="evenodd">
        <g id="eReports-Patients-open-menu" transform="translate(-16.000000, -470.000000)" fill="#A5B2B3">
            <path d="M22.9483636,470.226727 C23.6036364,469.866727 24.3963636,469.866727 25.0516364,470.226727 L30.8698182,473.426727 C31.0763636,473.540182 31.2603636,473.684909 31.4167273,473.852909 C31.7861818,474.250727 32,474.778727 32,475.338727 L32,481.618 C32,482.414364 31.5665455,483.146727 30.8698182,483.53 L25.0516364,486.73 C24.3963636,487.09 23.6036364,487.09 22.9483636,486.73 L17.1301818,483.53 C16.4334545,483.146727 16,482.414364 16,481.618 L16,475.338727 C16,474.778727 16.2138182,474.250727 16.5832727,473.852909 C16.7396364,473.684909 16.9236364,473.540182 17.1301818,473.426727 L22.9483636,470.226727 Z M24.3505455,471.500909 C24.1323636,471.380909 23.8676364,471.380909 23.6494545,471.500909 L18.5025455,474.331455 L24,477.630364 L29.4974545,474.332182 L24.3505455,471.500909 Z M30.5454545,475.399091 L24.7272727,478.89 L24.7272727,485.248545 L30.1687273,482.255818 C30.4014545,482.127818 30.5454545,481.883455 30.5454545,481.618 L30.5454545,475.399091 Z M23.2727273,485.248545 L23.2727273,478.89 L17.4545455,475.399091 L17.4545455,481.618 C17.4545455,481.883455 17.5985455,482.127818 17.8312727,482.255818 L23.2727273,485.248545 Z" id="Fill-1004" transform="translate(24.000000, 478.478364) scale(1, -1) translate(-24.000000, -478.478364) "></path>
        </g>
    </g>
</svg>