<?xml version="1.0" encoding="UTF-8"?>
<svg width="16px" height="17px" viewBox="0 0 16 17" version="1.1" xmlns="http://www.w3.org/2000/svg" xmlns:xlink="http://www.w3.org/1999/xlink">
    <!-- Generator: Sketch 51.3 (57544) - http://www.bohemiancoding.com/sketch -->
    <title>Fill 1004</title>
    <desc>Created with Sketch.</desc>
    <defs></defs>
    <g id="Page-1" stroke="none" stroke-width="1" fill="none" fill-rule="evenodd">
        <g id="eReports-Patients-open-menu" transform="translate(-66.000000, -470.000000)" fill="#000000">
            <path d="M72.9483636,470.226727 C73.6036364,469.866727 74.3963636,469.866727 75.0516364,470.226727 L80.8698182,473.426727 C81.0763636,473.540182 81.2603636,473.684909 81.4167273,473.852909 C81.7861818,474.250727 82,474.778727 82,475.338727 L82,481.618 C82,482.414364 81.5665455,483.146727 80.8698182,483.53 L75.0516364,486.73 C74.3963636,487.09 73.6036364,487.09 72.9483636,486.73 L67.1301818,483.53 C66.4334545,483.146727 66,482.414364 66,481.618 L66,475.338727 C66,474.778727 66.2138182,474.250727 66.5832727,473.852909 C66.7396364,473.684909 66.9236364,473.540182 67.1301818,473.426727 L72.9483636,470.226727 Z M74.3505455,471.500909 C74.1323636,471.380909 73.8676364,471.380909 73.6494545,471.500909 L68.5025455,474.331455 L74,477.630364 L79.4974545,474.332182 L74.3505455,471.500909 Z M80.5454545,475.399091 L74.7272727,478.89 L74.7272727,485.248545 L80.1687273,482.255818 C80.4014545,482.127818 80.5454545,481.883455 80.5454545,481.618 L80.5454545,475.399091 Z M73.2727273,485.248545 L73.2727273,478.89 L67.4545455,475.399091 L67.4545455,481.618 C67.4545455,481.883455 67.5985455,482.127818 67.8312727,482.255818 L73.2727273,485.248545 Z" id="Fill-1004" transform="translate(74.000000, 478.478364) scale(1, -1) translate(-74.000000, -478.478364) "></path>
        </g>
    </g>
</svg>