<?xml version="1.0" encoding="UTF-8"?>
<svg width="14px" height="14px" viewBox="0 0 14 14" version="1.1" xmlns="http://www.w3.org/2000/svg" xmlns:xlink="http://www.w3.org/1999/xlink">
    <!-- Generator: Sketch 51.3 (57544) - http://www.bohemiancoding.com/sketch -->
    <title>telecoms_black</title>
    <desc>Created with Sketch.</desc>
    <defs></defs>
    <g id="Page-1" stroke="none" stroke-width="1" fill="none" fill-rule="evenodd">
        <g id="eReports-Aministration" transform="translate(-814.000000, -949.000000)" fill="#FFFFFF" fill-rule="nonzero">
            <g id="telecoms_black" transform="translate(814.000000, 949.000000)">
                <path d="M5.99169922,10.7196045 L5.99169922,11.1297607 L8.61648561,11.1297607 L8.61648561,10.7196045 C8.61648561,7.77726745 6.22273255,5.38351439 3.28039551,5.38351439 L2.87023926,5.38351439 L2.87023926,8.00830078 L3.28039551,8.00830078 C4.77543639,8.00830078 5.99169922,9.22456361 5.99169922,10.7196045 Z M3.69055176,6.2223053 C5.85380554,6.41809082 7.58190918,8.14619446 7.7776947,10.3094482 L6.78829955,10.3094482 C6.60009766,8.68922425 5.31077575,7.39990234 3.69055176,7.21170045 L3.69055176,6.2223053 Z" id="Shape"></path>
                <path d="M9.57009889,10.7196045 L9.57009889,11.1297607 L12.2354736,11.1297607 L12.2354736,10.7196045 C12.2354736,8.32766725 11.3039703,6.07885742 9.61260986,4.38739014 C7.92114258,2.69602966 5.67233275,1.76452637 3.28039551,1.76452637 L2.87023926,1.76452637 L2.87023926,4.42990111 L3.28039551,4.42990111 C6.74856569,4.42990111 9.57009889,7.25143431 9.57009889,10.7196045 Z M3.69055176,2.59509277 C7.85064697,2.80252077 11.1974792,6.14935303 11.4049072,10.3094482 L10.3788757,10.3094482 C10.2803955,8.56446839 9.55375671,6.93783568 8.30801393,5.69198607 C7.06216432,4.44624329 5.43553161,3.7197113 3.69055176,3.62112428 L3.69055176,2.59509277 Z" id="Shape"></path>
                <path d="M0,0 L0,14 L14,14 L14,0 L0,0 Z M13.1796875,13.1796875 L0.8203125,13.1796875 L0.8203125,0.8203125 L13.1796875,0.8203125 L13.1796875,13.1796875 Z" id="Shape"></path>
            </g>
        </g>
    </g>
</svg>