<?xml version="1.0" encoding="UTF-8"?>
<svg width="18px" height="16px" viewBox="0 0 18 16" version="1.1" xmlns="http://www.w3.org/2000/svg" xmlns:xlink="http://www.w3.org/1999/xlink">
    <!-- Generator: Sketch 51.3 (57544) - http://www.bohemiancoding.com/sketch -->
    <title>Fill 1028</title>
    <desc>Created with Sketch.</desc>
    <defs></defs>
    <g id="Page-1" stroke="none" stroke-width="1" fill="none" fill-rule="evenodd">
        <g id="eReports-Patients-open-menu" transform="translate(-15.000000, -225.000000)" fill="#A5B2B3">
            <path d="M24,226.999969 C22.2734912,226.999969 20.7187332,227.764973 19.6447277,228.994979 C19.3724763,229.302481 18.8984739,229.339981 18.5864723,229.06248 C18.2752207,228.792478 18.2437205,228.319976 18.5159719,228.004974 C19.8592288,226.474967 21.8167388,225.499962 24,225.499962 C28.0252706,225.499962 31.2697873,228.792478 31.3485377,232.849999 L31.7137895,232.474997 C32.003291,232.182496 32.4780435,232.174996 32.774295,232.467497 C33.0705465,232.752499 33.0757965,233.225001 32.786295,233.525003 L31.1362866,235.212511 C30.9952859,235.355012 30.8017849,235.437512 30.6000338,235.437512 C30.3982828,235.437512 30.2047818,235.355012 30.0637811,235.212511 L28.4137726,233.525003 C28.1242711,233.225001 28.1295212,232.752499 28.4257727,232.467497 C28.7220242,232.174996 29.1967766,232.182496 29.4862781,232.474997 L29.84778,232.842499 C29.7682796,229.587483 27.1650162,226.999969 24,226.999969 Z M17.3999662,230.562488 C17.6017172,230.562488 17.7952182,230.644988 17.9362189,230.787489 L19.5862274,232.474997 C19.8757289,232.774999 19.8704788,233.247501 19.5742273,233.532503 C19.2779758,233.825004 18.8032234,233.817504 18.5137219,233.525003 L18.15222,233.157501 C18.2317204,236.412517 20.8349838,239.000031 24,239.000031 C25.7265088,239.000031 27.2812668,238.235027 28.3552723,237.005021 C28.6275237,236.697519 29.1015261,236.660019 29.4135277,236.93752 C29.7247793,237.207522 29.7562795,237.680024 29.4840281,237.995026 C28.1407712,239.525033 26.1832612,240.500038 24,240.500038 C19.9747294,240.500038 16.7302127,237.207522 16.6514623,233.150001 L16.2862105,233.525003 C15.996709,233.817504 15.5219565,233.825004 15.225705,233.532503 C14.9294535,233.247501 14.9242035,232.774999 15.213705,232.474997 L16.8637134,230.787489 C17.0047141,230.644988 17.1982151,230.562488 17.3999662,230.562488 Z" id="Fill-1028"></path>
        </g>
    </g>
</svg>