<?xml version="1.0" encoding="UTF-8"?>
<svg width="18px" height="24px" viewBox="0 0 18 24" version="1.1" xmlns="http://www.w3.org/2000/svg" xmlns:xlink="http://www.w3.org/1999/xlink">
    <!-- Generator: Sketch 51.3 (57544) - http://www.bohemiancoding.com/sketch -->
    <title>dictionary</title>
    <desc>Created with Sketch.</desc>
    <defs></defs>
    <g id="Page-1" stroke="none" stroke-width="1" fill="none" fill-rule="evenodd">
        <g id="eReports-home-2" transform="translate(-910.000000, -645.000000)" fill="#000000" fill-rule="nonzero">
            <g id="dictionary" transform="translate(910.000000, 645.000000)">
                <path d="M1.82753702,0 C0.819794382,0 0,0.817601177 0,1.82251656 L0,21.8742016 C0,23.0463576 0.956269369,24 2.13171332,24 L16.2952432,24 C16.5360815,24 16.7509469,23.8568359 16.8426189,23.6352024 C16.9347631,23.4124503 16.8832899,23.15844 16.7115156,22.9880795 C16.4117664,22.6909198 16.2467214,22.2953348 16.2467214,21.8742016 C16.2467214,21.3841354 16.474042,20.9282708 16.8597964,20.6311111 L17.0034138,20.6311111 C17.5529146,20.6311111 18,20.1853127 18,19.6372627 L18,14.981663 C18,14.7378955 17.8018397,14.5402796 17.5574008,14.5402796 C17.3129618,14.5402796 17.1148015,14.7378955 17.1148015,14.981663 L17.1148015,19.6372627 C17.1148015,19.698543 17.064863,19.7483444 17.0034138,19.7483444 L16.7178907,19.7483444 L2.13171332,19.7483444 C1.68663486,19.7483444 1.24586551,19.8904489 0.885198485,20.1505813 L0.885198485,1.82251656 C0.885198485,1.30437086 1.30790496,0.88276674 1.82753702,0.88276674 L17.0034138,0.88276674 C17.064863,0.88276674 17.1148015,0.932568065 17.1148015,0.993848418 L17.1148015,13.2033777 C17.1148015,13.4471451 17.3129618,13.644761 17.5574008,13.644761 C17.8018397,13.644761 18,13.4471451 18,13.2033777 L18,0.993848418 C17.999941,0.445857248 17.5529146,1.25482161e-15 17.0034138,1.25482161e-15 L1.82753702,0 Z M15.699877,20.6310522 C15.4812927,21.0018543 15.3615229,21.4290508 15.3615229,21.8742016 C15.3615229,22.3184695 15.4791087,22.7445475 15.6995819,23.1172921 L2.13171332,23.1172921 C1.44437995,23.1172921 0.885198485,22.5596468 0.885198485,21.8742016 C0.885198485,21.1887564 1.44437995,20.6311111 2.13171332,20.6311111 L15.699877,20.6311111 L15.699877,20.6310522 Z" id="Shape"></path>
                <path d="M5.0193163,6 C3.9058777,6 3,6.84789613 3,7.89006802 L3,12.109932 C3,13.1521039 3.9058777,14 5.0193163,14 L12.9806837,14 C14.0941223,14 15,13.1521039 15,12.109932 L15,7.89006802 C15,6.84789613 14.0941223,6 12.9806837,6 L5.0193163,6 Z M14.1341911,12.109932 C14.1341911,12.7052966 13.6167034,13.189608 12.9806837,13.189608 L5.0193163,13.189608 C4.38323888,13.189608 3.86575119,12.7052426 3.86575119,12.109932 L3.86575119,7.89006802 C3.86575119,7.29470335 4.38323888,6.81033796 5.0193163,6.81033796 L12.9806837,6.81033796 C13.6167611,6.81033796 14.1341911,7.29470335 14.1341911,7.89006802 L14.1341911,12.109932 Z" id="Shape"></path>
                <path d="M10.6824644,8.32552282 C10.5645105,8.32552282 10.5218337,8.29368113 10.4283513,8.22397122 C10.3015911,8.12943557 10.1280049,8 9.80941091,8 C9.49081687,8 9.31723075,8.12948055 9.19047055,8.22397122 C9.09698807,8.29368113 9.05431129,8.32552282 8.9363574,8.32552282 C8.81840352,8.32552282 8.77572673,8.29368113 8.68224426,8.22397122 C8.55548405,8.12943557 8.38185559,8 8.06330389,8 C7.7447522,8 7.57116608,8.12948055 7.44444821,8.22401619 C7.35096573,8.29372611 7.30828895,8.3255678 7.1903774,8.3255678 C7.07246585,8.3255678 7.02978907,8.29377108 6.93634893,8.22401619 C6.80958873,8.12948055 6.63600261,8 6.31745091,8 C6.14212893,8 6,8.15097819 6,8.3372161 C6,8.52345401 6.14212893,8.6744322 6.31745091,8.6744322 C6.43536246,8.6744322 6.47803924,8.70622892 6.57147938,8.77598381 C6.69823958,8.87051945 6.8718257,9 7.1903774,9 C7.5089291,9 7.68251522,8.87051945 7.80927543,8.77598381 C7.90271556,8.70627389 7.94539235,8.6744322 8.06330389,8.6744322 C8.18125778,8.6744322 8.22393456,8.70627389 8.31745938,8.77598381 C8.44421958,8.87051945 8.61784804,8.99995503 8.93639974,8.99995503 C9.25495144,8.99995503 9.42853756,8.87047448 9.5553401,8.77598381 C9.64882258,8.70627389 9.69149936,8.6744322 9.80949558,8.6744322 C9.92749181,8.6744322 9.97012625,8.70627389 10.0636087,8.77598381 C10.1903689,8.87051945 10.3639551,8.99995503 10.6825491,8.99995503 C10.8578711,8.99995503 11,8.84897684 11,8.66273893 C11,8.47650101 10.8577864,8.32552282 10.6824644,8.32552282 Z" id="Shape"></path>
                <path d="M8.70733802,10.3255375 C8.59859485,10.3255375 8.55925059,10.2936943 8.47306792,10.2239813 C8.35620609,10.1294414 8.19617486,10 7.90245902,10 C7.60874317,10 7.44871194,10.1294864 7.33185012,10.2239813 C7.24566745,10.2936943 7.20632319,10.3255375 7.09758002,10.3255375 C6.98883685,10.3255375 6.94949258,10.2936943 6.86327088,10.2239813 C6.74640906,10.1294414 6.5863388,10 6.29266198,10 C6.13103044,10 6,10.150985 6,10.3372313 C6,10.5234776 6.13103044,10.6744625 6.29266198,10.6744625 C6.40140515,10.6744625 6.44074941,10.7063057 6.52693208,10.7760187 C6.64379391,10.8705586 6.80386417,11 7.09754098,11 C7.3912178,11 7.55124902,10.8705136 7.66814988,10.7760187 C7.75433255,10.7063057 7.79367681,10.6744625 7.90245902,10.6744625 C8.01120219,10.6744625 8.05054645,10.7063057 8.13672912,10.7760187 C8.25359094,10.8705586 8.4136612,11 8.70733802,11 C8.86896956,11 9,10.849015 9,10.6627687 C9,10.4765224 8.86896956,10.3255375 8.70733802,10.3255375 Z" id="Shape"></path>
            </g>
        </g>
    </g>
</svg>