<?xml version="1.0" encoding="UTF-8"?>
<svg width="18px" height="16px" viewBox="0 0 18 16" version="1.1" xmlns="http://www.w3.org/2000/svg" xmlns:xlink="http://www.w3.org/1999/xlink">
    <!-- Generator: Sketch 51.3 (57544) - http://www.bohemiancoding.com/sketch -->
    <title>Fill 1028</title>
    <desc>Created with Sketch.</desc>
    <defs></defs>
    <g id="Page-1" stroke="none" stroke-width="1" fill="none" fill-rule="evenodd">
        <g id="eReports-Patients-open-menu" transform="translate(-65.000000, -225.000000)" fill="#000000">
            <path d="M74,226.999969 C72.2734912,226.999969 70.7187332,227.764973 69.6447277,228.994979 C69.3724763,229.302481 68.8984739,229.339981 68.5864723,229.06248 C68.2752207,228.792478 68.2437205,228.319976 68.5159719,228.004974 C69.8592288,226.474967 71.8167388,225.499962 74,225.499962 C78.0252706,225.499962 81.2697873,228.792478 81.3485377,232.849999 L81.7137895,232.474997 C82.003291,232.182496 82.4780435,232.174996 82.774295,232.467497 C83.0705465,232.752499 83.0757965,233.225001 82.786295,233.525003 L81.1362866,235.212511 C80.9952859,235.355012 80.8017849,235.437512 80.6000338,235.437512 C80.3982828,235.437512 80.2047818,235.355012 80.0637811,235.212511 L78.4137726,233.525003 C78.1242711,233.225001 78.1295212,232.752499 78.4257727,232.467497 C78.7220242,232.174996 79.1967766,232.182496 79.4862781,232.474997 L79.84778,232.842499 C79.7682796,229.587483 77.1650162,226.999969 74,226.999969 Z M67.3999662,230.562488 C67.6017172,230.562488 67.7952182,230.644988 67.9362189,230.787489 L69.5862274,232.474997 C69.8757289,232.774999 69.8704788,233.247501 69.5742273,233.532503 C69.2779758,233.825004 68.8032234,233.817504 68.5137219,233.525003 L68.15222,233.157501 C68.2317204,236.412517 70.8349838,239.000031 74,239.000031 C75.7265088,239.000031 77.2812668,238.235027 78.3552723,237.005021 C78.6275237,236.697519 79.1015261,236.660019 79.4135277,236.93752 C79.7247793,237.207522 79.7562795,237.680024 79.4840281,237.995026 C78.1407712,239.525033 76.1832612,240.500038 74,240.500038 C69.9747294,240.500038 66.7302127,237.207522 66.6514623,233.150001 L66.2862105,233.525003 C65.996709,233.817504 65.5219565,233.825004 65.225705,233.532503 C64.9294535,233.247501 64.9242035,232.774999 65.213705,232.474997 L66.8637134,230.787489 C67.0047141,230.644988 67.1982151,230.562488 67.3999662,230.562488 Z" id="Fill-1028"></path>
        </g>
    </g>
</svg>