<?xml version="1.0" encoding="UTF-8"?>
<svg width="17px" height="17px" viewBox="0 0 17 17" version="1.1" xmlns="http://www.w3.org/2000/svg" xmlns:xlink="http://www.w3.org/1999/xlink">
    <!-- Generator: Sketch 51.3 (57544) - http://www.bohemiancoding.com/sketch -->
    <title>Group 21</title>
    <desc>Created with Sketch.</desc>
    <defs></defs>
    <g id="Page-2" stroke="none" stroke-width="1" fill="none" fill-rule="evenodd">
        <g id="eReports-dynamic-field-polja-01" transform="translate(-1163.000000, -642.000000)">
            <g id="d-f-select" transform="translate(322.000000, 643.000000)">
                <g id="d-f">
                    <g id="Group-30" transform="translate(822.000000, 0.000000)">
                        <g id="Group-21" transform="translate(20.000000, 0.000000)">
                            <circle id="Oval-3" stroke="#1C94A3" fill="#FFFFFF" cx="7.5" cy="7.5" r="7.5"></circle>
                            <path d="M7.5,3.76464844 C6.20765625,3.76464844 5.15625,4.81605469 5.15625,6.10839844 C5.15625,6.43201172 5.41857422,6.69433594 5.7421875,6.69433594 C6.06580078,6.69433594 6.328125,6.43201172 6.328125,6.10839844 C6.328125,5.46222656 6.85382812,4.93652344 7.5,4.93652344 C8.14617188,4.93652344 8.671875,5.46222656 8.671875,6.10839844 C8.671875,6.75457031 8.14617188,7.28027344 7.5,7.28027344 C7.17638672,7.28027344 6.9140625,7.54259766 6.9140625,7.86621094 L6.9140625,9.33105469 C6.9140625,9.65466797 7.17638672,9.91699219 7.5,9.91699219 C7.82361328,9.91699219 8.0859375,9.65466797 8.0859375,9.33105469 L8.0859375,8.37799805 C9.09568359,8.11716797 9.84375,7.19850586 9.84375,6.10839844 C9.84375,4.81605469 8.79234375,3.76464844 7.5,3.76464844 Z" id="Shape" fill="#1C94A3" fill-rule="nonzero"></path>
                            <circle id="Oval" fill="#1C94A3" fill-rule="nonzero" cx="7.5" cy="11.0888672" r="1"></circle>
                        </g>
                    </g>
                </g>
            </g>
        </g>
    </g>
</svg>