<?xml version="1.0" encoding="UTF-8"?>
<svg width="20px" height="20px" viewBox="0 0 20 20" version="1.1" xmlns="http://www.w3.org/2000/svg" xmlns:xlink="http://www.w3.org/1999/xlink">
    <!-- Generator: Sketch 51.3 (57544) - http://www.bohemiancoding.com/sketch -->
    <title>translate (2)</title>
    <desc>Created with Sketch.</desc>
    <defs></defs>
    <g id="Page-1" stroke="none" stroke-width="1" fill="none" fill-rule="evenodd">
        <g id="eReports-form-definitions-popup" transform="translate(-531.000000, -386.000000)" fill-rule="nonzero">
            <g id="translate-(2)" transform="translate(531.000000, 386.000000)">
                <path d="M17.6233918,3.58756335 L10.2152047,3.58615984 L8.97391813,0.000272904483 L2.33918129,0.000272904483 C1.04935673,0.000272904483 -5.68434189e-14,1.04962963 -5.68434189e-14,2.33945419 L-5.68434189e-14,14.0353606 C-5.68434189e-14,15.3251852 1.04935673,16.3745419 2.33918129,16.3745419 L9.31013645,16.3745419 L10.5506823,19.9605068 C10.5506823,19.9605068 17.6202729,19.9618324 17.6207407,19.9618324 C18.9103704,19.9618324 19.9596491,18.9127875 19.959922,17.6231189 L19.9621053,5.92721248 C19.9623782,4.63738791 18.9132164,3.58783626 17.6233918,3.58756335 Z M1.16959064,14.0353606 L1.16959064,2.33945419 C1.16959064,1.69454191 1.69426901,1.16986355 2.33918129,1.16986355 L8.14109162,1.16986355 L12.9994152,15.2049513 L2.33918129,15.2049513 C1.69426901,15.2049513 1.16959064,14.6802729 1.16959064,14.0353606 Z M12.605614,16.3745419 L11.1699415,18.1731774 L10.5477193,16.3745419 L12.605614,16.3745419 Z M18.7903314,17.622885 C18.7902144,18.2677583 18.265614,18.7922417 17.6205068,18.7922417 L12.1730994,18.7912281 L14.4786355,15.902807 L10.620039,4.75582846 L17.6231189,4.757154 C18.2680312,4.75727096 18.7925926,5.28206628 18.7924756,5.92697856 L18.7903314,17.622885 Z" id="Shape" fill="#1C94A3"></path>
                <path d="M5.75048733,7.60261209 L5.75048733,8.77220273 L7.9148538,8.77220273 C7.65695906,9.72557505 6.78432749,10.4291228 5.75048733,10.4291228 C4.51438596,10.4291228 3.50877193,9.42350877 3.50877193,8.18740741 C3.50877193,6.95130604 4.51438596,5.94569201 5.75048733,5.94569201 C6.3288499,5.94569201 6.87785575,6.16526316 7.29641326,6.56397661 L8.10311891,5.71711501 C7.46612086,5.1102924 6.6305653,4.77606238 5.75048733,4.77606238 C3.86947368,4.77606238 2.33918129,6.30635478 2.33918129,8.18736842 C2.33918129,10.0683821 3.86947368,11.5986745 5.75048733,11.5986745 C7.63150097,11.5986745 9.16179337,10.0683821 9.16179337,8.18736842 L9.16179337,7.6025731 L5.75048733,7.6025731 L5.75048733,7.60261209 Z" id="Shape" fill="#2D9CAA"></path>
            </g>
        </g>
    </g>
</svg>