<?xml version="1.0" encoding="UTF-8"?>
<svg width="19px" height="18px" viewBox="0 0 19 18" version="1.1" xmlns="http://www.w3.org/2000/svg" xmlns:xlink="http://www.w3.org/1999/xlink">
    <!-- Generator: Sketch 51.3 (57544) - http://www.bohemiancoding.com/sketch -->
    <title>Group 2</title>
    <desc>Created with Sketch.</desc>
    <defs></defs>
    <g id="Page-1" stroke="none" stroke-width="1" fill="none" fill-rule="evenodd">
        <g id="eReports-Patients-open-menu" transform="translate(-16.000000, -518.000000)" fill="#A5B2B3">
            <g id="Group-2" transform="translate(16.000000, 518.000000)">
                <g id="add-(5)" transform="translate(0.000000, 0.500000)">
                    <path d="M8.48343164,0.0165683594 C5.77910352,0.0165683594 3.57896484,2.21674023 3.57896484,4.92103516 C3.57896484,6.59609961 4.42328711,8.07749023 5.70851367,8.96265234 C4.50858594,9.37672852 3.40876563,10.0607129 2.48478906,10.9846895 C0.882439453,12.5870723 0,14.717418 0,16.9834316 L1.32553516,16.9834316 C1.32553516,13.036543 4.53654297,9.82553516 8.48343164,9.82553516 C11.1877598,9.82553516 13.3878984,7.62536328 13.3878984,4.92103516 C13.3878984,2.21670703 11.1877598,0.0165683594 8.48343164,0.0165683594 Z M8.48343164,8.5 C6.51000391,8.5 4.9045,6.89449609 4.9045,4.92106836 C4.9045,2.94764063 6.51000391,1.34210352 8.48343164,1.34210352 C10.4568594,1.34210352 12.0623633,2.94760742 12.0623633,4.92106836 C12.0623633,6.8945293 10.4568594,8.5 8.48343164,8.5 Z" id="Shape"></path>
                </g>
                <g id="document-(3)" transform="translate(9.000000, 7.500000)">
                    <path d="M9.5039053,0.483457165 C8.84247868,-0.161065123 7.7662821,-0.161092674 7.10527958,0.483016353 L0.842177302,6.88996093 C0.776243863,6.95407153 0.727613711,7.03303199 0.700527847,7.11987196 L0.0244273643,9.28880489 C-0.0355121257,9.48110914 0.0167087413,9.68991629 0.160733157,9.83375876 C0.268624239,9.94150975 0.415193256,10 0.565522628,10 C0.615820908,10 0.666599834,9.99344292 0.71644574,9.9799706 L2.99881146,9.36390824 C3.09273551,9.33856155 3.1783472,9.28998958 3.24733416,9.22287594 L9.50393357,2.82124866 C10.1653602,2.17672637 10.1653602,1.12803455 9.5039053,0.483457165 Z M2.55361938,8.34056312 L1.40538232,8.65050908 L1.74141102,7.57247571 L8.07592272,1.1157253 L8.87577563,1.89513606 L2.55361938,8.34056312 Z" id="Shape"></path>
                </g>
            </g>
        </g>
    </g>
</svg>