<?xml version="1.0" encoding="UTF-8"?>
<svg width="20px" height="20px" viewBox="0 0 20 20" version="1.1" xmlns="http://www.w3.org/2000/svg" xmlns:xlink="http://www.w3.org/1999/xlink">
    <!-- Generator: Sketch 51.3 (57544) - http://www.bohemiancoding.com/sketch -->
    <title>error (3)</title>
    <desc>Created with Sketch.</desc>
    <defs></defs>
    <g id="Page-2" stroke="none" stroke-width="1" fill="none" fill-rule="evenodd">
        <g id="eReports-editing-modal-" transform="translate(-261.000000, -528.000000)" fill="#EB7E3D" fill-rule="nonzero">
            <g id="error-(3)" transform="translate(261.000000, 528.000000)">
                <path d="M9.98870637,14.0530045 C9.4301848,14.0530045 8.96201232,14.5642152 8.96201232,15.1740807 C8.96201232,15.7839462 9.4301848,16.295157 9.98870637,16.295157 C10.526694,16.295157 11.0154004,15.7839462 10.9907598,15.2009865 C11.0154004,14.5597309 10.5513347,14.0530045 9.98870637,14.0530045 Z" id="Shape"></path>
                <path d="M19.4917864,18.0260987 C20.1365503,16.810852 20.1406571,15.3624215 19.5,14.1516592 L13.0687885,1.99022422 C12.4322382,0.766008969 11.2823409,0.0395515695 9.99281314,0.0395515695 C8.70328542,0.0395515695 7.55338809,0.770493274 6.91683778,1.98573991 L0.477412731,14.1606278 C-0.163244353,15.384843 -0.159137577,16.8422422 0.48973306,18.0574888 C1.13039014,19.2592825 2.2761807,19.9812556 3.55749487,19.9812556 L16.4034908,19.9812556 C17.6889117,19.9812556 18.8429158,19.2503139 19.4917864,18.0260987 Z M18.0954825,17.1471749 C17.738193,17.8198206 17.1057495,18.2189238 16.399384,18.2189238 L3.55338809,18.2189238 C2.85523614,18.2189238 2.22689938,17.8287892 1.87782341,17.1695964 C1.52464066,16.501435 1.52053388,15.7032287 1.87371663,15.030583 L8.31314168,2.86017937 C8.66221766,2.19201794 9.28644764,1.7973991 9.99281314,1.7973991 C10.6950719,1.7973991 11.3234086,2.19650224 11.6724846,2.86466368 L18.1078029,15.0350673 C18.4527721,15.6897758 18.4486653,16.4790135 18.0954825,17.1471749 Z" id="Shape"></path>
                <path d="M9.73408624,6.18304933 C9.24537988,6.3355157 8.94147844,6.81982063 8.94147844,7.40726457 C8.9661191,7.76152466 8.98665298,8.12026906 9.01129363,8.47452915 C9.08110883,9.82430493 9.15092402,11.1471749 9.22073922,12.4969507 C9.24537988,12.9543498 9.5698152,13.2861883 9.98870637,13.2861883 C10.4075975,13.2861883 10.7361396,12.9319283 10.7566735,12.4700448 C10.7566735,12.1920179 10.7566735,11.9364126 10.7813142,11.6539013 C10.8264887,10.7884305 10.87577,9.92295964 10.9209446,9.05748879 C10.9455852,8.49695067 10.9907598,7.93641256 11.0154004,7.37587444 C11.0154004,7.17408072 10.9907598,6.99470852 10.9209446,6.81533632 C10.711499,6.31309417 10.2227926,6.05748879 9.73408624,6.18304933 Z" id="Shape"></path>
            </g>
        </g>
    </g>
</svg>