<?xml version="1.0" encoding="UTF-8"?>
<svg width="24px" height="24px" viewBox="0 0 24 24" version="1.1" xmlns="http://www.w3.org/2000/svg" xmlns:xlink="http://www.w3.org/1999/xlink">
    <!-- Generator: Sketch 51.3 (57544) - http://www.bohemiancoding.com/sketch -->
    <title>planet-earth</title>
    <desc>Created with Sketch.</desc>
    <defs></defs>
    <g id="Page-2" stroke="none" stroke-width="1" fill="none" fill-rule="evenodd">
        <g id="sReports-2.0-Create-,-find-consensus,--Users-03" transform="translate(-99.000000, -1701.000000)" fill="#000000" fill-rule="nonzero">
            <g id="planet-earth" transform="translate(99.000000, 1701.000000)">
                <path d="M17.9337188,21.246303 C17.7978368,21.0102349 17.497768,20.9298313 17.2632856,21.0668042 L17.2443995,21.0777818 C17.0101133,21.2148042 16.9303991,21.5173807 17.0662812,21.7535971 C17.157278,21.9116846 17.3218572,22 17.4909984,22 C17.5744899,22 17.6592567,21.9783909 17.7367144,21.9330959 L17.7556005,21.9221183 C17.9898867,21.785096 18.0696009,21.4825194 17.9337188,21.246303 Z" id="Shape"></path>
                <path d="M22.3918825,6.00372879 C20.7896016,3.22848392 18.2025242,1.24336703 15.1071813,0.413957643 C12.0119321,-0.415451745 8.77887043,0.0102217406 6.00363679,1.61246218 C3.22845002,3.21470261 1.24329429,5.8018374 0.413935135,8.89714599 C-0.415424022,11.9924546 0.010200866,15.2255762 1.61243482,18.0007742 C3.04966882,20.4901742 5.33398071,22.3821033 8.04457375,23.3279506 C9.32946404,23.7762648 10.6707918,24 12.0100571,24 C13.4662286,24 14.9197751,23.7353427 16.2937278,23.2072939 C16.5353684,23.1144341 16.6559309,22.8432612 16.5630246,22.6016197 C16.4701184,22.3599782 16.1988997,22.2392746 15.9573529,22.3323218 C12.3001664,23.7379678 8.34101117,23.0992935 5.38305883,20.8790038 L5.80301184,18.6868861 L6.00537116,18.6211672 C6.77004284,18.3727287 7.19004272,17.5484756 6.94169904,16.7837539 L6.79319908,16.3267678 C6.75883971,16.2210174 6.75902721,16.1092201 6.79366783,16.0035635 C6.92393342,15.606437 6.87738656,15.171951 6.66593349,14.8113871 C6.45448042,14.4508701 6.09799614,14.1980723 5.68779312,14.1178689 L4.62982465,13.9111493 L2.58851269,12.3591122 C2.46621584,12.2661119 2.30613776,12.2389711 2.15998155,12.2864088 L0.964856865,12.674629 C0.939497496,12.2471743 0.939122496,11.8198602 0.96321624,11.3947961 C1.01037248,11.4387181 1.04107559,11.4685776 1.05996621,11.4881714 C1.08335683,11.5271247 1.11232558,11.5628436 1.14626307,11.5937812 C1.24385679,11.6826565 1.33226302,11.7229692 1.51788797,11.7229692 C1.68846605,11.7229223 1.94098161,11.6889378 2.35793462,11.6273438 C2.75337202,11.5688905 3.14674691,11.5030308 3.15063754,11.5023746 C3.30827812,11.4759839 3.44154371,11.3709835 3.50426245,11.2240298 C3.56698118,11.0770292 3.55043431,10.9082317 3.46038746,10.7761375 L2.88565323,9.93313428 L3.70887177,9.3444758 C3.7637155,9.30524128 3.80946549,9.25466296 3.84298111,9.19616274 L5.1190589,6.96841994 L5.63341813,6.41726161 C6.15902737,5.85391572 6.30902733,5.02970948 6.01549616,4.31739429 C5.84233995,3.89725207 5.53990253,3.5474695 5.16162138,3.31173423 C5.57130878,2.98965489 6.00813679,2.69227876 6.47238666,2.42429337 C8.17572996,1.44085215 10.0346045,0.964272225 11.8739321,0.946037781 L11.0369323,1.99599488 L7.93310503,3.08410837 C7.80705819,3.12826479 7.70580821,3.2241714 7.65490198,3.34764062 L6.78808971,5.44896107 C6.72654285,5.59825851 6.74608972,5.7686029 6.83988657,5.9000409 L8.10588623,7.67342261 C7.92457378,7.83884511 7.74808945,8.07978352 7.53729263,8.3789409 C7.44485516,8.51014452 7.35757393,8.63403562 7.29724582,8.70350463 C7.24479271,8.76397361 7.19229272,8.82303633 7.14026149,8.88153655 C6.86796468,9.18786584 6.58643351,9.50469516 6.38641794,9.92788426 C5.9466368,10.8587784 6.0354649,11.9407513 6.61821475,12.7515981 C7.18169898,13.5355854 8.11066748,13.9341182 9.10216722,13.8174927 C9.26369843,13.7985552 9.41430776,13.7612894 9.5600421,13.7251955 C9.96190137,13.6257733 10.0892138,13.6158357 10.2181201,13.7364924 C10.2808388,13.795227 10.2866044,13.8063364 10.2853388,14.0055091 C10.2844482,14.1322595 10.2834638,14.2899476 10.3271513,14.4699952 C10.3971356,14.7580432 10.5780262,14.957122 10.7233387,15.1170601 C10.795573,15.1965136 10.8702918,15.2787326 10.8933074,15.3339047 C11.0395105,15.6842498 10.9758542,15.8782661 10.8363543,16.303424 C10.8244011,16.3397991 10.8122136,16.3769243 10.7999793,16.4149869 C10.5880575,17.071005 10.8834636,17.7217262 11.1440886,18.2957597 C11.2287448,18.4821822 11.3086666,18.6581517 11.361026,18.8136835 C11.782479,20.0642664 12.0984164,20.3506737 12.3519632,20.4659866 C12.4847601,20.5263619 12.6221975,20.5528463 12.7610413,20.5527995 C13.4367442,20.5527526 14.1418378,19.9253752 14.4657439,19.5276393 C14.6691814,19.2778884 14.7192907,19.0278093 14.7558532,18.8451367 C14.7740876,18.7542927 14.7884313,18.6825736 14.8158063,18.6356985 C14.8577126,18.5639794 14.9070719,18.5083855 14.9695563,18.437979 C15.0952281,18.2964628 15.25165,18.1203996 15.3529468,17.8012265 C15.4299156,17.5587881 15.4858374,17.4993504 15.6710405,17.3020997 C15.7032905,17.2678339 15.7376498,17.2311775 15.7745405,17.1910524 C16.3988684,16.5116904 16.2380872,15.9927353 16.0677904,15.4432645 C15.9244935,14.9809346 16.1751341,14.685246 16.7811339,14.1209157 C17.0438214,13.8762742 17.3154151,13.6233357 17.5253681,13.3193971 C17.6172431,13.1863653 17.8967587,12.7816919 17.7237899,12.380581 C17.5542431,11.9872983 17.1233214,11.9212043 16.7771027,11.8681416 C16.6403684,11.8471415 16.4337434,11.8154539 16.3679778,11.7724694 C16.0779623,11.5828593 15.9005404,11.187139 15.7289311,10.8044032 C15.6947592,10.728231 15.6610561,10.6530433 15.6268843,10.5800586 C15.5659468,10.4498394 15.5050562,10.2922919 15.4406031,10.12551 C15.2700718,9.68413334 15.0768063,9.18383457 14.7477907,8.83508325 C14.4520564,8.52172269 13.8945722,8.37078462 13.402713,8.23756537 C13.2372911,8.19279957 13.0811505,8.15051816 12.9781662,8.11250239 C12.8918693,8.08062727 12.7982131,8.07486163 12.7088694,8.09586171 C12.4694788,8.15197129 12.3201351,8.21379965 12.2092289,8.30267499 C12.179932,8.32615945 12.0931664,8.40326912 12.0423539,8.52720709 C11.8707446,8.4448474 11.6347759,8.28758118 11.4895572,8.19078394 C11.4865572,8.18876831 11.4835103,8.18675267 11.4805103,8.18473704 C11.5294478,7.98889255 11.485151,7.83172008 11.4387447,7.73356346 C11.176901,7.17968636 10.3076982,7.2230459 10.1362294,7.23762408 C10.0388232,7.24578036 9.91558888,7.25013976 9.78522954,7.25473352 C9.58047959,7.26199918 9.35416715,7.27015546 9.13024534,7.29528055 L9.14177659,7.26312418 C9.31174529,6.78954426 9.76399517,6.47135556 10.2671513,6.47135556 L10.5336356,6.47135556 C10.7924324,6.47135556 11.0023386,6.26144852 11.0023386,6.00265066 C11.0023386,5.74385281 10.7924324,5.53394576 10.5336356,5.53394576 L10.2671513,5.53394576 C9.52015149,5.53394576 8.83610479,5.92708788 8.45271427,6.54588709 L7.75357383,5.56652401 L8.4414174,3.89922083 L11.4743697,2.83590431 C11.5575259,2.80674795 11.6308384,2.7547165 11.6858228,2.68576311 L13.0340881,0.99455359 C16.4791184,1.32225795 19.72193,3.25379651 21.5801483,6.47233994 C22.0751013,7.32964006 22.4412418,8.23217472 22.6846636,9.15528759 L22.4859606,9.33247576 C22.2266013,9.56389851 22.0746326,9.89582164 22.0688201,10.2432136 C22.0687732,10.2470105 22.0686794,10.2507605 22.0685388,10.2545105 L21.7448201,9.36425713 C21.6965858,9.23141288 21.6255233,9.10958429 21.5337421,9.00219326 L20.9562891,8.32611258 C20.7324142,8.06403346 20.4064455,7.91379852 20.0618675,7.91379852 L19.3550395,7.91379852 C19.1041177,7.91379852 18.8748053,8.05123654 18.7564459,8.27234675 C18.6380866,8.49350384 18.6510241,8.7605986 18.7901959,8.96928689 L18.8617272,9.07667792 C18.4049773,9.46944503 17.8766962,9.78374309 17.3141963,9.99571264 L16.3452903,8.13978375 L16.3452903,7.72573531 C16.3452903,7.59767232 16.2928841,7.47509373 16.2002122,7.38673402 L15.3277281,6.553809 C15.2795875,6.50787132 15.2222125,6.47271494 15.1594469,6.45063673 L14.3740565,6.17463569 C14.1296971,6.08866661 13.8622285,6.21724522 13.7764472,6.46141802 C13.6906191,6.70568457 13.8190097,6.97320121 14.0632284,7.05902966 L14.7534157,7.3016087 L15.4078843,7.92631419 L15.4078843,8.25481543 C15.4078843,8.33033134 15.4261656,8.40476912 15.4611343,8.47175375 L16.6741184,10.7952157 C16.7831964,11.004279 17.0307901,11.0998106 17.2517588,11.0180603 L17.6049619,10.887841 C18.4255085,10.5852149 19.1860552,10.0984162 19.80443,9.48013257 C19.9623987,9.32211634 19.9869612,9.07466228 19.8629769,8.88870846 L19.8380394,8.85125519 L20.0618675,8.85125519 C20.1318518,8.85125519 20.1980862,8.88177093 20.2435549,8.93502113 L20.8210079,9.61110181 C20.8396173,9.63289877 20.8540079,9.65755511 20.8638516,9.68460209 L21.5011171,11.4369368 C21.5558671,11.5874999 21.683742,11.6996253 21.8400232,11.734313 C21.8737732,11.7417661 21.9077576,11.7454224 21.9415545,11.7454224 C22.0645076,11.7454224 22.1841794,11.6970003 22.2729606,11.608125 L22.5762887,11.3047957 C22.7683824,11.1126544 22.9006167,10.8695597 22.9638042,10.6000743 C23.4329291,14.3596979 21.9587576,18.2488376 18.8427897,20.6945031 C18.6391178,20.8543006 18.6035866,21.1489111 18.7634772,21.3525837 C18.923274,21.5562564 19.2178364,21.5917878 19.4215551,21.4318965 C21.6711795,19.6662492 23.2166479,17.1408491 23.7732884,14.3208853 C24.335132,11.4737339 23.8445852,8.51989456 22.3918825,6.00372879 Z M2.21632528,13.2537718 L4.14912165,14.7233555 C4.20626226,14.7668088 4.27254349,14.7965277 4.34294972,14.8102621 L5.50788692,15.037888 C5.65657438,15.0669506 5.7806056,15.1548884 5.8572462,15.2855764 C5.93388681,15.4162175 5.9500118,15.56739 5.90285556,15.7113436 C5.80582434,16.0072666 5.80535559,16.3202522 5.90158994,16.6163627 L6.0500899,17.0733019 C6.13882425,17.3463967 5.98873054,17.6408197 5.71568374,17.7295544 L5.24988699,17.8809143 C5.0873714,17.9336958 4.96652769,18.0707588 4.93441832,18.2384782 L4.55951217,20.19547 C3.73530926,19.4411078 3.0116532,18.5495419 2.42426273,17.5321162 C1.70763792,16.2910021 1.25988804,14.9672002 1.06254434,13.6286326 L2.21632528,13.2537718 Z M4.94805894,5.77769669 L4.39666846,6.36846455 C4.37205909,6.39485527 4.35054347,6.42401163 4.33259035,6.45532425 L3.08046568,8.64139502 L1.9676066,9.43714803 C1.7603254,9.58536734 1.70941917,9.8719153 1.85295038,10.0824786 L2.2691534,10.6929809 C2.02924721,10.7286998 1.81395039,10.7581374 1.67079418,10.7737468 C1.64327856,10.7473561 1.61449732,10.7205904 1.5847317,10.692934 C1.47330986,10.5894336 1.31848177,10.4511987 1.08766933,10.2492136 C1.46834111,7.89312656 2.60365331,5.67349317 4.38921534,3.97918988 C4.7311215,4.08686216 5.01171517,4.34191 5.14877764,4.67458314 C5.30299635,5.0487408 5.22415262,5.48177369 4.94805894,5.77769669 Z M8.76977668,8.339097 C8.97883913,8.22144031 9.464089,8.20423712 9.81837016,8.19167457 C9.96035449,8.18665892 10.0945107,8.18187766 10.2143232,8.17184637 C10.2775575,8.16654947 10.3477763,8.16753385 10.4140106,8.17269012 C10.3844325,8.24862791 10.3748231,8.33197197 10.3876669,8.41465979 C10.4102138,8.56011346 10.4998856,8.68644206 10.6296356,8.7558642 C10.717573,8.80292688 10.8399636,8.88453656 10.9695261,8.97092752 C11.3358541,9.21514719 11.7511196,9.49194511 12.1412133,9.51678896 C12.4959632,9.53980467 12.6933538,9.33763203 12.7779163,9.25152233 C12.7846663,9.24467855 12.7910412,9.23783478 12.7977912,9.23160038 C12.8454162,9.19278773 12.8900412,9.14075628 12.9232287,9.07799042 C12.9981818,9.09941238 13.0769318,9.12074058 13.1576505,9.14263129 C13.4351973,9.2177722 13.9518066,9.35764773 14.0659472,9.47858569 C14.2686815,9.69350837 14.4266971,10.102588 14.5661502,10.46348 C14.6366033,10.6458714 14.7031657,10.817997 14.7778376,10.977607 C14.8099001,11.0460916 14.841447,11.1166388 14.8735095,11.1880765 C15.0897906,11.6705159 15.3349468,12.2173617 15.8550248,12.5573005 C16.0908529,12.7114729 16.3799309,12.75577 16.6350246,12.7949107 C16.6658684,12.7996451 16.7012121,12.8050826 16.7371183,12.8109889 C16.5857121,13.0222085 16.3701341,13.222928 16.1423685,13.4350382 C15.562103,13.9754152 14.839947,14.6479802 15.172525,15.7209062 C15.3295093,16.2275331 15.3368218,16.2822833 15.0844,16.5568781 C15.0499938,16.5943314 15.0179313,16.6284565 14.9878844,16.6604254 C14.771697,16.8905825 14.6009314,17.0723644 14.4595564,17.5176786 C14.4184939,17.6470072 14.3652908,17.7069137 14.2686815,17.8156641 C14.1914315,17.9026644 14.0951972,18.0110398 14.0064628,18.1629154 C13.9001503,18.3448849 13.8649941,18.5201043 13.8368222,18.6608704 C13.8090254,18.7993866 13.7932754,18.8689025 13.7389004,18.9356527 C13.6151035,19.087622 13.3841973,19.3083104 13.1471505,19.4589203 C12.9268381,19.5987958 12.7982131,19.6179209 12.754385,19.6152959 C12.7043694,19.5616707 12.5231976,19.3268729 12.2494476,18.5143855 C12.1819477,18.3139472 12.0882914,18.1076965 11.997729,17.9082426 C11.7980884,17.4685534 11.5916978,17.0138642 11.692104,16.7031286 C11.7039634,16.6664723 11.7156822,16.6306596 11.7272134,16.5956439 C11.8876196,16.1067358 12.0390258,15.6450621 11.7585259,14.9728721 C11.6731197,14.7681682 11.5371353,14.6185895 11.417276,14.486589 C11.3396979,14.4012293 11.2518073,14.3044789 11.2382604,14.2487912 C11.2217604,14.1808691 11.222276,14.1024469 11.2228854,14.0116497 C11.2244792,13.7667269 11.2269167,13.3966474 10.8589949,13.0521148 C10.3402763,12.5665817 9.73540143,12.7161604 9.33508903,12.8151608 C9.21213594,12.8455359 9.09597972,12.8743173 8.99304225,12.8864111 C8.33454242,12.9635676 7.74663633,12.7151292 7.37960517,12.2043772 C6.99565215,11.6701409 6.93991779,10.9512163 7.23419896,10.3282452 C7.37665205,10.0267909 7.59185512,9.78458684 7.84104255,9.50427328 C7.89546441,9.44300743 7.9504019,9.38122594 8.00533938,9.31794445 C8.09674561,9.21256906 8.19733933,9.06988102 8.30369868,8.91880232 C8.43068302,8.73856726 8.66712046,8.40294099 8.76977668,8.339097 Z" id="Shape"></path>
                <path d="M19.9833223,16.2264857 L19.7435985,15.3565539 C19.691229,15.1665831 19.523806,15.0265995 19.3211544,15.003285 C19.1182537,14.9804501 18.9214819,15.0781219 18.8240676,15.2508706 C18.7694558,15.3477749 18.7202753,15.4504359 18.6727392,15.5496908 C18.5927648,15.7166828 18.5100499,15.8893835 18.4239964,15.9847047 C18.375663,16.0382419 18.251491,16.0959528 18.1315045,16.1516967 C17.8446432,16.2849641 17.4517473,16.4674991 17.3016645,16.9281303 C17.2084857,17.213854 17.2432658,17.4399001 17.2686782,17.6049252 C17.2906525,17.7480269 17.295735,17.7976304 17.2559222,17.8876267 L17.2509393,17.8988043 C17.092336,18.2571103 16.797253,18.9241667 17.2110269,19.4912487 C17.5062594,19.895944 17.8166895,19.9999962 18.0579082,19.9999962 C18.1049959,20.0001401 18.1495423,19.9961584 18.1907503,19.9896822 C18.6989987,19.9097121 19.0810818,19.4007248 19.3933058,18.3877392 L19.9793859,16.4860645 C20.005446,16.4014891 20.0068412,16.3116847 19.9833223,16.2264857 Z M18.438048,18.1148241 C18.2788965,18.6312951 18.1380818,18.8724045 18.0568119,18.9792871 C18.0474442,18.9677737 18.0372793,18.9547252 18.0264167,18.9398058 C17.9311949,18.8092248 18.0735044,18.4876177 18.1676798,18.2747641 L18.1727125,18.2635386 C18.3245891,17.9203439 18.283979,17.6567834 18.2544309,17.464318 C18.2354463,17.3410769 18.2286696,17.2881154 18.2524377,17.2153412 C18.2719704,17.1555196 18.388718,17.097473 18.5646118,17.015728 C18.6425931,16.9794608 18.7284472,16.9395957 18.8150985,16.8913355 L18.438048,18.1148241 Z" id="Shape"></path>
                <path d="M12.6763647,5.03956951 L12.6437225,5.02790817 C12.391918,4.93777979 12.1157891,5.07312059 12.0273891,5.33060905 C11.9389892,5.58814693 12.0716375,5.87004516 12.3236353,5.96037119 L12.3562292,5.97203253 C12.4091821,5.99100693 12.4631506,6 12.5162969,6 C12.7159222,6 12.9027807,5.87266402 12.9726109,5.66933164 C13.0610108,5.41179377 12.9283625,5.12984612 12.6763647,5.03956951 Z" id="Shape"></path>
            </g>
        </g>
    </g>
</svg>